<?xml version="1.0" encoding="utf-8" standalone="no"?>
<!DOCTYPE svg PUBLIC "-//W3C//DTD SVG 1.1//EN"
  "http://www.w3.org/Graphics/SVG/1.1/DTD/svg11.dtd">
<svg xmlns:xlink="http://www.w3.org/1999/xlink" width="317.220465pt" height="208.027352pt" viewBox="0 0 317.220465 208.027352" xmlns="http://www.w3.org/2000/svg" version="1.1">
 <metadata>
  <rdf:RDF xmlns:dc="http://purl.org/dc/elements/1.1/" xmlns:cc="http://creativecommons.org/ns#" xmlns:rdf="http://www.w3.org/1999/02/22-rdf-syntax-ns#">
   <cc:Work>
    <dc:type rdf:resource="http://purl.org/dc/dcmitype/StillImage"/>
    <dc:date>2025-08-04T12:39:15.892456</dc:date>
    <dc:format>image/svg+xml</dc:format>
    <dc:creator>
     <cc:Agent>
      <dc:title>Matplotlib v3.10.3, https://matplotlib.org/</dc:title>
     </cc:Agent>
    </dc:creator>
   </cc:Work>
  </rdf:RDF>
 </metadata>
 <defs>
  <style type="text/css">*{stroke-linejoin: round; stroke-linecap: butt}</style>
 </defs>
 <g id="figure_1">
  <g id="patch_1">
   <path d="M 0 208.027352 
L 317.220465 208.027352 
L 317.220465 0 
L 0 0 
L 0 208.027352 
z
" style="fill: none"/>
  </g>
  <g id="axes_1">
   <g id="patch_2">
    <path d="M 43.644375 170.767352 
L 310.020465 170.767352 
L 310.020465 7.2 
L 43.644375 7.2 
L 43.644375 170.767352 
z
" style="fill: none"/>
   </g>
   <g id="matplotlib.axis_1">
    <g id="xtick_1">
     <g id="line2d_1">
      <path d="M 55.752379 170.767352 
L 55.752379 7.2 
" clip-path="url(#pe1e6356646)" style="fill: none; stroke-dasharray: 1.85,0.8; stroke-dashoffset: 0; stroke: #838383; stroke-opacity: 0.2; stroke-width: 0.5"/>
     </g>
     <g id="line2d_2"/>
     <g id="text_1">
      <!-- 0 -->
      <g style="fill: #838383" transform="translate(52.152379 183.147352) scale(0.12 -0.12)">
       <defs>
        <path id="IBMPlexSans-Regular-30" d="M 1920 -77 
Q 1120 -77 752 531 
Q 384 1139 384 2234 
Q 384 3328 752 3936 
Q 1120 4544 1920 4544 
Q 2720 4544 3088 3936 
Q 3456 3328 3456 2234 
Q 3456 1139 3088 531 
Q 2720 -77 1920 -77 
z
M 1920 390 
Q 2182 390 2368 499 
Q 2554 608 2669 806 
Q 2784 1005 2838 1273 
Q 2893 1542 2893 1869 
L 2893 2598 
Q 2893 2925 2838 3193 
Q 2784 3462 2669 3660 
Q 2554 3859 2368 3968 
Q 2182 4077 1920 4077 
Q 1658 4077 1472 3968 
Q 1286 3859 1171 3660 
Q 1056 3462 1001 3193 
Q 947 2925 947 2598 
L 947 1869 
Q 947 1542 1001 1273 
Q 1056 1005 1171 806 
Q 1286 608 1472 499 
Q 1658 390 1920 390 
z
" transform="scale(0.015625)"/>
       </defs>
       <use xlink:href="#IBMPlexSans-Regular-30"/>
      </g>
     </g>
    </g>
    <g id="xtick_2">
     <g id="line2d_3">
      <path d="M 104.281454 170.767352 
L 104.281454 7.2 
" clip-path="url(#pe1e6356646)" style="fill: none; stroke-dasharray: 1.85,0.8; stroke-dashoffset: 0; stroke: #838383; stroke-opacity: 0.2; stroke-width: 0.5"/>
     </g>
     <g id="line2d_4"/>
     <g id="text_2">
      <!-- 100 -->
      <g style="fill: #838383" transform="translate(93.481454 183.147352) scale(0.12 -0.12)">
       <defs>
        <path id="IBMPlexSans-Regular-31" d="M 563 0 
L 563 474 
L 1811 474 
L 1811 4070 
L 1766 4070 
L 640 3021 
L 326 3360 
L 1510 4467 
L 2349 4467 
L 2349 474 
L 3501 474 
L 3501 0 
L 563 0 
z
" transform="scale(0.015625)"/>
       </defs>
       <use xlink:href="#IBMPlexSans-Regular-31"/>
       <use xlink:href="#IBMPlexSans-Regular-30" transform="translate(59.999985 0)"/>
       <use xlink:href="#IBMPlexSans-Regular-30" transform="translate(119.999969 0)"/>
      </g>
     </g>
    </g>
    <g id="xtick_3">
     <g id="line2d_5">
      <path d="M 152.810528 170.767352 
L 152.810528 7.2 
" clip-path="url(#pe1e6356646)" style="fill: none; stroke-dasharray: 1.85,0.8; stroke-dashoffset: 0; stroke: #838383; stroke-opacity: 0.2; stroke-width: 0.5"/>
     </g>
     <g id="line2d_6"/>
     <g id="text_3">
      <!-- 200 -->
      <g style="fill: #838383" transform="translate(142.010528 183.147352) scale(0.12 -0.12)">
       <defs>
        <path id="IBMPlexSans-Regular-32" d="M 3411 0 
L 480 0 
L 480 550 
L 1939 1894 
Q 2253 2182 2464 2505 
Q 2675 2829 2675 3155 
L 2675 3232 
Q 2675 3603 2470 3833 
Q 2266 4064 1850 4064 
Q 1645 4064 1491 4006 
Q 1338 3949 1226 3846 
Q 1114 3744 1040 3606 
Q 966 3469 922 3309 
L 442 3494 
Q 506 3693 618 3881 
Q 730 4070 899 4217 
Q 1069 4365 1309 4454 
Q 1549 4544 1875 4544 
Q 2202 4544 2458 4448 
Q 2714 4352 2886 4179 
Q 3059 4006 3152 3769 
Q 3245 3533 3245 3245 
Q 3245 2982 3171 2758 
Q 3098 2534 2970 2332 
Q 2842 2131 2659 1939 
Q 2477 1747 2266 1555 
L 1062 474 
L 3411 474 
L 3411 0 
z
" transform="scale(0.015625)"/>
       </defs>
       <use xlink:href="#IBMPlexSans-Regular-32"/>
       <use xlink:href="#IBMPlexSans-Regular-30" transform="translate(59.999985 0)"/>
       <use xlink:href="#IBMPlexSans-Regular-30" transform="translate(119.999969 0)"/>
      </g>
     </g>
    </g>
    <g id="xtick_4">
     <g id="line2d_7">
      <path d="M 201.339602 170.767352 
L 201.339602 7.2 
" clip-path="url(#pe1e6356646)" style="fill: none; stroke-dasharray: 1.85,0.8; stroke-dashoffset: 0; stroke: #838383; stroke-opacity: 0.2; stroke-width: 0.5"/>
     </g>
     <g id="line2d_8"/>
     <g id="text_4">
      <!-- 300 -->
      <g style="fill: #838383" transform="translate(190.539602 183.147352) scale(0.12 -0.12)">
       <defs>
        <path id="IBMPlexSans-Regular-33" d="M 1670 2573 
Q 2125 2573 2352 2781 
Q 2579 2989 2579 3315 
L 2579 3360 
Q 2579 3712 2358 3888 
Q 2138 4064 1779 4064 
Q 1434 4064 1216 3913 
Q 998 3763 858 3507 
L 461 3814 
Q 544 3949 662 4080 
Q 781 4211 941 4313 
Q 1101 4416 1312 4480 
Q 1523 4544 1792 4544 
Q 2074 4544 2323 4470 
Q 2573 4397 2755 4253 
Q 2938 4109 3043 3897 
Q 3149 3686 3149 3418 
Q 3149 3200 3081 3027 
Q 3014 2854 2899 2726 
Q 2784 2598 2627 2508 
Q 2470 2419 2291 2374 
L 2291 2349 
Q 2470 2310 2640 2224 
Q 2810 2138 2941 2000 
Q 3072 1862 3152 1667 
Q 3232 1472 3232 1222 
Q 3232 934 3123 694 
Q 3014 454 2816 284 
Q 2618 115 2336 19 
Q 2054 -77 1715 -77 
Q 1427 -77 1203 -13 
Q 979 51 806 160 
Q 634 269 502 403 
Q 371 538 269 685 
L 672 992 
Q 755 858 854 749 
Q 954 640 1075 563 
Q 1197 486 1350 444 
Q 1504 403 1709 403 
Q 2182 403 2425 617 
Q 2669 832 2669 1229 
L 2669 1280 
Q 2669 1677 2425 1891 
Q 2182 2106 1709 2106 
L 1184 2106 
L 1184 2573 
L 1670 2573 
z
" transform="scale(0.015625)"/>
       </defs>
       <use xlink:href="#IBMPlexSans-Regular-33"/>
       <use xlink:href="#IBMPlexSans-Regular-30" transform="translate(59.999985 0)"/>
       <use xlink:href="#IBMPlexSans-Regular-30" transform="translate(119.999969 0)"/>
      </g>
     </g>
    </g>
    <g id="xtick_5">
     <g id="line2d_9">
      <path d="M 249.868677 170.767352 
L 249.868677 7.2 
" clip-path="url(#pe1e6356646)" style="fill: none; stroke-dasharray: 1.85,0.8; stroke-dashoffset: 0; stroke: #838383; stroke-opacity: 0.2; stroke-width: 0.5"/>
     </g>
     <g id="line2d_10"/>
     <g id="text_5">
      <!-- 400 -->
      <g style="fill: #838383" transform="translate(239.068677 183.147352) scale(0.12 -0.12)">
       <defs>
        <path id="IBMPlexSans-Regular-34" d="M 2400 0 
L 2400 877 
L 243 877 
L 243 1350 
L 2112 4467 
L 2912 4467 
L 2912 1325 
L 3558 1325 
L 3558 877 
L 2912 877 
L 2912 0 
L 2400 0 
z
M 749 1325 
L 2400 1325 
L 2400 4051 
L 2368 4051 
L 749 1325 
z
" transform="scale(0.015625)"/>
       </defs>
       <use xlink:href="#IBMPlexSans-Regular-34"/>
       <use xlink:href="#IBMPlexSans-Regular-30" transform="translate(59.999985 0)"/>
       <use xlink:href="#IBMPlexSans-Regular-30" transform="translate(119.999969 0)"/>
      </g>
     </g>
    </g>
    <g id="xtick_6">
     <g id="line2d_11">
      <path d="M 298.397751 170.767352 
L 298.397751 7.2 
" clip-path="url(#pe1e6356646)" style="fill: none; stroke-dasharray: 1.85,0.8; stroke-dashoffset: 0; stroke: #838383; stroke-opacity: 0.2; stroke-width: 0.5"/>
     </g>
     <g id="line2d_12"/>
     <g id="text_6">
      <!-- 500 -->
      <g style="fill: #838383" transform="translate(287.597751 183.147352) scale(0.12 -0.12)">
       <defs>
        <path id="IBMPlexSans-Regular-35" d="M 3187 3994 
L 1229 3994 
L 1101 2291 
L 1146 2291 
Q 1306 2515 1507 2649 
Q 1709 2784 2061 2784 
Q 2349 2784 2592 2688 
Q 2835 2592 3014 2416 
Q 3194 2240 3293 1984 
Q 3392 1728 3392 1402 
Q 3392 1075 3289 803 
Q 3187 531 2992 336 
Q 2797 141 2518 32 
Q 2240 -77 1888 -77 
Q 1606 -77 1392 -13 
Q 1178 51 1011 160 
Q 845 269 720 403 
Q 595 538 493 685 
L 896 992 
Q 979 858 1072 749 
Q 1165 640 1277 563 
Q 1389 486 1536 444 
Q 1683 403 1888 403 
Q 2349 403 2585 646 
Q 2822 890 2822 1331 
L 2822 1395 
Q 2822 1837 2585 2080 
Q 2349 2323 1888 2323 
Q 1581 2323 1405 2211 
Q 1229 2099 1088 1946 
L 634 2010 
L 794 4467 
L 3187 4467 
L 3187 3994 
z
" transform="scale(0.015625)"/>
       </defs>
       <use xlink:href="#IBMPlexSans-Regular-35"/>
       <use xlink:href="#IBMPlexSans-Regular-30" transform="translate(59.999985 0)"/>
       <use xlink:href="#IBMPlexSans-Regular-30" transform="translate(119.999969 0)"/>
      </g>
     </g>
    </g>
    <g id="text_7">
     <!-- draw -->
     <g style="fill: #bdbdbd" transform="translate(163.338045 198.427352) scale(0.12 -0.12)">
      <defs>
       <path id="IBMPlexSans-Regular-64" d="M 2656 538 
L 2630 538 
Q 2330 -77 1664 -77 
Q 1357 -77 1107 44 
Q 858 166 682 390 
Q 506 614 413 934 
Q 320 1254 320 1651 
Q 320 2048 413 2368 
Q 506 2688 682 2912 
Q 858 3136 1107 3257 
Q 1357 3379 1664 3379 
Q 2010 3379 2256 3228 
Q 2502 3078 2630 2765 
L 2656 2765 
L 2656 4736 
L 3168 4736 
L 3168 0 
L 2656 0 
L 2656 538 
z
M 1805 384 
Q 1978 384 2134 429 
Q 2291 474 2406 560 
Q 2522 646 2589 771 
Q 2656 896 2656 1056 
L 2656 2285 
Q 2656 2419 2589 2537 
Q 2522 2656 2406 2739 
Q 2291 2822 2134 2870 
Q 1978 2918 1805 2918 
Q 1370 2918 1120 2646 
Q 870 2374 870 1933 
L 870 1370 
Q 870 928 1120 656 
Q 1370 384 1805 384 
z
" transform="scale(0.015625)"/>
       <path id="IBMPlexSans-Regular-72" d="M 544 0 
L 544 3302 
L 1056 3302 
L 1056 2694 
L 1088 2694 
Q 1178 2931 1408 3116 
Q 1638 3302 2042 3302 
L 2240 3302 
L 2240 2790 
L 1939 2790 
Q 1523 2790 1289 2633 
Q 1056 2477 1056 2240 
L 1056 0 
L 544 0 
z
" transform="scale(0.015625)"/>
       <path id="IBMPlexSans-Regular-61" d="M 2944 0 
Q 2656 0 2531 153 
Q 2406 307 2374 538 
L 2342 538 
Q 2234 230 1984 76 
Q 1734 -77 1389 -77 
Q 864 -77 573 192 
Q 282 461 282 922 
Q 282 1389 624 1638 
Q 966 1888 1690 1888 
L 2342 1888 
L 2342 2214 
Q 2342 2566 2150 2752 
Q 1958 2938 1562 2938 
Q 1261 2938 1059 2803 
Q 858 2669 723 2445 
L 416 2733 
Q 550 3002 844 3190 
Q 1139 3379 1587 3379 
Q 2189 3379 2521 3084 
Q 2854 2790 2854 2266 
L 2854 448 
L 3232 448 
L 3232 0 
L 2944 0 
z
M 1472 358 
Q 1664 358 1824 403 
Q 1984 448 2099 531 
Q 2214 614 2278 723 
Q 2342 832 2342 960 
L 2342 1504 
L 1664 1504 
Q 1222 1504 1020 1376 
Q 819 1248 819 1005 
L 819 870 
Q 819 627 995 492 
Q 1171 358 1472 358 
z
" transform="scale(0.015625)"/>
       <path id="IBMPlexSans-Regular-77" d="M 198 3302 
L 698 3302 
L 1050 1875 
L 1402 429 
L 1414 429 
L 1818 1875 
L 2234 3302 
L 2688 3302 
L 3117 1875 
L 3526 429 
L 3539 429 
L 3878 1875 
L 4237 3302 
L 4717 3302 
L 3840 0 
L 3206 0 
L 2746 1587 
L 2458 2592 
L 2445 2592 
L 2163 1587 
L 1702 0 
L 1082 0 
L 198 3302 
z
" transform="scale(0.015625)"/>
      </defs>
      <use xlink:href="#IBMPlexSans-Regular-64"/>
      <use xlink:href="#IBMPlexSans-Regular-72" transform="translate(57.999985 0)"/>
      <use xlink:href="#IBMPlexSans-Regular-61" transform="translate(94.699982 0)"/>
      <use xlink:href="#IBMPlexSans-Regular-77" transform="translate(148.099976 0)"/>
     </g>
    </g>
   </g>
   <g id="matplotlib.axis_2">
    <g id="ytick_1">
     <g id="line2d_13">
      <path d="M 43.644375 130.810981 
L 310.020465 130.810981 
" clip-path="url(#pe1e6356646)" style="fill: none; stroke-dasharray: 1.85,0.8; stroke-dashoffset: 0; stroke: #838383; stroke-opacity: 0.2; stroke-width: 0.5"/>
     </g>
     <g id="line2d_14"/>
     <g id="text_8">
      <!-- 0.2 -->
      <g style="fill: #838383" transform="translate(22.48 135.250981) scale(0.12 -0.12)">
       <defs>
        <path id="IBMPlexSans-Regular-2e" d="M 870 -77 
Q 666 -77 573 25 
Q 480 128 480 294 
L 480 378 
Q 480 544 573 646 
Q 666 749 870 749 
Q 1075 749 1168 646 
Q 1261 544 1261 378 
L 1261 294 
Q 1261 128 1168 25 
Q 1075 -77 870 -77 
z
" transform="scale(0.015625)"/>
       </defs>
       <use xlink:href="#IBMPlexSans-Regular-30"/>
       <use xlink:href="#IBMPlexSans-Regular-2e" transform="translate(59.999985 0)"/>
       <use xlink:href="#IBMPlexSans-Regular-32" transform="translate(87.199982 0)"/>
      </g>
     </g>
    </g>
    <g id="ytick_2">
     <g id="line2d_15">
      <path d="M 43.644375 83.866782 
L 310.020465 83.866782 
" clip-path="url(#pe1e6356646)" style="fill: none; stroke-dasharray: 1.85,0.8; stroke-dashoffset: 0; stroke: #838383; stroke-opacity: 0.2; stroke-width: 0.5"/>
     </g>
     <g id="line2d_16"/>
     <g id="text_9">
      <!-- 0.3 -->
      <g style="fill: #838383" transform="translate(22.48 88.306782) scale(0.12 -0.12)">
       <use xlink:href="#IBMPlexSans-Regular-30"/>
       <use xlink:href="#IBMPlexSans-Regular-2e" transform="translate(59.999985 0)"/>
       <use xlink:href="#IBMPlexSans-Regular-33" transform="translate(87.199982 0)"/>
      </g>
     </g>
    </g>
    <g id="ytick_3">
     <g id="line2d_17">
      <path d="M 43.644375 36.922583 
L 310.020465 36.922583 
" clip-path="url(#pe1e6356646)" style="fill: none; stroke-dasharray: 1.85,0.8; stroke-dashoffset: 0; stroke: #838383; stroke-opacity: 0.2; stroke-width: 0.5"/>
     </g>
     <g id="line2d_18"/>
     <g id="text_10">
      <!-- 0.4 -->
      <g style="fill: #838383" transform="translate(22.48 41.362583) scale(0.12 -0.12)">
       <use xlink:href="#IBMPlexSans-Regular-30"/>
       <use xlink:href="#IBMPlexSans-Regular-2e" transform="translate(59.999985 0)"/>
       <use xlink:href="#IBMPlexSans-Regular-34" transform="translate(87.199982 0)"/>
      </g>
     </g>
    </g>
    <g id="text_11">
     <!-- train_dtf -->
     <g style="fill: #bdbdbd" transform="translate(16.08 112.323676) rotate(-90) scale(0.12 -0.12)">
      <defs>
       <path id="IBMPlexSans-Regular-74" d="M 1274 0 
Q 1005 0 867 150 
Q 730 301 730 544 
L 730 2854 
L 186 2854 
L 186 3302 
L 493 3302 
Q 659 3302 720 3369 
Q 781 3437 781 3603 
L 781 4218 
L 1242 4218 
L 1242 3302 
L 1965 3302 
L 1965 2854 
L 1242 2854 
L 1242 448 
L 1914 448 
L 1914 0 
L 1274 0 
z
" transform="scale(0.015625)"/>
       <path id="IBMPlexSans-Regular-69" d="M 800 4077 
Q 634 4077 560 4157 
Q 486 4237 486 4365 
L 486 4448 
Q 486 4576 560 4656 
Q 634 4736 800 4736 
Q 966 4736 1040 4656 
Q 1114 4576 1114 4448 
L 1114 4365 
Q 1114 4237 1040 4157 
Q 966 4077 800 4077 
z
M 544 3302 
L 1056 3302 
L 1056 0 
L 544 0 
L 544 3302 
z
" transform="scale(0.015625)"/>
       <path id="IBMPlexSans-Regular-6e" d="M 544 0 
L 544 3302 
L 1056 3302 
L 1056 2765 
L 1082 2765 
Q 1203 3046 1424 3212 
Q 1645 3379 2016 3379 
Q 2528 3379 2825 3049 
Q 3123 2720 3123 2118 
L 3123 0 
L 2611 0 
L 2611 2029 
Q 2611 2918 1862 2918 
Q 1709 2918 1565 2880 
Q 1421 2842 1305 2765 
Q 1190 2688 1123 2569 
Q 1056 2451 1056 2291 
L 1056 0 
L 544 0 
z
" transform="scale(0.015625)"/>
       <path id="IBMPlexSans-Regular-5f" d="M 192 -1056 
L 192 -608 
L 3424 -608 
L 3424 -1056 
L 192 -1056 
z
" transform="scale(0.015625)"/>
       <path id="IBMPlexSans-Regular-66" d="M 723 2854 
L 186 2854 
L 186 3302 
L 723 3302 
L 723 3968 
Q 723 4314 902 4525 
Q 1082 4736 1446 4736 
L 1946 4736 
L 1946 4288 
L 1235 4288 
L 1235 3302 
L 1946 3302 
L 1946 2854 
L 1235 2854 
L 1235 0 
L 723 0 
L 723 2854 
z
" transform="scale(0.015625)"/>
      </defs>
      <use xlink:href="#IBMPlexSans-Regular-74"/>
      <use xlink:href="#IBMPlexSans-Regular-72" transform="translate(35.099991 0)"/>
      <use xlink:href="#IBMPlexSans-Regular-61" transform="translate(71.799988 0)"/>
      <use xlink:href="#IBMPlexSans-Regular-69" transform="translate(125.199982 0)"/>
      <use xlink:href="#IBMPlexSans-Regular-6e" transform="translate(150.199966 0)"/>
      <use xlink:href="#IBMPlexSans-Regular-5f" transform="translate(206.999954 0)"/>
      <use xlink:href="#IBMPlexSans-Regular-64" transform="translate(263.499939 0)"/>
      <use xlink:href="#IBMPlexSans-Regular-74" transform="translate(321.499924 0)"/>
      <use xlink:href="#IBMPlexSans-Regular-66" transform="translate(356.599915 0)"/>
     </g>
    </g>
   </g>
   <g id="line2d_19">
    <path d="M 55.752379 144.312286 
L 56.722961 154.105455 
L 57.208251 156.643982 
L 57.693542 160.70456 
L 58.178833 162.481124 
L 59.149414 157.602643 
L 59.634705 159.894967 
L 60.119996 148.92939 
L 60.605287 157.746151 
L 61.090577 150.007502 
L 61.575868 161.284198 
L 62.061159 158.568594 
L 62.546449 160.013382 
L 63.03174 149.244245 
L 63.517031 118.023789 
L 64.002322 149.989468 
L 64.972903 147.587138 
L 65.458194 149.165458 
L 65.943485 150.252859 
L 66.428775 153.13786 
L 66.914066 150.293956 
L 67.399357 154.32144 
L 67.884648 147.124165 
L 68.369938 153.361603 
L 68.855229 153.921802 
L 69.34052 155.686573 
L 69.825811 152.940434 
L 70.311101 154.732745 
L 70.796392 152.138081 
L 71.281683 156.708254 
L 71.766974 153.459991 
L 72.252264 157.256331 
L 72.737555 154.988554 
L 73.708137 156.641128 
L 74.193427 156.251669 
L 74.678718 154.447857 
L 75.164009 145.136827 
L 75.6493 152.704758 
L 76.13459 152.36721 
L 76.619881 149.20994 
L 77.105172 151.385996 
L 77.590463 147.782836 
L 78.075753 153.002992 
L 78.561044 155.761569 
L 79.046335 155.351788 
L 79.531626 159.308479 
L 80.016916 156.146355 
L 80.502207 147.092932 
L 80.987498 151.662496 
L 81.472789 159.172296 
L 81.958079 159.474231 
L 82.44337 153.386387 
L 82.928661 160.398581 
L 83.413952 160.478698 
L 83.899242 158.067721 
L 84.384533 160.924063 
L 84.869824 158.914221 
L 85.355114 160.257236 
L 86.325696 157.456198 
L 86.810987 159.776551 
L 87.296277 158.069127 
L 87.781568 157.503941 
L 88.266859 159.900227 
L 88.75215 157.940506 
L 89.23744 160.857419 
L 89.722731 160.668003 
L 90.693313 159.52573 
L 91.178603 159.551648 
L 91.663894 158.814798 
L 92.149185 159.401761 
L 92.634476 148.260394 
L 93.119766 156.878588 
L 93.605057 146.578363 
L 94.090348 154.589469 
L 95.060929 150.723324 
L 95.54622 150.425698 
L 96.031511 148.693357 
L 96.516802 149.956723 
L 97.002092 155.195654 
L 97.487383 151.86917 
L 97.972674 158.353553 
L 98.457965 121.084279 
L 98.943255 159.927222 
L 99.428546 158.059271 
L 99.913837 158.386277 
L 100.399128 160.924455 
L 100.884418 160.234487 
L 101.369709 158.899279 
L 101.855 157.130752 
L 102.340291 157.299519 
L 102.825581 160.630991 
L 103.310872 158.961558 
L 103.796163 155.233541 
L 104.281454 158.588355 
L 104.766744 147.489785 
L 105.252035 158.900979 
L 105.737326 160.678404 
L 106.707907 159.072523 
L 107.193198 161.035357 
L 107.678489 158.369594 
L 108.163779 158.81265 
L 108.64907 158.88424 
L 109.134361 156.122334 
L 109.619652 159.738602 
L 110.104942 159.719981 
L 110.590233 161.127407 
L 111.075524 159.680157 
L 111.560815 159.170834 
L 112.046105 160.908198 
L 112.531396 159.077098 
L 113.016687 159.380264 
L 113.501978 157.046488 
L 113.987268 161.228551 
L 114.472559 158.820121 
L 114.95785 159.891623 
L 115.443141 155.253673 
L 115.928431 159.798614 
L 116.413722 100.931726 
L 116.899013 160.757451 
L 117.384304 162.234857 
L 117.869594 159.395031 
L 118.354885 157.523387 
L 118.840176 158.029695 
L 119.325467 158.010388 
L 119.810757 149.924293 
L 120.296048 157.037883 
L 120.781339 158.876041 
L 121.26663 158.614567 
L 121.75192 155.32096 
L 122.237211 160.891983 
L 122.722502 158.299333 
L 123.207793 158.392867 
L 123.693083 160.371782 
L 124.178374 160.460216 
L 124.663665 160.280005 
L 125.148956 154.386943 
L 125.634246 159.985863 
L 126.119537 158.883946 
L 126.604828 163.332472 
L 127.090119 159.168547 
L 127.575409 140.003398 
L 128.0607 160.219622 
L 128.545991 156.504812 
L 129.031281 151.469092 
L 129.516572 152.637687 
L 130.001863 150.667341 
L 130.487154 158.3229 
L 130.972444 152.66939 
L 131.457735 156.479559 
L 131.943026 152.008187 
L 132.428317 134.663771 
L 132.913607 158.800108 
L 133.398898 146.0804 
L 133.884189 152.920742 
L 134.36948 144.183154 
L 134.85477 152.051312 
L 135.340061 152.630916 
L 135.825352 156.975192 
L 136.310643 155.987368 
L 136.795933 152.354968 
L 137.281224 155.769683 
L 137.766515 151.137448 
L 138.251806 152.29476 
L 138.737096 156.303874 
L 139.222387 153.351803 
L 139.707678 155.855983 
L 140.192969 154.844417 
L 140.678259 158.487204 
L 141.16355 160.107174 
L 141.648841 152.502547 
L 142.134132 149.455851 
L 142.619422 154.941749 
L 143.104713 154.667004 
L 143.590004 153.639845 
L 144.560585 158.114785 
L 145.045876 156.235782 
L 145.531167 149.632613 
L 146.016458 153.840825 
L 146.501748 155.522933 
L 146.987039 155.87699 
L 147.47233 153.884189 
L 147.957621 152.9803 
L 148.442911 157.375396 
L 148.928202 159.957266 
L 149.413493 158.367327 
L 149.898784 154.163627 
L 150.384074 153.961843 
L 150.869365 41.033677 
L 151.354656 153.207337 
L 151.839946 160.721516 
L 152.325237 158.513555 
L 152.810528 158.288575 
L 153.295819 149.707392 
L 153.781109 154.46487 
L 154.2664 156.813295 
L 154.751691 159.958945 
L 155.722272 159.029531 
L 156.207563 159.488271 
L 156.692854 155.918248 
L 157.178145 158.255753 
L 157.663435 159.143056 
L 158.634017 153.3333 
L 159.119308 158.122487 
L 159.604598 160.645289 
L 160.089889 159.936469 
L 160.57518 162.347446 
L 161.060471 159.44297 
L 161.545761 157.482249 
L 162.031052 156.336793 
L 162.516343 159.15634 
L 163.001634 138.930449 
L 163.486924 154.586909 
L 163.972215 153.394075 
L 164.457506 153.629184 
L 164.942797 149.436544 
L 165.428087 149.565893 
L 165.913378 158.322593 
L 166.398669 154.376303 
L 166.88396 149.3716 
L 167.36925 154.147706 
L 167.854541 155.759596 
L 168.339832 100.980511 
L 168.825123 153.91934 
L 169.310413 160.460426 
L 169.795704 152.236707 
L 170.280995 156.472403 
L 170.766286 157.243228 
L 171.251576 158.399127 
L 171.736867 157.073482 
L 172.222158 159.844034 
L 172.707449 159.814067 
L 173.192739 157.416528 
L 173.67803 157.343743 
L 174.163321 157.824784 
L 174.648611 157.273287 
L 175.133902 157.672337 
L 175.619193 153.728804 
L 176.104484 155.987976 
L 176.589774 157.350528 
L 177.075065 159.726123 
L 177.560356 149.780332 
L 178.045647 158.501643 
L 178.530937 153.764542 
L 179.016228 160.02023 
L 179.501519 160.647031 
L 180.4721 160.861253 
L 180.957391 145.050583 
L 181.442682 156.433517 
L 181.927973 157.196535 
L 182.413263 162.284286 
L 182.898554 159.964933 
L 183.383845 161.413197 
L 183.869136 159.580027 
L 184.354426 158.320165 
L 184.839717 153.266272 
L 185.325008 154.173036 
L 185.810299 161.428258 
L 186.295589 156.017587 
L 186.78088 159.437632 
L 187.266171 158.979753 
L 187.751462 160.651508 
L 188.236752 156.939635 
L 188.722043 156.199344 
L 189.207334 151.61935 
L 189.692625 159.134431 
L 190.177915 160.488715 
L 190.663206 156.552813 
L 191.148497 156.059782 
L 191.633788 152.789827 
L 192.119078 162.163996 
L 192.604369 124.553613 
L 193.08966 150.852693 
L 193.574951 136.552336 
L 194.060241 158.138275 
L 194.545532 157.731272 
L 195.030823 153.171752 
L 195.516113 157.686299 
L 196.001404 157.58668 
L 196.486695 159.470769 
L 196.971986 159.8098 
L 197.457276 159.19096 
L 197.942567 158.283237 
L 198.427858 156.732318 
L 198.913149 158.415167 
L 199.398439 158.943895 
L 199.88373 156.94235 
L 200.369021 154.034964 
L 200.854312 156.764216 
L 201.824893 152.833659 
L 202.310184 158.750582 
L 202.795475 152.779635 
L 203.280765 156.896013 
L 203.766056 133.626616 
L 204.251347 141.44052 
L 204.736638 156.634734 
L 205.221928 156.921189 
L 205.707219 156.502951 
L 206.19251 145.432439 
L 206.677801 149.368222 
L 207.163091 158.324327 
L 207.648382 153.524914 
L 208.133673 160.016026 
L 208.618964 158.51359 
L 209.104254 158.705966 
L 209.589545 161.977447 
L 210.074836 155.456689 
L 210.560127 155.211366 
L 211.045417 159.743842 
L 211.530708 159.316244 
L 212.50129 160.370922 
L 212.98658 159.385917 
L 213.471871 159.028985 
L 213.957162 153.78522 
L 214.442453 154.67898 
L 214.927743 157.252259 
L 215.413034 159.215233 
L 215.898325 158.982726 
L 216.383616 157.431729 
L 216.868906 158.277131 
L 217.354197 157.479471 
L 217.839488 159.327101 
L 218.324778 159.919065 
L 218.810069 159.543253 
L 219.29536 154.218218 
L 219.780651 154.098215 
L 220.265941 157.243047 
L 220.751232 156.787258 
L 221.236523 116.557155 
L 222.207104 153.255317 
L 222.692395 152.48531 
L 223.177686 156.006737 
L 223.662977 154.110421 
L 224.148267 154.744245 
L 224.633558 139.087401 
L 225.118849 152.090276 
L 225.60414 154.497419 
L 226.08943 149.543886 
L 226.574721 154.607195 
L 227.060012 153.915681 
L 227.545303 154.514242 
L 228.030593 156.627082 
L 228.515884 152.626047 
L 229.001175 151.803702 
L 229.486466 157.946977 
L 229.971756 156.632307 
L 230.457047 157.123575 
L 230.942338 153.109439 
L 231.427629 154.693922 
L 231.912919 150.599214 
L 232.39821 154.124999 
L 232.883501 134.992519 
L 233.368792 151.058661 
L 233.854082 151.120688 
L 234.339373 152.934964 
L 235.309955 149.579331 
L 235.795245 142.484166 
L 236.280536 154.306106 
L 236.765827 159.080428 
L 237.251118 147.179386 
L 237.736408 159.325961 
L 238.221699 129.489133 
L 239.192281 159.964149 
L 239.677571 158.25071 
L 240.162862 153.254359 
L 240.648153 157.289663 
L 241.133443 157.256799 
L 241.618734 155.014275 
L 242.104025 148.850442 
L 242.589316 158.851614 
L 243.074606 159.844048 
L 243.559897 158.464267 
L 244.045188 157.487978 
L 244.530479 157.109081 
L 245.015769 160.862722 
L 245.50106 158.281125 
L 245.986351 161.199759 
L 246.471642 159.543393 
L 246.956932 155.02402 
L 247.442223 155.880005 
L 247.927514 148.399564 
L 248.412805 161.117866 
L 249.383386 159.875583 
L 249.868677 160.41495 
L 250.353968 146.644691 
L 250.839258 159.487312 
L 251.324549 160.046301 
L 251.80984 158.400925 
L 252.295131 155.444496 
L 252.780421 155.178013 
L 253.265712 156.020875 
L 253.751003 159.59194 
L 254.236294 158.280537 
L 254.721584 157.811031 
L 255.206875 157.973503 
L 255.692166 150.901198 
L 256.177457 158.590111 
L 256.662747 160.563158 
L 257.148038 154.474747 
L 257.633329 157.97933 
L 258.11862 160.302054 
L 258.60391 157.612479 
L 259.089201 152.011551 
L 259.574492 156.277957 
L 260.059783 155.31961 
L 260.545073 151.886973 
L 261.030364 158.113358 
L 261.515655 141.89558 
L 262.000945 150.917085 
L 262.486236 154.90196 
L 262.971527 152.789337 
L 263.456818 160.913241 
L 263.942108 157.194402 
L 264.427399 158.078774 
L 264.91269 153.321212 
L 265.397981 152.790862 
L 265.883271 157.585155 
L 266.368562 155.151193 
L 266.853853 14.63488 
L 267.339144 49.05522 
L 267.824434 156.64017 
L 268.309725 149.200413 
L 268.795016 148.604377 
L 269.280307 154.364922 
L 269.765597 142.543297 
L 270.250888 159.928334 
L 270.736179 152.234398 
L 271.22147 153.575377 
L 271.70676 152.884633 
L 272.192051 154.963399 
L 272.677342 156.486918 
L 273.162633 146.566058 
L 273.647923 155.861069 
L 274.133214 154.548491 
L 274.618505 145.914179 
L 275.103796 157.989871 
L 275.589086 157.379482 
L 276.074377 159.261492 
L 277.044959 150.328988 
L 277.530249 159.464487 
L 278.01554 157.923585 
L 278.500831 153.544472 
L 278.986122 159.000095 
L 279.471412 159.933538 
L 279.956703 156.205759 
L 280.441994 161.632253 
L 280.927285 154.620241 
L 281.412575 157.789948 
L 281.897866 154.908025 
L 282.383157 160.430752 
L 282.868448 151.477633 
L 283.353738 158.28081 
L 283.839029 156.118227 
L 284.32432 151.669464 
L 284.80961 158.061796 
L 285.294901 158.566565 
L 285.780192 139.81494 
L 286.265483 159.469985 
L 286.750773 158.512226 
L 287.236064 157.268474 
L 287.721355 153.095022 
L 288.206646 152.417499 
L 288.691936 158.943209 
L 289.177227 140.414921 
L 289.662518 154.709787 
L 290.147809 155.334454 
L 290.633099 156.960383 
L 291.11839 150.70466 
L 291.603681 147.301012 
L 292.088972 147.620428 
L 292.574262 154.467493 
L 293.059553 157.86097 
L 293.544844 157.127702 
L 294.030135 141.731808 
L 294.515425 157.213121 
L 295.000716 155.544332 
L 295.486007 158.282454 
L 295.971298 155.14715 
L 296.456588 155.763702 
L 296.941879 152.356962 
L 297.42717 158.604626 
L 297.912461 151.96597 
L 297.912461 151.96597 
" clip-path="url(#pe1e6356646)" style="fill: none; stroke: #2196f3; stroke-width: 1.5; stroke-linecap: round"/>
   </g>
   <g id="patch_3">
    <path d="M 43.644375 170.767352 
L 43.644375 7.2 
" style="fill: none"/>
   </g>
   <g id="patch_4">
    <path d="M 310.020465 170.767352 
L 310.020465 7.2 
" style="fill: none"/>
   </g>
   <g id="patch_5">
    <path d="M 43.644375 170.767352 
L 310.020465 170.767352 
" style="fill: none"/>
   </g>
   <g id="patch_6">
    <path d="M 43.644375 7.2 
L 310.020465 7.2 
" style="fill: none"/>
   </g>
  </g>
 </g>
 <defs>
  <clipPath id="pe1e6356646">
   <rect x="43.644375" y="7.2" width="266.37609" height="163.567352"/>
  </clipPath>
 </defs>
</svg>
