<?xml version="1.0" encoding="utf-8" standalone="no"?>
<!DOCTYPE svg PUBLIC "-//W3C//DTD SVG 1.1//EN"
  "http://www.w3.org/Graphics/SVG/1.1/DTD/svg11.dtd">
<svg xmlns:xlink="http://www.w3.org/1999/xlink" width="338.820465pt" height="208.027352pt" viewBox="0 0 338.820465 208.027352" xmlns="http://www.w3.org/2000/svg" version="1.1">
 <metadata>
  <rdf:RDF xmlns:dc="http://purl.org/dc/elements/1.1/" xmlns:cc="http://creativecommons.org/ns#" xmlns:rdf="http://www.w3.org/1999/02/22-rdf-syntax-ns#">
   <cc:Work>
    <dc:type rdf:resource="http://purl.org/dc/dcmitype/StillImage"/>
    <dc:date>2025-08-01T17:19:27.471265</dc:date>
    <dc:format>image/svg+xml</dc:format>
    <dc:creator>
     <cc:Agent>
      <dc:title>Matplotlib v3.10.3, https://matplotlib.org/</dc:title>
     </cc:Agent>
    </dc:creator>
   </cc:Work>
  </rdf:RDF>
 </metadata>
 <defs>
  <style type="text/css">*{stroke-linejoin: round; stroke-linecap: butt}</style>
 </defs>
 <g id="figure_1">
  <g id="patch_1">
   <path d="M 0 208.027352 
L 338.820465 208.027352 
L 338.820465 0 
L 0 0 
L 0 208.027352 
z
" style="fill: none"/>
  </g>
  <g id="axes_1">
   <g id="patch_2">
    <path d="M 65.244375 170.767352 
L 331.620465 170.767352 
L 331.620465 7.2 
L 65.244375 7.2 
L 65.244375 170.767352 
z
" style="fill: none"/>
   </g>
   <g id="matplotlib.axis_1">
    <g id="xtick_1">
     <g id="line2d_1">
      <path d="M 77.352379 170.767352 
L 77.352379 7.2 
" clip-path="url(#pf7613b48e7)" style="fill: none; stroke-dasharray: 1.85,0.8; stroke-dashoffset: 0; stroke: #838383; stroke-opacity: 0.2; stroke-width: 0.5"/>
     </g>
     <g id="line2d_2"/>
     <g id="text_1">
      <!-- 0 -->
      <g style="fill: #838383" transform="translate(73.752379 183.147352) scale(0.12 -0.12)">
       <defs>
        <path id="IBMPlexSans-Regular-30" d="M 1920 -77 
Q 1120 -77 752 531 
Q 384 1139 384 2234 
Q 384 3328 752 3936 
Q 1120 4544 1920 4544 
Q 2720 4544 3088 3936 
Q 3456 3328 3456 2234 
Q 3456 1139 3088 531 
Q 2720 -77 1920 -77 
z
M 1920 390 
Q 2182 390 2368 499 
Q 2554 608 2669 806 
Q 2784 1005 2838 1273 
Q 2893 1542 2893 1869 
L 2893 2598 
Q 2893 2925 2838 3193 
Q 2784 3462 2669 3660 
Q 2554 3859 2368 3968 
Q 2182 4077 1920 4077 
Q 1658 4077 1472 3968 
Q 1286 3859 1171 3660 
Q 1056 3462 1001 3193 
Q 947 2925 947 2598 
L 947 1869 
Q 947 1542 1001 1273 
Q 1056 1005 1171 806 
Q 1286 608 1472 499 
Q 1658 390 1920 390 
z
" transform="scale(0.015625)"/>
       </defs>
       <use xlink:href="#IBMPlexSans-Regular-30"/>
      </g>
     </g>
    </g>
    <g id="xtick_2">
     <g id="line2d_3">
      <path d="M 138.196621 170.767352 
L 138.196621 7.2 
" clip-path="url(#pf7613b48e7)" style="fill: none; stroke-dasharray: 1.85,0.8; stroke-dashoffset: 0; stroke: #838383; stroke-opacity: 0.2; stroke-width: 0.5"/>
     </g>
     <g id="line2d_4"/>
     <g id="text_2">
      <!-- 50 -->
      <g style="fill: #838383" transform="translate(130.996621 183.147352) scale(0.12 -0.12)">
       <defs>
        <path id="IBMPlexSans-Regular-35" d="M 3187 3994 
L 1229 3994 
L 1101 2291 
L 1146 2291 
Q 1306 2515 1507 2649 
Q 1709 2784 2061 2784 
Q 2349 2784 2592 2688 
Q 2835 2592 3014 2416 
Q 3194 2240 3293 1984 
Q 3392 1728 3392 1402 
Q 3392 1075 3289 803 
Q 3187 531 2992 336 
Q 2797 141 2518 32 
Q 2240 -77 1888 -77 
Q 1606 -77 1392 -13 
Q 1178 51 1011 160 
Q 845 269 720 403 
Q 595 538 493 685 
L 896 992 
Q 979 858 1072 749 
Q 1165 640 1277 563 
Q 1389 486 1536 444 
Q 1683 403 1888 403 
Q 2349 403 2585 646 
Q 2822 890 2822 1331 
L 2822 1395 
Q 2822 1837 2585 2080 
Q 2349 2323 1888 2323 
Q 1581 2323 1405 2211 
Q 1229 2099 1088 1946 
L 634 2010 
L 794 4467 
L 3187 4467 
L 3187 3994 
z
" transform="scale(0.015625)"/>
       </defs>
       <use xlink:href="#IBMPlexSans-Regular-35"/>
       <use xlink:href="#IBMPlexSans-Regular-30" transform="translate(59.999985 0)"/>
      </g>
     </g>
    </g>
    <g id="xtick_3">
     <g id="line2d_5">
      <path d="M 199.040862 170.767352 
L 199.040862 7.2 
" clip-path="url(#pf7613b48e7)" style="fill: none; stroke-dasharray: 1.85,0.8; stroke-dashoffset: 0; stroke: #838383; stroke-opacity: 0.2; stroke-width: 0.5"/>
     </g>
     <g id="line2d_6"/>
     <g id="text_3">
      <!-- 100 -->
      <g style="fill: #838383" transform="translate(188.240862 183.147352) scale(0.12 -0.12)">
       <defs>
        <path id="IBMPlexSans-Regular-31" d="M 563 0 
L 563 474 
L 1811 474 
L 1811 4070 
L 1766 4070 
L 640 3021 
L 326 3360 
L 1510 4467 
L 2349 4467 
L 2349 474 
L 3501 474 
L 3501 0 
L 563 0 
z
" transform="scale(0.015625)"/>
       </defs>
       <use xlink:href="#IBMPlexSans-Regular-31"/>
       <use xlink:href="#IBMPlexSans-Regular-30" transform="translate(59.999985 0)"/>
       <use xlink:href="#IBMPlexSans-Regular-30" transform="translate(119.999969 0)"/>
      </g>
     </g>
    </g>
    <g id="xtick_4">
     <g id="line2d_7">
      <path d="M 259.885104 170.767352 
L 259.885104 7.2 
" clip-path="url(#pf7613b48e7)" style="fill: none; stroke-dasharray: 1.85,0.8; stroke-dashoffset: 0; stroke: #838383; stroke-opacity: 0.2; stroke-width: 0.5"/>
     </g>
     <g id="line2d_8"/>
     <g id="text_4">
      <!-- 150 -->
      <g style="fill: #838383" transform="translate(249.085104 183.147352) scale(0.12 -0.12)">
       <use xlink:href="#IBMPlexSans-Regular-31"/>
       <use xlink:href="#IBMPlexSans-Regular-35" transform="translate(59.999985 0)"/>
       <use xlink:href="#IBMPlexSans-Regular-30" transform="translate(119.999969 0)"/>
      </g>
     </g>
    </g>
    <g id="xtick_5">
     <g id="line2d_9">
      <path d="M 320.729345 170.767352 
L 320.729345 7.2 
" clip-path="url(#pf7613b48e7)" style="fill: none; stroke-dasharray: 1.85,0.8; stroke-dashoffset: 0; stroke: #838383; stroke-opacity: 0.2; stroke-width: 0.5"/>
     </g>
     <g id="line2d_10"/>
     <g id="text_5">
      <!-- 200 -->
      <g style="fill: #838383" transform="translate(309.929345 183.147352) scale(0.12 -0.12)">
       <defs>
        <path id="IBMPlexSans-Regular-32" d="M 3411 0 
L 480 0 
L 480 550 
L 1939 1894 
Q 2253 2182 2464 2505 
Q 2675 2829 2675 3155 
L 2675 3232 
Q 2675 3603 2470 3833 
Q 2266 4064 1850 4064 
Q 1645 4064 1491 4006 
Q 1338 3949 1226 3846 
Q 1114 3744 1040 3606 
Q 966 3469 922 3309 
L 442 3494 
Q 506 3693 618 3881 
Q 730 4070 899 4217 
Q 1069 4365 1309 4454 
Q 1549 4544 1875 4544 
Q 2202 4544 2458 4448 
Q 2714 4352 2886 4179 
Q 3059 4006 3152 3769 
Q 3245 3533 3245 3245 
Q 3245 2982 3171 2758 
Q 3098 2534 2970 2332 
Q 2842 2131 2659 1939 
Q 2477 1747 2266 1555 
L 1062 474 
L 3411 474 
L 3411 0 
z
" transform="scale(0.015625)"/>
       </defs>
       <use xlink:href="#IBMPlexSans-Regular-32"/>
       <use xlink:href="#IBMPlexSans-Regular-30" transform="translate(59.999985 0)"/>
       <use xlink:href="#IBMPlexSans-Regular-30" transform="translate(119.999969 0)"/>
      </g>
     </g>
    </g>
    <g id="text_6">
     <!-- draw -->
     <g style="fill: #bdbdbd" transform="translate(184.938045 198.427352) scale(0.12 -0.12)">
      <defs>
       <path id="IBMPlexSans-Regular-64" d="M 2656 538 
L 2630 538 
Q 2330 -77 1664 -77 
Q 1357 -77 1107 44 
Q 858 166 682 390 
Q 506 614 413 934 
Q 320 1254 320 1651 
Q 320 2048 413 2368 
Q 506 2688 682 2912 
Q 858 3136 1107 3257 
Q 1357 3379 1664 3379 
Q 2010 3379 2256 3228 
Q 2502 3078 2630 2765 
L 2656 2765 
L 2656 4736 
L 3168 4736 
L 3168 0 
L 2656 0 
L 2656 538 
z
M 1805 384 
Q 1978 384 2134 429 
Q 2291 474 2406 560 
Q 2522 646 2589 771 
Q 2656 896 2656 1056 
L 2656 2285 
Q 2656 2419 2589 2537 
Q 2522 2656 2406 2739 
Q 2291 2822 2134 2870 
Q 1978 2918 1805 2918 
Q 1370 2918 1120 2646 
Q 870 2374 870 1933 
L 870 1370 
Q 870 928 1120 656 
Q 1370 384 1805 384 
z
" transform="scale(0.015625)"/>
       <path id="IBMPlexSans-Regular-72" d="M 544 0 
L 544 3302 
L 1056 3302 
L 1056 2694 
L 1088 2694 
Q 1178 2931 1408 3116 
Q 1638 3302 2042 3302 
L 2240 3302 
L 2240 2790 
L 1939 2790 
Q 1523 2790 1289 2633 
Q 1056 2477 1056 2240 
L 1056 0 
L 544 0 
z
" transform="scale(0.015625)"/>
       <path id="IBMPlexSans-Regular-61" d="M 2944 0 
Q 2656 0 2531 153 
Q 2406 307 2374 538 
L 2342 538 
Q 2234 230 1984 76 
Q 1734 -77 1389 -77 
Q 864 -77 573 192 
Q 282 461 282 922 
Q 282 1389 624 1638 
Q 966 1888 1690 1888 
L 2342 1888 
L 2342 2214 
Q 2342 2566 2150 2752 
Q 1958 2938 1562 2938 
Q 1261 2938 1059 2803 
Q 858 2669 723 2445 
L 416 2733 
Q 550 3002 844 3190 
Q 1139 3379 1587 3379 
Q 2189 3379 2521 3084 
Q 2854 2790 2854 2266 
L 2854 448 
L 3232 448 
L 3232 0 
L 2944 0 
z
M 1472 358 
Q 1664 358 1824 403 
Q 1984 448 2099 531 
Q 2214 614 2278 723 
Q 2342 832 2342 960 
L 2342 1504 
L 1664 1504 
Q 1222 1504 1020 1376 
Q 819 1248 819 1005 
L 819 870 
Q 819 627 995 492 
Q 1171 358 1472 358 
z
" transform="scale(0.015625)"/>
       <path id="IBMPlexSans-Regular-77" d="M 198 3302 
L 698 3302 
L 1050 1875 
L 1402 429 
L 1414 429 
L 1818 1875 
L 2234 3302 
L 2688 3302 
L 3117 1875 
L 3526 429 
L 3539 429 
L 3878 1875 
L 4237 3302 
L 4717 3302 
L 3840 0 
L 3206 0 
L 2746 1587 
L 2458 2592 
L 2445 2592 
L 2163 1587 
L 1702 0 
L 1082 0 
L 198 3302 
z
" transform="scale(0.015625)"/>
      </defs>
      <use xlink:href="#IBMPlexSans-Regular-64"/>
      <use xlink:href="#IBMPlexSans-Regular-72" transform="translate(57.999985 0)"/>
      <use xlink:href="#IBMPlexSans-Regular-61" transform="translate(94.699982 0)"/>
      <use xlink:href="#IBMPlexSans-Regular-77" transform="translate(148.099976 0)"/>
     </g>
    </g>
   </g>
   <g id="matplotlib.axis_2">
    <g id="ytick_1">
     <g id="line2d_11">
      <path d="M 65.244375 168.018158 
L 331.620465 168.018158 
" clip-path="url(#pf7613b48e7)" style="fill: none; stroke-dasharray: 1.85,0.8; stroke-dashoffset: 0; stroke: #838383; stroke-opacity: 0.2; stroke-width: 0.5"/>
     </g>
     <g id="line2d_12"/>
     <g id="text_7">
      <!-- 0.0000 -->
      <g style="fill: #838383" transform="translate(22.48 172.458158) scale(0.12 -0.12)">
       <defs>
        <path id="IBMPlexSans-Regular-2e" d="M 870 -77 
Q 666 -77 573 25 
Q 480 128 480 294 
L 480 378 
Q 480 544 573 646 
Q 666 749 870 749 
Q 1075 749 1168 646 
Q 1261 544 1261 378 
L 1261 294 
Q 1261 128 1168 25 
Q 1075 -77 870 -77 
z
" transform="scale(0.015625)"/>
       </defs>
       <use xlink:href="#IBMPlexSans-Regular-30"/>
       <use xlink:href="#IBMPlexSans-Regular-2e" transform="translate(59.999985 0)"/>
       <use xlink:href="#IBMPlexSans-Regular-30" transform="translate(87.199982 0)"/>
       <use xlink:href="#IBMPlexSans-Regular-30" transform="translate(147.199966 0)"/>
       <use xlink:href="#IBMPlexSans-Regular-30" transform="translate(207.199951 0)"/>
       <use xlink:href="#IBMPlexSans-Regular-30" transform="translate(267.199936 0)"/>
      </g>
     </g>
    </g>
    <g id="ytick_2">
     <g id="line2d_13">
      <path d="M 65.244375 135.72184 
L 331.620465 135.72184 
" clip-path="url(#pf7613b48e7)" style="fill: none; stroke-dasharray: 1.85,0.8; stroke-dashoffset: 0; stroke: #838383; stroke-opacity: 0.2; stroke-width: 0.5"/>
     </g>
     <g id="line2d_14"/>
     <g id="text_8">
      <!-- 0.0005 -->
      <g style="fill: #838383" transform="translate(22.48 140.16184) scale(0.12 -0.12)">
       <use xlink:href="#IBMPlexSans-Regular-30"/>
       <use xlink:href="#IBMPlexSans-Regular-2e" transform="translate(59.999985 0)"/>
       <use xlink:href="#IBMPlexSans-Regular-30" transform="translate(87.199982 0)"/>
       <use xlink:href="#IBMPlexSans-Regular-30" transform="translate(147.199966 0)"/>
       <use xlink:href="#IBMPlexSans-Regular-30" transform="translate(207.199951 0)"/>
       <use xlink:href="#IBMPlexSans-Regular-35" transform="translate(267.199936 0)"/>
      </g>
     </g>
    </g>
    <g id="ytick_3">
     <g id="line2d_15">
      <path d="M 65.244375 103.425522 
L 331.620465 103.425522 
" clip-path="url(#pf7613b48e7)" style="fill: none; stroke-dasharray: 1.85,0.8; stroke-dashoffset: 0; stroke: #838383; stroke-opacity: 0.2; stroke-width: 0.5"/>
     </g>
     <g id="line2d_16"/>
     <g id="text_9">
      <!-- 0.0010 -->
      <g style="fill: #838383" transform="translate(22.48 107.865522) scale(0.12 -0.12)">
       <use xlink:href="#IBMPlexSans-Regular-30"/>
       <use xlink:href="#IBMPlexSans-Regular-2e" transform="translate(59.999985 0)"/>
       <use xlink:href="#IBMPlexSans-Regular-30" transform="translate(87.199982 0)"/>
       <use xlink:href="#IBMPlexSans-Regular-30" transform="translate(147.199966 0)"/>
       <use xlink:href="#IBMPlexSans-Regular-31" transform="translate(207.199951 0)"/>
       <use xlink:href="#IBMPlexSans-Regular-30" transform="translate(267.199936 0)"/>
      </g>
     </g>
    </g>
    <g id="ytick_4">
     <g id="line2d_17">
      <path d="M 65.244375 71.129204 
L 331.620465 71.129204 
" clip-path="url(#pf7613b48e7)" style="fill: none; stroke-dasharray: 1.85,0.8; stroke-dashoffset: 0; stroke: #838383; stroke-opacity: 0.2; stroke-width: 0.5"/>
     </g>
     <g id="line2d_18"/>
     <g id="text_10">
      <!-- 0.0015 -->
      <g style="fill: #838383" transform="translate(22.48 75.569204) scale(0.12 -0.12)">
       <use xlink:href="#IBMPlexSans-Regular-30"/>
       <use xlink:href="#IBMPlexSans-Regular-2e" transform="translate(59.999985 0)"/>
       <use xlink:href="#IBMPlexSans-Regular-30" transform="translate(87.199982 0)"/>
       <use xlink:href="#IBMPlexSans-Regular-30" transform="translate(147.199966 0)"/>
       <use xlink:href="#IBMPlexSans-Regular-31" transform="translate(207.199951 0)"/>
       <use xlink:href="#IBMPlexSans-Regular-35" transform="translate(267.199936 0)"/>
      </g>
     </g>
    </g>
    <g id="ytick_5">
     <g id="line2d_19">
      <path d="M 65.244375 38.832885 
L 331.620465 38.832885 
" clip-path="url(#pf7613b48e7)" style="fill: none; stroke-dasharray: 1.85,0.8; stroke-dashoffset: 0; stroke: #838383; stroke-opacity: 0.2; stroke-width: 0.5"/>
     </g>
     <g id="line2d_20"/>
     <g id="text_11">
      <!-- 0.0020 -->
      <g style="fill: #838383" transform="translate(22.48 43.272885) scale(0.12 -0.12)">
       <use xlink:href="#IBMPlexSans-Regular-30"/>
       <use xlink:href="#IBMPlexSans-Regular-2e" transform="translate(59.999985 0)"/>
       <use xlink:href="#IBMPlexSans-Regular-30" transform="translate(87.199982 0)"/>
       <use xlink:href="#IBMPlexSans-Regular-30" transform="translate(147.199966 0)"/>
       <use xlink:href="#IBMPlexSans-Regular-32" transform="translate(207.199951 0)"/>
       <use xlink:href="#IBMPlexSans-Regular-30" transform="translate(267.199936 0)"/>
      </g>
     </g>
    </g>
    <g id="text_12">
     <!-- train_dtz -->
     <g style="fill: #bdbdbd" transform="translate(16.08 113.163676) rotate(-90) scale(0.12 -0.12)">
      <defs>
       <path id="IBMPlexSans-Regular-74" d="M 1274 0 
Q 1005 0 867 150 
Q 730 301 730 544 
L 730 2854 
L 186 2854 
L 186 3302 
L 493 3302 
Q 659 3302 720 3369 
Q 781 3437 781 3603 
L 781 4218 
L 1242 4218 
L 1242 3302 
L 1965 3302 
L 1965 2854 
L 1242 2854 
L 1242 448 
L 1914 448 
L 1914 0 
L 1274 0 
z
" transform="scale(0.015625)"/>
       <path id="IBMPlexSans-Regular-69" d="M 800 4077 
Q 634 4077 560 4157 
Q 486 4237 486 4365 
L 486 4448 
Q 486 4576 560 4656 
Q 634 4736 800 4736 
Q 966 4736 1040 4656 
Q 1114 4576 1114 4448 
L 1114 4365 
Q 1114 4237 1040 4157 
Q 966 4077 800 4077 
z
M 544 3302 
L 1056 3302 
L 1056 0 
L 544 0 
L 544 3302 
z
" transform="scale(0.015625)"/>
       <path id="IBMPlexSans-Regular-6e" d="M 544 0 
L 544 3302 
L 1056 3302 
L 1056 2765 
L 1082 2765 
Q 1203 3046 1424 3212 
Q 1645 3379 2016 3379 
Q 2528 3379 2825 3049 
Q 3123 2720 3123 2118 
L 3123 0 
L 2611 0 
L 2611 2029 
Q 2611 2918 1862 2918 
Q 1709 2918 1565 2880 
Q 1421 2842 1305 2765 
Q 1190 2688 1123 2569 
Q 1056 2451 1056 2291 
L 1056 0 
L 544 0 
z
" transform="scale(0.015625)"/>
       <path id="IBMPlexSans-Regular-5f" d="M 192 -1056 
L 192 -608 
L 3424 -608 
L 3424 -1056 
L 192 -1056 
z
" transform="scale(0.015625)"/>
       <path id="IBMPlexSans-Regular-7a" d="M 211 0 
L 211 429 
L 2086 2854 
L 269 2854 
L 269 3302 
L 2707 3302 
L 2707 2918 
L 794 448 
L 2758 448 
L 2758 0 
L 211 0 
z
" transform="scale(0.015625)"/>
      </defs>
      <use xlink:href="#IBMPlexSans-Regular-74"/>
      <use xlink:href="#IBMPlexSans-Regular-72" transform="translate(35.099991 0)"/>
      <use xlink:href="#IBMPlexSans-Regular-61" transform="translate(71.799988 0)"/>
      <use xlink:href="#IBMPlexSans-Regular-69" transform="translate(125.199982 0)"/>
      <use xlink:href="#IBMPlexSans-Regular-6e" transform="translate(150.199966 0)"/>
      <use xlink:href="#IBMPlexSans-Regular-5f" transform="translate(206.999954 0)"/>
      <use xlink:href="#IBMPlexSans-Regular-64" transform="translate(263.499939 0)"/>
      <use xlink:href="#IBMPlexSans-Regular-74" transform="translate(321.499924 0)"/>
      <use xlink:href="#IBMPlexSans-Regular-7a" transform="translate(356.599915 0)"/>
     </g>
    </g>
   </g>
   <g id="line2d_21">
    <path d="M 77.352379 106.813921 
L 78.569264 158.4988 
L 79.786149 143.206516 
L 81.003034 92.851187 
L 82.219918 150.712764 
L 83.436803 152.152612 
L 84.653688 107.602453 
L 87.087458 159.193188 
L 88.304343 160.218617 
L 89.521227 162.573597 
L 90.738112 149.598544 
L 91.954997 151.547046 
L 93.171882 58.969618 
L 94.388767 137.603081 
L 95.605652 145.825223 
L 96.822536 160.673461 
L 98.039421 117.999225 
L 99.256306 162.019103 
L 100.473191 103.013739 
L 101.690076 130.516787 
L 102.906961 163.332472 
L 104.123845 126.417777 
L 105.34073 121.554479 
L 106.557615 112.36887 
L 108.991385 134.489226 
L 110.20827 162.49822 
L 111.425154 113.305478 
L 112.642039 105.487107 
L 113.858924 132.979386 
L 115.075809 125.707268 
L 116.292694 151.119122 
L 117.509579 161.935666 
L 118.726463 152.634346 
L 119.943348 160.93448 
L 121.160233 87.866764 
L 122.377118 141.788175 
L 123.594003 148.204355 
L 124.810888 153.910026 
L 126.027772 161.429719 
L 127.244657 130.656681 
L 128.461542 140.049559 
L 129.678427 126.000652 
L 130.895312 162.476624 
L 132.112197 128.514324 
L 133.329081 155.026954 
L 134.545966 122.921687 
L 135.762851 96.872083 
L 136.979736 126.660028 
L 138.196621 145.292295 
L 139.413505 136.575035 
L 140.63039 111.521113 
L 141.847275 132.298414 
L 143.06416 124.07901 
L 144.281045 96.893589 
L 145.49793 123.360439 
L 146.714814 161.252077 
L 147.931699 132.513714 
L 149.148584 120.44841 
L 150.365469 145.208888 
L 151.582354 161.674647 
L 152.799239 122.945991 
L 154.016123 130.557152 
L 155.233008 129.173761 
L 156.449893 156.065798 
L 157.666778 78.083679 
L 158.883663 160.904883 
L 160.100548 114.096807 
L 161.317432 146.266591 
L 162.534317 127.405548 
L 163.751202 112.748367 
L 164.968087 162.258617 
L 166.184972 158.307743 
L 167.401857 124.450447 
L 168.618741 161.688092 
L 169.835626 114.826116 
L 171.052511 86.48611 
L 172.269396 141.77467 
L 173.486281 159.166268 
L 174.703166 151.216004 
L 175.92005 145.717542 
L 177.136935 151.622422 
L 178.35382 110.9936 
L 179.570705 124.237793 
L 180.78759 136.203569 
L 182.004475 162.231697 
L 183.221359 83.455632 
L 184.438244 160.030176 
L 185.655129 162.979924 
L 186.872014 134.572603 
L 188.088899 90.159812 
L 189.305784 101.576569 
L 190.522668 126.431282 
L 191.739553 127.139115 
L 192.956438 110.075851 
L 194.173323 137.74842 
L 195.390208 135.406945 
L 196.607093 159.225492 
L 197.823977 14.63488 
L 199.040862 154.475197 
L 200.257747 157.825949 
L 202.691517 160.910267 
L 203.908402 161.593826 
L 205.125286 159.868716 
L 206.342171 147.749571 
L 207.559056 112.597675 
L 208.775941 120.351467 
L 209.992826 161.871058 
L 211.209711 143.793254 
L 213.64348 156.103516 
L 214.860365 119.541369 
L 216.07725 160.320913 
L 217.294135 124.049383 
L 218.51102 125.378963 
L 219.727904 143.795931 
L 220.944789 88.273121 
L 222.161674 145.375793 
L 223.378559 132.537927 
L 224.595444 162.231757 
L 225.812329 126.501245 
L 227.029213 151.458225 
L 228.246098 162.522433 
L 229.462983 96.309559 
L 230.679868 156.122345 
L 231.896753 153.985403 
L 233.113638 162.10248 
L 234.330522 156.630999 
L 235.547407 146.767184 
L 236.764292 130.129168 
L 237.981177 149.972568 
L 239.198062 124.34812 
L 240.414947 137.554655 
L 241.631831 162.027194 
L 242.848716 111.276246 
L 244.065601 153.605935 
L 245.282486 130.64859 
L 246.499371 128.156423 
L 247.716256 159.053203 
L 248.93314 161.289735 
L 250.150025 160.557689 
L 251.36691 130.592073 
L 252.583795 114.823409 
L 253.80068 148.007854 
L 255.017565 139.102213 
L 256.234449 160.049036 
L 257.451334 128.062248 
L 258.668219 130.777776 
L 259.885104 154.685204 
L 261.101989 112.95293 
L 262.318873 155.422573 
L 263.535758 158.458435 
L 264.752643 103.918043 
L 265.969528 162.355499 
L 267.186413 145.919398 
L 268.403298 110.035486 
L 269.620182 62.48186 
L 270.837067 70.91121 
L 272.053952 157.363014 
L 273.270837 155.131927 
L 274.487722 160.37737 
L 275.704607 154.693265 
L 276.921491 107.4437 
L 278.138376 138.989149 
L 279.355261 161.529339 
L 280.572146 130.89084 
L 281.789031 152.031457 
L 283.005916 143.462182 
L 284.2228 121.479163 
L 285.439685 65.283562 
L 286.65657 99.738334 
L 287.873455 141.532539 
L 289.09034 107.004978 
L 291.524109 161.610009 
L 292.740994 127.822674 
L 293.957879 90.149014 
L 295.174764 148.441222 
L 296.391649 124.103253 
L 297.608534 142.770532 
L 298.825418 132.887828 
L 300.042303 124.450417 
L 301.259188 152.007274 
L 302.476073 130.689045 
L 303.692958 144.282988 
L 304.909843 122.870614 
L 306.126727 161.219773 
L 307.343612 116.855378 
L 308.560497 162.180594 
L 309.777382 144.557573 
L 310.994267 157.669843 
L 312.211152 160.105553 
L 313.428036 161.550814 
L 314.644921 151.627776 
L 315.861806 93.009941 
L 317.078691 161.106739 
L 318.295576 145.932813 
L 319.512461 135.342337 
L 319.512461 135.342337 
" clip-path="url(#pf7613b48e7)" style="fill: none; stroke: #2196f3; stroke-width: 1.5; stroke-linecap: round"/>
   </g>
   <g id="patch_3">
    <path d="M 65.244375 170.767352 
L 65.244375 7.2 
" style="fill: none"/>
   </g>
   <g id="patch_4">
    <path d="M 331.620465 170.767352 
L 331.620465 7.2 
" style="fill: none"/>
   </g>
   <g id="patch_5">
    <path d="M 65.244375 170.767352 
L 331.620465 170.767352 
" style="fill: none"/>
   </g>
   <g id="patch_6">
    <path d="M 65.244375 7.2 
L 331.620465 7.2 
" style="fill: none"/>
   </g>
  </g>
 </g>
 <defs>
  <clipPath id="pf7613b48e7">
   <rect x="65.244375" y="7.2" width="266.37609" height="163.567352"/>
  </clipPath>
 </defs>
</svg>
