<?xml version="1.0" encoding="utf-8" standalone="no"?>
<!DOCTYPE svg PUBLIC "-//W3C//DTD SVG 1.1//EN"
  "http://www.w3.org/Graphics/SVG/1.1/DTD/svg11.dtd">
<svg xmlns:xlink="http://www.w3.org/1999/xlink" width="317.220465pt" height="208.027352pt" viewBox="0 0 317.220465 208.027352" xmlns="http://www.w3.org/2000/svg" version="1.1">
 <metadata>
  <rdf:RDF xmlns:dc="http://purl.org/dc/elements/1.1/" xmlns:cc="http://creativecommons.org/ns#" xmlns:rdf="http://www.w3.org/1999/02/22-rdf-syntax-ns#">
   <cc:Work>
    <dc:type rdf:resource="http://purl.org/dc/dcmitype/StillImage"/>
    <dc:date>2025-08-01T17:19:27.684625</dc:date>
    <dc:format>image/svg+xml</dc:format>
    <dc:creator>
     <cc:Agent>
      <dc:title>Matplotlib v3.10.3, https://matplotlib.org/</dc:title>
     </cc:Agent>
    </dc:creator>
   </cc:Work>
  </rdf:RDF>
 </metadata>
 <defs>
  <style type="text/css">*{stroke-linejoin: round; stroke-linecap: butt}</style>
 </defs>
 <g id="figure_1">
  <g id="patch_1">
   <path d="M 0 208.027352 
L 317.220465 208.027352 
L 317.220465 0 
L 0 0 
L 0 208.027352 
z
" style="fill: none"/>
  </g>
  <g id="axes_1">
   <g id="patch_2">
    <path d="M 43.644375 170.767352 
L 310.020465 170.767352 
L 310.020465 7.2 
L 43.644375 7.2 
L 43.644375 170.767352 
z
" style="fill: none"/>
   </g>
   <g id="matplotlib.axis_1">
    <g id="xtick_1">
     <g id="line2d_1">
      <path d="M 55.752379 170.767352 
L 55.752379 7.2 
" clip-path="url(#p13678db387)" style="fill: none; stroke-dasharray: 1.85,0.8; stroke-dashoffset: 0; stroke: #838383; stroke-opacity: 0.2; stroke-width: 0.5"/>
     </g>
     <g id="line2d_2"/>
     <g id="text_1">
      <!-- 0 -->
      <g style="fill: #838383" transform="translate(52.152379 183.147352) scale(0.12 -0.12)">
       <defs>
        <path id="IBMPlexSans-Regular-30" d="M 1920 -77 
Q 1120 -77 752 531 
Q 384 1139 384 2234 
Q 384 3328 752 3936 
Q 1120 4544 1920 4544 
Q 2720 4544 3088 3936 
Q 3456 3328 3456 2234 
Q 3456 1139 3088 531 
Q 2720 -77 1920 -77 
z
M 1920 390 
Q 2182 390 2368 499 
Q 2554 608 2669 806 
Q 2784 1005 2838 1273 
Q 2893 1542 2893 1869 
L 2893 2598 
Q 2893 2925 2838 3193 
Q 2784 3462 2669 3660 
Q 2554 3859 2368 3968 
Q 2182 4077 1920 4077 
Q 1658 4077 1472 3968 
Q 1286 3859 1171 3660 
Q 1056 3462 1001 3193 
Q 947 2925 947 2598 
L 947 1869 
Q 947 1542 1001 1273 
Q 1056 1005 1171 806 
Q 1286 608 1472 499 
Q 1658 390 1920 390 
z
" transform="scale(0.015625)"/>
       </defs>
       <use xlink:href="#IBMPlexSans-Regular-30"/>
      </g>
     </g>
    </g>
    <g id="xtick_2">
     <g id="line2d_3">
      <path d="M 94.560084 170.767352 
L 94.560084 7.2 
" clip-path="url(#p13678db387)" style="fill: none; stroke-dasharray: 1.85,0.8; stroke-dashoffset: 0; stroke: #838383; stroke-opacity: 0.2; stroke-width: 0.5"/>
     </g>
     <g id="line2d_4"/>
     <g id="text_2">
      <!-- 100 -->
      <g style="fill: #838383" transform="translate(83.760084 183.147352) scale(0.12 -0.12)">
       <defs>
        <path id="IBMPlexSans-Regular-31" d="M 563 0 
L 563 474 
L 1811 474 
L 1811 4070 
L 1766 4070 
L 640 3021 
L 326 3360 
L 1510 4467 
L 2349 4467 
L 2349 474 
L 3501 474 
L 3501 0 
L 563 0 
z
" transform="scale(0.015625)"/>
       </defs>
       <use xlink:href="#IBMPlexSans-Regular-31"/>
       <use xlink:href="#IBMPlexSans-Regular-30" transform="translate(59.999985 0)"/>
       <use xlink:href="#IBMPlexSans-Regular-30" transform="translate(119.999969 0)"/>
      </g>
     </g>
    </g>
    <g id="xtick_3">
     <g id="line2d_5">
      <path d="M 133.36779 170.767352 
L 133.36779 7.2 
" clip-path="url(#p13678db387)" style="fill: none; stroke-dasharray: 1.85,0.8; stroke-dashoffset: 0; stroke: #838383; stroke-opacity: 0.2; stroke-width: 0.5"/>
     </g>
     <g id="line2d_6"/>
     <g id="text_3">
      <!-- 200 -->
      <g style="fill: #838383" transform="translate(122.56779 183.147352) scale(0.12 -0.12)">
       <defs>
        <path id="IBMPlexSans-Regular-32" d="M 3411 0 
L 480 0 
L 480 550 
L 1939 1894 
Q 2253 2182 2464 2505 
Q 2675 2829 2675 3155 
L 2675 3232 
Q 2675 3603 2470 3833 
Q 2266 4064 1850 4064 
Q 1645 4064 1491 4006 
Q 1338 3949 1226 3846 
Q 1114 3744 1040 3606 
Q 966 3469 922 3309 
L 442 3494 
Q 506 3693 618 3881 
Q 730 4070 899 4217 
Q 1069 4365 1309 4454 
Q 1549 4544 1875 4544 
Q 2202 4544 2458 4448 
Q 2714 4352 2886 4179 
Q 3059 4006 3152 3769 
Q 3245 3533 3245 3245 
Q 3245 2982 3171 2758 
Q 3098 2534 2970 2332 
Q 2842 2131 2659 1939 
Q 2477 1747 2266 1555 
L 1062 474 
L 3411 474 
L 3411 0 
z
" transform="scale(0.015625)"/>
       </defs>
       <use xlink:href="#IBMPlexSans-Regular-32"/>
       <use xlink:href="#IBMPlexSans-Regular-30" transform="translate(59.999985 0)"/>
       <use xlink:href="#IBMPlexSans-Regular-30" transform="translate(119.999969 0)"/>
      </g>
     </g>
    </g>
    <g id="xtick_4">
     <g id="line2d_7">
      <path d="M 172.175495 170.767352 
L 172.175495 7.2 
" clip-path="url(#p13678db387)" style="fill: none; stroke-dasharray: 1.85,0.8; stroke-dashoffset: 0; stroke: #838383; stroke-opacity: 0.2; stroke-width: 0.5"/>
     </g>
     <g id="line2d_8"/>
     <g id="text_4">
      <!-- 300 -->
      <g style="fill: #838383" transform="translate(161.375495 183.147352) scale(0.12 -0.12)">
       <defs>
        <path id="IBMPlexSans-Regular-33" d="M 1670 2573 
Q 2125 2573 2352 2781 
Q 2579 2989 2579 3315 
L 2579 3360 
Q 2579 3712 2358 3888 
Q 2138 4064 1779 4064 
Q 1434 4064 1216 3913 
Q 998 3763 858 3507 
L 461 3814 
Q 544 3949 662 4080 
Q 781 4211 941 4313 
Q 1101 4416 1312 4480 
Q 1523 4544 1792 4544 
Q 2074 4544 2323 4470 
Q 2573 4397 2755 4253 
Q 2938 4109 3043 3897 
Q 3149 3686 3149 3418 
Q 3149 3200 3081 3027 
Q 3014 2854 2899 2726 
Q 2784 2598 2627 2508 
Q 2470 2419 2291 2374 
L 2291 2349 
Q 2470 2310 2640 2224 
Q 2810 2138 2941 2000 
Q 3072 1862 3152 1667 
Q 3232 1472 3232 1222 
Q 3232 934 3123 694 
Q 3014 454 2816 284 
Q 2618 115 2336 19 
Q 2054 -77 1715 -77 
Q 1427 -77 1203 -13 
Q 979 51 806 160 
Q 634 269 502 403 
Q 371 538 269 685 
L 672 992 
Q 755 858 854 749 
Q 954 640 1075 563 
Q 1197 486 1350 444 
Q 1504 403 1709 403 
Q 2182 403 2425 617 
Q 2669 832 2669 1229 
L 2669 1280 
Q 2669 1677 2425 1891 
Q 2182 2106 1709 2106 
L 1184 2106 
L 1184 2573 
L 1670 2573 
z
" transform="scale(0.015625)"/>
       </defs>
       <use xlink:href="#IBMPlexSans-Regular-33"/>
       <use xlink:href="#IBMPlexSans-Regular-30" transform="translate(59.999985 0)"/>
       <use xlink:href="#IBMPlexSans-Regular-30" transform="translate(119.999969 0)"/>
      </g>
     </g>
    </g>
    <g id="xtick_5">
     <g id="line2d_9">
      <path d="M 210.983201 170.767352 
L 210.983201 7.2 
" clip-path="url(#p13678db387)" style="fill: none; stroke-dasharray: 1.85,0.8; stroke-dashoffset: 0; stroke: #838383; stroke-opacity: 0.2; stroke-width: 0.5"/>
     </g>
     <g id="line2d_10"/>
     <g id="text_5">
      <!-- 400 -->
      <g style="fill: #838383" transform="translate(200.183201 183.147352) scale(0.12 -0.12)">
       <defs>
        <path id="IBMPlexSans-Regular-34" d="M 2400 0 
L 2400 877 
L 243 877 
L 243 1350 
L 2112 4467 
L 2912 4467 
L 2912 1325 
L 3558 1325 
L 3558 877 
L 2912 877 
L 2912 0 
L 2400 0 
z
M 749 1325 
L 2400 1325 
L 2400 4051 
L 2368 4051 
L 749 1325 
z
" transform="scale(0.015625)"/>
       </defs>
       <use xlink:href="#IBMPlexSans-Regular-34"/>
       <use xlink:href="#IBMPlexSans-Regular-30" transform="translate(59.999985 0)"/>
       <use xlink:href="#IBMPlexSans-Regular-30" transform="translate(119.999969 0)"/>
      </g>
     </g>
    </g>
    <g id="xtick_6">
     <g id="line2d_11">
      <path d="M 249.790906 170.767352 
L 249.790906 7.2 
" clip-path="url(#p13678db387)" style="fill: none; stroke-dasharray: 1.85,0.8; stroke-dashoffset: 0; stroke: #838383; stroke-opacity: 0.2; stroke-width: 0.5"/>
     </g>
     <g id="line2d_12"/>
     <g id="text_6">
      <!-- 500 -->
      <g style="fill: #838383" transform="translate(238.990906 183.147352) scale(0.12 -0.12)">
       <defs>
        <path id="IBMPlexSans-Regular-35" d="M 3187 3994 
L 1229 3994 
L 1101 2291 
L 1146 2291 
Q 1306 2515 1507 2649 
Q 1709 2784 2061 2784 
Q 2349 2784 2592 2688 
Q 2835 2592 3014 2416 
Q 3194 2240 3293 1984 
Q 3392 1728 3392 1402 
Q 3392 1075 3289 803 
Q 3187 531 2992 336 
Q 2797 141 2518 32 
Q 2240 -77 1888 -77 
Q 1606 -77 1392 -13 
Q 1178 51 1011 160 
Q 845 269 720 403 
Q 595 538 493 685 
L 896 992 
Q 979 858 1072 749 
Q 1165 640 1277 563 
Q 1389 486 1536 444 
Q 1683 403 1888 403 
Q 2349 403 2585 646 
Q 2822 890 2822 1331 
L 2822 1395 
Q 2822 1837 2585 2080 
Q 2349 2323 1888 2323 
Q 1581 2323 1405 2211 
Q 1229 2099 1088 1946 
L 634 2010 
L 794 4467 
L 3187 4467 
L 3187 3994 
z
" transform="scale(0.015625)"/>
       </defs>
       <use xlink:href="#IBMPlexSans-Regular-35"/>
       <use xlink:href="#IBMPlexSans-Regular-30" transform="translate(59.999985 0)"/>
       <use xlink:href="#IBMPlexSans-Regular-30" transform="translate(119.999969 0)"/>
      </g>
     </g>
    </g>
    <g id="xtick_7">
     <g id="line2d_13">
      <path d="M 288.598611 170.767352 
L 288.598611 7.2 
" clip-path="url(#p13678db387)" style="fill: none; stroke-dasharray: 1.85,0.8; stroke-dashoffset: 0; stroke: #838383; stroke-opacity: 0.2; stroke-width: 0.5"/>
     </g>
     <g id="line2d_14"/>
     <g id="text_7">
      <!-- 600 -->
      <g style="fill: #838383" transform="translate(277.798611 183.147352) scale(0.12 -0.12)">
       <defs>
        <path id="IBMPlexSans-Regular-36" d="M 1926 -77 
Q 1581 -77 1302 41 
Q 1024 160 829 381 
Q 634 602 531 922 
Q 429 1242 429 1638 
Q 429 2138 576 2576 
Q 723 3014 956 3376 
Q 1190 3738 1472 4016 
Q 1754 4294 2022 4467 
L 2714 4467 
Q 2355 4205 2073 3955 
Q 1792 3706 1581 3434 
Q 1370 3162 1222 2851 
Q 1075 2541 986 2150 
L 1018 2138 
Q 1178 2413 1430 2595 
Q 1683 2778 2093 2778 
Q 2381 2778 2624 2682 
Q 2867 2586 3040 2406 
Q 3213 2227 3312 1971 
Q 3411 1715 3411 1402 
Q 3411 1075 3305 803 
Q 3200 531 3005 336 
Q 2810 141 2534 32 
Q 2259 -77 1926 -77 
z
M 1920 390 
Q 2362 390 2608 633 
Q 2854 877 2854 1331 
L 2854 1382 
Q 2854 1837 2608 2080 
Q 2362 2323 1920 2323 
Q 1478 2323 1232 2080 
Q 986 1837 986 1382 
L 986 1331 
Q 986 877 1232 633 
Q 1478 390 1920 390 
z
" transform="scale(0.015625)"/>
       </defs>
       <use xlink:href="#IBMPlexSans-Regular-36"/>
       <use xlink:href="#IBMPlexSans-Regular-30" transform="translate(59.999985 0)"/>
       <use xlink:href="#IBMPlexSans-Regular-30" transform="translate(119.999969 0)"/>
      </g>
     </g>
    </g>
    <g id="text_8">
     <!-- draw -->
     <g style="fill: #bdbdbd" transform="translate(163.338045 198.427352) scale(0.12 -0.12)">
      <defs>
       <path id="IBMPlexSans-Regular-64" d="M 2656 538 
L 2630 538 
Q 2330 -77 1664 -77 
Q 1357 -77 1107 44 
Q 858 166 682 390 
Q 506 614 413 934 
Q 320 1254 320 1651 
Q 320 2048 413 2368 
Q 506 2688 682 2912 
Q 858 3136 1107 3257 
Q 1357 3379 1664 3379 
Q 2010 3379 2256 3228 
Q 2502 3078 2630 2765 
L 2656 2765 
L 2656 4736 
L 3168 4736 
L 3168 0 
L 2656 0 
L 2656 538 
z
M 1805 384 
Q 1978 384 2134 429 
Q 2291 474 2406 560 
Q 2522 646 2589 771 
Q 2656 896 2656 1056 
L 2656 2285 
Q 2656 2419 2589 2537 
Q 2522 2656 2406 2739 
Q 2291 2822 2134 2870 
Q 1978 2918 1805 2918 
Q 1370 2918 1120 2646 
Q 870 2374 870 1933 
L 870 1370 
Q 870 928 1120 656 
Q 1370 384 1805 384 
z
" transform="scale(0.015625)"/>
       <path id="IBMPlexSans-Regular-72" d="M 544 0 
L 544 3302 
L 1056 3302 
L 1056 2694 
L 1088 2694 
Q 1178 2931 1408 3116 
Q 1638 3302 2042 3302 
L 2240 3302 
L 2240 2790 
L 1939 2790 
Q 1523 2790 1289 2633 
Q 1056 2477 1056 2240 
L 1056 0 
L 544 0 
z
" transform="scale(0.015625)"/>
       <path id="IBMPlexSans-Regular-61" d="M 2944 0 
Q 2656 0 2531 153 
Q 2406 307 2374 538 
L 2342 538 
Q 2234 230 1984 76 
Q 1734 -77 1389 -77 
Q 864 -77 573 192 
Q 282 461 282 922 
Q 282 1389 624 1638 
Q 966 1888 1690 1888 
L 2342 1888 
L 2342 2214 
Q 2342 2566 2150 2752 
Q 1958 2938 1562 2938 
Q 1261 2938 1059 2803 
Q 858 2669 723 2445 
L 416 2733 
Q 550 3002 844 3190 
Q 1139 3379 1587 3379 
Q 2189 3379 2521 3084 
Q 2854 2790 2854 2266 
L 2854 448 
L 3232 448 
L 3232 0 
L 2944 0 
z
M 1472 358 
Q 1664 358 1824 403 
Q 1984 448 2099 531 
Q 2214 614 2278 723 
Q 2342 832 2342 960 
L 2342 1504 
L 1664 1504 
Q 1222 1504 1020 1376 
Q 819 1248 819 1005 
L 819 870 
Q 819 627 995 492 
Q 1171 358 1472 358 
z
" transform="scale(0.015625)"/>
       <path id="IBMPlexSans-Regular-77" d="M 198 3302 
L 698 3302 
L 1050 1875 
L 1402 429 
L 1414 429 
L 1818 1875 
L 2234 3302 
L 2688 3302 
L 3117 1875 
L 3526 429 
L 3539 429 
L 3878 1875 
L 4237 3302 
L 4717 3302 
L 3840 0 
L 3206 0 
L 2746 1587 
L 2458 2592 
L 2445 2592 
L 2163 1587 
L 1702 0 
L 1082 0 
L 198 3302 
z
" transform="scale(0.015625)"/>
      </defs>
      <use xlink:href="#IBMPlexSans-Regular-64"/>
      <use xlink:href="#IBMPlexSans-Regular-72" transform="translate(57.999985 0)"/>
      <use xlink:href="#IBMPlexSans-Regular-61" transform="translate(94.699982 0)"/>
      <use xlink:href="#IBMPlexSans-Regular-77" transform="translate(148.099976 0)"/>
     </g>
    </g>
   </g>
   <g id="matplotlib.axis_2">
    <g id="ytick_1">
     <g id="line2d_15">
      <path d="M 43.644375 163.332472 
L 310.020465 163.332472 
" clip-path="url(#p13678db387)" style="fill: none; stroke-dasharray: 1.85,0.8; stroke-dashoffset: 0; stroke: #838383; stroke-opacity: 0.2; stroke-width: 0.5"/>
     </g>
     <g id="line2d_16"/>
     <g id="text_9">
      <!-- 0.0 -->
      <g style="fill: #838383" transform="translate(22.48 167.772472) scale(0.12 -0.12)">
       <defs>
        <path id="IBMPlexSans-Regular-2e" d="M 870 -77 
Q 666 -77 573 25 
Q 480 128 480 294 
L 480 378 
Q 480 544 573 646 
Q 666 749 870 749 
Q 1075 749 1168 646 
Q 1261 544 1261 378 
L 1261 294 
Q 1261 128 1168 25 
Q 1075 -77 870 -77 
z
" transform="scale(0.015625)"/>
       </defs>
       <use xlink:href="#IBMPlexSans-Regular-30"/>
       <use xlink:href="#IBMPlexSans-Regular-2e" transform="translate(59.999985 0)"/>
       <use xlink:href="#IBMPlexSans-Regular-30" transform="translate(87.199982 0)"/>
      </g>
     </g>
    </g>
    <g id="ytick_2">
     <g id="line2d_17">
      <path d="M 43.644375 115.749242 
L 310.020465 115.749242 
" clip-path="url(#p13678db387)" style="fill: none; stroke-dasharray: 1.85,0.8; stroke-dashoffset: 0; stroke: #838383; stroke-opacity: 0.2; stroke-width: 0.5"/>
     </g>
     <g id="line2d_18"/>
     <g id="text_10">
      <!-- 0.2 -->
      <g style="fill: #838383" transform="translate(22.48 120.189242) scale(0.12 -0.12)">
       <use xlink:href="#IBMPlexSans-Regular-30"/>
       <use xlink:href="#IBMPlexSans-Regular-2e" transform="translate(59.999985 0)"/>
       <use xlink:href="#IBMPlexSans-Regular-32" transform="translate(87.199982 0)"/>
      </g>
     </g>
    </g>
    <g id="ytick_3">
     <g id="line2d_19">
      <path d="M 43.644375 68.166013 
L 310.020465 68.166013 
" clip-path="url(#p13678db387)" style="fill: none; stroke-dasharray: 1.85,0.8; stroke-dashoffset: 0; stroke: #838383; stroke-opacity: 0.2; stroke-width: 0.5"/>
     </g>
     <g id="line2d_20"/>
     <g id="text_11">
      <!-- 0.4 -->
      <g style="fill: #838383" transform="translate(22.48 72.606013) scale(0.12 -0.12)">
       <use xlink:href="#IBMPlexSans-Regular-30"/>
       <use xlink:href="#IBMPlexSans-Regular-2e" transform="translate(59.999985 0)"/>
       <use xlink:href="#IBMPlexSans-Regular-34" transform="translate(87.199982 0)"/>
      </g>
     </g>
    </g>
    <g id="ytick_4">
     <g id="line2d_21">
      <path d="M 43.644375 20.582783 
L 310.020465 20.582783 
" clip-path="url(#p13678db387)" style="fill: none; stroke-dasharray: 1.85,0.8; stroke-dashoffset: 0; stroke: #838383; stroke-opacity: 0.2; stroke-width: 0.5"/>
     </g>
     <g id="line2d_22"/>
     <g id="text_12">
      <!-- 0.6 -->
      <g style="fill: #838383" transform="translate(22.48 25.022783) scale(0.12 -0.12)">
       <use xlink:href="#IBMPlexSans-Regular-30"/>
       <use xlink:href="#IBMPlexSans-Regular-2e" transform="translate(59.999985 0)"/>
       <use xlink:href="#IBMPlexSans-Regular-36" transform="translate(87.199982 0)"/>
      </g>
     </g>
    </g>
    <g id="text_13">
     <!-- val_acc -->
     <g style="fill: #bdbdbd" transform="translate(16.08 109.402426) rotate(-90) scale(0.12 -0.12)">
      <defs>
       <path id="IBMPlexSans-Regular-76" d="M 1274 0 
L 115 3302 
L 627 3302 
L 1203 1664 
L 1562 538 
L 1594 538 
L 1952 1664 
L 2541 3302 
L 3034 3302 
L 1869 0 
L 1274 0 
z
" transform="scale(0.015625)"/>
       <path id="IBMPlexSans-Regular-6c" d="M 1088 0 
Q 819 0 681 150 
Q 544 301 544 531 
L 544 4736 
L 1056 4736 
L 1056 448 
L 1542 448 
L 1542 0 
L 1088 0 
z
" transform="scale(0.015625)"/>
       <path id="IBMPlexSans-Regular-5f" d="M 192 -1056 
L 192 -608 
L 3424 -608 
L 3424 -1056 
L 192 -1056 
z
" transform="scale(0.015625)"/>
       <path id="IBMPlexSans-Regular-63" d="M 1773 -77 
Q 1427 -77 1152 44 
Q 877 166 688 390 
Q 499 614 400 934 
Q 301 1254 301 1651 
Q 301 2048 400 2368 
Q 499 2688 688 2912 
Q 877 3136 1152 3257 
Q 1427 3379 1773 3379 
Q 2266 3379 2563 3164 
Q 2861 2950 3008 2605 
L 2579 2387 
Q 2490 2643 2285 2784 
Q 2080 2925 1773 2925 
Q 1542 2925 1369 2851 
Q 1197 2778 1081 2646 
Q 966 2515 908 2332 
Q 851 2150 851 1933 
L 851 1370 
Q 851 934 1084 656 
Q 1318 378 1773 378 
Q 2394 378 2669 954 
L 3040 704 
Q 2880 346 2563 134 
Q 2246 -77 1773 -77 
z
" transform="scale(0.015625)"/>
      </defs>
      <use xlink:href="#IBMPlexSans-Regular-76"/>
      <use xlink:href="#IBMPlexSans-Regular-61" transform="translate(49.199997 0)"/>
      <use xlink:href="#IBMPlexSans-Regular-6c" transform="translate(102.599991 0)"/>
      <use xlink:href="#IBMPlexSans-Regular-5f" transform="translate(129.799988 0)"/>
      <use xlink:href="#IBMPlexSans-Regular-61" transform="translate(186.299973 0)"/>
      <use xlink:href="#IBMPlexSans-Regular-63" transform="translate(239.699966 0)"/>
      <use xlink:href="#IBMPlexSans-Regular-63" transform="translate(289.999954 0)"/>
     </g>
    </g>
   </g>
   <g id="line2d_23">
    <path d="M 55.752379 133.592953 
L 56.140456 74.113917 
L 56.91661 133.592953 
L 57.304687 118.723194 
L 57.692764 74.113917 
L 58.080841 59.244157 
L 58.468918 118.723194 
L 58.856996 88.983676 
L 59.245073 88.983676 
L 59.63315 74.113917 
L 61.185458 74.113917 
L 61.573535 103.853435 
L 61.961612 29.504639 
L 62.349689 103.853435 
L 62.737766 59.244157 
L 63.125843 103.853435 
L 63.51392 44.374398 
L 63.901997 74.113917 
L 64.290074 148.462713 
L 64.678151 88.983676 
L 65.066228 118.723194 
L 65.454305 59.244157 
L 65.842382 148.462713 
L 66.23046 74.113917 
L 66.618537 118.723194 
L 67.006614 103.853435 
L 67.394691 118.723194 
L 68.170845 88.983676 
L 68.558922 133.592953 
L 68.946999 88.983676 
L 69.335076 163.332472 
L 69.723153 118.723194 
L 70.11123 59.244157 
L 70.499307 118.723194 
L 70.887384 88.983676 
L 71.275461 103.853435 
L 71.663538 44.374398 
L 72.051615 118.723194 
L 72.439692 118.723194 
L 73.603924 74.113917 
L 73.992001 118.723194 
L 74.380078 133.592953 
L 74.768155 133.592953 
L 75.156232 103.853435 
L 75.544309 163.332472 
L 75.932386 74.113917 
L 76.320463 103.853435 
L 76.70854 118.723194 
L 77.484694 118.723194 
L 78.260848 88.983676 
L 78.648925 103.853435 
L 79.037002 103.853435 
L 79.425079 133.592953 
L 79.813156 59.244157 
L 80.201233 103.853435 
L 80.589311 103.853435 
L 81.365465 133.592953 
L 81.753542 88.983676 
L 82.529696 88.983676 
L 82.917773 103.853435 
L 83.30585 103.853435 
L 83.693927 74.113917 
L 84.082004 118.723194 
L 84.470081 44.374398 
L 84.858158 44.374398 
L 85.246235 103.853435 
L 85.634312 44.374398 
L 86.022389 103.853435 
L 86.410466 74.113917 
L 86.798543 103.853435 
L 87.18662 118.723194 
L 87.574697 88.983676 
L 87.962775 74.113917 
L 88.350852 103.853435 
L 88.738929 103.853435 
L 89.515083 74.113917 
L 89.90316 74.113917 
L 90.291237 133.592953 
L 90.679314 88.983676 
L 91.067391 148.462713 
L 91.455468 88.983676 
L 91.843545 74.113917 
L 92.231622 74.113917 
L 92.619699 118.723194 
L 93.007776 133.592953 
L 93.395853 88.983676 
L 93.78393 103.853435 
L 94.172007 88.983676 
L 94.560084 103.853435 
L 95.336239 103.853435 
L 95.724316 118.723194 
L 96.112393 88.983676 
L 96.50047 103.853435 
L 96.888547 133.592953 
L 98.052778 133.592953 
L 98.440855 59.244157 
L 98.828932 118.723194 
L 99.217009 88.983676 
L 99.605086 88.983676 
L 99.993163 118.723194 
L 100.38124 59.244157 
L 100.769317 88.983676 
L 101.157394 133.592953 
L 101.545471 103.853435 
L 101.933548 133.592953 
L 102.321626 103.853435 
L 102.709703 59.244157 
L 103.09778 44.374398 
L 103.485857 118.723194 
L 103.873934 103.853435 
L 104.262011 74.113917 
L 104.650088 74.113917 
L 105.038165 103.853435 
L 105.426242 59.244157 
L 105.814319 103.853435 
L 106.202396 118.723194 
L 106.590473 118.723194 
L 106.97855 133.592953 
L 107.366627 103.853435 
L 107.754704 103.853435 
L 108.142781 74.113917 
L 108.530858 88.983676 
L 108.918935 74.113917 
L 109.69509 133.592953 
L 110.083167 133.592953 
L 110.471244 103.853435 
L 110.859321 44.374398 
L 111.247398 88.983676 
L 111.635475 103.853435 
L 112.023552 59.244157 
L 112.411629 88.983676 
L 112.799706 103.853435 
L 113.187783 103.853435 
L 113.963937 74.113917 
L 114.352014 133.592953 
L 114.740091 74.113917 
L 115.128168 59.244157 
L 115.516245 103.853435 
L 115.904322 103.853435 
L 116.292399 74.113917 
L 116.680477 133.592953 
L 117.068554 118.723194 
L 117.456631 88.983676 
L 117.844708 103.853435 
L 118.232785 88.983676 
L 118.620862 118.723194 
L 119.008939 88.983676 
L 119.397016 118.723194 
L 120.17317 59.244157 
L 120.561247 118.723194 
L 120.949324 118.723194 
L 121.337401 148.462713 
L 121.725478 88.983676 
L 122.113555 133.592953 
L 122.501632 103.853435 
L 122.889709 103.853435 
L 123.277786 88.983676 
L 123.665863 133.592953 
L 124.053941 118.723194 
L 124.442018 118.723194 
L 124.830095 148.462713 
L 125.218172 88.983676 
L 125.606249 118.723194 
L 125.994326 103.853435 
L 126.382403 118.723194 
L 126.77048 118.723194 
L 127.158557 103.853435 
L 127.546634 59.244157 
L 127.934711 88.983676 
L 128.322788 44.374398 
L 128.710865 103.853435 
L 129.098942 74.113917 
L 129.487019 133.592953 
L 129.875096 59.244157 
L 130.263173 74.113917 
L 130.65125 103.853435 
L 131.039327 74.113917 
L 131.427405 88.983676 
L 131.815482 118.723194 
L 132.203559 74.113917 
L 132.591636 74.113917 
L 132.979713 103.853435 
L 133.36779 74.113917 
L 134.143944 74.113917 
L 134.532021 88.983676 
L 134.920098 118.723194 
L 135.308175 74.113917 
L 135.696252 103.853435 
L 136.084329 88.983676 
L 136.472406 163.332472 
L 136.860483 88.983676 
L 137.636637 88.983676 
L 138.024714 133.592953 
L 138.412792 103.853435 
L 138.800869 118.723194 
L 139.188946 74.113917 
L 139.577023 118.723194 
L 139.9651 74.113917 
L 140.353177 133.592953 
L 140.741254 88.983676 
L 141.129331 88.983676 
L 141.517408 74.113917 
L 141.905485 74.113917 
L 142.293562 118.723194 
L 142.681639 74.113917 
L 143.069716 74.113917 
L 143.457793 88.983676 
L 143.84587 118.723194 
L 144.233947 29.504639 
L 144.622024 74.113917 
L 145.010101 74.113917 
L 145.398178 88.983676 
L 145.786256 133.592953 
L 146.174333 133.592953 
L 146.56241 88.983676 
L 146.950487 29.504639 
L 147.338564 118.723194 
L 147.726641 88.983676 
L 148.114718 118.723194 
L 148.502795 74.113917 
L 148.890872 118.723194 
L 149.278949 103.853435 
L 149.667026 103.853435 
L 150.055103 74.113917 
L 150.44318 118.723194 
L 150.831257 59.244157 
L 151.219334 103.853435 
L 151.995488 103.853435 
L 152.383565 59.244157 
L 152.771643 118.723194 
L 153.15972 74.113917 
L 153.547797 118.723194 
L 153.935874 103.853435 
L 154.323951 74.113917 
L 154.712028 88.983676 
L 155.100105 88.983676 
L 155.488182 29.504639 
L 155.876259 133.592953 
L 156.264336 88.983676 
L 156.652413 148.462713 
L 157.04049 103.853435 
L 157.428567 118.723194 
L 158.204721 88.983676 
L 158.592798 88.983676 
L 158.980875 103.853435 
L 159.368952 88.983676 
L 159.757029 88.983676 
L 160.145107 44.374398 
L 160.533184 103.853435 
L 160.921261 44.374398 
L 161.309338 133.592953 
L 161.697415 74.113917 
L 162.085492 74.113917 
L 162.473569 103.853435 
L 162.861646 118.723194 
L 163.249723 103.853435 
L 163.6378 103.853435 
L 164.413954 133.592953 
L 164.802031 118.723194 
L 165.190108 118.723194 
L 165.578185 103.853435 
L 165.966262 118.723194 
L 166.354339 103.853435 
L 166.742416 103.853435 
L 167.130493 88.983676 
L 167.518571 118.723194 
L 168.294725 59.244157 
L 168.682802 74.113917 
L 169.070879 74.113917 
L 169.458956 88.983676 
L 170.23511 59.244157 
L 170.623187 133.592953 
L 171.787418 88.983676 
L 172.175495 44.374398 
L 172.563572 133.592953 
L 172.951649 148.462713 
L 173.339726 88.983676 
L 173.727803 118.723194 
L 174.11588 133.592953 
L 174.892035 74.113917 
L 175.280112 103.853435 
L 175.668189 59.244157 
L 176.056266 118.723194 
L 176.444343 59.244157 
L 176.83242 118.723194 
L 177.220497 74.113917 
L 177.608574 133.592953 
L 177.996651 118.723194 
L 178.384728 148.462713 
L 178.772805 88.983676 
L 179.160882 74.113917 
L 179.548959 88.983676 
L 179.937036 88.983676 
L 180.325113 74.113917 
L 181.101267 103.853435 
L 181.489344 148.462713 
L 181.877422 103.853435 
L 182.265499 103.853435 
L 182.653576 88.983676 
L 183.42973 88.983676 
L 183.817807 133.592953 
L 184.205884 103.853435 
L 184.593961 133.592953 
L 184.982038 88.983676 
L 185.370115 88.983676 
L 186.146269 59.244157 
L 186.534346 74.113917 
L 186.922423 74.113917 
L 187.3105 103.853435 
L 187.698577 103.853435 
L 188.086654 59.244157 
L 188.474731 133.592953 
L 188.862808 88.983676 
L 189.250886 74.113917 
L 189.638963 133.592953 
L 190.02704 88.983676 
L 190.415117 103.853435 
L 190.803194 88.983676 
L 191.191271 59.244157 
L 191.579348 118.723194 
L 191.967425 133.592953 
L 192.355502 59.244157 
L 192.743579 59.244157 
L 193.131656 88.983676 
L 193.519733 74.113917 
L 193.90781 44.374398 
L 194.295887 103.853435 
L 194.683964 88.983676 
L 195.072041 103.853435 
L 195.460118 133.592953 
L 195.848195 88.983676 
L 196.236273 88.983676 
L 196.62435 44.374398 
L 197.012427 59.244157 
L 197.400504 103.853435 
L 197.788581 133.592953 
L 198.176658 118.723194 
L 198.564735 74.113917 
L 198.952812 88.983676 
L 199.340889 133.592953 
L 199.728966 103.853435 
L 200.117043 148.462713 
L 200.50512 133.592953 
L 200.893197 133.592953 
L 201.281274 88.983676 
L 201.669351 103.853435 
L 202.057428 74.113917 
L 202.445505 74.113917 
L 203.221659 103.853435 
L 203.609737 88.983676 
L 203.997814 103.853435 
L 204.385891 44.374398 
L 204.773968 103.853435 
L 205.162045 103.853435 
L 205.550122 74.113917 
L 206.326276 133.592953 
L 206.714353 118.723194 
L 207.490507 118.723194 
L 207.878584 88.983676 
L 208.266661 133.592953 
L 208.654738 118.723194 
L 209.042815 88.983676 
L 209.430892 103.853435 
L 209.818969 88.983676 
L 210.207046 88.983676 
L 210.595124 118.723194 
L 210.983201 133.592953 
L 211.371278 74.113917 
L 211.759355 44.374398 
L 212.147432 74.113917 
L 212.535509 88.983676 
L 212.923586 74.113917 
L 213.311663 133.592953 
L 213.69974 103.853435 
L 214.087817 133.592953 
L 214.475894 59.244157 
L 214.863971 118.723194 
L 215.252048 103.853435 
L 215.640125 74.113917 
L 216.028202 103.853435 
L 216.416279 59.244157 
L 216.804356 103.853435 
L 217.192433 59.244157 
L 217.58051 133.592953 
L 218.356665 74.113917 
L 218.744742 118.723194 
L 219.132819 148.462713 
L 219.520896 118.723194 
L 219.908973 133.592953 
L 220.29705 88.983676 
L 220.685127 88.983676 
L 221.073204 118.723194 
L 221.461281 103.853435 
L 221.849358 118.723194 
L 222.237435 74.113917 
L 222.625512 59.244157 
L 223.013589 59.244157 
L 223.401666 103.853435 
L 223.789743 118.723194 
L 224.17782 103.853435 
L 224.565897 44.374398 
L 224.953974 103.853435 
L 225.342052 59.244157 
L 225.730129 118.723194 
L 226.118206 103.853435 
L 226.506283 103.853435 
L 227.282437 74.113917 
L 227.670514 88.983676 
L 228.058591 59.244157 
L 228.446668 118.723194 
L 228.834745 118.723194 
L 229.222822 88.983676 
L 229.998976 118.723194 
L 230.387053 103.853435 
L 230.77513 74.113917 
L 231.163207 103.853435 
L 231.551284 118.723194 
L 231.939361 103.853435 
L 232.327439 74.113917 
L 232.715516 133.592953 
L 233.103593 133.592953 
L 233.49167 14.63488 
L 233.879747 118.723194 
L 234.267824 133.592953 
L 234.655901 44.374398 
L 235.043978 59.244157 
L 235.432055 118.723194 
L 235.820132 118.723194 
L 236.208209 88.983676 
L 236.596286 74.113917 
L 236.984363 118.723194 
L 237.37244 44.374398 
L 237.760517 88.983676 
L 238.148594 44.374398 
L 238.536671 88.983676 
L 238.924748 103.853435 
L 239.312825 88.983676 
L 239.700903 118.723194 
L 240.08898 88.983676 
L 240.477057 74.113917 
L 240.865134 74.113917 
L 241.253211 88.983676 
L 241.641288 88.983676 
L 242.029365 74.113917 
L 242.417442 74.113917 
L 242.805519 118.723194 
L 243.193596 103.853435 
L 243.581673 118.723194 
L 243.96975 59.244157 
L 244.357827 88.983676 
L 244.745904 44.374398 
L 245.910135 133.592953 
L 246.298212 74.113917 
L 246.686289 118.723194 
L 247.074367 88.983676 
L 247.462444 118.723194 
L 247.850521 133.592953 
L 248.238598 88.983676 
L 249.014752 118.723194 
L 249.402829 88.983676 
L 250.178983 88.983676 
L 250.56706 44.374398 
L 250.955137 133.592953 
L 251.343214 133.592953 
L 251.731291 148.462713 
L 252.119368 59.244157 
L 252.895522 118.723194 
L 253.283599 59.244157 
L 253.671676 118.723194 
L 254.059754 133.592953 
L 254.447831 103.853435 
L 254.835908 88.983676 
L 255.223985 118.723194 
L 255.612062 88.983676 
L 256.000139 103.853435 
L 256.388216 148.462713 
L 256.776293 118.723194 
L 257.16437 103.853435 
L 257.552447 118.723194 
L 258.328601 118.723194 
L 258.716678 74.113917 
L 259.104755 103.853435 
L 259.492832 103.853435 
L 259.880909 88.983676 
L 260.657063 118.723194 
L 261.04514 88.983676 
L 261.433218 103.853435 
L 262.209372 103.853435 
L 262.597449 74.113917 
L 262.985526 133.592953 
L 263.76168 133.592953 
L 264.537834 103.853435 
L 264.925911 118.723194 
L 265.313988 103.853435 
L 265.702065 59.244157 
L 266.090142 118.723194 
L 266.478219 59.244157 
L 266.866296 88.983676 
L 267.254373 148.462713 
L 267.64245 103.853435 
L 268.030527 88.983676 
L 268.806682 88.983676 
L 269.194759 133.592953 
L 269.582836 59.244157 
L 269.970913 74.113917 
L 270.747067 74.113917 
L 271.135144 103.853435 
L 271.523221 88.983676 
L 271.911298 133.592953 
L 272.299375 118.723194 
L 272.687452 88.983676 
L 273.075529 133.592953 
L 274.23976 88.983676 
L 274.627837 103.853435 
L 275.015914 88.983676 
L 275.403991 88.983676 
L 275.792069 118.723194 
L 276.180146 103.853435 
L 276.568223 118.723194 
L 276.9563 44.374398 
L 277.344377 59.244157 
L 277.732454 133.592953 
L 278.120531 118.723194 
L 278.508608 88.983676 
L 278.896685 118.723194 
L 279.284762 74.113917 
L 279.672839 118.723194 
L 280.060916 133.592953 
L 280.448993 74.113917 
L 280.83707 118.723194 
L 281.225147 88.983676 
L 281.613224 74.113917 
L 282.001301 103.853435 
L 282.389378 103.853435 
L 282.777455 59.244157 
L 283.165533 88.983676 
L 283.55361 148.462713 
L 283.941687 118.723194 
L 284.329764 74.113917 
L 284.717841 103.853435 
L 285.105918 88.983676 
L 285.493995 103.853435 
L 285.882072 148.462713 
L 286.270149 88.983676 
L 286.658226 118.723194 
L 287.046303 44.374398 
L 287.43438 103.853435 
L 287.822457 118.723194 
L 288.210534 118.723194 
L 288.598611 88.983676 
L 288.986688 103.853435 
L 289.374765 88.983676 
L 289.762842 103.853435 
L 290.15092 103.853435 
L 290.538997 118.723194 
L 290.927074 59.244157 
L 291.315151 59.244157 
L 291.703228 133.592953 
L 292.091305 74.113917 
L 292.479382 88.983676 
L 292.867459 88.983676 
L 293.255536 103.853435 
L 293.643613 44.374398 
L 294.03169 118.723194 
L 295.195921 74.113917 
L 295.583998 74.113917 
L 295.972075 118.723194 
L 296.360152 118.723194 
L 296.748229 59.244157 
L 297.136306 103.853435 
L 297.524384 118.723194 
L 297.912461 118.723194 
L 297.912461 118.723194 
" clip-path="url(#p13678db387)" style="fill: none; stroke: #2196f3; stroke-width: 1.5; stroke-linecap: round"/>
   </g>
   <g id="patch_3">
    <path d="M 43.644375 170.767352 
L 43.644375 7.2 
" style="fill: none"/>
   </g>
   <g id="patch_4">
    <path d="M 310.020465 170.767352 
L 310.020465 7.2 
" style="fill: none"/>
   </g>
   <g id="patch_5">
    <path d="M 43.644375 170.767352 
L 310.020465 170.767352 
" style="fill: none"/>
   </g>
   <g id="patch_6">
    <path d="M 43.644375 7.2 
L 310.020465 7.2 
" style="fill: none"/>
   </g>
  </g>
 </g>
 <defs>
  <clipPath id="p13678db387">
   <rect x="43.644375" y="7.2" width="266.37609" height="163.567352"/>
  </clipPath>
 </defs>
</svg>
