<?xml version="1.0" encoding="utf-8" standalone="no"?>
<!DOCTYPE svg PUBLIC "-//W3C//DTD SVG 1.1//EN"
  "http://www.w3.org/Graphics/SVG/1.1/DTD/svg11.dtd">
<svg xmlns:xlink="http://www.w3.org/1999/xlink" width="331.620465pt" height="208.027352pt" viewBox="0 0 331.620465 208.027352" xmlns="http://www.w3.org/2000/svg" version="1.1">
 <metadata>
  <rdf:RDF xmlns:dc="http://purl.org/dc/elements/1.1/" xmlns:cc="http://creativecommons.org/ns#" xmlns:rdf="http://www.w3.org/1999/02/22-rdf-syntax-ns#">
   <cc:Work>
    <dc:type rdf:resource="http://purl.org/dc/dcmitype/StillImage"/>
    <dc:date>2025-08-01T17:19:27.309185</dc:date>
    <dc:format>image/svg+xml</dc:format>
    <dc:creator>
     <cc:Agent>
      <dc:title>Matplotlib v3.10.3, https://matplotlib.org/</dc:title>
     </cc:Agent>
    </dc:creator>
   </cc:Work>
  </rdf:RDF>
 </metadata>
 <defs>
  <style type="text/css">*{stroke-linejoin: round; stroke-linecap: butt}</style>
 </defs>
 <g id="figure_1">
  <g id="patch_1">
   <path d="M 0 208.027352 
L 331.620465 208.027352 
L 331.620465 0 
L 0 0 
L 0 208.027352 
z
" style="fill: none"/>
  </g>
  <g id="axes_1">
   <g id="patch_2">
    <path d="M 58.044375 170.767352 
L 324.420465 170.767352 
L 324.420465 7.2 
L 58.044375 7.2 
L 58.044375 170.767352 
z
" style="fill: none"/>
   </g>
   <g id="matplotlib.axis_1">
    <g id="xtick_1">
     <g id="line2d_1">
      <path d="M 70.152379 170.767352 
L 70.152379 7.2 
" clip-path="url(#pf2e39ff09d)" style="fill: none; stroke-dasharray: 1.85,0.8; stroke-dashoffset: 0; stroke: #838383; stroke-opacity: 0.2; stroke-width: 0.5"/>
     </g>
     <g id="line2d_2"/>
     <g id="text_1">
      <!-- 0 -->
      <g style="fill: #838383" transform="translate(66.552379 183.147352) scale(0.12 -0.12)">
       <defs>
        <path id="IBMPlexSans-Regular-30" d="M 1920 -77 
Q 1120 -77 752 531 
Q 384 1139 384 2234 
Q 384 3328 752 3936 
Q 1120 4544 1920 4544 
Q 2720 4544 3088 3936 
Q 3456 3328 3456 2234 
Q 3456 1139 3088 531 
Q 2720 -77 1920 -77 
z
M 1920 390 
Q 2182 390 2368 499 
Q 2554 608 2669 806 
Q 2784 1005 2838 1273 
Q 2893 1542 2893 1869 
L 2893 2598 
Q 2893 2925 2838 3193 
Q 2784 3462 2669 3660 
Q 2554 3859 2368 3968 
Q 2182 4077 1920 4077 
Q 1658 4077 1472 3968 
Q 1286 3859 1171 3660 
Q 1056 3462 1001 3193 
Q 947 2925 947 2598 
L 947 1869 
Q 947 1542 1001 1273 
Q 1056 1005 1171 806 
Q 1286 608 1472 499 
Q 1658 390 1920 390 
z
" transform="scale(0.015625)"/>
       </defs>
       <use xlink:href="#IBMPlexSans-Regular-30"/>
      </g>
     </g>
    </g>
    <g id="xtick_2">
     <g id="line2d_3">
      <path d="M 130.996621 170.767352 
L 130.996621 7.2 
" clip-path="url(#pf2e39ff09d)" style="fill: none; stroke-dasharray: 1.85,0.8; stroke-dashoffset: 0; stroke: #838383; stroke-opacity: 0.2; stroke-width: 0.5"/>
     </g>
     <g id="line2d_4"/>
     <g id="text_2">
      <!-- 50 -->
      <g style="fill: #838383" transform="translate(123.796621 183.147352) scale(0.12 -0.12)">
       <defs>
        <path id="IBMPlexSans-Regular-35" d="M 3187 3994 
L 1229 3994 
L 1101 2291 
L 1146 2291 
Q 1306 2515 1507 2649 
Q 1709 2784 2061 2784 
Q 2349 2784 2592 2688 
Q 2835 2592 3014 2416 
Q 3194 2240 3293 1984 
Q 3392 1728 3392 1402 
Q 3392 1075 3289 803 
Q 3187 531 2992 336 
Q 2797 141 2518 32 
Q 2240 -77 1888 -77 
Q 1606 -77 1392 -13 
Q 1178 51 1011 160 
Q 845 269 720 403 
Q 595 538 493 685 
L 896 992 
Q 979 858 1072 749 
Q 1165 640 1277 563 
Q 1389 486 1536 444 
Q 1683 403 1888 403 
Q 2349 403 2585 646 
Q 2822 890 2822 1331 
L 2822 1395 
Q 2822 1837 2585 2080 
Q 2349 2323 1888 2323 
Q 1581 2323 1405 2211 
Q 1229 2099 1088 1946 
L 634 2010 
L 794 4467 
L 3187 4467 
L 3187 3994 
z
" transform="scale(0.015625)"/>
       </defs>
       <use xlink:href="#IBMPlexSans-Regular-35"/>
       <use xlink:href="#IBMPlexSans-Regular-30" transform="translate(59.999985 0)"/>
      </g>
     </g>
    </g>
    <g id="xtick_3">
     <g id="line2d_5">
      <path d="M 191.840862 170.767352 
L 191.840862 7.2 
" clip-path="url(#pf2e39ff09d)" style="fill: none; stroke-dasharray: 1.85,0.8; stroke-dashoffset: 0; stroke: #838383; stroke-opacity: 0.2; stroke-width: 0.5"/>
     </g>
     <g id="line2d_6"/>
     <g id="text_3">
      <!-- 100 -->
      <g style="fill: #838383" transform="translate(181.040862 183.147352) scale(0.12 -0.12)">
       <defs>
        <path id="IBMPlexSans-Regular-31" d="M 563 0 
L 563 474 
L 1811 474 
L 1811 4070 
L 1766 4070 
L 640 3021 
L 326 3360 
L 1510 4467 
L 2349 4467 
L 2349 474 
L 3501 474 
L 3501 0 
L 563 0 
z
" transform="scale(0.015625)"/>
       </defs>
       <use xlink:href="#IBMPlexSans-Regular-31"/>
       <use xlink:href="#IBMPlexSans-Regular-30" transform="translate(59.999985 0)"/>
       <use xlink:href="#IBMPlexSans-Regular-30" transform="translate(119.999969 0)"/>
      </g>
     </g>
    </g>
    <g id="xtick_4">
     <g id="line2d_7">
      <path d="M 252.685104 170.767352 
L 252.685104 7.2 
" clip-path="url(#pf2e39ff09d)" style="fill: none; stroke-dasharray: 1.85,0.8; stroke-dashoffset: 0; stroke: #838383; stroke-opacity: 0.2; stroke-width: 0.5"/>
     </g>
     <g id="line2d_8"/>
     <g id="text_4">
      <!-- 150 -->
      <g style="fill: #838383" transform="translate(241.885104 183.147352) scale(0.12 -0.12)">
       <use xlink:href="#IBMPlexSans-Regular-31"/>
       <use xlink:href="#IBMPlexSans-Regular-35" transform="translate(59.999985 0)"/>
       <use xlink:href="#IBMPlexSans-Regular-30" transform="translate(119.999969 0)"/>
      </g>
     </g>
    </g>
    <g id="xtick_5">
     <g id="line2d_9">
      <path d="M 313.529345 170.767352 
L 313.529345 7.2 
" clip-path="url(#pf2e39ff09d)" style="fill: none; stroke-dasharray: 1.85,0.8; stroke-dashoffset: 0; stroke: #838383; stroke-opacity: 0.2; stroke-width: 0.5"/>
     </g>
     <g id="line2d_10"/>
     <g id="text_5">
      <!-- 200 -->
      <g style="fill: #838383" transform="translate(302.729345 183.147352) scale(0.12 -0.12)">
       <defs>
        <path id="IBMPlexSans-Regular-32" d="M 3411 0 
L 480 0 
L 480 550 
L 1939 1894 
Q 2253 2182 2464 2505 
Q 2675 2829 2675 3155 
L 2675 3232 
Q 2675 3603 2470 3833 
Q 2266 4064 1850 4064 
Q 1645 4064 1491 4006 
Q 1338 3949 1226 3846 
Q 1114 3744 1040 3606 
Q 966 3469 922 3309 
L 442 3494 
Q 506 3693 618 3881 
Q 730 4070 899 4217 
Q 1069 4365 1309 4454 
Q 1549 4544 1875 4544 
Q 2202 4544 2458 4448 
Q 2714 4352 2886 4179 
Q 3059 4006 3152 3769 
Q 3245 3533 3245 3245 
Q 3245 2982 3171 2758 
Q 3098 2534 2970 2332 
Q 2842 2131 2659 1939 
Q 2477 1747 2266 1555 
L 1062 474 
L 3411 474 
L 3411 0 
z
" transform="scale(0.015625)"/>
       </defs>
       <use xlink:href="#IBMPlexSans-Regular-32"/>
       <use xlink:href="#IBMPlexSans-Regular-30" transform="translate(59.999985 0)"/>
       <use xlink:href="#IBMPlexSans-Regular-30" transform="translate(119.999969 0)"/>
      </g>
     </g>
    </g>
    <g id="text_6">
     <!-- draw -->
     <g style="fill: #bdbdbd" transform="translate(177.738045 198.427352) scale(0.12 -0.12)">
      <defs>
       <path id="IBMPlexSans-Regular-64" d="M 2656 538 
L 2630 538 
Q 2330 -77 1664 -77 
Q 1357 -77 1107 44 
Q 858 166 682 390 
Q 506 614 413 934 
Q 320 1254 320 1651 
Q 320 2048 413 2368 
Q 506 2688 682 2912 
Q 858 3136 1107 3257 
Q 1357 3379 1664 3379 
Q 2010 3379 2256 3228 
Q 2502 3078 2630 2765 
L 2656 2765 
L 2656 4736 
L 3168 4736 
L 3168 0 
L 2656 0 
L 2656 538 
z
M 1805 384 
Q 1978 384 2134 429 
Q 2291 474 2406 560 
Q 2522 646 2589 771 
Q 2656 896 2656 1056 
L 2656 2285 
Q 2656 2419 2589 2537 
Q 2522 2656 2406 2739 
Q 2291 2822 2134 2870 
Q 1978 2918 1805 2918 
Q 1370 2918 1120 2646 
Q 870 2374 870 1933 
L 870 1370 
Q 870 928 1120 656 
Q 1370 384 1805 384 
z
" transform="scale(0.015625)"/>
       <path id="IBMPlexSans-Regular-72" d="M 544 0 
L 544 3302 
L 1056 3302 
L 1056 2694 
L 1088 2694 
Q 1178 2931 1408 3116 
Q 1638 3302 2042 3302 
L 2240 3302 
L 2240 2790 
L 1939 2790 
Q 1523 2790 1289 2633 
Q 1056 2477 1056 2240 
L 1056 0 
L 544 0 
z
" transform="scale(0.015625)"/>
       <path id="IBMPlexSans-Regular-61" d="M 2944 0 
Q 2656 0 2531 153 
Q 2406 307 2374 538 
L 2342 538 
Q 2234 230 1984 76 
Q 1734 -77 1389 -77 
Q 864 -77 573 192 
Q 282 461 282 922 
Q 282 1389 624 1638 
Q 966 1888 1690 1888 
L 2342 1888 
L 2342 2214 
Q 2342 2566 2150 2752 
Q 1958 2938 1562 2938 
Q 1261 2938 1059 2803 
Q 858 2669 723 2445 
L 416 2733 
Q 550 3002 844 3190 
Q 1139 3379 1587 3379 
Q 2189 3379 2521 3084 
Q 2854 2790 2854 2266 
L 2854 448 
L 3232 448 
L 3232 0 
L 2944 0 
z
M 1472 358 
Q 1664 358 1824 403 
Q 1984 448 2099 531 
Q 2214 614 2278 723 
Q 2342 832 2342 960 
L 2342 1504 
L 1664 1504 
Q 1222 1504 1020 1376 
Q 819 1248 819 1005 
L 819 870 
Q 819 627 995 492 
Q 1171 358 1472 358 
z
" transform="scale(0.015625)"/>
       <path id="IBMPlexSans-Regular-77" d="M 198 3302 
L 698 3302 
L 1050 1875 
L 1402 429 
L 1414 429 
L 1818 1875 
L 2234 3302 
L 2688 3302 
L 3117 1875 
L 3526 429 
L 3539 429 
L 3878 1875 
L 4237 3302 
L 4717 3302 
L 3840 0 
L 3206 0 
L 2746 1587 
L 2458 2592 
L 2445 2592 
L 2163 1587 
L 1702 0 
L 1082 0 
L 198 3302 
z
" transform="scale(0.015625)"/>
      </defs>
      <use xlink:href="#IBMPlexSans-Regular-64"/>
      <use xlink:href="#IBMPlexSans-Regular-72" transform="translate(57.999985 0)"/>
      <use xlink:href="#IBMPlexSans-Regular-61" transform="translate(94.699982 0)"/>
      <use xlink:href="#IBMPlexSans-Regular-77" transform="translate(148.099976 0)"/>
     </g>
    </g>
   </g>
   <g id="matplotlib.axis_2">
    <g id="ytick_1">
     <g id="line2d_11">
      <path d="M 58.044375 135.426169 
L 324.420465 135.426169 
" clip-path="url(#pf2e39ff09d)" style="fill: none; stroke-dasharray: 1.85,0.8; stroke-dashoffset: 0; stroke: #838383; stroke-opacity: 0.2; stroke-width: 0.5"/>
     </g>
     <g id="line2d_12"/>
     <g id="text_7">
      <!-- 0.005 -->
      <g style="fill: #838383" transform="translate(22.48 139.866169) scale(0.12 -0.12)">
       <defs>
        <path id="IBMPlexSans-Regular-2e" d="M 870 -77 
Q 666 -77 573 25 
Q 480 128 480 294 
L 480 378 
Q 480 544 573 646 
Q 666 749 870 749 
Q 1075 749 1168 646 
Q 1261 544 1261 378 
L 1261 294 
Q 1261 128 1168 25 
Q 1075 -77 870 -77 
z
" transform="scale(0.015625)"/>
       </defs>
       <use xlink:href="#IBMPlexSans-Regular-30"/>
       <use xlink:href="#IBMPlexSans-Regular-2e" transform="translate(59.999985 0)"/>
       <use xlink:href="#IBMPlexSans-Regular-30" transform="translate(87.199982 0)"/>
       <use xlink:href="#IBMPlexSans-Regular-30" transform="translate(147.199966 0)"/>
       <use xlink:href="#IBMPlexSans-Regular-35" transform="translate(207.199951 0)"/>
      </g>
     </g>
    </g>
    <g id="ytick_2">
     <g id="line2d_13">
      <path d="M 58.044375 90.615353 
L 324.420465 90.615353 
" clip-path="url(#pf2e39ff09d)" style="fill: none; stroke-dasharray: 1.85,0.8; stroke-dashoffset: 0; stroke: #838383; stroke-opacity: 0.2; stroke-width: 0.5"/>
     </g>
     <g id="line2d_14"/>
     <g id="text_8">
      <!-- 0.010 -->
      <g style="fill: #838383" transform="translate(22.48 95.055353) scale(0.12 -0.12)">
       <use xlink:href="#IBMPlexSans-Regular-30"/>
       <use xlink:href="#IBMPlexSans-Regular-2e" transform="translate(59.999985 0)"/>
       <use xlink:href="#IBMPlexSans-Regular-30" transform="translate(87.199982 0)"/>
       <use xlink:href="#IBMPlexSans-Regular-31" transform="translate(147.199966 0)"/>
       <use xlink:href="#IBMPlexSans-Regular-30" transform="translate(207.199951 0)"/>
      </g>
     </g>
    </g>
    <g id="ytick_3">
     <g id="line2d_15">
      <path d="M 58.044375 45.804537 
L 324.420465 45.804537 
" clip-path="url(#pf2e39ff09d)" style="fill: none; stroke-dasharray: 1.85,0.8; stroke-dashoffset: 0; stroke: #838383; stroke-opacity: 0.2; stroke-width: 0.5"/>
     </g>
     <g id="line2d_16"/>
     <g id="text_9">
      <!-- 0.015 -->
      <g style="fill: #838383" transform="translate(22.48 50.244537) scale(0.12 -0.12)">
       <use xlink:href="#IBMPlexSans-Regular-30"/>
       <use xlink:href="#IBMPlexSans-Regular-2e" transform="translate(59.999985 0)"/>
       <use xlink:href="#IBMPlexSans-Regular-30" transform="translate(87.199982 0)"/>
       <use xlink:href="#IBMPlexSans-Regular-31" transform="translate(147.199966 0)"/>
       <use xlink:href="#IBMPlexSans-Regular-35" transform="translate(207.199951 0)"/>
      </g>
     </g>
    </g>
    <g id="text_10">
     <!-- train_dtd -->
     <g style="fill: #bdbdbd" transform="translate(16.08 113.859301) rotate(-90) scale(0.12 -0.12)">
      <defs>
       <path id="IBMPlexSans-Regular-74" d="M 1274 0 
Q 1005 0 867 150 
Q 730 301 730 544 
L 730 2854 
L 186 2854 
L 186 3302 
L 493 3302 
Q 659 3302 720 3369 
Q 781 3437 781 3603 
L 781 4218 
L 1242 4218 
L 1242 3302 
L 1965 3302 
L 1965 2854 
L 1242 2854 
L 1242 448 
L 1914 448 
L 1914 0 
L 1274 0 
z
" transform="scale(0.015625)"/>
       <path id="IBMPlexSans-Regular-69" d="M 800 4077 
Q 634 4077 560 4157 
Q 486 4237 486 4365 
L 486 4448 
Q 486 4576 560 4656 
Q 634 4736 800 4736 
Q 966 4736 1040 4656 
Q 1114 4576 1114 4448 
L 1114 4365 
Q 1114 4237 1040 4157 
Q 966 4077 800 4077 
z
M 544 3302 
L 1056 3302 
L 1056 0 
L 544 0 
L 544 3302 
z
" transform="scale(0.015625)"/>
       <path id="IBMPlexSans-Regular-6e" d="M 544 0 
L 544 3302 
L 1056 3302 
L 1056 2765 
L 1082 2765 
Q 1203 3046 1424 3212 
Q 1645 3379 2016 3379 
Q 2528 3379 2825 3049 
Q 3123 2720 3123 2118 
L 3123 0 
L 2611 0 
L 2611 2029 
Q 2611 2918 1862 2918 
Q 1709 2918 1565 2880 
Q 1421 2842 1305 2765 
Q 1190 2688 1123 2569 
Q 1056 2451 1056 2291 
L 1056 0 
L 544 0 
z
" transform="scale(0.015625)"/>
       <path id="IBMPlexSans-Regular-5f" d="M 192 -1056 
L 192 -608 
L 3424 -608 
L 3424 -1056 
L 192 -1056 
z
" transform="scale(0.015625)"/>
      </defs>
      <use xlink:href="#IBMPlexSans-Regular-74"/>
      <use xlink:href="#IBMPlexSans-Regular-72" transform="translate(35.099991 0)"/>
      <use xlink:href="#IBMPlexSans-Regular-61" transform="translate(71.799988 0)"/>
      <use xlink:href="#IBMPlexSans-Regular-69" transform="translate(125.199982 0)"/>
      <use xlink:href="#IBMPlexSans-Regular-6e" transform="translate(150.199966 0)"/>
      <use xlink:href="#IBMPlexSans-Regular-5f" transform="translate(206.999954 0)"/>
      <use xlink:href="#IBMPlexSans-Regular-64" transform="translate(263.499939 0)"/>
      <use xlink:href="#IBMPlexSans-Regular-74" transform="translate(321.499924 0)"/>
      <use xlink:href="#IBMPlexSans-Regular-64" transform="translate(356.599915 0)"/>
     </g>
    </g>
   </g>
   <g id="line2d_17">
    <path d="M 70.152379 39.774867 
L 71.369264 154.327372 
L 72.586149 147.85407 
L 73.803034 158.919736 
L 75.019918 162.07516 
L 76.236803 158.37043 
L 77.453688 161.256999 
L 78.670573 158.066457 
L 79.887458 163.332472 
L 81.104343 159.34618 
L 82.321227 160.805519 
L 83.538112 161.277899 
L 84.754997 159.455968 
L 85.971882 158.972754 
L 87.188767 162.263744 
L 88.405652 158.368189 
L 89.622536 151.330272 
L 90.839421 159.213614 
L 92.056306 153.837815 
L 93.273191 161.557228 
L 94.490076 162.995655 
L 95.706961 159.024666 
L 96.923845 160.519471 
L 98.14073 162.426926 
L 99.357615 162.848524 
L 100.5745 158.374908 
L 101.791385 161.273425 
L 103.00827 151.007261 
L 104.225154 159.543349 
L 105.442039 159.290165 
L 106.658924 155.502157 
L 107.875809 161.082603 
L 109.092694 157.88162 
L 110.309579 163.134568 
L 111.526463 158.550046 
L 112.743348 158.00149 
L 113.960233 157.777428 
L 115.177118 163.04831 
L 116.394003 158.744974 
L 117.610888 157.984309 
L 118.827772 158.571705 
L 120.044657 158.422701 
L 121.261542 151.123768 
L 122.478427 161.644977 
L 123.695312 156.190014 
L 124.912197 153.396794 
L 126.129081 156.139224 
L 127.345966 158.06235 
L 128.562851 162.152838 
L 129.779736 157.162033 
L 130.996621 158.493656 
L 132.213505 154.782203 
L 133.43039 157.473468 
L 134.647275 157.181451 
L 135.86416 154.481226 
L 137.081045 154.3916 
L 138.29793 153.853131 
L 139.514814 161.950811 
L 140.731699 155.446889 
L 141.948584 153.445718 
L 143.165469 155.859899 
L 144.382354 156.574999 
L 145.599239 151.102492 
L 146.816123 161.279017 
L 148.033008 162.029608 
L 150.466778 152.670492 
L 151.683663 156.334895 
L 152.900548 156.448785 
L 154.117432 156.941339 
L 155.334317 161.721908 
L 156.551202 152.277277 
L 157.768087 160.802168 
L 158.984972 156.055203 
L 160.201857 151.997588 
L 161.418741 155.259803 
L 162.635626 160.582584 
L 163.852511 156.108976 
L 165.069396 160.715521 
L 166.286281 161.233461 
L 167.503166 160.940326 
L 168.72005 160.295805 
L 169.936935 155.803146 
L 171.15382 149.789908 
L 172.370705 161.144582 
L 173.58759 158.20537 
L 174.804475 152.252253 
L 176.021359 161.854465 
L 177.238244 143.49063 
L 178.455129 160.849953 
L 179.672014 160.678562 
L 180.888899 146.406316 
L 182.105784 157.065687 
L 183.322668 162.525884 
L 184.539553 162.46128 
L 185.756438 156.426383 
L 186.973323 162.590483 
L 188.190208 162.393318 
L 189.407093 158.460791 
L 190.623977 152.30192 
L 191.840862 129.172819 
L 193.057747 146.061636 
L 194.274632 158.395816 
L 195.491517 156.857317 
L 196.708402 157.504835 
L 197.925286 155.535769 
L 199.142171 156.066775 
L 200.359056 150.77163 
L 201.575941 155.92338 
L 202.792826 150.459444 
L 204.009711 161.77791 
L 205.226595 152.572653 
L 206.44348 156.962247 
L 207.660365 153.857981 
L 208.87725 151.097634 
L 210.094135 154.301981 
L 211.31102 161.663656 
L 212.527904 156.818488 
L 213.744789 150.276097 
L 214.961674 157.791622 
L 216.178559 155.260558 
L 217.395444 156.534305 
L 218.612329 161.269318 
L 219.829213 157.127674 
L 221.046098 151.962478 
L 222.262983 161.15168 
L 223.479868 161.108365 
L 224.696753 158.792028 
L 225.913638 158.841687 
L 227.130522 161.146831 
L 228.347407 161.316364 
L 229.564292 155.508893 
L 230.781177 162.381369 
L 231.998062 161.594191 
L 233.214947 159.864871 
L 234.431831 149.995662 
L 235.648716 163.153236 
L 236.865601 162.512066 
L 238.082486 154.831494 
L 239.299371 161.234204 
L 240.516256 158.580294 
L 241.73314 156.993614 
L 242.950025 161.667008 
L 244.16691 153.25788 
L 245.383795 152.490125 
L 246.60068 162.590862 
L 247.817565 153.266098 
L 249.034449 157.894311 
L 250.251334 154.861375 
L 251.468219 157.140736 
L 252.685104 156.164235 
L 253.901989 156.254237 
L 255.118873 157.462262 
L 256.335758 159.562396 
L 257.552643 156.63588 
L 258.769528 155.179153 
L 259.986413 157.482428 
L 261.203298 162.765625 
L 262.420182 160.264058 
L 263.637067 160.982519 
L 264.853952 162.062464 
L 266.070837 156.990254 
L 267.287722 154.02602 
L 268.504607 157.55375 
L 269.721491 162.72044 
L 270.938376 162.538954 
L 272.155261 147.814499 
L 273.372146 160.972816 
L 274.589031 154.203766 
L 275.805916 158.010079 
L 277.0228 156.696377 
L 278.239685 161.084465 
L 279.45657 162.192046 
L 280.673455 162.457549 
L 281.89034 160.524708 
L 283.107225 160.204309 
L 284.324109 154.195178 
L 285.540994 161.605025 
L 286.757879 161.084097 
L 287.974764 160.700213 
L 289.191649 162.420945 
L 290.408534 155.369599 
L 291.625418 154.642546 
L 292.842303 161.763725 
L 294.059188 148.065429 
L 295.276073 162.87391 
L 297.709843 156.192255 
L 298.926727 158.007834 
L 300.143612 161.941104 
L 301.360497 156.208305 
L 302.577382 14.63488 
L 303.794267 158.110523 
L 305.011152 154.943519 
L 306.228036 158.308815 
L 307.444921 160.41641 
L 308.661806 160.913809 
L 309.878691 162.932546 
L 311.095576 161.789491 
L 312.312461 154.29525 
L 312.312461 154.29525 
" clip-path="url(#pf2e39ff09d)" style="fill: none; stroke: #2196f3; stroke-width: 1.5; stroke-linecap: round"/>
   </g>
   <g id="patch_3">
    <path d="M 58.044375 170.767352 
L 58.044375 7.2 
" style="fill: none"/>
   </g>
   <g id="patch_4">
    <path d="M 324.420465 170.767352 
L 324.420465 7.2 
" style="fill: none"/>
   </g>
   <g id="patch_5">
    <path d="M 58.044375 170.767352 
L 324.420465 170.767352 
" style="fill: none"/>
   </g>
   <g id="patch_6">
    <path d="M 58.044375 7.2 
L 324.420465 7.2 
" style="fill: none"/>
   </g>
  </g>
 </g>
 <defs>
  <clipPath id="pf2e39ff09d">
   <rect x="58.044375" y="7.2" width="266.37609" height="163.567352"/>
  </clipPath>
 </defs>
</svg>
