<?xml version="1.0" encoding="utf-8" standalone="no"?>
<!DOCTYPE svg PUBLIC "-//W3C//DTD SVG 1.1//EN"
  "http://www.w3.org/Graphics/SVG/1.1/DTD/svg11.dtd">
<svg xmlns:xlink="http://www.w3.org/1999/xlink" width="331.620465pt" height="208.027352pt" viewBox="0 0 331.620465 208.027352" xmlns="http://www.w3.org/2000/svg" version="1.1">
 <metadata>
  <rdf:RDF xmlns:dc="http://purl.org/dc/elements/1.1/" xmlns:cc="http://creativecommons.org/ns#" xmlns:rdf="http://www.w3.org/1999/02/22-rdf-syntax-ns#">
   <cc:Work>
    <dc:type rdf:resource="http://purl.org/dc/dcmitype/StillImage"/>
    <dc:date>2025-08-04T12:39:15.845793</dc:date>
    <dc:format>image/svg+xml</dc:format>
    <dc:creator>
     <cc:Agent>
      <dc:title>Matplotlib v3.10.3, https://matplotlib.org/</dc:title>
     </cc:Agent>
    </dc:creator>
   </cc:Work>
  </rdf:RDF>
 </metadata>
 <defs>
  <style type="text/css">*{stroke-linejoin: round; stroke-linecap: butt}</style>
 </defs>
 <g id="figure_1">
  <g id="patch_1">
   <path d="M 0 208.027352 
L 331.620465 208.027352 
L 331.620465 0 
L 0 0 
L 0 208.027352 
z
" style="fill: none"/>
  </g>
  <g id="axes_1">
   <g id="patch_2">
    <path d="M 58.044375 170.767352 
L 324.420465 170.767352 
L 324.420465 7.2 
L 58.044375 7.2 
L 58.044375 170.767352 
z
" style="fill: none"/>
   </g>
   <g id="matplotlib.axis_1">
    <g id="xtick_1">
     <g id="line2d_1">
      <path d="M 70.152379 170.767352 
L 70.152379 7.2 
" clip-path="url(#p8786b4f554)" style="fill: none; stroke-dasharray: 1.85,0.8; stroke-dashoffset: 0; stroke: #838383; stroke-opacity: 0.2; stroke-width: 0.5"/>
     </g>
     <g id="line2d_2"/>
     <g id="text_1">
      <!-- 0 -->
      <g style="fill: #838383" transform="translate(66.552379 183.147352) scale(0.12 -0.12)">
       <defs>
        <path id="IBMPlexSans-Regular-30" d="M 1920 -77 
Q 1120 -77 752 531 
Q 384 1139 384 2234 
Q 384 3328 752 3936 
Q 1120 4544 1920 4544 
Q 2720 4544 3088 3936 
Q 3456 3328 3456 2234 
Q 3456 1139 3088 531 
Q 2720 -77 1920 -77 
z
M 1920 390 
Q 2182 390 2368 499 
Q 2554 608 2669 806 
Q 2784 1005 2838 1273 
Q 2893 1542 2893 1869 
L 2893 2598 
Q 2893 2925 2838 3193 
Q 2784 3462 2669 3660 
Q 2554 3859 2368 3968 
Q 2182 4077 1920 4077 
Q 1658 4077 1472 3968 
Q 1286 3859 1171 3660 
Q 1056 3462 1001 3193 
Q 947 2925 947 2598 
L 947 1869 
Q 947 1542 1001 1273 
Q 1056 1005 1171 806 
Q 1286 608 1472 499 
Q 1658 390 1920 390 
z
" transform="scale(0.015625)"/>
       </defs>
       <use xlink:href="#IBMPlexSans-Regular-30"/>
      </g>
     </g>
    </g>
    <g id="xtick_2">
     <g id="line2d_3">
      <path d="M 118.681454 170.767352 
L 118.681454 7.2 
" clip-path="url(#p8786b4f554)" style="fill: none; stroke-dasharray: 1.85,0.8; stroke-dashoffset: 0; stroke: #838383; stroke-opacity: 0.2; stroke-width: 0.5"/>
     </g>
     <g id="line2d_4"/>
     <g id="text_2">
      <!-- 100 -->
      <g style="fill: #838383" transform="translate(107.881454 183.147352) scale(0.12 -0.12)">
       <defs>
        <path id="IBMPlexSans-Regular-31" d="M 563 0 
L 563 474 
L 1811 474 
L 1811 4070 
L 1766 4070 
L 640 3021 
L 326 3360 
L 1510 4467 
L 2349 4467 
L 2349 474 
L 3501 474 
L 3501 0 
L 563 0 
z
" transform="scale(0.015625)"/>
       </defs>
       <use xlink:href="#IBMPlexSans-Regular-31"/>
       <use xlink:href="#IBMPlexSans-Regular-30" transform="translate(59.999985 0)"/>
       <use xlink:href="#IBMPlexSans-Regular-30" transform="translate(119.999969 0)"/>
      </g>
     </g>
    </g>
    <g id="xtick_3">
     <g id="line2d_5">
      <path d="M 167.210528 170.767352 
L 167.210528 7.2 
" clip-path="url(#p8786b4f554)" style="fill: none; stroke-dasharray: 1.85,0.8; stroke-dashoffset: 0; stroke: #838383; stroke-opacity: 0.2; stroke-width: 0.5"/>
     </g>
     <g id="line2d_6"/>
     <g id="text_3">
      <!-- 200 -->
      <g style="fill: #838383" transform="translate(156.410528 183.147352) scale(0.12 -0.12)">
       <defs>
        <path id="IBMPlexSans-Regular-32" d="M 3411 0 
L 480 0 
L 480 550 
L 1939 1894 
Q 2253 2182 2464 2505 
Q 2675 2829 2675 3155 
L 2675 3232 
Q 2675 3603 2470 3833 
Q 2266 4064 1850 4064 
Q 1645 4064 1491 4006 
Q 1338 3949 1226 3846 
Q 1114 3744 1040 3606 
Q 966 3469 922 3309 
L 442 3494 
Q 506 3693 618 3881 
Q 730 4070 899 4217 
Q 1069 4365 1309 4454 
Q 1549 4544 1875 4544 
Q 2202 4544 2458 4448 
Q 2714 4352 2886 4179 
Q 3059 4006 3152 3769 
Q 3245 3533 3245 3245 
Q 3245 2982 3171 2758 
Q 3098 2534 2970 2332 
Q 2842 2131 2659 1939 
Q 2477 1747 2266 1555 
L 1062 474 
L 3411 474 
L 3411 0 
z
" transform="scale(0.015625)"/>
       </defs>
       <use xlink:href="#IBMPlexSans-Regular-32"/>
       <use xlink:href="#IBMPlexSans-Regular-30" transform="translate(59.999985 0)"/>
       <use xlink:href="#IBMPlexSans-Regular-30" transform="translate(119.999969 0)"/>
      </g>
     </g>
    </g>
    <g id="xtick_4">
     <g id="line2d_7">
      <path d="M 215.739602 170.767352 
L 215.739602 7.2 
" clip-path="url(#p8786b4f554)" style="fill: none; stroke-dasharray: 1.85,0.8; stroke-dashoffset: 0; stroke: #838383; stroke-opacity: 0.2; stroke-width: 0.5"/>
     </g>
     <g id="line2d_8"/>
     <g id="text_4">
      <!-- 300 -->
      <g style="fill: #838383" transform="translate(204.939602 183.147352) scale(0.12 -0.12)">
       <defs>
        <path id="IBMPlexSans-Regular-33" d="M 1670 2573 
Q 2125 2573 2352 2781 
Q 2579 2989 2579 3315 
L 2579 3360 
Q 2579 3712 2358 3888 
Q 2138 4064 1779 4064 
Q 1434 4064 1216 3913 
Q 998 3763 858 3507 
L 461 3814 
Q 544 3949 662 4080 
Q 781 4211 941 4313 
Q 1101 4416 1312 4480 
Q 1523 4544 1792 4544 
Q 2074 4544 2323 4470 
Q 2573 4397 2755 4253 
Q 2938 4109 3043 3897 
Q 3149 3686 3149 3418 
Q 3149 3200 3081 3027 
Q 3014 2854 2899 2726 
Q 2784 2598 2627 2508 
Q 2470 2419 2291 2374 
L 2291 2349 
Q 2470 2310 2640 2224 
Q 2810 2138 2941 2000 
Q 3072 1862 3152 1667 
Q 3232 1472 3232 1222 
Q 3232 934 3123 694 
Q 3014 454 2816 284 
Q 2618 115 2336 19 
Q 2054 -77 1715 -77 
Q 1427 -77 1203 -13 
Q 979 51 806 160 
Q 634 269 502 403 
Q 371 538 269 685 
L 672 992 
Q 755 858 854 749 
Q 954 640 1075 563 
Q 1197 486 1350 444 
Q 1504 403 1709 403 
Q 2182 403 2425 617 
Q 2669 832 2669 1229 
L 2669 1280 
Q 2669 1677 2425 1891 
Q 2182 2106 1709 2106 
L 1184 2106 
L 1184 2573 
L 1670 2573 
z
" transform="scale(0.015625)"/>
       </defs>
       <use xlink:href="#IBMPlexSans-Regular-33"/>
       <use xlink:href="#IBMPlexSans-Regular-30" transform="translate(59.999985 0)"/>
       <use xlink:href="#IBMPlexSans-Regular-30" transform="translate(119.999969 0)"/>
      </g>
     </g>
    </g>
    <g id="xtick_5">
     <g id="line2d_9">
      <path d="M 264.268677 170.767352 
L 264.268677 7.2 
" clip-path="url(#p8786b4f554)" style="fill: none; stroke-dasharray: 1.85,0.8; stroke-dashoffset: 0; stroke: #838383; stroke-opacity: 0.2; stroke-width: 0.5"/>
     </g>
     <g id="line2d_10"/>
     <g id="text_5">
      <!-- 400 -->
      <g style="fill: #838383" transform="translate(253.468677 183.147352) scale(0.12 -0.12)">
       <defs>
        <path id="IBMPlexSans-Regular-34" d="M 2400 0 
L 2400 877 
L 243 877 
L 243 1350 
L 2112 4467 
L 2912 4467 
L 2912 1325 
L 3558 1325 
L 3558 877 
L 2912 877 
L 2912 0 
L 2400 0 
z
M 749 1325 
L 2400 1325 
L 2400 4051 
L 2368 4051 
L 749 1325 
z
" transform="scale(0.015625)"/>
       </defs>
       <use xlink:href="#IBMPlexSans-Regular-34"/>
       <use xlink:href="#IBMPlexSans-Regular-30" transform="translate(59.999985 0)"/>
       <use xlink:href="#IBMPlexSans-Regular-30" transform="translate(119.999969 0)"/>
      </g>
     </g>
    </g>
    <g id="xtick_6">
     <g id="line2d_11">
      <path d="M 312.797751 170.767352 
L 312.797751 7.2 
" clip-path="url(#p8786b4f554)" style="fill: none; stroke-dasharray: 1.85,0.8; stroke-dashoffset: 0; stroke: #838383; stroke-opacity: 0.2; stroke-width: 0.5"/>
     </g>
     <g id="line2d_12"/>
     <g id="text_6">
      <!-- 500 -->
      <g style="fill: #838383" transform="translate(301.997751 183.147352) scale(0.12 -0.12)">
       <defs>
        <path id="IBMPlexSans-Regular-35" d="M 3187 3994 
L 1229 3994 
L 1101 2291 
L 1146 2291 
Q 1306 2515 1507 2649 
Q 1709 2784 2061 2784 
Q 2349 2784 2592 2688 
Q 2835 2592 3014 2416 
Q 3194 2240 3293 1984 
Q 3392 1728 3392 1402 
Q 3392 1075 3289 803 
Q 3187 531 2992 336 
Q 2797 141 2518 32 
Q 2240 -77 1888 -77 
Q 1606 -77 1392 -13 
Q 1178 51 1011 160 
Q 845 269 720 403 
Q 595 538 493 685 
L 896 992 
Q 979 858 1072 749 
Q 1165 640 1277 563 
Q 1389 486 1536 444 
Q 1683 403 1888 403 
Q 2349 403 2585 646 
Q 2822 890 2822 1331 
L 2822 1395 
Q 2822 1837 2585 2080 
Q 2349 2323 1888 2323 
Q 1581 2323 1405 2211 
Q 1229 2099 1088 1946 
L 634 2010 
L 794 4467 
L 3187 4467 
L 3187 3994 
z
" transform="scale(0.015625)"/>
       </defs>
       <use xlink:href="#IBMPlexSans-Regular-35"/>
       <use xlink:href="#IBMPlexSans-Regular-30" transform="translate(59.999985 0)"/>
       <use xlink:href="#IBMPlexSans-Regular-30" transform="translate(119.999969 0)"/>
      </g>
     </g>
    </g>
    <g id="text_7">
     <!-- draw -->
     <g style="fill: #bdbdbd" transform="translate(177.738045 198.427352) scale(0.12 -0.12)">
      <defs>
       <path id="IBMPlexSans-Regular-64" d="M 2656 538 
L 2630 538 
Q 2330 -77 1664 -77 
Q 1357 -77 1107 44 
Q 858 166 682 390 
Q 506 614 413 934 
Q 320 1254 320 1651 
Q 320 2048 413 2368 
Q 506 2688 682 2912 
Q 858 3136 1107 3257 
Q 1357 3379 1664 3379 
Q 2010 3379 2256 3228 
Q 2502 3078 2630 2765 
L 2656 2765 
L 2656 4736 
L 3168 4736 
L 3168 0 
L 2656 0 
L 2656 538 
z
M 1805 384 
Q 1978 384 2134 429 
Q 2291 474 2406 560 
Q 2522 646 2589 771 
Q 2656 896 2656 1056 
L 2656 2285 
Q 2656 2419 2589 2537 
Q 2522 2656 2406 2739 
Q 2291 2822 2134 2870 
Q 1978 2918 1805 2918 
Q 1370 2918 1120 2646 
Q 870 2374 870 1933 
L 870 1370 
Q 870 928 1120 656 
Q 1370 384 1805 384 
z
" transform="scale(0.015625)"/>
       <path id="IBMPlexSans-Regular-72" d="M 544 0 
L 544 3302 
L 1056 3302 
L 1056 2694 
L 1088 2694 
Q 1178 2931 1408 3116 
Q 1638 3302 2042 3302 
L 2240 3302 
L 2240 2790 
L 1939 2790 
Q 1523 2790 1289 2633 
Q 1056 2477 1056 2240 
L 1056 0 
L 544 0 
z
" transform="scale(0.015625)"/>
       <path id="IBMPlexSans-Regular-61" d="M 2944 0 
Q 2656 0 2531 153 
Q 2406 307 2374 538 
L 2342 538 
Q 2234 230 1984 76 
Q 1734 -77 1389 -77 
Q 864 -77 573 192 
Q 282 461 282 922 
Q 282 1389 624 1638 
Q 966 1888 1690 1888 
L 2342 1888 
L 2342 2214 
Q 2342 2566 2150 2752 
Q 1958 2938 1562 2938 
Q 1261 2938 1059 2803 
Q 858 2669 723 2445 
L 416 2733 
Q 550 3002 844 3190 
Q 1139 3379 1587 3379 
Q 2189 3379 2521 3084 
Q 2854 2790 2854 2266 
L 2854 448 
L 3232 448 
L 3232 0 
L 2944 0 
z
M 1472 358 
Q 1664 358 1824 403 
Q 1984 448 2099 531 
Q 2214 614 2278 723 
Q 2342 832 2342 960 
L 2342 1504 
L 1664 1504 
Q 1222 1504 1020 1376 
Q 819 1248 819 1005 
L 819 870 
Q 819 627 995 492 
Q 1171 358 1472 358 
z
" transform="scale(0.015625)"/>
       <path id="IBMPlexSans-Regular-77" d="M 198 3302 
L 698 3302 
L 1050 1875 
L 1402 429 
L 1414 429 
L 1818 1875 
L 2234 3302 
L 2688 3302 
L 3117 1875 
L 3526 429 
L 3539 429 
L 3878 1875 
L 4237 3302 
L 4717 3302 
L 3840 0 
L 3206 0 
L 2746 1587 
L 2458 2592 
L 2445 2592 
L 2163 1587 
L 1702 0 
L 1082 0 
L 198 3302 
z
" transform="scale(0.015625)"/>
      </defs>
      <use xlink:href="#IBMPlexSans-Regular-64"/>
      <use xlink:href="#IBMPlexSans-Regular-72" transform="translate(57.999985 0)"/>
      <use xlink:href="#IBMPlexSans-Regular-61" transform="translate(94.699982 0)"/>
      <use xlink:href="#IBMPlexSans-Regular-77" transform="translate(148.099976 0)"/>
     </g>
    </g>
   </g>
   <g id="matplotlib.axis_2">
    <g id="ytick_1">
     <g id="line2d_13">
      <path d="M 58.044375 160.357179 
L 324.420465 160.357179 
" clip-path="url(#p8786b4f554)" style="fill: none; stroke-dasharray: 1.85,0.8; stroke-dashoffset: 0; stroke: #838383; stroke-opacity: 0.2; stroke-width: 0.5"/>
     </g>
     <g id="line2d_14"/>
     <g id="text_8">
      <!-- 0.002 -->
      <g style="fill: #838383" transform="translate(22.48 164.797179) scale(0.12 -0.12)">
       <defs>
        <path id="IBMPlexSans-Regular-2e" d="M 870 -77 
Q 666 -77 573 25 
Q 480 128 480 294 
L 480 378 
Q 480 544 573 646 
Q 666 749 870 749 
Q 1075 749 1168 646 
Q 1261 544 1261 378 
L 1261 294 
Q 1261 128 1168 25 
Q 1075 -77 870 -77 
z
" transform="scale(0.015625)"/>
       </defs>
       <use xlink:href="#IBMPlexSans-Regular-30"/>
       <use xlink:href="#IBMPlexSans-Regular-2e" transform="translate(59.999985 0)"/>
       <use xlink:href="#IBMPlexSans-Regular-30" transform="translate(87.199982 0)"/>
       <use xlink:href="#IBMPlexSans-Regular-30" transform="translate(147.199966 0)"/>
       <use xlink:href="#IBMPlexSans-Regular-32" transform="translate(207.199951 0)"/>
      </g>
     </g>
    </g>
    <g id="ytick_2">
     <g id="line2d_15">
      <path d="M 58.044375 124.219843 
L 324.420465 124.219843 
" clip-path="url(#p8786b4f554)" style="fill: none; stroke-dasharray: 1.85,0.8; stroke-dashoffset: 0; stroke: #838383; stroke-opacity: 0.2; stroke-width: 0.5"/>
     </g>
     <g id="line2d_16"/>
     <g id="text_9">
      <!-- 0.004 -->
      <g style="fill: #838383" transform="translate(22.48 128.659843) scale(0.12 -0.12)">
       <use xlink:href="#IBMPlexSans-Regular-30"/>
       <use xlink:href="#IBMPlexSans-Regular-2e" transform="translate(59.999985 0)"/>
       <use xlink:href="#IBMPlexSans-Regular-30" transform="translate(87.199982 0)"/>
       <use xlink:href="#IBMPlexSans-Regular-30" transform="translate(147.199966 0)"/>
       <use xlink:href="#IBMPlexSans-Regular-34" transform="translate(207.199951 0)"/>
      </g>
     </g>
    </g>
    <g id="ytick_3">
     <g id="line2d_17">
      <path d="M 58.044375 88.082508 
L 324.420465 88.082508 
" clip-path="url(#p8786b4f554)" style="fill: none; stroke-dasharray: 1.85,0.8; stroke-dashoffset: 0; stroke: #838383; stroke-opacity: 0.2; stroke-width: 0.5"/>
     </g>
     <g id="line2d_18"/>
     <g id="text_10">
      <!-- 0.006 -->
      <g style="fill: #838383" transform="translate(22.48 92.522508) scale(0.12 -0.12)">
       <defs>
        <path id="IBMPlexSans-Regular-36" d="M 1926 -77 
Q 1581 -77 1302 41 
Q 1024 160 829 381 
Q 634 602 531 922 
Q 429 1242 429 1638 
Q 429 2138 576 2576 
Q 723 3014 956 3376 
Q 1190 3738 1472 4016 
Q 1754 4294 2022 4467 
L 2714 4467 
Q 2355 4205 2073 3955 
Q 1792 3706 1581 3434 
Q 1370 3162 1222 2851 
Q 1075 2541 986 2150 
L 1018 2138 
Q 1178 2413 1430 2595 
Q 1683 2778 2093 2778 
Q 2381 2778 2624 2682 
Q 2867 2586 3040 2406 
Q 3213 2227 3312 1971 
Q 3411 1715 3411 1402 
Q 3411 1075 3305 803 
Q 3200 531 3005 336 
Q 2810 141 2534 32 
Q 2259 -77 1926 -77 
z
M 1920 390 
Q 2362 390 2608 633 
Q 2854 877 2854 1331 
L 2854 1382 
Q 2854 1837 2608 2080 
Q 2362 2323 1920 2323 
Q 1478 2323 1232 2080 
Q 986 1837 986 1382 
L 986 1331 
Q 986 877 1232 633 
Q 1478 390 1920 390 
z
" transform="scale(0.015625)"/>
       </defs>
       <use xlink:href="#IBMPlexSans-Regular-30"/>
       <use xlink:href="#IBMPlexSans-Regular-2e" transform="translate(59.999985 0)"/>
       <use xlink:href="#IBMPlexSans-Regular-30" transform="translate(87.199982 0)"/>
       <use xlink:href="#IBMPlexSans-Regular-30" transform="translate(147.199966 0)"/>
       <use xlink:href="#IBMPlexSans-Regular-36" transform="translate(207.199951 0)"/>
      </g>
     </g>
    </g>
    <g id="ytick_4">
     <g id="line2d_19">
      <path d="M 58.044375 51.945173 
L 324.420465 51.945173 
" clip-path="url(#p8786b4f554)" style="fill: none; stroke-dasharray: 1.85,0.8; stroke-dashoffset: 0; stroke: #838383; stroke-opacity: 0.2; stroke-width: 0.5"/>
     </g>
     <g id="line2d_20"/>
     <g id="text_11">
      <!-- 0.008 -->
      <g style="fill: #838383" transform="translate(22.48 56.385173) scale(0.12 -0.12)">
       <defs>
        <path id="IBMPlexSans-Regular-38" d="M 1920 -77 
Q 1536 -77 1248 22 
Q 960 122 765 294 
Q 570 467 470 704 
Q 371 941 371 1216 
Q 371 1677 620 1945 
Q 870 2214 1274 2323 
L 1274 2374 
Q 922 2496 714 2768 
Q 506 3040 506 3424 
Q 506 3936 877 4240 
Q 1248 4544 1920 4544 
Q 2592 4544 2963 4240 
Q 3334 3936 3334 3424 
Q 3334 3040 3126 2768 
Q 2918 2496 2566 2374 
L 2566 2323 
Q 2970 2214 3219 1945 
Q 3469 1677 3469 1216 
Q 3469 941 3369 704 
Q 3270 467 3075 294 
Q 2880 122 2592 22 
Q 2304 -77 1920 -77 
z
M 1920 390 
Q 2387 390 2643 598 
Q 2899 806 2899 1190 
L 2899 1325 
Q 2899 1709 2643 1917 
Q 2387 2125 1920 2125 
Q 1453 2125 1197 1917 
Q 941 1709 941 1325 
L 941 1190 
Q 941 806 1197 598 
Q 1453 390 1920 390 
z
M 1920 2573 
Q 2342 2573 2560 2752 
Q 2778 2931 2778 3277 
L 2778 3373 
Q 2778 3718 2560 3897 
Q 2342 4077 1920 4077 
Q 1498 4077 1280 3897 
Q 1062 3718 1062 3373 
L 1062 3277 
Q 1062 2931 1280 2752 
Q 1498 2573 1920 2573 
z
" transform="scale(0.015625)"/>
       </defs>
       <use xlink:href="#IBMPlexSans-Regular-30"/>
       <use xlink:href="#IBMPlexSans-Regular-2e" transform="translate(59.999985 0)"/>
       <use xlink:href="#IBMPlexSans-Regular-30" transform="translate(87.199982 0)"/>
       <use xlink:href="#IBMPlexSans-Regular-30" transform="translate(147.199966 0)"/>
       <use xlink:href="#IBMPlexSans-Regular-38" transform="translate(207.199951 0)"/>
      </g>
     </g>
    </g>
    <g id="ytick_5">
     <g id="line2d_21">
      <path d="M 58.044375 15.807838 
L 324.420465 15.807838 
" clip-path="url(#p8786b4f554)" style="fill: none; stroke-dasharray: 1.85,0.8; stroke-dashoffset: 0; stroke: #838383; stroke-opacity: 0.2; stroke-width: 0.5"/>
     </g>
     <g id="line2d_22"/>
     <g id="text_12">
      <!-- 0.010 -->
      <g style="fill: #838383" transform="translate(22.48 20.247838) scale(0.12 -0.12)">
       <use xlink:href="#IBMPlexSans-Regular-30"/>
       <use xlink:href="#IBMPlexSans-Regular-2e" transform="translate(59.999985 0)"/>
       <use xlink:href="#IBMPlexSans-Regular-30" transform="translate(87.199982 0)"/>
       <use xlink:href="#IBMPlexSans-Regular-31" transform="translate(147.199966 0)"/>
       <use xlink:href="#IBMPlexSans-Regular-30" transform="translate(207.199951 0)"/>
      </g>
     </g>
    </g>
    <g id="text_13">
     <!-- train_dtd -->
     <g style="fill: #bdbdbd" transform="translate(16.08 113.859301) rotate(-90) scale(0.12 -0.12)">
      <defs>
       <path id="IBMPlexSans-Regular-74" d="M 1274 0 
Q 1005 0 867 150 
Q 730 301 730 544 
L 730 2854 
L 186 2854 
L 186 3302 
L 493 3302 
Q 659 3302 720 3369 
Q 781 3437 781 3603 
L 781 4218 
L 1242 4218 
L 1242 3302 
L 1965 3302 
L 1965 2854 
L 1242 2854 
L 1242 448 
L 1914 448 
L 1914 0 
L 1274 0 
z
" transform="scale(0.015625)"/>
       <path id="IBMPlexSans-Regular-69" d="M 800 4077 
Q 634 4077 560 4157 
Q 486 4237 486 4365 
L 486 4448 
Q 486 4576 560 4656 
Q 634 4736 800 4736 
Q 966 4736 1040 4656 
Q 1114 4576 1114 4448 
L 1114 4365 
Q 1114 4237 1040 4157 
Q 966 4077 800 4077 
z
M 544 3302 
L 1056 3302 
L 1056 0 
L 544 0 
L 544 3302 
z
" transform="scale(0.015625)"/>
       <path id="IBMPlexSans-Regular-6e" d="M 544 0 
L 544 3302 
L 1056 3302 
L 1056 2765 
L 1082 2765 
Q 1203 3046 1424 3212 
Q 1645 3379 2016 3379 
Q 2528 3379 2825 3049 
Q 3123 2720 3123 2118 
L 3123 0 
L 2611 0 
L 2611 2029 
Q 2611 2918 1862 2918 
Q 1709 2918 1565 2880 
Q 1421 2842 1305 2765 
Q 1190 2688 1123 2569 
Q 1056 2451 1056 2291 
L 1056 0 
L 544 0 
z
" transform="scale(0.015625)"/>
       <path id="IBMPlexSans-Regular-5f" d="M 192 -1056 
L 192 -608 
L 3424 -608 
L 3424 -1056 
L 192 -1056 
z
" transform="scale(0.015625)"/>
      </defs>
      <use xlink:href="#IBMPlexSans-Regular-74"/>
      <use xlink:href="#IBMPlexSans-Regular-72" transform="translate(35.099991 0)"/>
      <use xlink:href="#IBMPlexSans-Regular-61" transform="translate(71.799988 0)"/>
      <use xlink:href="#IBMPlexSans-Regular-69" transform="translate(125.199982 0)"/>
      <use xlink:href="#IBMPlexSans-Regular-6e" transform="translate(150.199966 0)"/>
      <use xlink:href="#IBMPlexSans-Regular-5f" transform="translate(206.999954 0)"/>
      <use xlink:href="#IBMPlexSans-Regular-64" transform="translate(263.499939 0)"/>
      <use xlink:href="#IBMPlexSans-Regular-74" transform="translate(321.499924 0)"/>
      <use xlink:href="#IBMPlexSans-Regular-64" transform="translate(356.599915 0)"/>
     </g>
    </g>
   </g>
   <g id="line2d_23">
    <path d="M 70.152379 14.63488 
L 70.63767 147.739215 
L 71.122961 153.181665 
L 71.608251 153.672531 
L 72.093542 157.963079 
L 72.578833 154.362158 
L 73.064124 160.773517 
L 73.549414 160.547663 
L 74.034705 151.790372 
L 74.519996 150.220661 
L 75.005287 160.42042 
L 75.490577 156.758515 
L 75.975868 158.02482 
L 76.461159 155.589314 
L 76.946449 156.597397 
L 77.43174 154.255243 
L 77.917031 155.065314 
L 78.402322 152.418998 
L 78.887612 155.444006 
L 79.372903 148.497356 
L 79.858194 157.150753 
L 80.343485 150.320778 
L 80.828775 159.002025 
L 81.314066 150.583527 
L 81.799357 155.885945 
L 82.284648 155.911532 
L 82.769938 145.431717 
L 83.255229 153.89613 
L 83.74052 145.265324 
L 84.225811 156.827012 
L 84.711101 159.168401 
L 85.196392 153.911182 
L 85.681683 143.574387 
L 86.166974 150.617401 
L 86.652264 159.324268 
L 87.137555 155.961216 
L 87.622846 157.769602 
L 88.108137 154.584242 
L 88.593427 149.184728 
L 89.078718 158.308646 
L 89.564009 156.820239 
L 90.0493 157.631068 
L 90.53459 159.794798 
L 91.019881 148.052422 
L 91.505172 153.393964 
L 91.990463 149.652245 
L 92.475753 155.233196 
L 92.961044 152.68703 
L 93.446335 154.853015 
L 93.931626 151.432756 
L 94.416916 151.093988 
L 94.902207 152.869233 
L 95.387498 159.106685 
L 96.358079 144.503431 
L 97.328661 159.325766 
L 97.813952 158.053428 
L 98.299242 153.672531 
L 98.784533 158.325953 
L 99.269824 158.488568 
L 99.755114 159.270058 
L 100.240405 159.468036 
L 100.725696 152.876746 
L 101.210987 159.51698 
L 101.696277 152.093784 
L 102.181568 155.836993 
L 102.666859 158.567625 
L 103.15215 146.157465 
L 103.63744 158.334249 
L 104.122731 156.314312 
L 104.608022 152.309104 
L 105.093313 158.021068 
L 105.578603 154.966695 
L 106.063894 152.821787 
L 106.549185 160.443768 
L 107.034476 153.454948 
L 107.519766 161.040035 
L 108.005057 147.768579 
L 108.490348 157.585136 
L 108.975639 156.38583 
L 109.460929 154.35838 
L 109.94622 158.060941 
L 110.431511 145.765984 
L 110.916802 156.962526 
L 111.402092 155.224177 
L 111.887383 158.079014 
L 112.372674 157.56257 
L 112.857965 151.915351 
L 113.343255 158.170868 
L 113.828546 160.289416 
L 114.313837 160.025927 
L 114.799128 153.230592 
L 115.284418 156.265386 
L 115.769709 151.689498 
L 116.255 154.207056 
L 116.740291 159.800048 
L 117.225581 153.166588 
L 117.710872 154.112198 
L 118.196163 149.866816 
L 118.681454 156.187835 
L 119.166744 156.894769 
L 119.652035 156.569539 
L 120.137326 153.745547 
L 120.622617 161.771049 
L 121.107907 161.122836 
L 121.593198 160.854063 
L 122.078489 154.998323 
L 122.563779 156.08394 
L 123.04907 160.445266 
L 123.534361 158.030845 
L 124.019652 154.265036 
L 124.504942 159.41083 
L 124.990233 152.755544 
L 125.475524 159.556904 
L 125.960815 158.772393 
L 126.446105 151.437275 
L 126.931396 160.510003 
L 127.416687 154.142303 
L 127.901978 153.13045 
L 128.387268 153.878806 
L 128.872559 161.534653 
L 129.35785 154.250716 
L 129.843141 156.634275 
L 130.328431 161.602393 
L 130.813722 160.02517 
L 131.299013 159.114224 
L 131.784304 158.809288 
L 132.269594 151.66917 
L 132.754885 157.909626 
L 133.240176 156.008645 
L 133.725467 155.690204 
L 134.210757 151.49374 
L 134.696048 153.89236 
L 135.181339 152.157772 
L 135.66663 161.957013 
L 136.15192 160.415902 
L 136.637211 158.05644 
L 137.122502 150.920814 
L 137.607793 148.956586 
L 138.093083 158.411783 
L 138.578374 155.21286 
L 139.063665 157.198939 
L 139.548956 150.850802 
L 140.519537 162.139207 
L 141.004828 156.332385 
L 141.490119 154.532286 
L 141.975409 144.798556 
L 142.4607 160.129064 
L 142.945991 160.367715 
L 143.431281 156.543195 
L 143.916572 156.827753 
L 144.401863 147.628547 
L 144.887154 153.852462 
L 145.372444 155.526815 
L 146.343026 148.061458 
L 146.828317 157.375109 
L 147.313607 159.393523 
L 147.798898 153.000212 
L 148.284189 159.925785 
L 148.76948 155.337099 
L 149.25477 147.606713 
L 149.740061 159.54785 
L 150.225352 157.259149 
L 150.710643 158.543536 
L 151.195933 154.951626 
L 151.681224 154.971979 
L 152.166515 153.253932 
L 152.651806 153.899882 
L 153.137096 155.896479 
L 153.622387 160.289416 
L 154.107678 157.314866 
L 154.592969 155.243747 
L 155.078259 154.904205 
L 155.56355 158.2838 
L 156.048841 149.738841 
L 156.534132 154.943355 
L 157.019422 157.220008 
L 157.504713 156.176544 
L 157.990004 160.519039 
L 158.475295 154.410336 
L 158.960585 115.62216 
L 159.445876 151.369535 
L 159.931167 160.022915 
L 160.416458 156.012431 
L 160.901748 147.224277 
L 161.387039 152.386638 
L 161.87233 159.572688 
L 162.357621 152.3505 
L 162.842911 148.197721 
L 163.328202 148.771404 
L 163.813493 153.521199 
L 164.298784 159.619368 
L 164.784074 155.014124 
L 165.269365 158.92524 
L 165.754656 159.327264 
L 166.239946 158.976422 
L 166.725237 150.119022 
L 167.210528 159.144321 
L 167.695819 149.761407 
L 168.181109 156.203645 
L 168.6664 144.800054 
L 169.151691 155.86937 
L 169.636982 160.31427 
L 170.122272 159.902445 
L 170.607563 160.152404 
L 171.092854 146.987881 
L 171.578145 159.777465 
L 172.063435 158.35833 
L 172.548726 159.493665 
L 173.034017 157.740995 
L 173.519308 152.659172 
L 174.004598 161.052084 
L 174.489889 156.903048 
L 174.97518 145.85783 
L 175.460471 157.705598 
L 175.945761 155.041991 
L 176.431052 157.7824 
L 176.916343 159.346069 
L 177.401634 146.490217 
L 177.886924 153.638657 
L 178.372215 152.047096 
L 178.857506 161.826017 
L 179.342797 148.248154 
L 179.828087 153.315673 
L 180.798669 151.379312 
L 181.28396 139.377948 
L 181.76925 151.054073 
L 182.254541 150.102455 
L 182.739832 122.718644 
L 183.225123 151.908578 
L 183.710413 160.117773 
L 184.195704 159.068284 
L 185.166286 147.940248 
L 185.651576 155.271597 
L 186.136867 160.874391 
L 186.622158 160.075602 
L 187.107449 161.505297 
L 187.592739 159.654757 
L 188.07803 154.257506 
L 188.563321 155.751929 
L 189.048611 148.008005 
L 189.533902 160.864597 
L 190.019193 156.525863 
L 190.504484 147.870985 
L 190.989774 160.148635 
L 191.475065 142.793672 
L 191.960356 149.59201 
L 192.445647 153.115414 
L 192.930937 136.006633 
L 193.416228 161.670159 
L 193.901519 155.351394 
L 194.38681 160.388043 
L 194.8721 160.747173 
L 195.357391 143.538249 
L 195.842682 159.113458 
L 196.327973 154.751375 
L 196.813263 144.160119 
L 197.298554 156.915105 
L 197.783845 157.212469 
L 198.269136 161.311063 
L 198.754426 153.314159 
L 199.239717 147.432824 
L 199.725008 134.577704 
L 200.210299 154.371926 
L 200.695589 154.021093 
L 201.18088 158.325196 
L 201.666171 153.876568 
L 202.151462 155.212128 
L 202.636752 158.345541 
L 203.122043 159.706704 
L 203.607334 158.347038 
L 204.092625 149.832184 
L 204.577915 159.240693 
L 205.063206 151.421465 
L 205.548497 156.43628 
L 206.033788 154.289866 
L 206.519078 159.394263 
L 207.004369 150.433701 
L 207.48966 156.866145 
L 207.974951 159.340061 
L 208.460241 153.163584 
L 208.945532 159.011062 
L 209.430823 157.732707 
L 209.916113 151.88523 
L 210.886695 157.378862 
L 211.371986 156.668907 
L 211.857276 147.231808 
L 212.342567 147.460674 
L 212.827858 157.814019 
L 213.313149 160.855569 
L 213.798439 157.253125 
L 214.769021 158.864997 
L 215.254312 157.616024 
L 215.739602 160.992589 
L 216.224893 154.429898 
L 216.710184 155.148889 
L 217.195475 152.489035 
L 217.680765 152.734459 
L 218.166056 154.925282 
L 218.651347 155.915301 
L 219.136638 159.5983 
L 219.621928 153.585944 
L 220.107219 159.1526 
L 220.59251 158.130221 
L 221.077801 155.863354 
L 221.563091 155.628463 
L 222.048382 154.581979 
L 222.533673 163.332472 
L 223.504254 148.033591 
L 223.989545 155.577257 
L 224.474836 154.958424 
L 224.960127 157.229036 
L 225.445417 161.119083 
L 225.930708 160.103461 
L 226.415999 156.766028 
L 226.90129 157.665691 
L 227.38658 153.420325 
L 227.871871 160.098202 
L 228.357162 155.671357 
L 228.842453 161.049063 
L 229.327743 153.445154 
L 229.813034 157.91114 
L 230.298325 153.515175 
L 230.783616 159.918254 
L 231.268906 161.18382 
L 231.754197 152.693055 
L 232.239488 160.129805 
L 232.724778 160.536363 
L 233.210069 156.505535 
L 233.69536 159.879862 
L 234.180651 155.319018 
L 234.665941 159.76619 
L 235.151232 160.412141 
L 235.636523 159.009564 
L 236.121814 154.212315 
L 236.607104 156.286454 
L 237.092395 147.67675 
L 237.577686 157.20721 
L 238.062977 151.665392 
L 238.548267 155.730835 
L 239.033558 151.495263 
L 239.518849 149.221623 
L 240.00414 147.830312 
L 240.48943 145.50623 
L 240.974721 158.633876 
L 241.460012 152.88203 
L 241.945303 150.573733 
L 242.430593 157.01147 
L 242.915884 155.273103 
L 243.401175 159.875344 
L 243.886466 150.734859 
L 244.857047 158.925997 
L 245.342338 153.994749 
L 246.312919 157.106319 
L 247.283501 140.647283 
L 247.768792 156.094475 
L 248.254082 157.03932 
L 248.739373 147.880004 
L 249.224664 154.405052 
L 249.709955 105.362175 
L 250.195245 159.909235 
L 250.680536 143.091069 
L 251.165827 153.270499 
L 251.651118 154.592538 
L 252.136408 153.925469 
L 252.621699 154.806318 
L 253.10699 160.047752 
L 253.592281 149.651488 
L 254.077571 159.36415 
L 254.562862 149.167412 
L 255.048153 158.928261 
L 255.533443 156.529632 
L 256.018734 156.04856 
L 256.504025 157.316363 
L 257.474606 159.328029 
L 257.959897 156.363256 
L 258.445188 155.690945 
L 258.930479 158.448669 
L 259.415769 151.355963 
L 259.90106 151.974812 
L 260.386351 160.421177 
L 260.871642 155.797094 
L 261.356932 156.748704 
L 261.842223 160.351923 
L 262.327514 157.988666 
L 262.812805 156.407681 
L 263.298095 151.129344 
L 263.783386 155.009589 
L 264.268677 155.215889 
L 264.753968 156.964789 
L 265.239258 157.796703 
L 265.724549 154.528509 
L 266.20984 156.229988 
L 266.695131 159.118717 
L 267.180421 152.715629 
L 267.665712 161.45637 
L 268.151003 157.268177 
L 268.636294 160.513023 
L 269.121584 159.885895 
L 269.606875 157.624294 
L 270.092166 157.094287 
L 270.577457 159.791011 
L 271.548038 148.910671 
L 272.033329 156.837546 
L 272.51862 157.918662 
L 273.00391 151.185069 
L 273.489201 159.713477 
L 273.974492 151.449323 
L 274.459783 151.940938 
L 274.945073 161.231249 
L 275.430364 157.341967 
L 275.915655 157.171056 
L 276.400945 138.090549 
L 276.886236 146.792881 
L 277.371527 151.024709 
L 277.856818 159.358126 
L 278.342108 158.478791 
L 278.827399 156.513814 
L 279.31269 158.682811 
L 279.797981 152.608714 
L 280.283271 149.840455 
L 280.768562 152.901593 
L 281.253853 159.211337 
L 281.739144 158.82058 
L 282.224434 161.229726 
L 282.709725 152.568824 
L 283.195016 138.771896 
L 283.680307 156.17428 
L 284.165597 155.456812 
L 284.650888 160.797606 
L 285.136179 153.843425 
L 285.62147 152.058387 
L 286.10676 154.939594 
L 286.592051 152.62831 
L 287.077342 153.224576 
L 287.562633 148.118681 
L 288.533214 154.420121 
L 289.018505 153.967648 
L 289.503796 159.215098 
L 289.989086 157.276473 
L 290.474377 153.426333 
L 290.959668 154.446465 
L 291.444959 149.60331 
L 291.930249 148.309138 
L 292.41554 153.512911 
L 292.900831 156.745709 
L 293.386122 157.719918 
L 293.871412 157.86446 
L 294.356703 151.889748 
L 294.841994 157.333687 
L 295.327285 154.118231 
L 295.812575 148.39798 
L 296.297866 156.199126 
L 296.783157 159.701437 
L 297.753738 149.520492 
L 298.239029 158.313921 
L 298.72432 151.062361 
L 299.20961 156.934668 
L 299.694901 149.340553 
L 300.180192 151.246793 
L 300.665483 157.463934 
L 301.150773 158.899637 
L 301.636064 152.630565 
L 302.121355 154.78148 
L 302.606646 155.569743 
L 303.091936 158.893612 
L 303.577227 129.561391 
L 304.062518 156.409919 
L 304.547809 153.380418 
L 305.033099 154.636947 
L 305.51839 156.599661 
L 306.003681 153.590462 
L 306.488972 158.985458 
L 306.974262 150.725082 
L 307.944844 155.420674 
L 308.430135 138.329974 
L 308.915425 150.10699 
L 309.400716 149.315724 
L 309.886007 154.121984 
L 310.371298 134.656752 
L 310.856588 157.745496 
L 311.341879 156.186329 
L 311.82717 143.422323 
L 312.312461 156.182559 
L 312.312461 156.182559 
" clip-path="url(#p8786b4f554)" style="fill: none; stroke: #2196f3; stroke-width: 1.5; stroke-linecap: round"/>
   </g>
   <g id="patch_3">
    <path d="M 58.044375 170.767352 
L 58.044375 7.2 
" style="fill: none"/>
   </g>
   <g id="patch_4">
    <path d="M 324.420465 170.767352 
L 324.420465 7.2 
" style="fill: none"/>
   </g>
   <g id="patch_5">
    <path d="M 58.044375 170.767352 
L 324.420465 170.767352 
" style="fill: none"/>
   </g>
   <g id="patch_6">
    <path d="M 58.044375 7.2 
L 324.420465 7.2 
" style="fill: none"/>
   </g>
  </g>
 </g>
 <defs>
  <clipPath id="p8786b4f554">
   <rect x="58.044375" y="7.2" width="266.37609" height="163.567352"/>
  </clipPath>
 </defs>
</svg>
