<?xml version="1.0" encoding="utf-8" standalone="no"?>
<!DOCTYPE svg PUBLIC "-//W3C//DTD SVG 1.1//EN"
  "http://www.w3.org/Graphics/SVG/1.1/DTD/svg11.dtd">
<svg xmlns:xlink="http://www.w3.org/1999/xlink" width="338.820465pt" height="210.775835pt" viewBox="0 0 338.820465 210.775835" xmlns="http://www.w3.org/2000/svg" version="1.1">
 <metadata>
  <rdf:RDF xmlns:dc="http://purl.org/dc/elements/1.1/" xmlns:cc="http://creativecommons.org/ns#" xmlns:rdf="http://www.w3.org/1999/02/22-rdf-syntax-ns#">
   <cc:Work>
    <dc:type rdf:resource="http://purl.org/dc/dcmitype/StillImage"/>
    <dc:date>2025-08-04T12:39:16.029947</dc:date>
    <dc:format>image/svg+xml</dc:format>
    <dc:creator>
     <cc:Agent>
      <dc:title>Matplotlib v3.10.3, https://matplotlib.org/</dc:title>
     </cc:Agent>
    </dc:creator>
   </cc:Work>
  </rdf:RDF>
 </metadata>
 <defs>
  <style type="text/css">*{stroke-linejoin: round; stroke-linecap: butt}</style>
 </defs>
 <g id="figure_1">
  <g id="patch_1">
   <path d="M 0 210.775835 
L 338.820465 210.775835 
L 338.820465 0 
L 0 0 
L 0 210.775835 
z
" style="fill: none"/>
  </g>
  <g id="axes_1">
   <g id="patch_2">
    <path d="M 65.244375 173.515835 
L 331.620465 173.515835 
L 331.620465 9.948483 
L 65.244375 9.948483 
L 65.244375 173.515835 
z
" style="fill: none"/>
   </g>
   <g id="matplotlib.axis_1">
    <g id="xtick_1">
     <g id="line2d_1">
      <path d="M 77.352379 173.515835 
L 77.352379 9.948483 
" clip-path="url(#p94f57b291b)" style="fill: none; stroke-dasharray: 1.85,0.8; stroke-dashoffset: 0; stroke: #838383; stroke-opacity: 0.2; stroke-width: 0.5"/>
     </g>
     <g id="line2d_2"/>
     <g id="text_1">
      <!-- 0 -->
      <g style="fill: #838383" transform="translate(73.752379 185.895835) scale(0.12 -0.12)">
       <defs>
        <path id="IBMPlexSans-Regular-30" d="M 1920 -77 
Q 1120 -77 752 531 
Q 384 1139 384 2234 
Q 384 3328 752 3936 
Q 1120 4544 1920 4544 
Q 2720 4544 3088 3936 
Q 3456 3328 3456 2234 
Q 3456 1139 3088 531 
Q 2720 -77 1920 -77 
z
M 1920 390 
Q 2182 390 2368 499 
Q 2554 608 2669 806 
Q 2784 1005 2838 1273 
Q 2893 1542 2893 1869 
L 2893 2598 
Q 2893 2925 2838 3193 
Q 2784 3462 2669 3660 
Q 2554 3859 2368 3968 
Q 2182 4077 1920 4077 
Q 1658 4077 1472 3968 
Q 1286 3859 1171 3660 
Q 1056 3462 1001 3193 
Q 947 2925 947 2598 
L 947 1869 
Q 947 1542 1001 1273 
Q 1056 1005 1171 806 
Q 1286 608 1472 499 
Q 1658 390 1920 390 
z
" transform="scale(0.015625)"/>
       </defs>
       <use xlink:href="#IBMPlexSans-Regular-30"/>
      </g>
     </g>
    </g>
    <g id="xtick_2">
     <g id="line2d_3">
      <path d="M 125.881454 173.515835 
L 125.881454 9.948483 
" clip-path="url(#p94f57b291b)" style="fill: none; stroke-dasharray: 1.85,0.8; stroke-dashoffset: 0; stroke: #838383; stroke-opacity: 0.2; stroke-width: 0.5"/>
     </g>
     <g id="line2d_4"/>
     <g id="text_2">
      <!-- 100 -->
      <g style="fill: #838383" transform="translate(115.081454 185.895835) scale(0.12 -0.12)">
       <defs>
        <path id="IBMPlexSans-Regular-31" d="M 563 0 
L 563 474 
L 1811 474 
L 1811 4070 
L 1766 4070 
L 640 3021 
L 326 3360 
L 1510 4467 
L 2349 4467 
L 2349 474 
L 3501 474 
L 3501 0 
L 563 0 
z
" transform="scale(0.015625)"/>
       </defs>
       <use xlink:href="#IBMPlexSans-Regular-31"/>
       <use xlink:href="#IBMPlexSans-Regular-30" transform="translate(59.999985 0)"/>
       <use xlink:href="#IBMPlexSans-Regular-30" transform="translate(119.999969 0)"/>
      </g>
     </g>
    </g>
    <g id="xtick_3">
     <g id="line2d_5">
      <path d="M 174.410528 173.515835 
L 174.410528 9.948483 
" clip-path="url(#p94f57b291b)" style="fill: none; stroke-dasharray: 1.85,0.8; stroke-dashoffset: 0; stroke: #838383; stroke-opacity: 0.2; stroke-width: 0.5"/>
     </g>
     <g id="line2d_6"/>
     <g id="text_3">
      <!-- 200 -->
      <g style="fill: #838383" transform="translate(163.610528 185.895835) scale(0.12 -0.12)">
       <defs>
        <path id="IBMPlexSans-Regular-32" d="M 3411 0 
L 480 0 
L 480 550 
L 1939 1894 
Q 2253 2182 2464 2505 
Q 2675 2829 2675 3155 
L 2675 3232 
Q 2675 3603 2470 3833 
Q 2266 4064 1850 4064 
Q 1645 4064 1491 4006 
Q 1338 3949 1226 3846 
Q 1114 3744 1040 3606 
Q 966 3469 922 3309 
L 442 3494 
Q 506 3693 618 3881 
Q 730 4070 899 4217 
Q 1069 4365 1309 4454 
Q 1549 4544 1875 4544 
Q 2202 4544 2458 4448 
Q 2714 4352 2886 4179 
Q 3059 4006 3152 3769 
Q 3245 3533 3245 3245 
Q 3245 2982 3171 2758 
Q 3098 2534 2970 2332 
Q 2842 2131 2659 1939 
Q 2477 1747 2266 1555 
L 1062 474 
L 3411 474 
L 3411 0 
z
" transform="scale(0.015625)"/>
       </defs>
       <use xlink:href="#IBMPlexSans-Regular-32"/>
       <use xlink:href="#IBMPlexSans-Regular-30" transform="translate(59.999985 0)"/>
       <use xlink:href="#IBMPlexSans-Regular-30" transform="translate(119.999969 0)"/>
      </g>
     </g>
    </g>
    <g id="xtick_4">
     <g id="line2d_7">
      <path d="M 222.939602 173.515835 
L 222.939602 9.948483 
" clip-path="url(#p94f57b291b)" style="fill: none; stroke-dasharray: 1.85,0.8; stroke-dashoffset: 0; stroke: #838383; stroke-opacity: 0.2; stroke-width: 0.5"/>
     </g>
     <g id="line2d_8"/>
     <g id="text_4">
      <!-- 300 -->
      <g style="fill: #838383" transform="translate(212.139602 185.895835) scale(0.12 -0.12)">
       <defs>
        <path id="IBMPlexSans-Regular-33" d="M 1670 2573 
Q 2125 2573 2352 2781 
Q 2579 2989 2579 3315 
L 2579 3360 
Q 2579 3712 2358 3888 
Q 2138 4064 1779 4064 
Q 1434 4064 1216 3913 
Q 998 3763 858 3507 
L 461 3814 
Q 544 3949 662 4080 
Q 781 4211 941 4313 
Q 1101 4416 1312 4480 
Q 1523 4544 1792 4544 
Q 2074 4544 2323 4470 
Q 2573 4397 2755 4253 
Q 2938 4109 3043 3897 
Q 3149 3686 3149 3418 
Q 3149 3200 3081 3027 
Q 3014 2854 2899 2726 
Q 2784 2598 2627 2508 
Q 2470 2419 2291 2374 
L 2291 2349 
Q 2470 2310 2640 2224 
Q 2810 2138 2941 2000 
Q 3072 1862 3152 1667 
Q 3232 1472 3232 1222 
Q 3232 934 3123 694 
Q 3014 454 2816 284 
Q 2618 115 2336 19 
Q 2054 -77 1715 -77 
Q 1427 -77 1203 -13 
Q 979 51 806 160 
Q 634 269 502 403 
Q 371 538 269 685 
L 672 992 
Q 755 858 854 749 
Q 954 640 1075 563 
Q 1197 486 1350 444 
Q 1504 403 1709 403 
Q 2182 403 2425 617 
Q 2669 832 2669 1229 
L 2669 1280 
Q 2669 1677 2425 1891 
Q 2182 2106 1709 2106 
L 1184 2106 
L 1184 2573 
L 1670 2573 
z
" transform="scale(0.015625)"/>
       </defs>
       <use xlink:href="#IBMPlexSans-Regular-33"/>
       <use xlink:href="#IBMPlexSans-Regular-30" transform="translate(59.999985 0)"/>
       <use xlink:href="#IBMPlexSans-Regular-30" transform="translate(119.999969 0)"/>
      </g>
     </g>
    </g>
    <g id="xtick_5">
     <g id="line2d_9">
      <path d="M 271.468677 173.515835 
L 271.468677 9.948483 
" clip-path="url(#p94f57b291b)" style="fill: none; stroke-dasharray: 1.85,0.8; stroke-dashoffset: 0; stroke: #838383; stroke-opacity: 0.2; stroke-width: 0.5"/>
     </g>
     <g id="line2d_10"/>
     <g id="text_5">
      <!-- 400 -->
      <g style="fill: #838383" transform="translate(260.668677 185.895835) scale(0.12 -0.12)">
       <defs>
        <path id="IBMPlexSans-Regular-34" d="M 2400 0 
L 2400 877 
L 243 877 
L 243 1350 
L 2112 4467 
L 2912 4467 
L 2912 1325 
L 3558 1325 
L 3558 877 
L 2912 877 
L 2912 0 
L 2400 0 
z
M 749 1325 
L 2400 1325 
L 2400 4051 
L 2368 4051 
L 749 1325 
z
" transform="scale(0.015625)"/>
       </defs>
       <use xlink:href="#IBMPlexSans-Regular-34"/>
       <use xlink:href="#IBMPlexSans-Regular-30" transform="translate(59.999985 0)"/>
       <use xlink:href="#IBMPlexSans-Regular-30" transform="translate(119.999969 0)"/>
      </g>
     </g>
    </g>
    <g id="xtick_6">
     <g id="line2d_11">
      <path d="M 319.997751 173.515835 
L 319.997751 9.948483 
" clip-path="url(#p94f57b291b)" style="fill: none; stroke-dasharray: 1.85,0.8; stroke-dashoffset: 0; stroke: #838383; stroke-opacity: 0.2; stroke-width: 0.5"/>
     </g>
     <g id="line2d_12"/>
     <g id="text_6">
      <!-- 500 -->
      <g style="fill: #838383" transform="translate(309.197751 185.895835) scale(0.12 -0.12)">
       <defs>
        <path id="IBMPlexSans-Regular-35" d="M 3187 3994 
L 1229 3994 
L 1101 2291 
L 1146 2291 
Q 1306 2515 1507 2649 
Q 1709 2784 2061 2784 
Q 2349 2784 2592 2688 
Q 2835 2592 3014 2416 
Q 3194 2240 3293 1984 
Q 3392 1728 3392 1402 
Q 3392 1075 3289 803 
Q 3187 531 2992 336 
Q 2797 141 2518 32 
Q 2240 -77 1888 -77 
Q 1606 -77 1392 -13 
Q 1178 51 1011 160 
Q 845 269 720 403 
Q 595 538 493 685 
L 896 992 
Q 979 858 1072 749 
Q 1165 640 1277 563 
Q 1389 486 1536 444 
Q 1683 403 1888 403 
Q 2349 403 2585 646 
Q 2822 890 2822 1331 
L 2822 1395 
Q 2822 1837 2585 2080 
Q 2349 2323 1888 2323 
Q 1581 2323 1405 2211 
Q 1229 2099 1088 1946 
L 634 2010 
L 794 4467 
L 3187 4467 
L 3187 3994 
z
" transform="scale(0.015625)"/>
       </defs>
       <use xlink:href="#IBMPlexSans-Regular-35"/>
       <use xlink:href="#IBMPlexSans-Regular-30" transform="translate(59.999985 0)"/>
       <use xlink:href="#IBMPlexSans-Regular-30" transform="translate(119.999969 0)"/>
      </g>
     </g>
    </g>
    <g id="text_7">
     <!-- draw -->
     <g style="fill: #bdbdbd" transform="translate(184.938045 201.175835) scale(0.12 -0.12)">
      <defs>
       <path id="IBMPlexSans-Regular-64" d="M 2656 538 
L 2630 538 
Q 2330 -77 1664 -77 
Q 1357 -77 1107 44 
Q 858 166 682 390 
Q 506 614 413 934 
Q 320 1254 320 1651 
Q 320 2048 413 2368 
Q 506 2688 682 2912 
Q 858 3136 1107 3257 
Q 1357 3379 1664 3379 
Q 2010 3379 2256 3228 
Q 2502 3078 2630 2765 
L 2656 2765 
L 2656 4736 
L 3168 4736 
L 3168 0 
L 2656 0 
L 2656 538 
z
M 1805 384 
Q 1978 384 2134 429 
Q 2291 474 2406 560 
Q 2522 646 2589 771 
Q 2656 896 2656 1056 
L 2656 2285 
Q 2656 2419 2589 2537 
Q 2522 2656 2406 2739 
Q 2291 2822 2134 2870 
Q 1978 2918 1805 2918 
Q 1370 2918 1120 2646 
Q 870 2374 870 1933 
L 870 1370 
Q 870 928 1120 656 
Q 1370 384 1805 384 
z
" transform="scale(0.015625)"/>
       <path id="IBMPlexSans-Regular-72" d="M 544 0 
L 544 3302 
L 1056 3302 
L 1056 2694 
L 1088 2694 
Q 1178 2931 1408 3116 
Q 1638 3302 2042 3302 
L 2240 3302 
L 2240 2790 
L 1939 2790 
Q 1523 2790 1289 2633 
Q 1056 2477 1056 2240 
L 1056 0 
L 544 0 
z
" transform="scale(0.015625)"/>
       <path id="IBMPlexSans-Regular-61" d="M 2944 0 
Q 2656 0 2531 153 
Q 2406 307 2374 538 
L 2342 538 
Q 2234 230 1984 76 
Q 1734 -77 1389 -77 
Q 864 -77 573 192 
Q 282 461 282 922 
Q 282 1389 624 1638 
Q 966 1888 1690 1888 
L 2342 1888 
L 2342 2214 
Q 2342 2566 2150 2752 
Q 1958 2938 1562 2938 
Q 1261 2938 1059 2803 
Q 858 2669 723 2445 
L 416 2733 
Q 550 3002 844 3190 
Q 1139 3379 1587 3379 
Q 2189 3379 2521 3084 
Q 2854 2790 2854 2266 
L 2854 448 
L 3232 448 
L 3232 0 
L 2944 0 
z
M 1472 358 
Q 1664 358 1824 403 
Q 1984 448 2099 531 
Q 2214 614 2278 723 
Q 2342 832 2342 960 
L 2342 1504 
L 1664 1504 
Q 1222 1504 1020 1376 
Q 819 1248 819 1005 
L 819 870 
Q 819 627 995 492 
Q 1171 358 1472 358 
z
" transform="scale(0.015625)"/>
       <path id="IBMPlexSans-Regular-77" d="M 198 3302 
L 698 3302 
L 1050 1875 
L 1402 429 
L 1414 429 
L 1818 1875 
L 2234 3302 
L 2688 3302 
L 3117 1875 
L 3526 429 
L 3539 429 
L 3878 1875 
L 4237 3302 
L 4717 3302 
L 3840 0 
L 3206 0 
L 2746 1587 
L 2458 2592 
L 2445 2592 
L 2163 1587 
L 1702 0 
L 1082 0 
L 198 3302 
z
" transform="scale(0.015625)"/>
      </defs>
      <use xlink:href="#IBMPlexSans-Regular-64"/>
      <use xlink:href="#IBMPlexSans-Regular-72" transform="translate(57.999985 0)"/>
      <use xlink:href="#IBMPlexSans-Regular-61" transform="translate(94.699982 0)"/>
      <use xlink:href="#IBMPlexSans-Regular-77" transform="translate(148.099976 0)"/>
     </g>
    </g>
   </g>
   <g id="matplotlib.axis_2">
    <g id="ytick_1">
     <g id="line2d_13">
      <path d="M 65.244375 171.178193 
L 331.620465 171.178193 
" clip-path="url(#p94f57b291b)" style="fill: none; stroke-dasharray: 1.85,0.8; stroke-dashoffset: 0; stroke: #838383; stroke-opacity: 0.2; stroke-width: 0.5"/>
     </g>
     <g id="line2d_14"/>
     <g id="text_8">
      <!-- 0.0000 -->
      <g style="fill: #838383" transform="translate(22.48 175.618193) scale(0.12 -0.12)">
       <defs>
        <path id="IBMPlexSans-Regular-2e" d="M 870 -77 
Q 666 -77 573 25 
Q 480 128 480 294 
L 480 378 
Q 480 544 573 646 
Q 666 749 870 749 
Q 1075 749 1168 646 
Q 1261 544 1261 378 
L 1261 294 
Q 1261 128 1168 25 
Q 1075 -77 870 -77 
z
" transform="scale(0.015625)"/>
       </defs>
       <use xlink:href="#IBMPlexSans-Regular-30"/>
       <use xlink:href="#IBMPlexSans-Regular-2e" transform="translate(59.999985 0)"/>
       <use xlink:href="#IBMPlexSans-Regular-30" transform="translate(87.199982 0)"/>
       <use xlink:href="#IBMPlexSans-Regular-30" transform="translate(147.199966 0)"/>
       <use xlink:href="#IBMPlexSans-Regular-30" transform="translate(207.199951 0)"/>
       <use xlink:href="#IBMPlexSans-Regular-30" transform="translate(267.199936 0)"/>
      </g>
     </g>
    </g>
    <g id="ytick_2">
     <g id="line2d_15">
      <path d="M 65.244375 139.270554 
L 331.620465 139.270554 
" clip-path="url(#p94f57b291b)" style="fill: none; stroke-dasharray: 1.85,0.8; stroke-dashoffset: 0; stroke: #838383; stroke-opacity: 0.2; stroke-width: 0.5"/>
     </g>
     <g id="line2d_16"/>
     <g id="text_9">
      <!-- 0.0005 -->
      <g style="fill: #838383" transform="translate(22.48 143.710554) scale(0.12 -0.12)">
       <use xlink:href="#IBMPlexSans-Regular-30"/>
       <use xlink:href="#IBMPlexSans-Regular-2e" transform="translate(59.999985 0)"/>
       <use xlink:href="#IBMPlexSans-Regular-30" transform="translate(87.199982 0)"/>
       <use xlink:href="#IBMPlexSans-Regular-30" transform="translate(147.199966 0)"/>
       <use xlink:href="#IBMPlexSans-Regular-30" transform="translate(207.199951 0)"/>
       <use xlink:href="#IBMPlexSans-Regular-35" transform="translate(267.199936 0)"/>
      </g>
     </g>
    </g>
    <g id="ytick_3">
     <g id="line2d_17">
      <path d="M 65.244375 107.362916 
L 331.620465 107.362916 
" clip-path="url(#p94f57b291b)" style="fill: none; stroke-dasharray: 1.85,0.8; stroke-dashoffset: 0; stroke: #838383; stroke-opacity: 0.2; stroke-width: 0.5"/>
     </g>
     <g id="line2d_18"/>
     <g id="text_10">
      <!-- 0.0010 -->
      <g style="fill: #838383" transform="translate(22.48 111.802916) scale(0.12 -0.12)">
       <use xlink:href="#IBMPlexSans-Regular-30"/>
       <use xlink:href="#IBMPlexSans-Regular-2e" transform="translate(59.999985 0)"/>
       <use xlink:href="#IBMPlexSans-Regular-30" transform="translate(87.199982 0)"/>
       <use xlink:href="#IBMPlexSans-Regular-30" transform="translate(147.199966 0)"/>
       <use xlink:href="#IBMPlexSans-Regular-31" transform="translate(207.199951 0)"/>
       <use xlink:href="#IBMPlexSans-Regular-30" transform="translate(267.199936 0)"/>
      </g>
     </g>
    </g>
    <g id="ytick_4">
     <g id="line2d_19">
      <path d="M 65.244375 75.455277 
L 331.620465 75.455277 
" clip-path="url(#p94f57b291b)" style="fill: none; stroke-dasharray: 1.85,0.8; stroke-dashoffset: 0; stroke: #838383; stroke-opacity: 0.2; stroke-width: 0.5"/>
     </g>
     <g id="line2d_20"/>
     <g id="text_11">
      <!-- 0.0015 -->
      <g style="fill: #838383" transform="translate(22.48 79.895277) scale(0.12 -0.12)">
       <use xlink:href="#IBMPlexSans-Regular-30"/>
       <use xlink:href="#IBMPlexSans-Regular-2e" transform="translate(59.999985 0)"/>
       <use xlink:href="#IBMPlexSans-Regular-30" transform="translate(87.199982 0)"/>
       <use xlink:href="#IBMPlexSans-Regular-30" transform="translate(147.199966 0)"/>
       <use xlink:href="#IBMPlexSans-Regular-31" transform="translate(207.199951 0)"/>
       <use xlink:href="#IBMPlexSans-Regular-35" transform="translate(267.199936 0)"/>
      </g>
     </g>
    </g>
    <g id="ytick_5">
     <g id="line2d_21">
      <path d="M 65.244375 43.547639 
L 331.620465 43.547639 
" clip-path="url(#p94f57b291b)" style="fill: none; stroke-dasharray: 1.85,0.8; stroke-dashoffset: 0; stroke: #838383; stroke-opacity: 0.2; stroke-width: 0.5"/>
     </g>
     <g id="line2d_22"/>
     <g id="text_12">
      <!-- 0.0020 -->
      <g style="fill: #838383" transform="translate(22.48 47.987639) scale(0.12 -0.12)">
       <use xlink:href="#IBMPlexSans-Regular-30"/>
       <use xlink:href="#IBMPlexSans-Regular-2e" transform="translate(59.999985 0)"/>
       <use xlink:href="#IBMPlexSans-Regular-30" transform="translate(87.199982 0)"/>
       <use xlink:href="#IBMPlexSans-Regular-30" transform="translate(147.199966 0)"/>
       <use xlink:href="#IBMPlexSans-Regular-32" transform="translate(207.199951 0)"/>
       <use xlink:href="#IBMPlexSans-Regular-30" transform="translate(267.199936 0)"/>
      </g>
     </g>
    </g>
    <g id="ytick_6">
     <g id="line2d_23">
      <path d="M 65.244375 11.64 
L 331.620465 11.64 
" clip-path="url(#p94f57b291b)" style="fill: none; stroke-dasharray: 1.85,0.8; stroke-dashoffset: 0; stroke: #838383; stroke-opacity: 0.2; stroke-width: 0.5"/>
     </g>
     <g id="line2d_24"/>
     <g id="text_13">
      <!-- 0.0025 -->
      <g style="fill: #838383" transform="translate(22.48 16.08) scale(0.12 -0.12)">
       <use xlink:href="#IBMPlexSans-Regular-30"/>
       <use xlink:href="#IBMPlexSans-Regular-2e" transform="translate(59.999985 0)"/>
       <use xlink:href="#IBMPlexSans-Regular-30" transform="translate(87.199982 0)"/>
       <use xlink:href="#IBMPlexSans-Regular-30" transform="translate(147.199966 0)"/>
       <use xlink:href="#IBMPlexSans-Regular-32" transform="translate(207.199951 0)"/>
       <use xlink:href="#IBMPlexSans-Regular-35" transform="translate(267.199936 0)"/>
      </g>
     </g>
    </g>
    <g id="text_14">
     <!-- train_dtz -->
     <g style="fill: #bdbdbd" transform="translate(16.08 115.912159) rotate(-90) scale(0.12 -0.12)">
      <defs>
       <path id="IBMPlexSans-Regular-74" d="M 1274 0 
Q 1005 0 867 150 
Q 730 301 730 544 
L 730 2854 
L 186 2854 
L 186 3302 
L 493 3302 
Q 659 3302 720 3369 
Q 781 3437 781 3603 
L 781 4218 
L 1242 4218 
L 1242 3302 
L 1965 3302 
L 1965 2854 
L 1242 2854 
L 1242 448 
L 1914 448 
L 1914 0 
L 1274 0 
z
" transform="scale(0.015625)"/>
       <path id="IBMPlexSans-Regular-69" d="M 800 4077 
Q 634 4077 560 4157 
Q 486 4237 486 4365 
L 486 4448 
Q 486 4576 560 4656 
Q 634 4736 800 4736 
Q 966 4736 1040 4656 
Q 1114 4576 1114 4448 
L 1114 4365 
Q 1114 4237 1040 4157 
Q 966 4077 800 4077 
z
M 544 3302 
L 1056 3302 
L 1056 0 
L 544 0 
L 544 3302 
z
" transform="scale(0.015625)"/>
       <path id="IBMPlexSans-Regular-6e" d="M 544 0 
L 544 3302 
L 1056 3302 
L 1056 2765 
L 1082 2765 
Q 1203 3046 1424 3212 
Q 1645 3379 2016 3379 
Q 2528 3379 2825 3049 
Q 3123 2720 3123 2118 
L 3123 0 
L 2611 0 
L 2611 2029 
Q 2611 2918 1862 2918 
Q 1709 2918 1565 2880 
Q 1421 2842 1305 2765 
Q 1190 2688 1123 2569 
Q 1056 2451 1056 2291 
L 1056 0 
L 544 0 
z
" transform="scale(0.015625)"/>
       <path id="IBMPlexSans-Regular-5f" d="M 192 -1056 
L 192 -608 
L 3424 -608 
L 3424 -1056 
L 192 -1056 
z
" transform="scale(0.015625)"/>
       <path id="IBMPlexSans-Regular-7a" d="M 211 0 
L 211 429 
L 2086 2854 
L 269 2854 
L 269 3302 
L 2707 3302 
L 2707 2918 
L 794 448 
L 2758 448 
L 2758 0 
L 211 0 
z
" transform="scale(0.015625)"/>
      </defs>
      <use xlink:href="#IBMPlexSans-Regular-74"/>
      <use xlink:href="#IBMPlexSans-Regular-72" transform="translate(35.099991 0)"/>
      <use xlink:href="#IBMPlexSans-Regular-61" transform="translate(71.799988 0)"/>
      <use xlink:href="#IBMPlexSans-Regular-69" transform="translate(125.199982 0)"/>
      <use xlink:href="#IBMPlexSans-Regular-6e" transform="translate(150.199966 0)"/>
      <use xlink:href="#IBMPlexSans-Regular-5f" transform="translate(206.999954 0)"/>
      <use xlink:href="#IBMPlexSans-Regular-64" transform="translate(263.499939 0)"/>
      <use xlink:href="#IBMPlexSans-Regular-74" transform="translate(321.499924 0)"/>
      <use xlink:href="#IBMPlexSans-Regular-7a" transform="translate(356.599915 0)"/>
     </g>
    </g>
   </g>
   <g id="line2d_25">
    <path d="M 77.352379 157.904633 
L 77.83767 161.802639 
L 78.322961 153.184971 
L 78.808251 162.198877 
L 79.293542 153.870912 
L 79.778833 158.683676 
L 80.264124 160.385439 
L 80.749414 157.10158 
L 81.234705 161.379925 
L 81.719996 161.449045 
L 82.205287 158.877782 
L 82.690577 164.030887 
L 83.175868 160.082303 
L 83.661159 162.369002 
L 84.146449 162.956702 
L 84.63174 153.514703 
L 85.117031 162.664145 
L 85.602322 151.446002 
L 86.087612 154.338944 
L 86.572903 153.628992 
L 87.058194 160.675292 
L 87.543485 153.097218 
L 88.028775 159.507976 
L 88.514066 158.314064 
L 88.999357 142.724564 
L 89.484648 161.510172 
L 89.969938 151.166818 
L 90.455229 146.617281 
L 90.94052 151.384876 
L 91.425811 154.982391 
L 91.911101 131.599434 
L 92.396392 144.34128 
L 92.881683 164.677008 
L 93.366974 161.427738 
L 93.852264 162.680162 
L 94.337555 127.496622 
L 94.822846 150.262758 
L 95.308137 158.832554 
L 95.793427 159.920112 
L 96.278718 164.123928 
L 96.764009 146.011039 
L 97.2493 142.187412 
L 97.73459 144.173739 
L 98.219881 150.167013 
L 98.705172 131.482411 
L 99.190463 161.212355 
L 99.675753 146.000371 
L 100.161044 148.00527 
L 100.646335 162.135046 
L 101.131626 143.431812 
L 101.616916 157.590829 
L 102.587498 134.582802 
L 103.072789 164.068092 
L 103.558079 163.063056 
L 104.04337 160.824141 
L 104.528661 152.206413 
L 105.013952 146.428434 
L 105.984533 163.230597 
L 106.469824 119.788273 
L 106.955114 154.320312 
L 107.440405 161.943614 
L 107.925696 152.998828 
L 108.410987 141.2701 
L 108.896277 144.724055 
L 109.381568 164.504119 
L 109.866859 153.067918 
L 110.83744 164.520166 
L 111.322731 144.750681 
L 111.808022 162.860956 
L 112.293313 155.830613 
L 112.778603 141.20095 
L 113.263894 150.531275 
L 113.749185 163.493765 
L 114.234476 162.581741 
L 114.719766 164.275482 
L 115.205057 162.355719 
L 115.690348 162.759891 
L 116.660929 148.002655 
L 117.14622 158.122661 
L 117.631511 161.951578 
L 118.116802 151.437979 
L 118.602092 154.977102 
L 119.087383 162.286629 
L 119.572674 150.089928 
L 120.057965 151.451292 
L 120.543255 165.610308 
L 121.028546 146.965675 
L 121.513837 146.011039 
L 121.999128 150.294644 
L 122.484418 159.901509 
L 122.969709 143.251048 
L 123.455 158.758145 
L 123.940291 155.835903 
L 124.425581 149.502259 
L 124.910872 156.57777 
L 125.396163 143.798749 
L 125.881454 140.514979 
L 126.366744 145.777023 
L 126.852035 164.589256 
L 127.337326 160.566293 
L 127.822617 140.451118 
L 128.793198 162.890197 
L 129.278489 162.440797 
L 129.763779 143.243054 
L 130.24907 163.483156 
L 130.734361 149.068876 
L 131.219652 162.935365 
L 131.704942 135.537349 
L 132.190233 158.353943 
L 132.675524 155.508845 
L 133.160815 156.311928 
L 133.646105 165.506598 
L 134.131396 136.124989 
L 134.616687 159.436182 
L 135.101978 146.026996 
L 135.587268 139.677365 
L 136.072559 111.319453 
L 136.55785 143.796075 
L 137.043141 147.795176 
L 137.528431 155.394556 
L 138.013722 144.218908 
L 138.499013 151.807561 
L 138.984304 138.900997 
L 139.469594 164.432413 
L 139.954885 158.077433 
L 140.440176 148.332298 
L 140.925467 157.277114 
L 141.410757 137.80818 
L 141.896048 162.573777 
L 142.381339 160.332217 
L 142.86663 160.127472 
L 143.35192 162.964636 
L 143.837211 147.994602 
L 144.322502 148.446676 
L 144.807793 146.502933 
L 145.293083 139.132249 
L 145.778374 148.204696 
L 146.263665 164.341987 
L 146.748956 163.945809 
L 147.234246 140.565437 
L 147.719537 159.279309 
L 148.204828 164.32074 
L 148.690119 151.602845 
L 149.175409 150.496655 
L 149.6607 161.581966 
L 150.631281 155.835962 
L 151.116572 152.942991 
L 151.601863 139.624203 
L 152.087154 149.653812 
L 152.572444 164.00435 
L 153.543026 146.005749 
L 154.028317 162.34514 
L 154.513607 158.473641 
L 154.998898 149.66977 
L 155.96948 163.951128 
L 156.45477 129.411095 
L 156.940061 134.992233 
L 157.425352 152.772776 
L 157.910643 160.566233 
L 158.395933 140.318197 
L 158.881224 152.525506 
L 159.366515 140.033723 
L 159.851806 159.680806 
L 160.337096 159.444145 
L 161.307678 141.288702 
L 162.278259 151.023139 
L 162.76355 147.747333 
L 163.248841 139.509854 
L 163.734132 151.398129 
L 164.219422 146.909749 
L 164.704713 145.785076 
L 165.190004 137.279022 
L 165.675295 150.571214 
L 166.160585 149.951629 
L 166.645876 155.216407 
L 167.131167 154.131524 
L 167.616458 153.88158 
L 168.101748 164.036176 
L 169.07233 130.724586 
L 169.557621 154.011886 
L 170.042911 148.497164 
L 170.528202 151.092348 
L 171.013493 147.2448 
L 171.498784 158.425797 
L 171.984074 140.073602 
L 172.469365 162.807734 
L 172.954656 160.255133 
L 173.439946 161.095362 
L 173.925237 152.320791 
L 174.410528 129.682316 
L 174.895819 158.518839 
L 175.381109 165.389576 
L 175.8664 136.723238 
L 176.351691 155.734897 
L 176.836982 116.017868 
L 177.322272 163.219929 
L 177.807563 147.678213 
L 178.292854 154.514448 
L 178.778145 165.347081 
L 179.263435 159.800414 
L 179.748726 139.557698 
L 180.234017 162.698735 
L 180.719308 152.996183 
L 181.204598 131.774938 
L 181.689889 117.66641 
L 182.17518 95.947981 
L 182.660471 159.17025 
L 183.145761 164.623846 
L 184.116343 142.591643 
L 184.601634 164.639804 
L 185.086924 152.251671 
L 185.572215 159.526608 
L 186.057506 161.730904 
L 186.542797 159.651565 
L 187.028087 109.769331 
L 187.513378 164.663755 
L 187.998669 164.190434 
L 188.48396 143.82799 
L 188.96925 164.682298 
L 189.939832 151.890023 
L 190.425123 160.677966 
L 190.910413 137.350787 
L 191.395704 156.971303 
L 192.851576 125.281718 
L 193.336867 160.02917 
L 193.822158 157.274439 
L 194.307449 140.772827 
L 194.792739 154.203348 
L 195.27803 146.941664 
L 195.763321 155.341334 
L 196.248611 151.645428 
L 196.733902 163.281055 
L 197.219193 159.385723 
L 197.704484 161.018278 
L 198.189774 160.584836 
L 198.675065 143.913127 
L 199.160356 159.824395 
L 199.645647 143.365396 
L 200.130937 158.399172 
L 200.616228 150.714743 
L 201.101519 161.281534 
L 201.58681 140.16397 
L 202.0721 154.719223 
L 202.557391 152.054919 
L 203.042682 161.098066 
L 203.527973 151.515122 
L 204.013263 163.318319 
L 204.498554 138.488832 
L 204.983845 136.656733 
L 205.469136 146.189218 
L 205.954426 153.429566 
L 206.925008 144.527333 
L 207.410299 155.793408 
L 207.895589 141.92157 
L 208.38088 158.89374 
L 208.866171 165.557146 
L 209.351462 158.792645 
L 209.836752 135.476223 
L 210.322043 162.376966 
L 210.807334 147.827151 
L 211.292625 159.89616 
L 211.777915 165.639609 
L 212.263206 156.216182 
L 212.748497 157.192006 
L 213.233788 149.762811 
L 213.719078 164.485576 
L 214.204369 136.630196 
L 214.68966 162.653566 
L 215.174951 142.769792 
L 215.660241 157.133465 
L 216.145532 140.589418 
L 216.630823 159.438797 
L 217.116113 157.452559 
L 217.601404 148.353634 
L 218.086695 153.001443 
L 218.571986 165.618302 
L 219.057276 151.929903 
L 219.542567 149.637854 
L 220.027858 144.771928 
L 220.513149 156.008792 
L 220.998439 154.665972 
L 221.48373 160.539667 
L 221.969021 139.844906 
L 222.454312 158.165245 
L 222.939602 158.497592 
L 223.424893 152.275533 
L 223.910184 141.501471 
L 224.395475 161.65908 
L 224.880765 142.658059 
L 225.851347 157.271824 
L 226.336638 157.670617 
L 226.821928 153.761972 
L 227.307219 135.303363 
L 227.79251 161.132596 
L 228.763091 147.65958 
L 229.248382 165.751193 
L 229.733673 161.164541 
L 230.218964 158.16786 
L 230.704254 163.028407 
L 231.189545 156.221501 
L 231.674836 165.698061 
L 232.160127 138.826528 
L 232.645417 161.129892 
L 233.130708 160.077014 
L 233.615999 153.825803 
L 234.10129 143.487738 
L 234.58658 156.383634 
L 235.071871 165.277961 
L 235.557162 155.586018 
L 236.042453 160.747087 
L 236.527743 130.27789 
L 237.013034 159.835034 
L 237.498325 152.754144 
L 237.983616 143.221807 
L 238.468906 150.717418 
L 238.954197 138.613759 
L 239.924778 150.087254 
L 240.410069 144.822476 
L 240.89536 136.178122 
L 241.380651 131.538307 
L 242.351232 163.04172 
L 242.836523 156.333175 
L 243.321814 159.146329 
L 243.807104 85.849193 
L 244.292395 146.330103 
L 244.777686 164.435028 
L 245.262977 155.772102 
L 246.233558 145.261207 
L 246.718849 157.670617 
L 247.20414 162.544477 
L 247.68943 163.469813 
L 248.174721 157.242524 
L 248.660012 155.423797 
L 249.145303 138.060679 
L 249.630593 149.451771 
L 250.115884 140.421907 
L 250.601175 159.555849 
L 251.086466 150.759972 
L 251.571756 152.642529 
L 252.057047 156.285302 
L 252.542338 161.829265 
L 253.027629 140.525558 
L 253.512919 157.593503 
L 253.99821 148.983739 
L 254.483501 159.30855 
L 254.968792 155.780066 
L 255.454082 161.996776 
L 255.939373 17.383363 
L 256.424664 163.948454 
L 256.909955 129.605232 
L 257.395245 164.230313 
L 257.880536 161.350654 
L 258.365827 163.320935 
L 258.851118 160.20726 
L 259.336408 158.159866 
L 259.821699 147.800525 
L 260.30699 158.109408 
L 260.792281 161.714976 
L 261.277571 149.539434 
L 261.762862 115.050038 
L 262.248153 130.745922 
L 262.733443 152.171912 
L 263.218734 158.213029 
L 264.189316 141.530682 
L 264.674606 159.13572 
L 265.645188 147.768639 
L 266.130479 163.073665 
L 266.615769 150.664285 
L 267.10106 157.542956 
L 267.586351 155.639181 
L 268.071642 160.433312 
L 268.556932 149.263013 
L 269.042223 161.696285 
L 269.527514 153.009407 
L 270.012805 148.271172 
L 270.498095 153.740666 
L 270.983386 150.608359 
L 271.468677 159.202255 
L 271.953968 156.460777 
L 272.439258 155.766812 
L 272.924549 146.122713 
L 273.40984 141.54138 
L 273.895131 156.311839 
L 274.380421 131.809468 
L 274.865712 146.125387 
L 275.351003 135.787323 
L 275.836294 157.662712 
L 276.321584 153.078586 
L 276.806875 153.030743 
L 277.292166 159.680776 
L 277.777457 152.825998 
L 278.262747 132.825201 
L 278.748038 153.147706 
L 279.233329 153.913496 
L 279.71862 161.587315 
L 280.20391 151.929903 
L 280.689201 152.727607 
L 281.174492 155.455683 
L 281.659783 110.447309 
L 282.145073 166.080955 
L 282.630364 149.90646 
L 283.115655 153.01743 
L 283.600945 135.077311 
L 284.086236 163.137466 
L 284.571527 141.187696 
L 285.056818 144.835729 
L 285.542108 140.5096 
L 286.027399 161.749477 
L 286.51269 145.633463 
L 286.997981 161.435702 
L 287.483271 153.448138 
L 287.968562 163.775624 
L 288.453853 145.048528 
L 288.939144 144.498122 
L 289.424434 157.340944 
L 289.909725 162.036655 
L 290.395016 143.080833 
L 290.880307 115.627009 
L 291.365597 162.435508 
L 291.850888 136.951964 
L 292.336179 146.643907 
L 292.82147 164.387215 
L 293.30676 165.344466 
L 293.792051 156.043293 
L 294.762633 144.285413 
L 295.247923 153.248772 
L 295.733214 156.939418 
L 296.218505 146.135966 
L 296.703796 159.125082 
L 297.189086 159.154293 
L 297.674377 137.622007 
L 298.159668 160.122182 
L 298.644959 161.302781 
L 299.130249 134.332828 
L 299.61554 157.82214 
L 300.100831 149.847949 
L 300.586122 152.512223 
L 301.071412 143.889176 
L 301.556703 141.692874 
L 302.041994 154.362865 
L 302.527285 141.381744 
L 303.012575 161.262902 
L 303.497866 130.583701 
L 303.983157 140.956325 
L 304.468448 164.349951 
L 304.953738 134.77156 
L 305.439029 155.282882 
L 305.92432 152.74086 
L 306.40961 159.37767 
L 306.894901 151.310318 
L 307.380192 154.894639 
L 307.865483 146.085538 
L 308.350773 164.405788 
L 308.836064 148.146244 
L 309.321355 140.826049 
L 309.806646 140.246343 
L 310.291936 159.627644 
L 310.777227 152.352676 
L 311.262518 162.693445 
L 311.747809 147.579881 
L 312.233099 162.275961 
L 312.71839 154.88406 
L 313.203681 129.852442 
L 313.688972 138.135148 
L 314.174262 160.031785 
L 314.659553 158.303455 
L 315.144844 159.702083 
L 315.630135 147.949433 
L 316.115425 156.112502 
L 316.600716 137.632616 
L 317.086007 165.458755 
L 317.571298 156.056576 
L 318.056588 142.78575 
L 318.541879 163.305007 
L 319.02717 139.81299 
L 319.512461 151.057729 
L 319.512461 151.057729 
" clip-path="url(#p94f57b291b)" style="fill: none; stroke: #2196f3; stroke-width: 1.5; stroke-linecap: round"/>
   </g>
   <g id="patch_3">
    <path d="M 65.244375 173.515835 
L 65.244375 9.948483 
" style="fill: none"/>
   </g>
   <g id="patch_4">
    <path d="M 331.620465 173.515835 
L 331.620465 9.948483 
" style="fill: none"/>
   </g>
   <g id="patch_5">
    <path d="M 65.244375 173.515835 
L 331.620465 173.515835 
" style="fill: none"/>
   </g>
   <g id="patch_6">
    <path d="M 65.244375 9.948483 
L 331.620465 9.948483 
" style="fill: none"/>
   </g>
  </g>
 </g>
 <defs>
  <clipPath id="p94f57b291b">
   <rect x="65.244375" y="9.948483" width="266.37609" height="163.567352"/>
  </clipPath>
 </defs>
</svg>
