<?xml version="1.0" encoding="utf-8" standalone="no"?>
<!DOCTYPE svg PUBLIC "-//W3C//DTD SVG 1.1//EN"
  "http://www.w3.org/Graphics/SVG/1.1/DTD/svg11.dtd">
<svg xmlns:xlink="http://www.w3.org/1999/xlink" width="324.420465pt" height="208.027352pt" viewBox="0 0 324.420465 208.027352" xmlns="http://www.w3.org/2000/svg" version="1.1">
 <metadata>
  <rdf:RDF xmlns:dc="http://purl.org/dc/elements/1.1/" xmlns:cc="http://creativecommons.org/ns#" xmlns:rdf="http://www.w3.org/1999/02/22-rdf-syntax-ns#">
   <cc:Work>
    <dc:type rdf:resource="http://purl.org/dc/dcmitype/StillImage"/>
    <dc:date>2025-08-01T10:15:57.981614</dc:date>
    <dc:format>image/svg+xml</dc:format>
    <dc:creator>
     <cc:Agent>
      <dc:title>Matplotlib v3.10.3, https://matplotlib.org/</dc:title>
     </cc:Agent>
    </dc:creator>
   </cc:Work>
  </rdf:RDF>
 </metadata>
 <defs>
  <style type="text/css">*{stroke-linejoin: round; stroke-linecap: butt}</style>
 </defs>
 <g id="figure_1">
  <g id="patch_1">
   <path d="M 0 208.027352 
L 324.420465 208.027352 
L 324.420465 0 
L 0 0 
L 0 208.027352 
z
" style="fill: none"/>
  </g>
  <g id="axes_1">
   <g id="patch_2">
    <path d="M 50.844375 170.767352 
L 317.220465 170.767352 
L 317.220465 7.2 
L 50.844375 7.2 
L 50.844375 170.767352 
z
" style="fill: none"/>
   </g>
   <g id="matplotlib.axis_1">
    <g id="xtick_1">
     <g id="line2d_1">
      <path d="M 62.952379 170.767352 
L 62.952379 7.2 
" clip-path="url(#pf80984d46d)" style="fill: none; stroke-dasharray: 1.85,0.8; stroke-dashoffset: 0; stroke: #838383; stroke-opacity: 0.2; stroke-width: 0.5"/>
     </g>
     <g id="line2d_2"/>
     <g id="text_1">
      <!-- 0 -->
      <g style="fill: #838383" transform="translate(59.352379 183.147352) scale(0.12 -0.12)">
       <defs>
        <path id="IBMPlexSans-Regular-30" d="M 1920 -77 
Q 1120 -77 752 531 
Q 384 1139 384 2234 
Q 384 3328 752 3936 
Q 1120 4544 1920 4544 
Q 2720 4544 3088 3936 
Q 3456 3328 3456 2234 
Q 3456 1139 3088 531 
Q 2720 -77 1920 -77 
z
M 1920 390 
Q 2182 390 2368 499 
Q 2554 608 2669 806 
Q 2784 1005 2838 1273 
Q 2893 1542 2893 1869 
L 2893 2598 
Q 2893 2925 2838 3193 
Q 2784 3462 2669 3660 
Q 2554 3859 2368 3968 
Q 2182 4077 1920 4077 
Q 1658 4077 1472 3968 
Q 1286 3859 1171 3660 
Q 1056 3462 1001 3193 
Q 947 2925 947 2598 
L 947 1869 
Q 947 1542 1001 1273 
Q 1056 1005 1171 806 
Q 1286 608 1472 499 
Q 1658 390 1920 390 
z
" transform="scale(0.015625)"/>
       </defs>
       <use xlink:href="#IBMPlexSans-Regular-30"/>
      </g>
     </g>
    </g>
    <g id="xtick_2">
     <g id="line2d_3">
      <path d="M 101.760084 170.767352 
L 101.760084 7.2 
" clip-path="url(#pf80984d46d)" style="fill: none; stroke-dasharray: 1.85,0.8; stroke-dashoffset: 0; stroke: #838383; stroke-opacity: 0.2; stroke-width: 0.5"/>
     </g>
     <g id="line2d_4"/>
     <g id="text_2">
      <!-- 100 -->
      <g style="fill: #838383" transform="translate(90.960084 183.147352) scale(0.12 -0.12)">
       <defs>
        <path id="IBMPlexSans-Regular-31" d="M 563 0 
L 563 474 
L 1811 474 
L 1811 4070 
L 1766 4070 
L 640 3021 
L 326 3360 
L 1510 4467 
L 2349 4467 
L 2349 474 
L 3501 474 
L 3501 0 
L 563 0 
z
" transform="scale(0.015625)"/>
       </defs>
       <use xlink:href="#IBMPlexSans-Regular-31"/>
       <use xlink:href="#IBMPlexSans-Regular-30" transform="translate(59.999985 0)"/>
       <use xlink:href="#IBMPlexSans-Regular-30" transform="translate(119.999969 0)"/>
      </g>
     </g>
    </g>
    <g id="xtick_3">
     <g id="line2d_5">
      <path d="M 140.56779 170.767352 
L 140.56779 7.2 
" clip-path="url(#pf80984d46d)" style="fill: none; stroke-dasharray: 1.85,0.8; stroke-dashoffset: 0; stroke: #838383; stroke-opacity: 0.2; stroke-width: 0.5"/>
     </g>
     <g id="line2d_6"/>
     <g id="text_3">
      <!-- 200 -->
      <g style="fill: #838383" transform="translate(129.76779 183.147352) scale(0.12 -0.12)">
       <defs>
        <path id="IBMPlexSans-Regular-32" d="M 3411 0 
L 480 0 
L 480 550 
L 1939 1894 
Q 2253 2182 2464 2505 
Q 2675 2829 2675 3155 
L 2675 3232 
Q 2675 3603 2470 3833 
Q 2266 4064 1850 4064 
Q 1645 4064 1491 4006 
Q 1338 3949 1226 3846 
Q 1114 3744 1040 3606 
Q 966 3469 922 3309 
L 442 3494 
Q 506 3693 618 3881 
Q 730 4070 899 4217 
Q 1069 4365 1309 4454 
Q 1549 4544 1875 4544 
Q 2202 4544 2458 4448 
Q 2714 4352 2886 4179 
Q 3059 4006 3152 3769 
Q 3245 3533 3245 3245 
Q 3245 2982 3171 2758 
Q 3098 2534 2970 2332 
Q 2842 2131 2659 1939 
Q 2477 1747 2266 1555 
L 1062 474 
L 3411 474 
L 3411 0 
z
" transform="scale(0.015625)"/>
       </defs>
       <use xlink:href="#IBMPlexSans-Regular-32"/>
       <use xlink:href="#IBMPlexSans-Regular-30" transform="translate(59.999985 0)"/>
       <use xlink:href="#IBMPlexSans-Regular-30" transform="translate(119.999969 0)"/>
      </g>
     </g>
    </g>
    <g id="xtick_4">
     <g id="line2d_7">
      <path d="M 179.375495 170.767352 
L 179.375495 7.2 
" clip-path="url(#pf80984d46d)" style="fill: none; stroke-dasharray: 1.85,0.8; stroke-dashoffset: 0; stroke: #838383; stroke-opacity: 0.2; stroke-width: 0.5"/>
     </g>
     <g id="line2d_8"/>
     <g id="text_4">
      <!-- 300 -->
      <g style="fill: #838383" transform="translate(168.575495 183.147352) scale(0.12 -0.12)">
       <defs>
        <path id="IBMPlexSans-Regular-33" d="M 1670 2573 
Q 2125 2573 2352 2781 
Q 2579 2989 2579 3315 
L 2579 3360 
Q 2579 3712 2358 3888 
Q 2138 4064 1779 4064 
Q 1434 4064 1216 3913 
Q 998 3763 858 3507 
L 461 3814 
Q 544 3949 662 4080 
Q 781 4211 941 4313 
Q 1101 4416 1312 4480 
Q 1523 4544 1792 4544 
Q 2074 4544 2323 4470 
Q 2573 4397 2755 4253 
Q 2938 4109 3043 3897 
Q 3149 3686 3149 3418 
Q 3149 3200 3081 3027 
Q 3014 2854 2899 2726 
Q 2784 2598 2627 2508 
Q 2470 2419 2291 2374 
L 2291 2349 
Q 2470 2310 2640 2224 
Q 2810 2138 2941 2000 
Q 3072 1862 3152 1667 
Q 3232 1472 3232 1222 
Q 3232 934 3123 694 
Q 3014 454 2816 284 
Q 2618 115 2336 19 
Q 2054 -77 1715 -77 
Q 1427 -77 1203 -13 
Q 979 51 806 160 
Q 634 269 502 403 
Q 371 538 269 685 
L 672 992 
Q 755 858 854 749 
Q 954 640 1075 563 
Q 1197 486 1350 444 
Q 1504 403 1709 403 
Q 2182 403 2425 617 
Q 2669 832 2669 1229 
L 2669 1280 
Q 2669 1677 2425 1891 
Q 2182 2106 1709 2106 
L 1184 2106 
L 1184 2573 
L 1670 2573 
z
" transform="scale(0.015625)"/>
       </defs>
       <use xlink:href="#IBMPlexSans-Regular-33"/>
       <use xlink:href="#IBMPlexSans-Regular-30" transform="translate(59.999985 0)"/>
       <use xlink:href="#IBMPlexSans-Regular-30" transform="translate(119.999969 0)"/>
      </g>
     </g>
    </g>
    <g id="xtick_5">
     <g id="line2d_9">
      <path d="M 218.183201 170.767352 
L 218.183201 7.2 
" clip-path="url(#pf80984d46d)" style="fill: none; stroke-dasharray: 1.85,0.8; stroke-dashoffset: 0; stroke: #838383; stroke-opacity: 0.2; stroke-width: 0.5"/>
     </g>
     <g id="line2d_10"/>
     <g id="text_5">
      <!-- 400 -->
      <g style="fill: #838383" transform="translate(207.383201 183.147352) scale(0.12 -0.12)">
       <defs>
        <path id="IBMPlexSans-Regular-34" d="M 2400 0 
L 2400 877 
L 243 877 
L 243 1350 
L 2112 4467 
L 2912 4467 
L 2912 1325 
L 3558 1325 
L 3558 877 
L 2912 877 
L 2912 0 
L 2400 0 
z
M 749 1325 
L 2400 1325 
L 2400 4051 
L 2368 4051 
L 749 1325 
z
" transform="scale(0.015625)"/>
       </defs>
       <use xlink:href="#IBMPlexSans-Regular-34"/>
       <use xlink:href="#IBMPlexSans-Regular-30" transform="translate(59.999985 0)"/>
       <use xlink:href="#IBMPlexSans-Regular-30" transform="translate(119.999969 0)"/>
      </g>
     </g>
    </g>
    <g id="xtick_6">
     <g id="line2d_11">
      <path d="M 256.990906 170.767352 
L 256.990906 7.2 
" clip-path="url(#pf80984d46d)" style="fill: none; stroke-dasharray: 1.85,0.8; stroke-dashoffset: 0; stroke: #838383; stroke-opacity: 0.2; stroke-width: 0.5"/>
     </g>
     <g id="line2d_12"/>
     <g id="text_6">
      <!-- 500 -->
      <g style="fill: #838383" transform="translate(246.190906 183.147352) scale(0.12 -0.12)">
       <defs>
        <path id="IBMPlexSans-Regular-35" d="M 3187 3994 
L 1229 3994 
L 1101 2291 
L 1146 2291 
Q 1306 2515 1507 2649 
Q 1709 2784 2061 2784 
Q 2349 2784 2592 2688 
Q 2835 2592 3014 2416 
Q 3194 2240 3293 1984 
Q 3392 1728 3392 1402 
Q 3392 1075 3289 803 
Q 3187 531 2992 336 
Q 2797 141 2518 32 
Q 2240 -77 1888 -77 
Q 1606 -77 1392 -13 
Q 1178 51 1011 160 
Q 845 269 720 403 
Q 595 538 493 685 
L 896 992 
Q 979 858 1072 749 
Q 1165 640 1277 563 
Q 1389 486 1536 444 
Q 1683 403 1888 403 
Q 2349 403 2585 646 
Q 2822 890 2822 1331 
L 2822 1395 
Q 2822 1837 2585 2080 
Q 2349 2323 1888 2323 
Q 1581 2323 1405 2211 
Q 1229 2099 1088 1946 
L 634 2010 
L 794 4467 
L 3187 4467 
L 3187 3994 
z
" transform="scale(0.015625)"/>
       </defs>
       <use xlink:href="#IBMPlexSans-Regular-35"/>
       <use xlink:href="#IBMPlexSans-Regular-30" transform="translate(59.999985 0)"/>
       <use xlink:href="#IBMPlexSans-Regular-30" transform="translate(119.999969 0)"/>
      </g>
     </g>
    </g>
    <g id="xtick_7">
     <g id="line2d_13">
      <path d="M 295.798611 170.767352 
L 295.798611 7.2 
" clip-path="url(#pf80984d46d)" style="fill: none; stroke-dasharray: 1.85,0.8; stroke-dashoffset: 0; stroke: #838383; stroke-opacity: 0.2; stroke-width: 0.5"/>
     </g>
     <g id="line2d_14"/>
     <g id="text_7">
      <!-- 600 -->
      <g style="fill: #838383" transform="translate(284.998611 183.147352) scale(0.12 -0.12)">
       <defs>
        <path id="IBMPlexSans-Regular-36" d="M 1926 -77 
Q 1581 -77 1302 41 
Q 1024 160 829 381 
Q 634 602 531 922 
Q 429 1242 429 1638 
Q 429 2138 576 2576 
Q 723 3014 956 3376 
Q 1190 3738 1472 4016 
Q 1754 4294 2022 4467 
L 2714 4467 
Q 2355 4205 2073 3955 
Q 1792 3706 1581 3434 
Q 1370 3162 1222 2851 
Q 1075 2541 986 2150 
L 1018 2138 
Q 1178 2413 1430 2595 
Q 1683 2778 2093 2778 
Q 2381 2778 2624 2682 
Q 2867 2586 3040 2406 
Q 3213 2227 3312 1971 
Q 3411 1715 3411 1402 
Q 3411 1075 3305 803 
Q 3200 531 3005 336 
Q 2810 141 2534 32 
Q 2259 -77 1926 -77 
z
M 1920 390 
Q 2362 390 2608 633 
Q 2854 877 2854 1331 
L 2854 1382 
Q 2854 1837 2608 2080 
Q 2362 2323 1920 2323 
Q 1478 2323 1232 2080 
Q 986 1837 986 1382 
L 986 1331 
Q 986 877 1232 633 
Q 1478 390 1920 390 
z
" transform="scale(0.015625)"/>
       </defs>
       <use xlink:href="#IBMPlexSans-Regular-36"/>
       <use xlink:href="#IBMPlexSans-Regular-30" transform="translate(59.999985 0)"/>
       <use xlink:href="#IBMPlexSans-Regular-30" transform="translate(119.999969 0)"/>
      </g>
     </g>
    </g>
    <g id="text_8">
     <!-- draw -->
     <g style="fill: #bdbdbd" transform="translate(170.538045 198.427352) scale(0.12 -0.12)">
      <defs>
       <path id="IBMPlexSans-Regular-64" d="M 2656 538 
L 2630 538 
Q 2330 -77 1664 -77 
Q 1357 -77 1107 44 
Q 858 166 682 390 
Q 506 614 413 934 
Q 320 1254 320 1651 
Q 320 2048 413 2368 
Q 506 2688 682 2912 
Q 858 3136 1107 3257 
Q 1357 3379 1664 3379 
Q 2010 3379 2256 3228 
Q 2502 3078 2630 2765 
L 2656 2765 
L 2656 4736 
L 3168 4736 
L 3168 0 
L 2656 0 
L 2656 538 
z
M 1805 384 
Q 1978 384 2134 429 
Q 2291 474 2406 560 
Q 2522 646 2589 771 
Q 2656 896 2656 1056 
L 2656 2285 
Q 2656 2419 2589 2537 
Q 2522 2656 2406 2739 
Q 2291 2822 2134 2870 
Q 1978 2918 1805 2918 
Q 1370 2918 1120 2646 
Q 870 2374 870 1933 
L 870 1370 
Q 870 928 1120 656 
Q 1370 384 1805 384 
z
" transform="scale(0.015625)"/>
       <path id="IBMPlexSans-Regular-72" d="M 544 0 
L 544 3302 
L 1056 3302 
L 1056 2694 
L 1088 2694 
Q 1178 2931 1408 3116 
Q 1638 3302 2042 3302 
L 2240 3302 
L 2240 2790 
L 1939 2790 
Q 1523 2790 1289 2633 
Q 1056 2477 1056 2240 
L 1056 0 
L 544 0 
z
" transform="scale(0.015625)"/>
       <path id="IBMPlexSans-Regular-61" d="M 2944 0 
Q 2656 0 2531 153 
Q 2406 307 2374 538 
L 2342 538 
Q 2234 230 1984 76 
Q 1734 -77 1389 -77 
Q 864 -77 573 192 
Q 282 461 282 922 
Q 282 1389 624 1638 
Q 966 1888 1690 1888 
L 2342 1888 
L 2342 2214 
Q 2342 2566 2150 2752 
Q 1958 2938 1562 2938 
Q 1261 2938 1059 2803 
Q 858 2669 723 2445 
L 416 2733 
Q 550 3002 844 3190 
Q 1139 3379 1587 3379 
Q 2189 3379 2521 3084 
Q 2854 2790 2854 2266 
L 2854 448 
L 3232 448 
L 3232 0 
L 2944 0 
z
M 1472 358 
Q 1664 358 1824 403 
Q 1984 448 2099 531 
Q 2214 614 2278 723 
Q 2342 832 2342 960 
L 2342 1504 
L 1664 1504 
Q 1222 1504 1020 1376 
Q 819 1248 819 1005 
L 819 870 
Q 819 627 995 492 
Q 1171 358 1472 358 
z
" transform="scale(0.015625)"/>
       <path id="IBMPlexSans-Regular-77" d="M 198 3302 
L 698 3302 
L 1050 1875 
L 1402 429 
L 1414 429 
L 1818 1875 
L 2234 3302 
L 2688 3302 
L 3117 1875 
L 3526 429 
L 3539 429 
L 3878 1875 
L 4237 3302 
L 4717 3302 
L 3840 0 
L 3206 0 
L 2746 1587 
L 2458 2592 
L 2445 2592 
L 2163 1587 
L 1702 0 
L 1082 0 
L 198 3302 
z
" transform="scale(0.015625)"/>
      </defs>
      <use xlink:href="#IBMPlexSans-Regular-64"/>
      <use xlink:href="#IBMPlexSans-Regular-72" transform="translate(57.999985 0)"/>
      <use xlink:href="#IBMPlexSans-Regular-61" transform="translate(94.699982 0)"/>
      <use xlink:href="#IBMPlexSans-Regular-77" transform="translate(148.099976 0)"/>
     </g>
    </g>
   </g>
   <g id="matplotlib.axis_2">
    <g id="ytick_1">
     <g id="line2d_15">
      <path d="M 50.844375 140.307427 
L 317.220465 140.307427 
" clip-path="url(#pf80984d46d)" style="fill: none; stroke-dasharray: 1.85,0.8; stroke-dashoffset: 0; stroke: #838383; stroke-opacity: 0.2; stroke-width: 0.5"/>
     </g>
     <g id="line2d_16"/>
     <g id="text_9">
      <!-- 0.15 -->
      <g style="fill: #838383" transform="translate(22.48 144.747427) scale(0.12 -0.12)">
       <defs>
        <path id="IBMPlexSans-Regular-2e" d="M 870 -77 
Q 666 -77 573 25 
Q 480 128 480 294 
L 480 378 
Q 480 544 573 646 
Q 666 749 870 749 
Q 1075 749 1168 646 
Q 1261 544 1261 378 
L 1261 294 
Q 1261 128 1168 25 
Q 1075 -77 870 -77 
z
" transform="scale(0.015625)"/>
       </defs>
       <use xlink:href="#IBMPlexSans-Regular-30"/>
       <use xlink:href="#IBMPlexSans-Regular-2e" transform="translate(59.999985 0)"/>
       <use xlink:href="#IBMPlexSans-Regular-31" transform="translate(87.199982 0)"/>
       <use xlink:href="#IBMPlexSans-Regular-35" transform="translate(147.199966 0)"/>
      </g>
     </g>
    </g>
    <g id="ytick_2">
     <g id="line2d_17">
      <path d="M 50.844375 97.495626 
L 317.220465 97.495626 
" clip-path="url(#pf80984d46d)" style="fill: none; stroke-dasharray: 1.85,0.8; stroke-dashoffset: 0; stroke: #838383; stroke-opacity: 0.2; stroke-width: 0.5"/>
     </g>
     <g id="line2d_18"/>
     <g id="text_10">
      <!-- 0.20 -->
      <g style="fill: #838383" transform="translate(22.48 101.935626) scale(0.12 -0.12)">
       <use xlink:href="#IBMPlexSans-Regular-30"/>
       <use xlink:href="#IBMPlexSans-Regular-2e" transform="translate(59.999985 0)"/>
       <use xlink:href="#IBMPlexSans-Regular-32" transform="translate(87.199982 0)"/>
       <use xlink:href="#IBMPlexSans-Regular-30" transform="translate(147.199966 0)"/>
      </g>
     </g>
    </g>
    <g id="ytick_3">
     <g id="line2d_19">
      <path d="M 50.844375 54.683825 
L 317.220465 54.683825 
" clip-path="url(#pf80984d46d)" style="fill: none; stroke-dasharray: 1.85,0.8; stroke-dashoffset: 0; stroke: #838383; stroke-opacity: 0.2; stroke-width: 0.5"/>
     </g>
     <g id="line2d_20"/>
     <g id="text_11">
      <!-- 0.25 -->
      <g style="fill: #838383" transform="translate(22.48 59.123825) scale(0.12 -0.12)">
       <use xlink:href="#IBMPlexSans-Regular-30"/>
       <use xlink:href="#IBMPlexSans-Regular-2e" transform="translate(59.999985 0)"/>
       <use xlink:href="#IBMPlexSans-Regular-32" transform="translate(87.199982 0)"/>
       <use xlink:href="#IBMPlexSans-Regular-35" transform="translate(147.199966 0)"/>
      </g>
     </g>
    </g>
    <g id="ytick_4">
     <g id="line2d_21">
      <path d="M 50.844375 11.872024 
L 317.220465 11.872024 
" clip-path="url(#pf80984d46d)" style="fill: none; stroke-dasharray: 1.85,0.8; stroke-dashoffset: 0; stroke: #838383; stroke-opacity: 0.2; stroke-width: 0.5"/>
     </g>
     <g id="line2d_22"/>
     <g id="text_12">
      <!-- 0.30 -->
      <g style="fill: #838383" transform="translate(22.48 16.312024) scale(0.12 -0.12)">
       <use xlink:href="#IBMPlexSans-Regular-30"/>
       <use xlink:href="#IBMPlexSans-Regular-2e" transform="translate(59.999985 0)"/>
       <use xlink:href="#IBMPlexSans-Regular-33" transform="translate(87.199982 0)"/>
       <use xlink:href="#IBMPlexSans-Regular-30" transform="translate(147.199966 0)"/>
      </g>
     </g>
    </g>
    <g id="text_13">
     <!-- val_dtf -->
     <g style="fill: #bdbdbd" transform="translate(16.08 107.692426) rotate(-90) scale(0.12 -0.12)">
      <defs>
       <path id="IBMPlexSans-Regular-76" d="M 1274 0 
L 115 3302 
L 627 3302 
L 1203 1664 
L 1562 538 
L 1594 538 
L 1952 1664 
L 2541 3302 
L 3034 3302 
L 1869 0 
L 1274 0 
z
" transform="scale(0.015625)"/>
       <path id="IBMPlexSans-Regular-6c" d="M 1088 0 
Q 819 0 681 150 
Q 544 301 544 531 
L 544 4736 
L 1056 4736 
L 1056 448 
L 1542 448 
L 1542 0 
L 1088 0 
z
" transform="scale(0.015625)"/>
       <path id="IBMPlexSans-Regular-5f" d="M 192 -1056 
L 192 -608 
L 3424 -608 
L 3424 -1056 
L 192 -1056 
z
" transform="scale(0.015625)"/>
       <path id="IBMPlexSans-Regular-74" d="M 1274 0 
Q 1005 0 867 150 
Q 730 301 730 544 
L 730 2854 
L 186 2854 
L 186 3302 
L 493 3302 
Q 659 3302 720 3369 
Q 781 3437 781 3603 
L 781 4218 
L 1242 4218 
L 1242 3302 
L 1965 3302 
L 1965 2854 
L 1242 2854 
L 1242 448 
L 1914 448 
L 1914 0 
L 1274 0 
z
" transform="scale(0.015625)"/>
       <path id="IBMPlexSans-Regular-66" d="M 723 2854 
L 186 2854 
L 186 3302 
L 723 3302 
L 723 3968 
Q 723 4314 902 4525 
Q 1082 4736 1446 4736 
L 1946 4736 
L 1946 4288 
L 1235 4288 
L 1235 3302 
L 1946 3302 
L 1946 2854 
L 1235 2854 
L 1235 0 
L 723 0 
L 723 2854 
z
" transform="scale(0.015625)"/>
      </defs>
      <use xlink:href="#IBMPlexSans-Regular-76"/>
      <use xlink:href="#IBMPlexSans-Regular-61" transform="translate(49.199997 0)"/>
      <use xlink:href="#IBMPlexSans-Regular-6c" transform="translate(102.599991 0)"/>
      <use xlink:href="#IBMPlexSans-Regular-5f" transform="translate(129.799988 0)"/>
      <use xlink:href="#IBMPlexSans-Regular-64" transform="translate(186.299973 0)"/>
      <use xlink:href="#IBMPlexSans-Regular-74" transform="translate(244.299957 0)"/>
      <use xlink:href="#IBMPlexSans-Regular-66" transform="translate(279.399948 0)"/>
     </g>
    </g>
   </g>
   <g id="line2d_23">
    <path d="M 62.952379 133.860868 
L 63.340456 150.452823 
L 63.728533 151.250727 
L 64.11661 136.060823 
L 64.504687 138.431518 
L 64.892764 141.514721 
L 65.280841 152.26048 
L 65.668918 132.567484 
L 66.056996 139.245268 
L 66.445073 155.406509 
L 66.83315 150.096199 
L 67.221227 64.780028 
L 67.609304 133.252727 
L 67.997381 148.85477 
L 68.385458 153.643585 
L 68.773535 132.913327 
L 69.161612 137.560875 
L 69.549689 155.670044 
L 69.937766 150.89853 
L 70.325843 130.654719 
L 70.71392 134.633254 
L 71.101997 146.997276 
L 71.490074 146.652276 
L 72.266228 129.802296 
L 72.654305 152.442576 
L 73.042382 149.98646 
L 73.43046 137.029505 
L 73.818537 135.350968 
L 74.206614 150.357144 
L 74.594691 149.601651 
L 75.370845 122.77021 
L 75.758922 150.116677 
L 76.146999 151.962509 
L 76.535076 135.779157 
L 76.923153 139.082477 
L 77.31123 157.434499 
L 77.699307 150.753474 
L 78.087384 136.191257 
L 78.475461 126.727207 
L 78.863538 154.816843 
L 79.251615 156.933929 
L 79.639692 134.468294 
L 80.027769 133.227426 
L 80.415846 150.388531 
L 80.803924 141.747903 
L 81.192001 126.476469 
L 81.580078 136.779239 
L 81.968155 140.38395 
L 82.356232 153.917046 
L 83.132386 126.488348 
L 83.520463 145.449021 
L 83.90854 147.578113 
L 84.296617 128.957133 
L 84.684694 55.729788 
L 85.072771 131.987413 
L 85.460848 117.070817 
L 85.848925 128.691799 
L 86.237002 128.87753 
L 86.625079 140.316672 
L 87.401233 128.720774 
L 87.789311 131.899938 
L 88.177388 138.082676 
L 88.565465 138.226737 
L 88.953542 134.242742 
L 89.341619 154.442458 
L 89.729696 156.01294 
L 90.117773 136.462461 
L 90.50585 135.383963 
L 91.282004 157.39783 
L 91.670081 134.154948 
L 92.058158 134.983562 
L 92.446235 156.006229 
L 92.834312 159.57334 
L 93.222389 138.563662 
L 93.610466 137.520812 
L 93.998543 149.607252 
L 94.38662 152.771972 
L 94.774697 133.304311 
L 95.162775 136.4022 
L 95.550852 143.081847 
L 95.938929 157.252022 
L 96.327006 135.411688 
L 96.715083 133.913945 
L 97.10316 146.204438 
L 97.491237 139.39604 
L 97.879314 136.144547 
L 98.267391 134.25633 
L 98.655468 135.051708 
L 99.043545 130.521797 
L 99.431622 132.275828 
L 99.819699 136.119935 
L 100.207776 141.689174 
L 100.595853 133.503771 
L 100.98393 131.647847 
L 101.372007 136.044696 
L 101.760084 156.025035 
L 102.148161 151.948308 
L 102.536239 134.576426 
L 102.924316 137.046449 
L 103.70047 155.416206 
L 104.088547 136.303383 
L 104.476624 137.666124 
L 104.864701 148.701433 
L 105.252778 154.354983 
L 105.640855 137.700943 
L 106.028932 133.210125 
L 106.417009 114.398897 
L 106.805086 134.450597 
L 107.193163 133.195644 
L 107.58124 138.6875 
L 107.969317 154.45116 
L 108.357394 138.209972 
L 108.745471 155.903558 
L 109.133548 142.20531 
L 109.521626 150.101736 
L 109.909703 153.208442 
L 110.29778 136.722691 
L 110.685857 156.890613 
L 111.073934 138.87466 
L 111.462011 145.093507 
L 111.850088 158.311713 
L 112.238165 136.558038 
L 112.626242 157.790486 
L 113.014319 115.712082 
L 113.402396 136.062928 
L 113.790473 147.371699 
L 114.17855 138.788895 
L 114.566627 138.843733 
L 114.954704 149.609357 
L 115.342781 139.502526 
L 115.730858 148.315119 
L 116.118935 147.295631 
L 116.507012 138.433661 
L 116.89509 154.346626 
L 117.283167 140.095471 
L 117.671244 140.701583 
L 118.059321 152.13219 
L 118.447398 135.646401 
L 119.223552 143.993842 
L 119.611629 139.513129 
L 119.999706 150.621394 
L 120.387783 136.558076 
L 120.77586 144.179828 
L 121.163937 145.260253 
L 121.552014 132.898769 
L 121.940091 138.208683 
L 122.328168 133.204983 
L 122.716245 101.773916 
L 123.104322 89.167551 
L 123.492399 124.292858 
L 123.880477 144.423753 
L 124.268554 133.886909 
L 124.656631 150.035913 
L 125.044708 143.078926 
L 125.432785 132.61325 
L 125.820862 142.758588 
L 126.208939 143.291336 
L 126.597016 132.908938 
L 126.985093 156.137735 
L 127.37317 140.70365 
L 127.761247 142.155895 
L 128.149324 158.715507 
L 128.537401 133.767779 
L 128.925478 153.153221 
L 129.313555 143.659022 
L 130.089709 144.702446 
L 130.477786 135.614363 
L 130.865863 154.434497 
L 131.253941 149.459695 
L 131.642018 136.391751 
L 132.030095 153.498669 
L 132.418172 132.852365 
L 132.806249 130.192681 
L 133.194326 129.033227 
L 133.582403 126.315069 
L 133.97048 132.575969 
L 134.358557 140.888846 
L 134.746634 135.638375 
L 135.134711 147.975847 
L 135.910865 149.813219 
L 136.298942 151.020582 
L 136.687019 150.354605 
L 137.075096 145.806998 
L 137.463173 126.17786 
L 137.85125 121.369307 
L 138.239327 134.015952 
L 138.627405 154.644419 
L 139.015482 147.149108 
L 139.403559 157.080057 
L 140.179713 136.289756 
L 140.56779 129.776574 
L 141.343944 152.515391 
L 141.732021 144.294378 
L 142.120098 142.871708 
L 142.508175 90.777343 
L 142.896252 130.661711 
L 143.284329 122.078371 
L 143.672406 126.714142 
L 144.060483 134.133857 
L 144.44856 119.602032 
L 144.836637 124.984838 
L 145.224714 121.591529 
L 145.612792 123.031117 
L 146.000869 133.005842 
L 146.388946 137.380962 
L 146.777023 132.368266 
L 147.1651 135.027517 
L 147.553177 129.526704 
L 147.941254 128.952808 
L 148.329331 132.675909 
L 148.717408 132.861845 
L 149.105485 131.664612 
L 149.493562 137.499109 
L 149.881639 133.546947 
L 150.269716 135.139157 
L 150.657793 140.094655 
L 151.04587 137.500334 
L 151.433947 102.066108 
L 151.822024 135.78375 
L 152.210101 142.681052 
L 152.598178 133.005089 
L 152.986256 127.845947 
L 153.374333 135.644831 
L 153.76241 132.264409 
L 154.150487 133.995321 
L 154.538564 133.003341 
L 154.926641 131.240213 
L 155.314718 135.927633 
L 155.702795 133.084896 
L 156.090872 131.940613 
L 156.478949 125.844061 
L 156.867026 122.894941 
L 157.255103 132.651744 
L 157.64318 127.373446 
L 158.031257 118.413475 
L 158.419334 134.931366 
L 158.807411 137.939789 
L 159.195488 136.860858 
L 159.583565 136.579052 
L 159.971643 75.452653 
L 160.35972 128.097757 
L 160.747797 133.533818 
L 161.135874 134.936508 
L 161.523951 133.677024 
L 161.912028 133.922799 
L 162.300105 134.841722 
L 162.688182 137.256511 
L 163.076259 131.503148 
L 163.464336 135.645648 
L 163.852413 136.695043 
L 164.628567 126.424885 
L 165.016644 132.168513 
L 165.404721 135.982687 
L 165.792798 136.970571 
L 166.180875 137.463793 
L 166.568952 136.504986 
L 166.957029 137.322947 
L 167.345107 136.182186 
L 167.733184 132.973626 
L 168.121261 131.776789 
L 168.509338 125.974291 
L 168.897415 135.777333 
L 169.285492 137.494618 
L 169.673569 134.269995 
L 170.449723 137.946284 
L 170.8378 134.1569 
L 171.225877 133.88377 
L 171.613954 131.80297 
L 172.002031 133.76265 
L 172.390108 130.327823 
L 172.778185 134.088193 
L 173.554339 132.614934 
L 173.942416 130.880195 
L 174.718571 138.740449 
L 175.106648 133.084896 
L 175.494725 131.617379 
L 175.882802 133.071589 
L 176.270879 132.425528 
L 176.658956 134.092723 
L 177.047033 137.145241 
L 177.43511 137.717708 
L 177.823187 137.349422 
L 178.211264 137.633869 
L 178.599341 134.768613 
L 178.987418 137.080668 
L 179.375495 20.861713 
L 179.763572 129.965993 
L 180.151649 130.51048 
L 180.539726 131.989237 
L 180.927803 132.227804 
L 181.31588 135.100728 
L 181.703958 135.383605 
L 182.092035 134.926594 
L 182.480112 133.29635 
L 182.868189 136.545049 
L 183.256266 137.309678 
L 183.644343 127.37291 
L 184.03242 131.107635 
L 184.420497 136.045908 
L 184.808574 134.375281 
L 185.196651 136.385473 
L 185.584728 131.110416 
L 185.972805 134.959167 
L 186.360882 134.822098 
L 186.748959 135.978018 
L 187.137036 135.803271 
L 187.525113 137.719558 
L 187.91319 130.240807 
L 188.301267 136.090283 
L 188.689344 133.715378 
L 189.077422 133.78647 
L 189.465499 136.360326 
L 189.853576 135.120708 
L 190.241653 131.902579 
L 190.62973 135.474398 
L 191.017807 134.219521 
L 191.405884 135.215928 
L 191.793961 133.196919 
L 192.570115 136.512131 
L 192.958192 134.105137 
L 193.346269 135.32716 
L 193.734346 132.333486 
L 194.5105 136.927472 
L 194.898577 135.759279 
L 195.286654 135.088415 
L 195.674731 130.735279 
L 196.062808 136.043445 
L 196.450886 56.458271 
L 196.838963 82.808752 
L 197.22704 131.784814 
L 197.615117 88.400434 
L 198.003194 135.473798 
L 198.391271 131.973786 
L 198.779348 132.82154 
L 199.167425 91.598404 
L 199.555502 102.623621 
L 199.943579 107.711199 
L 200.331656 127.930858 
L 200.719733 128.740181 
L 201.495887 135.18204 
L 201.883964 133.70799 
L 202.272041 135.47219 
L 202.660118 133.784659 
L 203.048195 123.848287 
L 203.436273 136.830542 
L 203.82435 133.292573 
L 204.212427 135.706623 
L 204.600504 133.079474 
L 204.988581 138.907093 
L 205.376658 134.98207 
L 205.764735 136.948843 
L 206.152812 135.487884 
L 206.540889 137.127225 
L 207.317043 127.646551 
L 207.70512 109.460484 
L 208.093197 134.09479 
L 208.481274 135.424523 
L 208.869351 135.175214 
L 209.257428 125.937354 
L 209.645505 128.609287 
L 210.033582 132.326813 
L 210.421659 132.279286 
L 210.809737 101.836141 
L 211.197814 128.749852 
L 211.585891 132.31635 
L 211.973968 130.010228 
L 212.362045 85.39298 
L 213.138199 132.623177 
L 213.526276 124.41098 
L 213.914353 134.375103 
L 214.690507 136.638176 
L 215.078584 127.320714 
L 215.854738 135.697526 
L 216.242815 136.710124 
L 216.630892 78.895186 
L 217.018969 136.398168 
L 217.407046 139.352009 
L 217.795124 127.072055 
L 218.571278 135.740651 
L 218.959355 136.353155 
L 219.347432 134.240037 
L 219.735509 133.954008 
L 220.123586 134.195406 
L 220.511663 137.330156 
L 221.287817 133.988584 
L 221.675894 134.733692 
L 222.063971 134.969221 
L 222.452048 136.171557 
L 222.840125 132.573621 
L 223.228202 133.04505 
L 223.616279 136.076236 
L 224.004356 131.909392 
L 224.392433 137.037926 
L 224.78051 134.736754 
L 225.168588 135.247748 
L 225.556665 128.734682 
L 225.944742 110.277092 
L 226.332819 120.930911 
L 226.720896 123.82467 
L 227.108973 134.593727 
L 227.49705 134.560911 
L 227.885127 124.069871 
L 228.273204 130.850517 
L 228.661281 135.188636 
L 229.049358 135.293846 
L 229.437435 132.571835 
L 229.825512 137.051514 
L 230.213589 128.587661 
L 230.989743 136.154971 
L 231.37782 135.758322 
L 231.765897 14.63488 
L 232.153974 135.680071 
L 232.542052 127.430747 
L 232.930129 78.055611 
L 233.318206 126.934808 
L 233.706283 136.739099 
L 234.09436 135.718897 
L 234.482437 131.57692 
L 235.258591 136.926298 
L 235.646668 129.034682 
L 236.034745 133.432998 
L 236.810899 135.744657 
L 237.198976 135.842901 
L 237.587053 134.206787 
L 237.97513 134.522341 
L 238.363207 136.443667 
L 238.751284 136.592257 
L 239.139361 133.881167 
L 239.527439 136.294247 
L 239.915516 133.620043 
L 240.303593 135.016391 
L 240.69167 134.943078 
L 241.079747 137.868544 
L 241.467824 131.855703 
L 241.855901 106.42542 
L 242.243978 133.779772 
L 242.632055 137.520378 
L 243.020132 133.234877 
L 243.408209 135.796841 
L 243.796286 137.32948 
L 244.184363 135.227704 
L 244.57244 136.267173 
L 244.960517 132.43844 
L 245.348594 137.111455 
L 245.736671 135.256846 
L 246.124748 137.094652 
L 246.512825 136.610847 
L 246.900903 132.94326 
L 247.28898 133.0093 
L 247.677057 130.832068 
L 248.065134 134.523336 
L 248.453211 133.176263 
L 248.841288 131.134174 
L 249.229365 131.30018 
L 249.617442 138.485284 
L 250.005519 128.628872 
L 250.393596 127.450906 
L 250.781673 137.108138 
L 251.16975 132.38618 
L 251.557827 140.688161 
L 251.945904 132.021556 
L 252.333981 133.847764 
L 252.722058 133.222003 
L 253.498212 136.792113 
L 253.886289 135.379216 
L 254.662444 73.927057 
L 255.050521 92.899213 
L 255.438598 48.598259 
L 255.826675 137.049562 
L 256.214752 134.891558 
L 256.602829 125.846243 
L 256.990906 127.740061 
L 257.378983 136.681199 
L 257.76706 137.910967 
L 258.155137 134.314919 
L 258.931291 85.632197 
L 259.319368 126.382781 
L 259.707445 135.673475 
L 260.095522 135.56024 
L 260.483599 90.320369 
L 260.871676 137.744961 
L 261.259754 133.707059 
L 261.647831 127.784015 
L 262.035908 138.986939 
L 262.423985 142.926087 
L 262.812062 141.980052 
L 263.200139 132.553743 
L 263.588216 107.512734 
L 263.976293 126.796348 
L 264.36437 108.980889 
L 264.752447 133.166566 
L 265.140524 130.937993 
L 265.528601 134.065508 
L 265.916678 134.732901 
L 266.304755 124.465563 
L 266.692832 79.652274 
L 267.080909 127.370805 
L 267.468986 125.178697 
L 267.857063 135.381755 
L 268.24514 128.515279 
L 268.633218 137.757095 
L 269.021295 131.801618 
L 269.409372 136.624116 
L 269.797449 136.544194 
L 270.185526 135.659172 
L 270.573603 131.360938 
L 270.96168 131.897692 
L 271.349757 127.728922 
L 271.737834 150.54234 
L 272.125911 157.781031 
L 272.513988 156.452548 
L 273.290142 126.315528 
L 273.678219 137.59794 
L 274.066296 135.84091 
L 274.454373 135.633233 
L 274.84245 121.460061 
L 275.230527 117.309217 
L 275.618605 124.21929 
L 276.006682 115.98372 
L 276.782836 147.572627 
L 277.170913 149.805194 
L 277.55899 143.233296 
L 277.947067 125.308417 
L 278.335144 158.215179 
L 278.723221 161.197153 
L 279.111298 157.396223 
L 279.499375 102.287807 
L 279.887452 142.044267 
L 280.275529 127.846483 
L 280.663606 144.946805 
L 281.051683 139.56604 
L 281.43976 155.90255 
L 281.827837 161.523169 
L 282.215914 156.64249 
L 282.603991 126.546401 
L 282.992069 139.819802 
L 283.380146 129.02695 
L 283.768223 157.036779 
L 284.1563 160.995448 
L 284.544377 162.760503 
L 284.932454 160.319557 
L 285.320531 156.753263 
L 285.708608 163.332472 
L 286.096685 162.609412 
L 286.484762 160.595724 
L 286.872839 162.349015 
L 287.260916 162.957902 
L 287.648993 144.425641 
L 288.03707 145.983632 
L 288.813224 160.324686 
L 289.201301 151.883276 
L 289.589378 153.23595 
L 289.977455 161.742514 
L 290.365533 129.396844 
L 290.75361 161.508968 
L 291.141687 160.803464 
L 291.529764 160.386592 
L 291.917841 160.963984 
L 292.305918 159.568032 
L 293.082072 121.644657 
L 293.470149 135.471655 
L 293.858226 154.599725 
L 294.246303 162.824042 
L 294.63438 143.259554 
L 295.022457 137.636255 
L 295.410534 153.510726 
L 296.186688 162.638776 
L 296.574765 157.86829 
L 296.962842 156.675982 
L 297.35092 162.889227 
L 297.738997 155.201295 
L 298.127074 157.568213 
L 298.515151 157.598834 
L 298.903228 154.760589 
L 299.291305 154.003169 
L 299.679382 148.625862 
L 300.067459 158.832136 
L 300.455536 151.887269 
L 300.843613 159.706198 
L 301.23169 161.368837 
L 301.619767 153.188359 
L 302.007844 156.143157 
L 302.395921 157.865011 
L 302.783998 138.867771 
L 303.172075 133.780729 
L 303.560152 157.506638 
L 303.948229 159.726 
L 304.336306 150.063664 
L 304.724384 160.313165 
L 305.112461 162.015044 
L 305.112461 162.015044 
" clip-path="url(#pf80984d46d)" style="fill: none; stroke: #2196f3; stroke-width: 1.5; stroke-linecap: round"/>
   </g>
   <g id="patch_3">
    <path d="M 50.844375 170.767352 
L 50.844375 7.2 
" style="fill: none"/>
   </g>
   <g id="patch_4">
    <path d="M 317.220465 170.767352 
L 317.220465 7.2 
" style="fill: none"/>
   </g>
   <g id="patch_5">
    <path d="M 50.844375 170.767352 
L 317.220465 170.767352 
" style="fill: none"/>
   </g>
   <g id="patch_6">
    <path d="M 50.844375 7.2 
L 317.220465 7.2 
" style="fill: none"/>
   </g>
  </g>
 </g>
 <defs>
  <clipPath id="pf80984d46d">
   <rect x="50.844375" y="7.2" width="266.37609" height="163.567352"/>
  </clipPath>
 </defs>
</svg>
