<?xml version="1.0" encoding="utf-8" standalone="no"?>
<!DOCTYPE svg PUBLIC "-//W3C//DTD SVG 1.1//EN"
  "http://www.w3.org/Graphics/SVG/1.1/DTD/svg11.dtd">
<svg xmlns:xlink="http://www.w3.org/1999/xlink" width="346.020465pt" height="208.027352pt" viewBox="0 0 346.020465 208.027352" xmlns="http://www.w3.org/2000/svg" version="1.1">
 <metadata>
  <rdf:RDF xmlns:dc="http://purl.org/dc/elements/1.1/" xmlns:cc="http://creativecommons.org/ns#" xmlns:rdf="http://www.w3.org/1999/02/22-rdf-syntax-ns#">
   <cc:Work>
    <dc:type rdf:resource="http://purl.org/dc/dcmitype/StillImage"/>
    <dc:date>2025-08-01T10:15:58.025324</dc:date>
    <dc:format>image/svg+xml</dc:format>
    <dc:creator>
     <cc:Agent>
      <dc:title>Matplotlib v3.10.3, https://matplotlib.org/</dc:title>
     </cc:Agent>
    </dc:creator>
   </cc:Work>
  </rdf:RDF>
 </metadata>
 <defs>
  <style type="text/css">*{stroke-linejoin: round; stroke-linecap: butt}</style>
 </defs>
 <g id="figure_1">
  <g id="patch_1">
   <path d="M 0 208.027352 
L 346.020465 208.027352 
L 346.020465 0 
L 0 0 
L 0 208.027352 
z
" style="fill: none"/>
  </g>
  <g id="axes_1">
   <g id="patch_2">
    <path d="M 72.444375 170.767352 
L 338.820465 170.767352 
L 338.820465 7.2 
L 72.444375 7.2 
L 72.444375 170.767352 
z
" style="fill: none"/>
   </g>
   <g id="matplotlib.axis_1">
    <g id="xtick_1">
     <g id="line2d_1">
      <path d="M 84.552379 170.767352 
L 84.552379 7.2 
" clip-path="url(#p8153e1bf22)" style="fill: none; stroke-dasharray: 1.85,0.8; stroke-dashoffset: 0; stroke: #838383; stroke-opacity: 0.2; stroke-width: 0.5"/>
     </g>
     <g id="line2d_2"/>
     <g id="text_1">
      <!-- 0 -->
      <g style="fill: #838383" transform="translate(80.952379 183.147352) scale(0.12 -0.12)">
       <defs>
        <path id="IBMPlexSans-Regular-30" d="M 1920 -77 
Q 1120 -77 752 531 
Q 384 1139 384 2234 
Q 384 3328 752 3936 
Q 1120 4544 1920 4544 
Q 2720 4544 3088 3936 
Q 3456 3328 3456 2234 
Q 3456 1139 3088 531 
Q 2720 -77 1920 -77 
z
M 1920 390 
Q 2182 390 2368 499 
Q 2554 608 2669 806 
Q 2784 1005 2838 1273 
Q 2893 1542 2893 1869 
L 2893 2598 
Q 2893 2925 2838 3193 
Q 2784 3462 2669 3660 
Q 2554 3859 2368 3968 
Q 2182 4077 1920 4077 
Q 1658 4077 1472 3968 
Q 1286 3859 1171 3660 
Q 1056 3462 1001 3193 
Q 947 2925 947 2598 
L 947 1869 
Q 947 1542 1001 1273 
Q 1056 1005 1171 806 
Q 1286 608 1472 499 
Q 1658 390 1920 390 
z
" transform="scale(0.015625)"/>
       </defs>
       <use xlink:href="#IBMPlexSans-Regular-30"/>
      </g>
     </g>
    </g>
    <g id="xtick_2">
     <g id="line2d_3">
      <path d="M 123.360084 170.767352 
L 123.360084 7.2 
" clip-path="url(#p8153e1bf22)" style="fill: none; stroke-dasharray: 1.85,0.8; stroke-dashoffset: 0; stroke: #838383; stroke-opacity: 0.2; stroke-width: 0.5"/>
     </g>
     <g id="line2d_4"/>
     <g id="text_2">
      <!-- 100 -->
      <g style="fill: #838383" transform="translate(112.560084 183.147352) scale(0.12 -0.12)">
       <defs>
        <path id="IBMPlexSans-Regular-31" d="M 563 0 
L 563 474 
L 1811 474 
L 1811 4070 
L 1766 4070 
L 640 3021 
L 326 3360 
L 1510 4467 
L 2349 4467 
L 2349 474 
L 3501 474 
L 3501 0 
L 563 0 
z
" transform="scale(0.015625)"/>
       </defs>
       <use xlink:href="#IBMPlexSans-Regular-31"/>
       <use xlink:href="#IBMPlexSans-Regular-30" transform="translate(59.999985 0)"/>
       <use xlink:href="#IBMPlexSans-Regular-30" transform="translate(119.999969 0)"/>
      </g>
     </g>
    </g>
    <g id="xtick_3">
     <g id="line2d_5">
      <path d="M 162.16779 170.767352 
L 162.16779 7.2 
" clip-path="url(#p8153e1bf22)" style="fill: none; stroke-dasharray: 1.85,0.8; stroke-dashoffset: 0; stroke: #838383; stroke-opacity: 0.2; stroke-width: 0.5"/>
     </g>
     <g id="line2d_6"/>
     <g id="text_3">
      <!-- 200 -->
      <g style="fill: #838383" transform="translate(151.36779 183.147352) scale(0.12 -0.12)">
       <defs>
        <path id="IBMPlexSans-Regular-32" d="M 3411 0 
L 480 0 
L 480 550 
L 1939 1894 
Q 2253 2182 2464 2505 
Q 2675 2829 2675 3155 
L 2675 3232 
Q 2675 3603 2470 3833 
Q 2266 4064 1850 4064 
Q 1645 4064 1491 4006 
Q 1338 3949 1226 3846 
Q 1114 3744 1040 3606 
Q 966 3469 922 3309 
L 442 3494 
Q 506 3693 618 3881 
Q 730 4070 899 4217 
Q 1069 4365 1309 4454 
Q 1549 4544 1875 4544 
Q 2202 4544 2458 4448 
Q 2714 4352 2886 4179 
Q 3059 4006 3152 3769 
Q 3245 3533 3245 3245 
Q 3245 2982 3171 2758 
Q 3098 2534 2970 2332 
Q 2842 2131 2659 1939 
Q 2477 1747 2266 1555 
L 1062 474 
L 3411 474 
L 3411 0 
z
" transform="scale(0.015625)"/>
       </defs>
       <use xlink:href="#IBMPlexSans-Regular-32"/>
       <use xlink:href="#IBMPlexSans-Regular-30" transform="translate(59.999985 0)"/>
       <use xlink:href="#IBMPlexSans-Regular-30" transform="translate(119.999969 0)"/>
      </g>
     </g>
    </g>
    <g id="xtick_4">
     <g id="line2d_7">
      <path d="M 200.975495 170.767352 
L 200.975495 7.2 
" clip-path="url(#p8153e1bf22)" style="fill: none; stroke-dasharray: 1.85,0.8; stroke-dashoffset: 0; stroke: #838383; stroke-opacity: 0.2; stroke-width: 0.5"/>
     </g>
     <g id="line2d_8"/>
     <g id="text_4">
      <!-- 300 -->
      <g style="fill: #838383" transform="translate(190.175495 183.147352) scale(0.12 -0.12)">
       <defs>
        <path id="IBMPlexSans-Regular-33" d="M 1670 2573 
Q 2125 2573 2352 2781 
Q 2579 2989 2579 3315 
L 2579 3360 
Q 2579 3712 2358 3888 
Q 2138 4064 1779 4064 
Q 1434 4064 1216 3913 
Q 998 3763 858 3507 
L 461 3814 
Q 544 3949 662 4080 
Q 781 4211 941 4313 
Q 1101 4416 1312 4480 
Q 1523 4544 1792 4544 
Q 2074 4544 2323 4470 
Q 2573 4397 2755 4253 
Q 2938 4109 3043 3897 
Q 3149 3686 3149 3418 
Q 3149 3200 3081 3027 
Q 3014 2854 2899 2726 
Q 2784 2598 2627 2508 
Q 2470 2419 2291 2374 
L 2291 2349 
Q 2470 2310 2640 2224 
Q 2810 2138 2941 2000 
Q 3072 1862 3152 1667 
Q 3232 1472 3232 1222 
Q 3232 934 3123 694 
Q 3014 454 2816 284 
Q 2618 115 2336 19 
Q 2054 -77 1715 -77 
Q 1427 -77 1203 -13 
Q 979 51 806 160 
Q 634 269 502 403 
Q 371 538 269 685 
L 672 992 
Q 755 858 854 749 
Q 954 640 1075 563 
Q 1197 486 1350 444 
Q 1504 403 1709 403 
Q 2182 403 2425 617 
Q 2669 832 2669 1229 
L 2669 1280 
Q 2669 1677 2425 1891 
Q 2182 2106 1709 2106 
L 1184 2106 
L 1184 2573 
L 1670 2573 
z
" transform="scale(0.015625)"/>
       </defs>
       <use xlink:href="#IBMPlexSans-Regular-33"/>
       <use xlink:href="#IBMPlexSans-Regular-30" transform="translate(59.999985 0)"/>
       <use xlink:href="#IBMPlexSans-Regular-30" transform="translate(119.999969 0)"/>
      </g>
     </g>
    </g>
    <g id="xtick_5">
     <g id="line2d_9">
      <path d="M 239.783201 170.767352 
L 239.783201 7.2 
" clip-path="url(#p8153e1bf22)" style="fill: none; stroke-dasharray: 1.85,0.8; stroke-dashoffset: 0; stroke: #838383; stroke-opacity: 0.2; stroke-width: 0.5"/>
     </g>
     <g id="line2d_10"/>
     <g id="text_5">
      <!-- 400 -->
      <g style="fill: #838383" transform="translate(228.983201 183.147352) scale(0.12 -0.12)">
       <defs>
        <path id="IBMPlexSans-Regular-34" d="M 2400 0 
L 2400 877 
L 243 877 
L 243 1350 
L 2112 4467 
L 2912 4467 
L 2912 1325 
L 3558 1325 
L 3558 877 
L 2912 877 
L 2912 0 
L 2400 0 
z
M 749 1325 
L 2400 1325 
L 2400 4051 
L 2368 4051 
L 749 1325 
z
" transform="scale(0.015625)"/>
       </defs>
       <use xlink:href="#IBMPlexSans-Regular-34"/>
       <use xlink:href="#IBMPlexSans-Regular-30" transform="translate(59.999985 0)"/>
       <use xlink:href="#IBMPlexSans-Regular-30" transform="translate(119.999969 0)"/>
      </g>
     </g>
    </g>
    <g id="xtick_6">
     <g id="line2d_11">
      <path d="M 278.590906 170.767352 
L 278.590906 7.2 
" clip-path="url(#p8153e1bf22)" style="fill: none; stroke-dasharray: 1.85,0.8; stroke-dashoffset: 0; stroke: #838383; stroke-opacity: 0.2; stroke-width: 0.5"/>
     </g>
     <g id="line2d_12"/>
     <g id="text_6">
      <!-- 500 -->
      <g style="fill: #838383" transform="translate(267.790906 183.147352) scale(0.12 -0.12)">
       <defs>
        <path id="IBMPlexSans-Regular-35" d="M 3187 3994 
L 1229 3994 
L 1101 2291 
L 1146 2291 
Q 1306 2515 1507 2649 
Q 1709 2784 2061 2784 
Q 2349 2784 2592 2688 
Q 2835 2592 3014 2416 
Q 3194 2240 3293 1984 
Q 3392 1728 3392 1402 
Q 3392 1075 3289 803 
Q 3187 531 2992 336 
Q 2797 141 2518 32 
Q 2240 -77 1888 -77 
Q 1606 -77 1392 -13 
Q 1178 51 1011 160 
Q 845 269 720 403 
Q 595 538 493 685 
L 896 992 
Q 979 858 1072 749 
Q 1165 640 1277 563 
Q 1389 486 1536 444 
Q 1683 403 1888 403 
Q 2349 403 2585 646 
Q 2822 890 2822 1331 
L 2822 1395 
Q 2822 1837 2585 2080 
Q 2349 2323 1888 2323 
Q 1581 2323 1405 2211 
Q 1229 2099 1088 1946 
L 634 2010 
L 794 4467 
L 3187 4467 
L 3187 3994 
z
" transform="scale(0.015625)"/>
       </defs>
       <use xlink:href="#IBMPlexSans-Regular-35"/>
       <use xlink:href="#IBMPlexSans-Regular-30" transform="translate(59.999985 0)"/>
       <use xlink:href="#IBMPlexSans-Regular-30" transform="translate(119.999969 0)"/>
      </g>
     </g>
    </g>
    <g id="xtick_7">
     <g id="line2d_13">
      <path d="M 317.398611 170.767352 
L 317.398611 7.2 
" clip-path="url(#p8153e1bf22)" style="fill: none; stroke-dasharray: 1.85,0.8; stroke-dashoffset: 0; stroke: #838383; stroke-opacity: 0.2; stroke-width: 0.5"/>
     </g>
     <g id="line2d_14"/>
     <g id="text_7">
      <!-- 600 -->
      <g style="fill: #838383" transform="translate(306.598611 183.147352) scale(0.12 -0.12)">
       <defs>
        <path id="IBMPlexSans-Regular-36" d="M 1926 -77 
Q 1581 -77 1302 41 
Q 1024 160 829 381 
Q 634 602 531 922 
Q 429 1242 429 1638 
Q 429 2138 576 2576 
Q 723 3014 956 3376 
Q 1190 3738 1472 4016 
Q 1754 4294 2022 4467 
L 2714 4467 
Q 2355 4205 2073 3955 
Q 1792 3706 1581 3434 
Q 1370 3162 1222 2851 
Q 1075 2541 986 2150 
L 1018 2138 
Q 1178 2413 1430 2595 
Q 1683 2778 2093 2778 
Q 2381 2778 2624 2682 
Q 2867 2586 3040 2406 
Q 3213 2227 3312 1971 
Q 3411 1715 3411 1402 
Q 3411 1075 3305 803 
Q 3200 531 3005 336 
Q 2810 141 2534 32 
Q 2259 -77 1926 -77 
z
M 1920 390 
Q 2362 390 2608 633 
Q 2854 877 2854 1331 
L 2854 1382 
Q 2854 1837 2608 2080 
Q 2362 2323 1920 2323 
Q 1478 2323 1232 2080 
Q 986 1837 986 1382 
L 986 1331 
Q 986 877 1232 633 
Q 1478 390 1920 390 
z
" transform="scale(0.015625)"/>
       </defs>
       <use xlink:href="#IBMPlexSans-Regular-36"/>
       <use xlink:href="#IBMPlexSans-Regular-30" transform="translate(59.999985 0)"/>
       <use xlink:href="#IBMPlexSans-Regular-30" transform="translate(119.999969 0)"/>
      </g>
     </g>
    </g>
    <g id="text_8">
     <!-- draw -->
     <g style="fill: #bdbdbd" transform="translate(192.138045 198.427352) scale(0.12 -0.12)">
      <defs>
       <path id="IBMPlexSans-Regular-64" d="M 2656 538 
L 2630 538 
Q 2330 -77 1664 -77 
Q 1357 -77 1107 44 
Q 858 166 682 390 
Q 506 614 413 934 
Q 320 1254 320 1651 
Q 320 2048 413 2368 
Q 506 2688 682 2912 
Q 858 3136 1107 3257 
Q 1357 3379 1664 3379 
Q 2010 3379 2256 3228 
Q 2502 3078 2630 2765 
L 2656 2765 
L 2656 4736 
L 3168 4736 
L 3168 0 
L 2656 0 
L 2656 538 
z
M 1805 384 
Q 1978 384 2134 429 
Q 2291 474 2406 560 
Q 2522 646 2589 771 
Q 2656 896 2656 1056 
L 2656 2285 
Q 2656 2419 2589 2537 
Q 2522 2656 2406 2739 
Q 2291 2822 2134 2870 
Q 1978 2918 1805 2918 
Q 1370 2918 1120 2646 
Q 870 2374 870 1933 
L 870 1370 
Q 870 928 1120 656 
Q 1370 384 1805 384 
z
" transform="scale(0.015625)"/>
       <path id="IBMPlexSans-Regular-72" d="M 544 0 
L 544 3302 
L 1056 3302 
L 1056 2694 
L 1088 2694 
Q 1178 2931 1408 3116 
Q 1638 3302 2042 3302 
L 2240 3302 
L 2240 2790 
L 1939 2790 
Q 1523 2790 1289 2633 
Q 1056 2477 1056 2240 
L 1056 0 
L 544 0 
z
" transform="scale(0.015625)"/>
       <path id="IBMPlexSans-Regular-61" d="M 2944 0 
Q 2656 0 2531 153 
Q 2406 307 2374 538 
L 2342 538 
Q 2234 230 1984 76 
Q 1734 -77 1389 -77 
Q 864 -77 573 192 
Q 282 461 282 922 
Q 282 1389 624 1638 
Q 966 1888 1690 1888 
L 2342 1888 
L 2342 2214 
Q 2342 2566 2150 2752 
Q 1958 2938 1562 2938 
Q 1261 2938 1059 2803 
Q 858 2669 723 2445 
L 416 2733 
Q 550 3002 844 3190 
Q 1139 3379 1587 3379 
Q 2189 3379 2521 3084 
Q 2854 2790 2854 2266 
L 2854 448 
L 3232 448 
L 3232 0 
L 2944 0 
z
M 1472 358 
Q 1664 358 1824 403 
Q 1984 448 2099 531 
Q 2214 614 2278 723 
Q 2342 832 2342 960 
L 2342 1504 
L 1664 1504 
Q 1222 1504 1020 1376 
Q 819 1248 819 1005 
L 819 870 
Q 819 627 995 492 
Q 1171 358 1472 358 
z
" transform="scale(0.015625)"/>
       <path id="IBMPlexSans-Regular-77" d="M 198 3302 
L 698 3302 
L 1050 1875 
L 1402 429 
L 1414 429 
L 1818 1875 
L 2234 3302 
L 2688 3302 
L 3117 1875 
L 3526 429 
L 3539 429 
L 3878 1875 
L 4237 3302 
L 4717 3302 
L 3840 0 
L 3206 0 
L 2746 1587 
L 2458 2592 
L 2445 2592 
L 2163 1587 
L 1702 0 
L 1082 0 
L 198 3302 
z
" transform="scale(0.015625)"/>
      </defs>
      <use xlink:href="#IBMPlexSans-Regular-64"/>
      <use xlink:href="#IBMPlexSans-Regular-72" transform="translate(57.999985 0)"/>
      <use xlink:href="#IBMPlexSans-Regular-61" transform="translate(94.699982 0)"/>
      <use xlink:href="#IBMPlexSans-Regular-77" transform="translate(148.099976 0)"/>
     </g>
    </g>
   </g>
   <g id="matplotlib.axis_2">
    <g id="ytick_1">
     <g id="line2d_15">
      <path d="M 72.444375 148.044899 
L 338.820465 148.044899 
" clip-path="url(#p8153e1bf22)" style="fill: none; stroke-dasharray: 1.85,0.8; stroke-dashoffset: 0; stroke: #838383; stroke-opacity: 0.2; stroke-width: 0.5"/>
     </g>
     <g id="line2d_16"/>
     <g id="text_9">
      <!-- 0.00010 -->
      <g style="fill: #838383" transform="translate(22.48 152.484899) scale(0.12 -0.12)">
       <defs>
        <path id="IBMPlexSans-Regular-2e" d="M 870 -77 
Q 666 -77 573 25 
Q 480 128 480 294 
L 480 378 
Q 480 544 573 646 
Q 666 749 870 749 
Q 1075 749 1168 646 
Q 1261 544 1261 378 
L 1261 294 
Q 1261 128 1168 25 
Q 1075 -77 870 -77 
z
" transform="scale(0.015625)"/>
       </defs>
       <use xlink:href="#IBMPlexSans-Regular-30"/>
       <use xlink:href="#IBMPlexSans-Regular-2e" transform="translate(59.999985 0)"/>
       <use xlink:href="#IBMPlexSans-Regular-30" transform="translate(87.199982 0)"/>
       <use xlink:href="#IBMPlexSans-Regular-30" transform="translate(147.199966 0)"/>
       <use xlink:href="#IBMPlexSans-Regular-30" transform="translate(207.199951 0)"/>
       <use xlink:href="#IBMPlexSans-Regular-31" transform="translate(267.199936 0)"/>
       <use xlink:href="#IBMPlexSans-Regular-30" transform="translate(327.199921 0)"/>
      </g>
     </g>
    </g>
    <g id="ytick_2">
     <g id="line2d_17">
      <path d="M 72.444375 112.214165 
L 338.820465 112.214165 
" clip-path="url(#p8153e1bf22)" style="fill: none; stroke-dasharray: 1.85,0.8; stroke-dashoffset: 0; stroke: #838383; stroke-opacity: 0.2; stroke-width: 0.5"/>
     </g>
     <g id="line2d_18"/>
     <g id="text_10">
      <!-- 0.00015 -->
      <g style="fill: #838383" transform="translate(22.48 116.654165) scale(0.12 -0.12)">
       <use xlink:href="#IBMPlexSans-Regular-30"/>
       <use xlink:href="#IBMPlexSans-Regular-2e" transform="translate(59.999985 0)"/>
       <use xlink:href="#IBMPlexSans-Regular-30" transform="translate(87.199982 0)"/>
       <use xlink:href="#IBMPlexSans-Regular-30" transform="translate(147.199966 0)"/>
       <use xlink:href="#IBMPlexSans-Regular-30" transform="translate(207.199951 0)"/>
       <use xlink:href="#IBMPlexSans-Regular-31" transform="translate(267.199936 0)"/>
       <use xlink:href="#IBMPlexSans-Regular-35" transform="translate(327.199921 0)"/>
      </g>
     </g>
    </g>
    <g id="ytick_3">
     <g id="line2d_19">
      <path d="M 72.444375 76.383432 
L 338.820465 76.383432 
" clip-path="url(#p8153e1bf22)" style="fill: none; stroke-dasharray: 1.85,0.8; stroke-dashoffset: 0; stroke: #838383; stroke-opacity: 0.2; stroke-width: 0.5"/>
     </g>
     <g id="line2d_20"/>
     <g id="text_11">
      <!-- 0.00020 -->
      <g style="fill: #838383" transform="translate(22.48 80.823432) scale(0.12 -0.12)">
       <use xlink:href="#IBMPlexSans-Regular-30"/>
       <use xlink:href="#IBMPlexSans-Regular-2e" transform="translate(59.999985 0)"/>
       <use xlink:href="#IBMPlexSans-Regular-30" transform="translate(87.199982 0)"/>
       <use xlink:href="#IBMPlexSans-Regular-30" transform="translate(147.199966 0)"/>
       <use xlink:href="#IBMPlexSans-Regular-30" transform="translate(207.199951 0)"/>
       <use xlink:href="#IBMPlexSans-Regular-32" transform="translate(267.199936 0)"/>
       <use xlink:href="#IBMPlexSans-Regular-30" transform="translate(327.199921 0)"/>
      </g>
     </g>
    </g>
    <g id="ytick_4">
     <g id="line2d_21">
      <path d="M 72.444375 40.552698 
L 338.820465 40.552698 
" clip-path="url(#p8153e1bf22)" style="fill: none; stroke-dasharray: 1.85,0.8; stroke-dashoffset: 0; stroke: #838383; stroke-opacity: 0.2; stroke-width: 0.5"/>
     </g>
     <g id="line2d_22"/>
     <g id="text_12">
      <!-- 0.00025 -->
      <g style="fill: #838383" transform="translate(22.48 44.992698) scale(0.12 -0.12)">
       <use xlink:href="#IBMPlexSans-Regular-30"/>
       <use xlink:href="#IBMPlexSans-Regular-2e" transform="translate(59.999985 0)"/>
       <use xlink:href="#IBMPlexSans-Regular-30" transform="translate(87.199982 0)"/>
       <use xlink:href="#IBMPlexSans-Regular-30" transform="translate(147.199966 0)"/>
       <use xlink:href="#IBMPlexSans-Regular-30" transform="translate(207.199951 0)"/>
       <use xlink:href="#IBMPlexSans-Regular-32" transform="translate(267.199936 0)"/>
       <use xlink:href="#IBMPlexSans-Regular-35" transform="translate(327.199921 0)"/>
      </g>
     </g>
    </g>
    <g id="text_13">
     <!-- val_dtm -->
     <g style="fill: #bdbdbd" transform="translate(16.08 110.985863) rotate(-90) scale(0.12 -0.12)">
      <defs>
       <path id="IBMPlexSans-Regular-76" d="M 1274 0 
L 115 3302 
L 627 3302 
L 1203 1664 
L 1562 538 
L 1594 538 
L 1952 1664 
L 2541 3302 
L 3034 3302 
L 1869 0 
L 1274 0 
z
" transform="scale(0.015625)"/>
       <path id="IBMPlexSans-Regular-6c" d="M 1088 0 
Q 819 0 681 150 
Q 544 301 544 531 
L 544 4736 
L 1056 4736 
L 1056 448 
L 1542 448 
L 1542 0 
L 1088 0 
z
" transform="scale(0.015625)"/>
       <path id="IBMPlexSans-Regular-5f" d="M 192 -1056 
L 192 -608 
L 3424 -608 
L 3424 -1056 
L 192 -1056 
z
" transform="scale(0.015625)"/>
       <path id="IBMPlexSans-Regular-74" d="M 1274 0 
Q 1005 0 867 150 
Q 730 301 730 544 
L 730 2854 
L 186 2854 
L 186 3302 
L 493 3302 
Q 659 3302 720 3369 
Q 781 3437 781 3603 
L 781 4218 
L 1242 4218 
L 1242 3302 
L 1965 3302 
L 1965 2854 
L 1242 2854 
L 1242 448 
L 1914 448 
L 1914 0 
L 1274 0 
z
" transform="scale(0.015625)"/>
       <path id="IBMPlexSans-Regular-6d" d="M 544 0 
L 544 3302 
L 1056 3302 
L 1056 2765 
L 1082 2765 
Q 1139 2893 1212 3005 
Q 1286 3117 1392 3200 
Q 1498 3283 1638 3331 
Q 1779 3379 1971 3379 
Q 2298 3379 2573 3222 
Q 2848 3066 2982 2707 
L 2995 2707 
Q 3085 2976 3331 3177 
Q 3578 3379 4000 3379 
Q 4506 3379 4790 3049 
Q 5075 2720 5075 2118 
L 5075 0 
L 4563 0 
L 4563 2029 
Q 4563 2470 4390 2694 
Q 4218 2918 3840 2918 
Q 3686 2918 3548 2880 
Q 3411 2842 3302 2765 
Q 3194 2688 3130 2569 
Q 3066 2451 3066 2291 
L 3066 0 
L 2554 0 
L 2554 2029 
Q 2554 2470 2381 2694 
Q 2208 2918 1843 2918 
Q 1690 2918 1549 2880 
Q 1408 2842 1299 2765 
Q 1190 2688 1123 2569 
Q 1056 2451 1056 2291 
L 1056 0 
L 544 0 
z
" transform="scale(0.015625)"/>
      </defs>
      <use xlink:href="#IBMPlexSans-Regular-76"/>
      <use xlink:href="#IBMPlexSans-Regular-61" transform="translate(49.199997 0)"/>
      <use xlink:href="#IBMPlexSans-Regular-6c" transform="translate(102.599991 0)"/>
      <use xlink:href="#IBMPlexSans-Regular-5f" transform="translate(129.799988 0)"/>
      <use xlink:href="#IBMPlexSans-Regular-64" transform="translate(186.299973 0)"/>
      <use xlink:href="#IBMPlexSans-Regular-74" transform="translate(244.299957 0)"/>
      <use xlink:href="#IBMPlexSans-Regular-6d" transform="translate(279.399948 0)"/>
     </g>
    </g>
   </g>
   <g id="line2d_23">
    <path d="M 84.552379 125.6808 
L 84.940456 147.865824 
L 85.328533 137.475082 
L 85.71661 148.940671 
L 86.492764 142.640087 
L 86.880841 147.238802 
L 87.268918 153.717582 
L 87.656996 149.119534 
L 88.045073 151.030966 
L 88.43315 144.730715 
L 88.821227 148.820873 
L 89.209304 158.077369 
L 89.597381 148.045021 
L 89.985458 117.260555 
L 90.373535 145.088775 
L 90.761612 144.551185 
L 91.149689 142.371458 
L 91.537766 133.44399 
L 91.925843 133.205395 
L 92.31392 139.833672 
L 92.701997 150.672906 
L 93.090074 139.176951 
L 93.478151 144.849512 
L 93.866228 138.370732 
L 94.254305 151.18013 
L 94.642382 132.69717 
L 95.03046 147.000207 
L 95.418537 135.295022 
L 95.806614 148.761474 
L 96.194691 140.998618 
L 96.582768 142.99848 
L 96.970845 137.41535 
L 97.358922 139.325781 
L 97.746999 143.057879 
L 98.135076 142.759885 
L 98.523153 142.699819 
L 98.91123 143.6849 
L 99.299307 141.864235 
L 99.687384 153.001129 
L 100.075461 113.139364 
L 100.463538 138.10177 
L 100.851615 152.254976 
L 101.239692 148.373048 
L 101.627769 137.922907 
L 102.015846 153.210359 
L 102.403924 137.295886 
L 102.792001 141.266579 
L 103.180078 152.553971 
L 103.568155 137.95294 
L 103.956232 143.865098 
L 104.344309 158.525194 
L 104.732386 148.522211 
L 105.120463 145.208573 
L 105.50854 147.836125 
L 105.896617 141.595606 
L 106.284694 130.727341 
L 106.672771 149.89672 
L 107.060848 140.789054 
L 107.448925 137.444716 
L 107.837002 104.629354 
L 108.225079 146.939807 
L 108.613156 137.683978 
L 109.001233 135.295022 
L 109.389311 131.473159 
L 109.777388 133.294826 
L 110.165465 142.908715 
L 110.553542 141.476142 
L 110.941619 145.357737 
L 111.329696 157.629544 
L 111.717773 139.893404 
L 112.10585 137.146055 
L 112.493927 133.23476 
L 112.882004 150.344545 
L 113.270081 136.161307 
L 113.658158 153.210692 
L 114.046235 153.211026 
L 114.434312 153.478987 
L 114.822389 146.99954 
L 115.210466 153.98621 
L 115.98662 130.100319 
L 116.374697 144.10336 
L 116.762775 144.491119 
L 117.150852 144.193125 
L 117.538929 134.190476 
L 118.315083 130.487744 
L 118.70316 147.03024 
L 119.091237 145.237939 
L 119.479314 156.495299 
L 119.867391 151.567555 
L 120.255468 125.919395 
L 120.643545 136.369869 
L 121.031622 139.923437 
L 121.419699 148.552912 
L 121.807776 144.10336 
L 122.195853 146.641813 
L 122.58393 143.865098 
L 122.972007 146.103556 
L 123.360084 126.127957 
L 123.748161 151.18013 
L 124.136239 153.001463 
L 124.524316 145.715797 
L 124.912393 143.028513 
L 125.30047 155.241255 
L 125.688547 141.8936 
L 126.076624 139.266382 
L 126.464701 147.029573 
L 126.852778 151.269895 
L 127.240855 147.656594 
L 127.628932 142.99848 
L 128.017009 132.488608 
L 128.405086 145.208573 
L 128.793163 131.533225 
L 129.569317 147.447365 
L 129.957394 149.627091 
L 130.345471 144.014262 
L 130.733548 135.056093 
L 131.121626 150.194714 
L 131.509703 141.206846 
L 131.89778 140.013202 
L 132.285857 137.863175 
L 132.673934 132.399176 
L 133.062011 155.390419 
L 133.450088 139.624776 
L 133.838165 132.279378 
L 134.226242 144.342289 
L 134.614319 113.647255 
L 135.002396 150.731971 
L 135.390473 145.597 
L 135.77855 155.360052 
L 136.166627 153.180993 
L 136.554704 150.313845 
L 136.942781 128.457515 
L 137.330858 145.566633 
L 137.718935 155.658713 
L 138.107012 140.63989 
L 138.49509 141.744437 
L 138.883167 150.523075 
L 139.271244 146.43225 
L 139.659321 147.865824 
L 140.047398 133.951213 
L 140.435475 140.81842 
L 140.823552 154.73303 
L 141.211629 151.986348 
L 141.599706 138.669394 
L 141.987783 116.633533 
L 142.37586 146.104557 
L 142.763937 130.219116 
L 143.152014 125.710165 
L 143.540091 135.355088 
L 144.316245 145.267972 
L 144.704322 122.157265 
L 145.092399 142.908715 
L 145.480477 142.491256 
L 145.868554 131.473493 
L 146.256631 145.805562 
L 146.644708 143.237075 
L 147.032785 149.567693 
L 147.420862 137.146055 
L 147.808939 132.517973 
L 148.197016 146.582081 
L 148.585093 147.925223 
L 148.97317 127.770427 
L 149.361247 143.147978 
L 149.749324 143.7453 
L 150.137401 132.428208 
L 150.525478 133.951547 
L 150.913555 149.329097 
L 151.301632 132.100181 
L 151.689709 149.597726 
L 152.077786 131.59229 
L 152.465863 145.208573 
L 152.853941 145.626365 
L 153.630095 148.732108 
L 154.018172 148.492846 
L 154.406249 123.292177 
L 154.794326 152.642735 
L 155.182403 138.519896 
L 155.57048 152.285009 
L 155.958557 128.54728 
L 156.346634 144.073994 
L 156.734711 154.614233 
L 157.510865 159.988801 
L 157.898942 156.733894 
L 158.287019 150.553108 
L 158.675096 146.552382 
L 159.063173 150.22408 
L 159.45125 143.536738 
L 159.839327 141.41641 
L 160.227405 141.356677 
L 160.615482 149.000069 
L 161.003559 141.028317 
L 161.779713 142.431858 
L 162.16779 139.684842 
L 162.555867 159.839637 
L 162.943944 146.13459 
L 163.332021 137.95294 
L 163.720098 158.047336 
L 164.108175 131.0854 
L 164.496252 151.50849 
L 164.884329 149.866354 
L 165.660483 140.610191 
L 166.04856 142.103497 
L 166.436637 144.64095 
L 166.824714 145.865628 
L 167.212792 150.373911 
L 167.600869 152.105813 
L 167.988946 138.997421 
L 168.377023 142.670453 
L 168.7651 148.283282 
L 169.153177 149.627758 
L 169.541254 131.741788 
L 169.929331 148.253917 
L 170.317408 147.089638 
L 170.705485 128.188887 
L 171.093562 146.342819 
L 171.481639 139.624442 
L 171.869716 154.165407 
L 172.257793 143.596136 
L 172.64587 136.937158 
L 173.033947 126.785012 
L 173.810101 153.211026 
L 174.198178 145.17854 
L 174.586256 153.628151 
L 175.36241 144.162758 
L 175.750487 129.323466 
L 176.138564 148.910304 
L 176.526641 147.417999 
L 176.914718 137.653945 
L 177.302795 150.881468 
L 177.690872 142.401491 
L 178.078949 137.236153 
L 178.467026 145.835595 
L 179.24318 140.520426 
L 179.631257 80.354034 
L 180.019334 139.56471 
L 180.407411 141.685038 
L 180.795488 140.908185 
L 181.183565 149.746889 
L 181.571643 143.834732 
L 181.95972 132.757236 
L 182.347797 134.787465 
L 182.735874 148.61231 
L 183.123951 146.999873 
L 183.512028 137.20612 
L 183.900105 152.851965 
L 184.288182 152.583337 
L 184.676259 156.196304 
L 185.064336 150.255114 
L 185.452413 149.38883 
L 185.84049 147.776059 
L 186.228567 138.609995 
L 186.616644 146.163622 
L 187.004721 143.088913 
L 187.392798 145.775195 
L 187.780875 137.295552 
L 188.168952 155.181189 
L 188.557029 137.146055 
L 188.945107 155.688746 
L 189.333184 152.792233 
L 189.721261 143.028513 
L 190.109338 150.25478 
L 190.497415 144.073661 
L 190.885492 148.731441 
L 191.273569 154.882194 
L 192.049723 148.343682 
L 192.4378 147.895857 
L 192.825877 149.030436 
L 193.213954 139.833338 
L 193.602031 147.358267 
L 193.990108 139.206317 
L 194.378185 148.373048 
L 194.766262 140.371262 
L 195.542416 152.821598 
L 195.930493 142.849316 
L 196.318571 146.07419 
L 196.706648 152.374775 
L 197.094725 138.400765 
L 197.482802 136.310137 
L 197.870879 138.191536 
L 198.258956 149.836321 
L 198.647033 134.846863 
L 199.03511 154.315238 
L 199.423187 147.71666 
L 199.811264 131.354029 
L 200.199341 144.939611 
L 200.587418 148.940337 
L 200.975495 122.665156 
L 201.363572 138.012339 
L 201.751649 118.903025 
L 202.139726 148.164485 
L 202.527803 133.205061 
L 202.91588 132.847001 
L 203.303958 149.030102 
L 203.692035 134.728066 
L 204.080112 155.987074 
L 204.468189 142.909049 
L 204.856266 134.966662 
L 205.244343 135.414487 
L 205.63242 128.636712 
L 206.020497 148.732108 
L 206.408574 146.282753 
L 206.796651 151.508156 
L 207.184728 146.552382 
L 207.572805 146.82101 
L 207.960882 140.012869 
L 208.348959 137.534481 
L 208.737036 130.219116 
L 209.125113 144.043961 
L 209.51319 142.849316 
L 209.901267 147.238802 
L 210.289344 149.627091 
L 210.677422 147.267834 
L 211.453576 150.9709 
L 211.841653 140.908852 
L 212.22973 138.281301 
L 212.617807 147.417999 
L 213.393961 150.045884 
L 213.782038 147.71666 
L 214.170115 148.462479 
L 214.558192 144.610583 
L 214.946269 137.41535 
L 215.334346 149.089835 
L 215.722423 136.937492 
L 216.1105 144.252857 
L 216.498577 148.014988 
L 216.886654 146.192987 
L 217.274731 148.672043 
L 217.662808 137.445717 
L 218.050886 143.7453 
L 218.438963 141.535207 
L 218.82704 147.298201 
L 219.215117 139.594409 
L 219.603194 150.314513 
L 219.991271 137.833142 
L 220.379348 141.326644 
L 220.767425 143.028513 
L 221.155502 153.71825 
L 221.543579 146.760944 
L 221.931656 146.163622 
L 222.319733 132.876367 
L 222.70781 127.979657 
L 223.095887 141.864235 
L 223.483964 149.38883 
L 223.872041 143.924497 
L 224.260118 157.421315 
L 224.648195 133.802383 
L 225.036273 149.865686 
L 225.42435 152.19491 
L 225.812427 147.805424 
L 226.200504 140.908852 
L 226.588581 153.538719 
L 226.976658 153.896779 
L 227.752812 144.401687 
L 228.140889 147.268835 
L 228.528966 152.881998 
L 228.917043 146.581748 
L 229.30512 148.761474 
L 229.693197 137.475082 
L 230.081274 152.374775 
L 230.469351 145.267972 
L 230.857428 149.746889 
L 231.245505 139.295748 
L 231.633582 147.985622 
L 232.021659 147.746026 
L 232.409737 139.624442 
L 233.185891 149.090502 
L 233.962045 143.655535 
L 234.350122 149.896387 
L 234.738199 143.506037 
L 235.126276 146.224021 
L 235.514353 147.029573 
L 235.90243 155.83791 
L 236.290507 145.895327 
L 236.678584 144.163426 
L 237.066661 146.82101 
L 237.454738 140.520426 
L 237.842815 138.132137 
L 238.230892 138.997754 
L 238.618969 140.430994 
L 239.007046 146.313453 
L 239.395124 153.986544 
L 239.783201 138.102104 
L 240.171278 155.867943 
L 240.559355 155.001659 
L 240.947432 155.330019 
L 241.335509 161.392008 
L 241.723586 146.342819 
L 242.111663 151.239528 
L 242.49974 148.014988 
L 242.887817 141.446109 
L 243.275894 150.075917 
L 243.663971 134.33964 
L 244.440125 149.806622 
L 244.828202 130.876171 
L 245.216279 142.31206 
L 245.604356 134.637634 
L 245.992433 153.777648 
L 246.38051 156.255702 
L 246.768588 143.237743 
L 247.156665 154.763397 
L 247.544742 136.549066 
L 247.932819 152.046414 
L 248.320896 132.786601 
L 248.708973 147.895523 
L 249.09705 147.178403 
L 249.485127 146.880409 
L 249.873204 149.986152 
L 250.261281 137.026924 
L 250.649358 144.879545 
L 251.037435 150.43331 
L 251.425512 152.493572 
L 251.813589 145.476534 
L 252.589743 153.240392 
L 252.97782 156.494297 
L 253.365897 103.525141 
L 253.753974 155.868277 
L 254.142052 152.494239 
L 254.530129 125.14321 
L 254.918206 14.63488 
L 255.306283 148.732108 
L 255.69436 151.18013 
L 256.082437 133.65322 
L 256.470514 146.104223 
L 256.858591 144.909578 
L 257.246668 141.505841 
L 257.634745 149.865686 
L 258.022822 110.870539 
L 258.410899 143.864764 
L 258.798976 149.716856 
L 259.187053 150.015518 
L 259.57513 152.971763 
L 259.963207 145.386769 
L 260.351284 150.134982 
L 260.739361 144.64095 
L 261.127439 154.464402 
L 261.515516 148.850906 
L 261.903593 138.519563 
L 262.29167 151.65732 
L 262.679747 142.879683 
L 263.067824 151.120731 
L 263.455901 110.780774 
L 263.843978 146.970174 
L 264.232055 150.314513 
L 264.620132 149.388496 
L 265.008209 155.808545 
L 265.396286 156.345467 
L 265.784363 149.687491 
L 266.17244 153.329823 
L 266.560517 130.965936 
L 266.948594 145.834594 
L 267.724748 153.867413 
L 268.112825 145.566967 
L 268.500903 140.760022 
L 269.277057 157.480714 
L 269.665134 150.911501 
L 270.053211 151.896583 
L 270.441288 135.742847 
L 270.829365 143.983562 
L 271.217442 149.060135 
L 271.605519 144.730715 
L 271.993596 152.912031 
L 273.157827 148.433447 
L 273.545904 149.149233 
L 273.933981 144.073661 
L 274.322058 148.820873 
L 274.710135 144.312923 
L 275.098212 155.300654 
L 275.486289 148.075054 
L 276.650521 133.741984 
L 277.038598 144.491786 
L 277.426675 149.986152 
L 277.814752 140.400961 
L 278.202829 143.057879 
L 278.590906 143.834732 
L 278.978983 148.731441 
L 279.36706 148.403414 
L 279.755137 152.493572 
L 280.143214 143.804699 
L 280.531291 141.386043 
L 280.919368 137.922574 
L 281.307445 140.609858 
L 281.695522 153.211026 
L 282.083599 147.715993 
L 282.471676 148.343015 
L 282.859754 150.254447 
L 283.247831 155.181523 
L 283.635908 112.691539 
L 284.023985 138.549595 
L 284.412062 149.657124 
L 284.800139 78.801997 
L 285.188216 144.43172 
L 285.576293 144.43172 
L 285.96437 134.19081 
L 286.352447 135.443852 
L 286.740524 147.806092 
L 287.128601 133.413623 
L 287.516678 136.041508 
L 287.904755 136.250071 
L 288.292832 142.939081 
L 288.680909 128.785876 
L 289.068986 152.344742 
L 289.457063 158.2272 
L 289.84514 136.339836 
L 290.233218 133.115629 
L 290.621295 149.179933 
L 291.009372 152.315376 
L 291.397449 150.821736 
L 291.785526 155.987074 
L 292.173603 150.403277 
L 292.56168 128.397449 
L 292.949757 94.000684 
L 293.337834 135.593683 
L 293.725911 152.40414 
L 294.113988 145.626032 
L 294.502065 155.748479 
L 294.890142 141.057683 
L 295.278219 136.66853 
L 295.666296 145.894994 
L 296.054373 163.332472 
L 296.44245 134.250208 
L 296.830527 135.503918 
L 297.218605 145.596666 
L 297.606682 147.657262 
L 297.994759 145.805562 
L 298.382836 139.982836 
L 298.770913 139.296415 
L 299.15899 152.822266 
L 299.547067 143.238076 
L 299.935144 147.238802 
L 300.323221 157.420982 
L 300.711298 149.448228 
L 301.099375 132.667804 
L 301.487452 143.984563 
L 301.875529 150.224747 
L 302.263606 128.965072 
L 302.651683 144.64095 
L 303.03976 134.608268 
L 303.427837 141.953666 
L 303.815914 138.818557 
L 304.203991 144.551185 
L 304.592069 144.401687 
L 304.980146 136.369869 
L 305.368223 154.524468 
L 305.7563 149.089835 
L 306.144377 155.958042 
L 306.532454 150.523742 
L 306.920531 129.264067 
L 307.308608 159.869003 
L 307.696685 154.613566 
L 308.084762 136.728262 
L 308.472839 156.226337 
L 309.248993 134.996695 
L 310.025147 150.015518 
L 310.413224 149.716856 
L 310.801301 147.92589 
L 311.189378 150.612506 
L 311.577455 148.284283 
L 311.965533 149.807289 
L 312.35361 161.690669 
L 312.741687 147.537797 
L 313.129764 145.088775 
L 313.517841 157.600178 
L 313.905918 154.136042 
L 314.293995 144.730382 
L 314.682072 149.776922 
L 315.070149 145.715797 
L 315.458226 139.535011 
L 315.846303 149.746889 
L 316.23438 139.206984 
L 316.622457 158.793822 
L 317.010534 156.644129 
L 317.398611 157.510079 
L 317.786688 154.644266 
L 318.174765 141.267246 
L 318.562842 158.226533 
L 318.95092 154.971626 
L 319.338997 149.388496 
L 319.727074 141.56524 
L 320.115151 139.475612 
L 320.503228 143.118278 
L 320.891305 148.283282 
L 321.279382 146.940475 
L 321.667459 141.803835 
L 322.055536 156.136905 
L 322.443613 146.432584 
L 322.83169 146.223354 
L 323.607844 153.36019 
L 324.772075 139.535344 
L 325.548229 154.643599 
L 326.324384 153.927479 
L 326.712461 149.956119 
L 326.712461 149.956119 
" clip-path="url(#p8153e1bf22)" style="fill: none; stroke: #2196f3; stroke-width: 1.5; stroke-linecap: round"/>
   </g>
   <g id="patch_3">
    <path d="M 72.444375 170.767352 
L 72.444375 7.2 
" style="fill: none"/>
   </g>
   <g id="patch_4">
    <path d="M 338.820465 170.767352 
L 338.820465 7.2 
" style="fill: none"/>
   </g>
   <g id="patch_5">
    <path d="M 72.444375 170.767352 
L 338.820465 170.767352 
" style="fill: none"/>
   </g>
   <g id="patch_6">
    <path d="M 72.444375 7.2 
L 338.820465 7.2 
" style="fill: none"/>
   </g>
  </g>
 </g>
 <defs>
  <clipPath id="p8153e1bf22">
   <rect x="72.444375" y="7.2" width="266.37609" height="163.567352"/>
  </clipPath>
 </defs>
</svg>
