<?xml version="1.0" encoding="utf-8" standalone="no"?>
<!DOCTYPE svg PUBLIC "-//W3C//DTD SVG 1.1//EN"
  "http://www.w3.org/Graphics/SVG/1.1/DTD/svg11.dtd">
<svg xmlns:xlink="http://www.w3.org/1999/xlink" width="324.420465pt" height="208.027352pt" viewBox="0 0 324.420465 208.027352" xmlns="http://www.w3.org/2000/svg" version="1.1">
 <metadata>
  <rdf:RDF xmlns:dc="http://purl.org/dc/elements/1.1/" xmlns:cc="http://creativecommons.org/ns#" xmlns:rdf="http://www.w3.org/1999/02/22-rdf-syntax-ns#">
   <cc:Work>
    <dc:type rdf:resource="http://purl.org/dc/dcmitype/StillImage"/>
    <dc:date>2025-08-01T17:19:27.632901</dc:date>
    <dc:format>image/svg+xml</dc:format>
    <dc:creator>
     <cc:Agent>
      <dc:title>Matplotlib v3.10.3, https://matplotlib.org/</dc:title>
     </cc:Agent>
    </dc:creator>
   </cc:Work>
  </rdf:RDF>
 </metadata>
 <defs>
  <style type="text/css">*{stroke-linejoin: round; stroke-linecap: butt}</style>
 </defs>
 <g id="figure_1">
  <g id="patch_1">
   <path d="M 0 208.027352 
L 324.420465 208.027352 
L 324.420465 0 
L 0 0 
L 0 208.027352 
z
" style="fill: none"/>
  </g>
  <g id="axes_1">
   <g id="patch_2">
    <path d="M 50.844375 170.767352 
L 317.220465 170.767352 
L 317.220465 7.2 
L 50.844375 7.2 
L 50.844375 170.767352 
z
" style="fill: none"/>
   </g>
   <g id="matplotlib.axis_1">
    <g id="xtick_1">
     <g id="line2d_1">
      <path d="M 62.952379 170.767352 
L 62.952379 7.2 
" clip-path="url(#p01389c7cc0)" style="fill: none; stroke-dasharray: 1.85,0.8; stroke-dashoffset: 0; stroke: #838383; stroke-opacity: 0.2; stroke-width: 0.5"/>
     </g>
     <g id="line2d_2"/>
     <g id="text_1">
      <!-- 0 -->
      <g style="fill: #838383" transform="translate(59.352379 183.147352) scale(0.12 -0.12)">
       <defs>
        <path id="IBMPlexSans-Regular-30" d="M 1920 -77 
Q 1120 -77 752 531 
Q 384 1139 384 2234 
Q 384 3328 752 3936 
Q 1120 4544 1920 4544 
Q 2720 4544 3088 3936 
Q 3456 3328 3456 2234 
Q 3456 1139 3088 531 
Q 2720 -77 1920 -77 
z
M 1920 390 
Q 2182 390 2368 499 
Q 2554 608 2669 806 
Q 2784 1005 2838 1273 
Q 2893 1542 2893 1869 
L 2893 2598 
Q 2893 2925 2838 3193 
Q 2784 3462 2669 3660 
Q 2554 3859 2368 3968 
Q 2182 4077 1920 4077 
Q 1658 4077 1472 3968 
Q 1286 3859 1171 3660 
Q 1056 3462 1001 3193 
Q 947 2925 947 2598 
L 947 1869 
Q 947 1542 1001 1273 
Q 1056 1005 1171 806 
Q 1286 608 1472 499 
Q 1658 390 1920 390 
z
" transform="scale(0.015625)"/>
       </defs>
       <use xlink:href="#IBMPlexSans-Regular-30"/>
      </g>
     </g>
    </g>
    <g id="xtick_2">
     <g id="line2d_3">
      <path d="M 101.760084 170.767352 
L 101.760084 7.2 
" clip-path="url(#p01389c7cc0)" style="fill: none; stroke-dasharray: 1.85,0.8; stroke-dashoffset: 0; stroke: #838383; stroke-opacity: 0.2; stroke-width: 0.5"/>
     </g>
     <g id="line2d_4"/>
     <g id="text_2">
      <!-- 100 -->
      <g style="fill: #838383" transform="translate(90.960084 183.147352) scale(0.12 -0.12)">
       <defs>
        <path id="IBMPlexSans-Regular-31" d="M 563 0 
L 563 474 
L 1811 474 
L 1811 4070 
L 1766 4070 
L 640 3021 
L 326 3360 
L 1510 4467 
L 2349 4467 
L 2349 474 
L 3501 474 
L 3501 0 
L 563 0 
z
" transform="scale(0.015625)"/>
       </defs>
       <use xlink:href="#IBMPlexSans-Regular-31"/>
       <use xlink:href="#IBMPlexSans-Regular-30" transform="translate(59.999985 0)"/>
       <use xlink:href="#IBMPlexSans-Regular-30" transform="translate(119.999969 0)"/>
      </g>
     </g>
    </g>
    <g id="xtick_3">
     <g id="line2d_5">
      <path d="M 140.56779 170.767352 
L 140.56779 7.2 
" clip-path="url(#p01389c7cc0)" style="fill: none; stroke-dasharray: 1.85,0.8; stroke-dashoffset: 0; stroke: #838383; stroke-opacity: 0.2; stroke-width: 0.5"/>
     </g>
     <g id="line2d_6"/>
     <g id="text_3">
      <!-- 200 -->
      <g style="fill: #838383" transform="translate(129.76779 183.147352) scale(0.12 -0.12)">
       <defs>
        <path id="IBMPlexSans-Regular-32" d="M 3411 0 
L 480 0 
L 480 550 
L 1939 1894 
Q 2253 2182 2464 2505 
Q 2675 2829 2675 3155 
L 2675 3232 
Q 2675 3603 2470 3833 
Q 2266 4064 1850 4064 
Q 1645 4064 1491 4006 
Q 1338 3949 1226 3846 
Q 1114 3744 1040 3606 
Q 966 3469 922 3309 
L 442 3494 
Q 506 3693 618 3881 
Q 730 4070 899 4217 
Q 1069 4365 1309 4454 
Q 1549 4544 1875 4544 
Q 2202 4544 2458 4448 
Q 2714 4352 2886 4179 
Q 3059 4006 3152 3769 
Q 3245 3533 3245 3245 
Q 3245 2982 3171 2758 
Q 3098 2534 2970 2332 
Q 2842 2131 2659 1939 
Q 2477 1747 2266 1555 
L 1062 474 
L 3411 474 
L 3411 0 
z
" transform="scale(0.015625)"/>
       </defs>
       <use xlink:href="#IBMPlexSans-Regular-32"/>
       <use xlink:href="#IBMPlexSans-Regular-30" transform="translate(59.999985 0)"/>
       <use xlink:href="#IBMPlexSans-Regular-30" transform="translate(119.999969 0)"/>
      </g>
     </g>
    </g>
    <g id="xtick_4">
     <g id="line2d_7">
      <path d="M 179.375495 170.767352 
L 179.375495 7.2 
" clip-path="url(#p01389c7cc0)" style="fill: none; stroke-dasharray: 1.85,0.8; stroke-dashoffset: 0; stroke: #838383; stroke-opacity: 0.2; stroke-width: 0.5"/>
     </g>
     <g id="line2d_8"/>
     <g id="text_4">
      <!-- 300 -->
      <g style="fill: #838383" transform="translate(168.575495 183.147352) scale(0.12 -0.12)">
       <defs>
        <path id="IBMPlexSans-Regular-33" d="M 1670 2573 
Q 2125 2573 2352 2781 
Q 2579 2989 2579 3315 
L 2579 3360 
Q 2579 3712 2358 3888 
Q 2138 4064 1779 4064 
Q 1434 4064 1216 3913 
Q 998 3763 858 3507 
L 461 3814 
Q 544 3949 662 4080 
Q 781 4211 941 4313 
Q 1101 4416 1312 4480 
Q 1523 4544 1792 4544 
Q 2074 4544 2323 4470 
Q 2573 4397 2755 4253 
Q 2938 4109 3043 3897 
Q 3149 3686 3149 3418 
Q 3149 3200 3081 3027 
Q 3014 2854 2899 2726 
Q 2784 2598 2627 2508 
Q 2470 2419 2291 2374 
L 2291 2349 
Q 2470 2310 2640 2224 
Q 2810 2138 2941 2000 
Q 3072 1862 3152 1667 
Q 3232 1472 3232 1222 
Q 3232 934 3123 694 
Q 3014 454 2816 284 
Q 2618 115 2336 19 
Q 2054 -77 1715 -77 
Q 1427 -77 1203 -13 
Q 979 51 806 160 
Q 634 269 502 403 
Q 371 538 269 685 
L 672 992 
Q 755 858 854 749 
Q 954 640 1075 563 
Q 1197 486 1350 444 
Q 1504 403 1709 403 
Q 2182 403 2425 617 
Q 2669 832 2669 1229 
L 2669 1280 
Q 2669 1677 2425 1891 
Q 2182 2106 1709 2106 
L 1184 2106 
L 1184 2573 
L 1670 2573 
z
" transform="scale(0.015625)"/>
       </defs>
       <use xlink:href="#IBMPlexSans-Regular-33"/>
       <use xlink:href="#IBMPlexSans-Regular-30" transform="translate(59.999985 0)"/>
       <use xlink:href="#IBMPlexSans-Regular-30" transform="translate(119.999969 0)"/>
      </g>
     </g>
    </g>
    <g id="xtick_5">
     <g id="line2d_9">
      <path d="M 218.183201 170.767352 
L 218.183201 7.2 
" clip-path="url(#p01389c7cc0)" style="fill: none; stroke-dasharray: 1.85,0.8; stroke-dashoffset: 0; stroke: #838383; stroke-opacity: 0.2; stroke-width: 0.5"/>
     </g>
     <g id="line2d_10"/>
     <g id="text_5">
      <!-- 400 -->
      <g style="fill: #838383" transform="translate(207.383201 183.147352) scale(0.12 -0.12)">
       <defs>
        <path id="IBMPlexSans-Regular-34" d="M 2400 0 
L 2400 877 
L 243 877 
L 243 1350 
L 2112 4467 
L 2912 4467 
L 2912 1325 
L 3558 1325 
L 3558 877 
L 2912 877 
L 2912 0 
L 2400 0 
z
M 749 1325 
L 2400 1325 
L 2400 4051 
L 2368 4051 
L 749 1325 
z
" transform="scale(0.015625)"/>
       </defs>
       <use xlink:href="#IBMPlexSans-Regular-34"/>
       <use xlink:href="#IBMPlexSans-Regular-30" transform="translate(59.999985 0)"/>
       <use xlink:href="#IBMPlexSans-Regular-30" transform="translate(119.999969 0)"/>
      </g>
     </g>
    </g>
    <g id="xtick_6">
     <g id="line2d_11">
      <path d="M 256.990906 170.767352 
L 256.990906 7.2 
" clip-path="url(#p01389c7cc0)" style="fill: none; stroke-dasharray: 1.85,0.8; stroke-dashoffset: 0; stroke: #838383; stroke-opacity: 0.2; stroke-width: 0.5"/>
     </g>
     <g id="line2d_12"/>
     <g id="text_6">
      <!-- 500 -->
      <g style="fill: #838383" transform="translate(246.190906 183.147352) scale(0.12 -0.12)">
       <defs>
        <path id="IBMPlexSans-Regular-35" d="M 3187 3994 
L 1229 3994 
L 1101 2291 
L 1146 2291 
Q 1306 2515 1507 2649 
Q 1709 2784 2061 2784 
Q 2349 2784 2592 2688 
Q 2835 2592 3014 2416 
Q 3194 2240 3293 1984 
Q 3392 1728 3392 1402 
Q 3392 1075 3289 803 
Q 3187 531 2992 336 
Q 2797 141 2518 32 
Q 2240 -77 1888 -77 
Q 1606 -77 1392 -13 
Q 1178 51 1011 160 
Q 845 269 720 403 
Q 595 538 493 685 
L 896 992 
Q 979 858 1072 749 
Q 1165 640 1277 563 
Q 1389 486 1536 444 
Q 1683 403 1888 403 
Q 2349 403 2585 646 
Q 2822 890 2822 1331 
L 2822 1395 
Q 2822 1837 2585 2080 
Q 2349 2323 1888 2323 
Q 1581 2323 1405 2211 
Q 1229 2099 1088 1946 
L 634 2010 
L 794 4467 
L 3187 4467 
L 3187 3994 
z
" transform="scale(0.015625)"/>
       </defs>
       <use xlink:href="#IBMPlexSans-Regular-35"/>
       <use xlink:href="#IBMPlexSans-Regular-30" transform="translate(59.999985 0)"/>
       <use xlink:href="#IBMPlexSans-Regular-30" transform="translate(119.999969 0)"/>
      </g>
     </g>
    </g>
    <g id="xtick_7">
     <g id="line2d_13">
      <path d="M 295.798611 170.767352 
L 295.798611 7.2 
" clip-path="url(#p01389c7cc0)" style="fill: none; stroke-dasharray: 1.85,0.8; stroke-dashoffset: 0; stroke: #838383; stroke-opacity: 0.2; stroke-width: 0.5"/>
     </g>
     <g id="line2d_14"/>
     <g id="text_7">
      <!-- 600 -->
      <g style="fill: #838383" transform="translate(284.998611 183.147352) scale(0.12 -0.12)">
       <defs>
        <path id="IBMPlexSans-Regular-36" d="M 1926 -77 
Q 1581 -77 1302 41 
Q 1024 160 829 381 
Q 634 602 531 922 
Q 429 1242 429 1638 
Q 429 2138 576 2576 
Q 723 3014 956 3376 
Q 1190 3738 1472 4016 
Q 1754 4294 2022 4467 
L 2714 4467 
Q 2355 4205 2073 3955 
Q 1792 3706 1581 3434 
Q 1370 3162 1222 2851 
Q 1075 2541 986 2150 
L 1018 2138 
Q 1178 2413 1430 2595 
Q 1683 2778 2093 2778 
Q 2381 2778 2624 2682 
Q 2867 2586 3040 2406 
Q 3213 2227 3312 1971 
Q 3411 1715 3411 1402 
Q 3411 1075 3305 803 
Q 3200 531 3005 336 
Q 2810 141 2534 32 
Q 2259 -77 1926 -77 
z
M 1920 390 
Q 2362 390 2608 633 
Q 2854 877 2854 1331 
L 2854 1382 
Q 2854 1837 2608 2080 
Q 2362 2323 1920 2323 
Q 1478 2323 1232 2080 
Q 986 1837 986 1382 
L 986 1331 
Q 986 877 1232 633 
Q 1478 390 1920 390 
z
" transform="scale(0.015625)"/>
       </defs>
       <use xlink:href="#IBMPlexSans-Regular-36"/>
       <use xlink:href="#IBMPlexSans-Regular-30" transform="translate(59.999985 0)"/>
       <use xlink:href="#IBMPlexSans-Regular-30" transform="translate(119.999969 0)"/>
      </g>
     </g>
    </g>
    <g id="text_8">
     <!-- draw -->
     <g style="fill: #bdbdbd" transform="translate(170.538045 198.427352) scale(0.12 -0.12)">
      <defs>
       <path id="IBMPlexSans-Regular-64" d="M 2656 538 
L 2630 538 
Q 2330 -77 1664 -77 
Q 1357 -77 1107 44 
Q 858 166 682 390 
Q 506 614 413 934 
Q 320 1254 320 1651 
Q 320 2048 413 2368 
Q 506 2688 682 2912 
Q 858 3136 1107 3257 
Q 1357 3379 1664 3379 
Q 2010 3379 2256 3228 
Q 2502 3078 2630 2765 
L 2656 2765 
L 2656 4736 
L 3168 4736 
L 3168 0 
L 2656 0 
L 2656 538 
z
M 1805 384 
Q 1978 384 2134 429 
Q 2291 474 2406 560 
Q 2522 646 2589 771 
Q 2656 896 2656 1056 
L 2656 2285 
Q 2656 2419 2589 2537 
Q 2522 2656 2406 2739 
Q 2291 2822 2134 2870 
Q 1978 2918 1805 2918 
Q 1370 2918 1120 2646 
Q 870 2374 870 1933 
L 870 1370 
Q 870 928 1120 656 
Q 1370 384 1805 384 
z
" transform="scale(0.015625)"/>
       <path id="IBMPlexSans-Regular-72" d="M 544 0 
L 544 3302 
L 1056 3302 
L 1056 2694 
L 1088 2694 
Q 1178 2931 1408 3116 
Q 1638 3302 2042 3302 
L 2240 3302 
L 2240 2790 
L 1939 2790 
Q 1523 2790 1289 2633 
Q 1056 2477 1056 2240 
L 1056 0 
L 544 0 
z
" transform="scale(0.015625)"/>
       <path id="IBMPlexSans-Regular-61" d="M 2944 0 
Q 2656 0 2531 153 
Q 2406 307 2374 538 
L 2342 538 
Q 2234 230 1984 76 
Q 1734 -77 1389 -77 
Q 864 -77 573 192 
Q 282 461 282 922 
Q 282 1389 624 1638 
Q 966 1888 1690 1888 
L 2342 1888 
L 2342 2214 
Q 2342 2566 2150 2752 
Q 1958 2938 1562 2938 
Q 1261 2938 1059 2803 
Q 858 2669 723 2445 
L 416 2733 
Q 550 3002 844 3190 
Q 1139 3379 1587 3379 
Q 2189 3379 2521 3084 
Q 2854 2790 2854 2266 
L 2854 448 
L 3232 448 
L 3232 0 
L 2944 0 
z
M 1472 358 
Q 1664 358 1824 403 
Q 1984 448 2099 531 
Q 2214 614 2278 723 
Q 2342 832 2342 960 
L 2342 1504 
L 1664 1504 
Q 1222 1504 1020 1376 
Q 819 1248 819 1005 
L 819 870 
Q 819 627 995 492 
Q 1171 358 1472 358 
z
" transform="scale(0.015625)"/>
       <path id="IBMPlexSans-Regular-77" d="M 198 3302 
L 698 3302 
L 1050 1875 
L 1402 429 
L 1414 429 
L 1818 1875 
L 2234 3302 
L 2688 3302 
L 3117 1875 
L 3526 429 
L 3539 429 
L 3878 1875 
L 4237 3302 
L 4717 3302 
L 3840 0 
L 3206 0 
L 2746 1587 
L 2458 2592 
L 2445 2592 
L 2163 1587 
L 1702 0 
L 1082 0 
L 198 3302 
z
" transform="scale(0.015625)"/>
      </defs>
      <use xlink:href="#IBMPlexSans-Regular-64"/>
      <use xlink:href="#IBMPlexSans-Regular-72" transform="translate(57.999985 0)"/>
      <use xlink:href="#IBMPlexSans-Regular-61" transform="translate(94.699982 0)"/>
      <use xlink:href="#IBMPlexSans-Regular-77" transform="translate(148.099976 0)"/>
     </g>
    </g>
   </g>
   <g id="matplotlib.axis_2">
    <g id="ytick_1">
     <g id="line2d_15">
      <path d="M 50.844375 159.313618 
L 317.220465 159.313618 
" clip-path="url(#p01389c7cc0)" style="fill: none; stroke-dasharray: 1.85,0.8; stroke-dashoffset: 0; stroke: #838383; stroke-opacity: 0.2; stroke-width: 0.5"/>
     </g>
     <g id="line2d_16"/>
     <g id="text_9">
      <!-- 1.50 -->
      <g style="fill: #838383" transform="translate(22.48 163.753618) scale(0.12 -0.12)">
       <defs>
        <path id="IBMPlexSans-Regular-2e" d="M 870 -77 
Q 666 -77 573 25 
Q 480 128 480 294 
L 480 378 
Q 480 544 573 646 
Q 666 749 870 749 
Q 1075 749 1168 646 
Q 1261 544 1261 378 
L 1261 294 
Q 1261 128 1168 25 
Q 1075 -77 870 -77 
z
" transform="scale(0.015625)"/>
       </defs>
       <use xlink:href="#IBMPlexSans-Regular-31"/>
       <use xlink:href="#IBMPlexSans-Regular-2e" transform="translate(59.999985 0)"/>
       <use xlink:href="#IBMPlexSans-Regular-35" transform="translate(87.199982 0)"/>
       <use xlink:href="#IBMPlexSans-Regular-30" transform="translate(147.199966 0)"/>
      </g>
     </g>
    </g>
    <g id="ytick_2">
     <g id="line2d_17">
      <path d="M 50.844375 127.162787 
L 317.220465 127.162787 
" clip-path="url(#p01389c7cc0)" style="fill: none; stroke-dasharray: 1.85,0.8; stroke-dashoffset: 0; stroke: #838383; stroke-opacity: 0.2; stroke-width: 0.5"/>
     </g>
     <g id="line2d_18"/>
     <g id="text_10">
      <!-- 1.75 -->
      <g style="fill: #838383" transform="translate(22.48 131.602787) scale(0.12 -0.12)">
       <defs>
        <path id="IBMPlexSans-Regular-37" d="M 1120 0 
L 2829 4006 
L 922 4006 
L 922 3174 
L 442 3174 
L 442 4467 
L 3373 4467 
L 3373 3994 
L 1696 0 
L 1120 0 
z
" transform="scale(0.015625)"/>
       </defs>
       <use xlink:href="#IBMPlexSans-Regular-31"/>
       <use xlink:href="#IBMPlexSans-Regular-2e" transform="translate(59.999985 0)"/>
       <use xlink:href="#IBMPlexSans-Regular-37" transform="translate(87.199982 0)"/>
       <use xlink:href="#IBMPlexSans-Regular-35" transform="translate(147.199966 0)"/>
      </g>
     </g>
    </g>
    <g id="ytick_3">
     <g id="line2d_19">
      <path d="M 50.844375 95.011957 
L 317.220465 95.011957 
" clip-path="url(#p01389c7cc0)" style="fill: none; stroke-dasharray: 1.85,0.8; stroke-dashoffset: 0; stroke: #838383; stroke-opacity: 0.2; stroke-width: 0.5"/>
     </g>
     <g id="line2d_20"/>
     <g id="text_11">
      <!-- 2.00 -->
      <g style="fill: #838383" transform="translate(22.48 99.451957) scale(0.12 -0.12)">
       <use xlink:href="#IBMPlexSans-Regular-32"/>
       <use xlink:href="#IBMPlexSans-Regular-2e" transform="translate(59.999985 0)"/>
       <use xlink:href="#IBMPlexSans-Regular-30" transform="translate(87.199982 0)"/>
       <use xlink:href="#IBMPlexSans-Regular-30" transform="translate(147.199966 0)"/>
      </g>
     </g>
    </g>
    <g id="ytick_4">
     <g id="line2d_21">
      <path d="M 50.844375 62.861126 
L 317.220465 62.861126 
" clip-path="url(#p01389c7cc0)" style="fill: none; stroke-dasharray: 1.85,0.8; stroke-dashoffset: 0; stroke: #838383; stroke-opacity: 0.2; stroke-width: 0.5"/>
     </g>
     <g id="line2d_22"/>
     <g id="text_12">
      <!-- 2.25 -->
      <g style="fill: #838383" transform="translate(22.48 67.301126) scale(0.12 -0.12)">
       <use xlink:href="#IBMPlexSans-Regular-32"/>
       <use xlink:href="#IBMPlexSans-Regular-2e" transform="translate(59.999985 0)"/>
       <use xlink:href="#IBMPlexSans-Regular-32" transform="translate(87.199982 0)"/>
       <use xlink:href="#IBMPlexSans-Regular-35" transform="translate(147.199966 0)"/>
      </g>
     </g>
    </g>
    <g id="ytick_5">
     <g id="line2d_23">
      <path d="M 50.844375 30.710295 
L 317.220465 30.710295 
" clip-path="url(#p01389c7cc0)" style="fill: none; stroke-dasharray: 1.85,0.8; stroke-dashoffset: 0; stroke: #838383; stroke-opacity: 0.2; stroke-width: 0.5"/>
     </g>
     <g id="line2d_24"/>
     <g id="text_13">
      <!-- 2.50 -->
      <g style="fill: #838383" transform="translate(22.48 35.150295) scale(0.12 -0.12)">
       <use xlink:href="#IBMPlexSans-Regular-32"/>
       <use xlink:href="#IBMPlexSans-Regular-2e" transform="translate(59.999985 0)"/>
       <use xlink:href="#IBMPlexSans-Regular-35" transform="translate(87.199982 0)"/>
       <use xlink:href="#IBMPlexSans-Regular-30" transform="translate(147.199966 0)"/>
      </g>
     </g>
    </g>
    <g id="text_14">
     <!-- val_loss -->
     <g style="fill: #bdbdbd" transform="translate(16.08 110.998988) rotate(-90) scale(0.12 -0.12)">
      <defs>
       <path id="IBMPlexSans-Regular-76" d="M 1274 0 
L 115 3302 
L 627 3302 
L 1203 1664 
L 1562 538 
L 1594 538 
L 1952 1664 
L 2541 3302 
L 3034 3302 
L 1869 0 
L 1274 0 
z
" transform="scale(0.015625)"/>
       <path id="IBMPlexSans-Regular-6c" d="M 1088 0 
Q 819 0 681 150 
Q 544 301 544 531 
L 544 4736 
L 1056 4736 
L 1056 448 
L 1542 448 
L 1542 0 
L 1088 0 
z
" transform="scale(0.015625)"/>
       <path id="IBMPlexSans-Regular-5f" d="M 192 -1056 
L 192 -608 
L 3424 -608 
L 3424 -1056 
L 192 -1056 
z
" transform="scale(0.015625)"/>
       <path id="IBMPlexSans-Regular-6f" d="M 1792 -77 
Q 1459 -77 1184 44 
Q 909 166 713 393 
Q 518 621 409 937 
Q 301 1254 301 1651 
Q 301 2042 409 2362 
Q 518 2682 713 2909 
Q 909 3136 1184 3257 
Q 1459 3379 1792 3379 
Q 2125 3379 2397 3257 
Q 2669 3136 2867 2909 
Q 3066 2682 3174 2362 
Q 3283 2042 3283 1651 
Q 3283 1254 3174 937 
Q 3066 621 2867 393 
Q 2669 166 2397 44 
Q 2125 -77 1792 -77 
z
M 1792 378 
Q 2208 378 2470 634 
Q 2733 890 2733 1414 
L 2733 1888 
Q 2733 2413 2470 2669 
Q 2208 2925 1792 2925 
Q 1376 2925 1113 2669 
Q 851 2413 851 1888 
L 851 1414 
Q 851 890 1113 634 
Q 1376 378 1792 378 
z
" transform="scale(0.015625)"/>
       <path id="IBMPlexSans-Regular-73" d="M 1536 -77 
Q 1075 -77 764 99 
Q 454 275 230 570 
L 595 864 
Q 787 621 1024 489 
Q 1261 358 1574 358 
Q 1901 358 2083 499 
Q 2266 640 2266 896 
Q 2266 1088 2141 1225 
Q 2016 1363 1690 1414 
L 1427 1453 
Q 1197 1485 1005 1552 
Q 813 1619 669 1731 
Q 525 1843 445 2009 
Q 365 2176 365 2406 
Q 365 2650 454 2832 
Q 544 3014 701 3136 
Q 858 3258 1075 3318 
Q 1293 3379 1542 3379 
Q 1946 3379 2218 3238 
Q 2490 3098 2694 2848 
L 2355 2541 
Q 2246 2694 2035 2819 
Q 1824 2944 1504 2944 
Q 1184 2944 1021 2806 
Q 858 2669 858 2432 
Q 858 2189 1021 2080 
Q 1184 1971 1491 1920 
L 1747 1882 
Q 2298 1798 2528 1564 
Q 2758 1331 2758 954 
Q 2758 474 2432 198 
Q 2106 -77 1536 -77 
z
" transform="scale(0.015625)"/>
      </defs>
      <use xlink:href="#IBMPlexSans-Regular-76"/>
      <use xlink:href="#IBMPlexSans-Regular-61" transform="translate(49.199997 0)"/>
      <use xlink:href="#IBMPlexSans-Regular-6c" transform="translate(102.599991 0)"/>
      <use xlink:href="#IBMPlexSans-Regular-5f" transform="translate(129.799988 0)"/>
      <use xlink:href="#IBMPlexSans-Regular-6c" transform="translate(186.299973 0)"/>
      <use xlink:href="#IBMPlexSans-Regular-6f" transform="translate(213.499969 0)"/>
      <use xlink:href="#IBMPlexSans-Regular-73" transform="translate(269.499954 0)"/>
      <use xlink:href="#IBMPlexSans-Regular-73" transform="translate(318.199951 0)"/>
     </g>
    </g>
   </g>
   <g id="line2d_25">
    <path d="M 62.952379 95.011957 
L 63.340456 96.01667 
L 63.728533 95.011957 
L 64.11661 76.927114 
L 64.504687 113.096799 
L 65.280841 131.181641 
L 65.668918 100.035524 
L 66.056996 80.945968 
L 66.445073 115.106226 
L 66.83315 88.983676 
L 67.221227 129.172214 
L 67.609304 130.176928 
L 67.997381 84.964822 
L 68.385458 120.129793 
L 68.773535 93.00253 
L 69.161612 143.238203 
L 69.549689 98.026097 
L 69.937766 133.191068 
L 70.325843 103.049664 
L 70.71392 149.266483 
L 71.490074 66.87998 
L 71.878151 97.021383 
L 72.266228 111.087372 
L 72.654305 117.115653 
L 73.042382 100.035524 
L 73.43046 125.15336 
L 74.206614 80.945968 
L 74.594691 88.983676 
L 74.982768 64.870553 
L 75.370845 93.00253 
L 75.758922 105.059091 
L 76.146999 105.059091 
L 76.535076 74.917687 
L 76.923153 86.974249 
L 77.31123 127.162787 
L 77.699307 96.01667 
L 78.087384 93.00253 
L 78.475461 66.87998 
L 78.863538 121.134507 
L 79.251615 95.011957 
L 80.027769 106.063805 
L 80.415846 93.00253 
L 80.803924 111.087372 
L 81.192001 105.059091 
L 81.580078 72.90826 
L 81.968155 62.861126 
L 82.356232 66.87998 
L 82.744309 38.748003 
L 83.132386 93.00253 
L 83.90854 74.917687 
L 84.296617 86.974249 
L 84.684694 68.889407 
L 85.072771 111.087372 
L 85.460848 124.148647 
L 85.848925 72.90826 
L 86.237002 70.898833 
L 86.625079 93.00253 
L 87.013156 82.955395 
L 87.401233 119.12508 
L 88.177388 78.936541 
L 88.565465 103.049664 
L 88.953542 96.01667 
L 89.341619 80.945968 
L 89.729696 100.035524 
L 90.117773 90.993103 
L 90.50585 104.054378 
L 90.893927 76.927114 
L 91.282004 102.044951 
L 91.670081 114.101512 
L 92.058158 99.03081 
L 92.446235 90.993103 
L 92.834312 146.252343 
L 93.222389 101.040237 
L 93.610466 114.101512 
L 93.998543 90.993103 
L 94.38662 109.077945 
L 94.774697 111.087372 
L 95.162775 110.082658 
L 95.550852 38.748003 
L 95.938929 121.134507 
L 96.327006 120.129793 
L 96.715083 90.993103 
L 97.10316 116.110939 
L 97.491237 70.898833 
L 97.879314 70.898833 
L 98.267391 44.776283 
L 98.655468 127.162787 
L 99.043545 122.13922 
L 99.431622 84.964822 
L 99.819699 86.974249 
L 100.207776 84.964822 
L 100.595853 84.964822 
L 100.98393 50.804564 
L 101.372007 90.993103 
L 101.760084 95.011957 
L 102.536239 132.186355 
L 102.924316 99.03081 
L 103.312393 132.186355 
L 103.70047 99.03081 
L 104.088547 50.804564 
L 104.476624 90.993103 
L 104.864701 64.870553 
L 105.252778 78.936541 
L 105.640855 125.15336 
L 106.028932 88.983676 
L 106.417009 86.974249 
L 106.805086 105.059091 
L 107.193163 99.03081 
L 107.58124 132.186355 
L 107.969317 80.945968 
L 108.357394 72.90826 
L 108.745471 100.035524 
L 109.133548 90.993103 
L 109.521626 60.851699 
L 109.909703 136.205208 
L 110.29778 137.209922 
L 110.685857 80.945968 
L 111.073934 125.15336 
L 111.462011 108.073232 
L 111.850088 82.955395 
L 112.238165 102.044951 
L 112.626242 130.176928 
L 113.402396 78.936541 
L 113.790473 86.974249 
L 114.17855 64.870553 
L 114.566627 80.945968 
L 114.954704 64.870553 
L 115.342781 128.167501 
L 115.730858 110.082658 
L 116.118935 106.063805 
L 116.507012 68.889407 
L 116.89509 60.851699 
L 117.283167 58.842272 
L 117.671244 68.889407 
L 118.059321 142.233489 
L 118.447398 112.092085 
L 118.835475 107.068518 
L 119.223552 105.059091 
L 119.611629 100.035524 
L 119.999706 60.851699 
L 120.387783 97.021383 
L 120.77586 82.955395 
L 121.163937 121.134507 
L 121.552014 74.917687 
L 121.940091 140.224062 
L 122.328168 122.13922 
L 122.716245 62.861126 
L 123.104322 88.983676 
L 123.492399 128.167501 
L 123.880477 103.049664 
L 124.268554 50.804564 
L 124.656631 119.12508 
L 125.044708 106.063805 
L 125.432785 103.049664 
L 125.820862 46.78571 
L 126.208939 102.044951 
L 126.597016 82.955395 
L 126.985093 116.110939 
L 127.37317 120.129793 
L 127.761247 52.813991 
L 128.149324 68.889407 
L 128.537401 70.898833 
L 128.925478 95.011957 
L 129.313555 52.813991 
L 129.701632 112.092085 
L 130.089709 109.077945 
L 130.477786 90.993103 
L 130.865863 107.068518 
L 131.253941 84.964822 
L 131.642018 100.035524 
L 132.030095 70.898833 
L 132.806249 74.917687 
L 133.194326 99.03081 
L 133.582403 95.011957 
L 133.97048 78.936541 
L 134.358557 97.021383 
L 134.746634 93.00253 
L 135.134711 101.040237 
L 135.522788 112.092085 
L 135.910865 82.955395 
L 136.298942 143.238203 
L 136.687019 98.026097 
L 137.075096 151.27591 
L 137.85125 80.945968 
L 138.239327 129.172214 
L 138.627405 129.172214 
L 139.015482 97.021383 
L 139.403559 142.233489 
L 139.791636 101.040237 
L 140.179713 107.068518 
L 140.56779 90.993103 
L 141.343944 105.059091 
L 141.732021 96.01667 
L 142.120098 97.021383 
L 142.508175 74.917687 
L 142.896252 80.945968 
L 143.284329 123.143933 
L 143.672406 70.898833 
L 144.836637 123.143933 
L 145.224714 76.927114 
L 145.612792 100.035524 
L 146.000869 80.945968 
L 146.388946 137.209922 
L 147.1651 107.068518 
L 147.553177 34.729149 
L 147.941254 93.00253 
L 148.717408 110.082658 
L 149.493562 70.898833 
L 149.881639 117.115653 
L 150.269716 120.129793 
L 150.657793 120.129793 
L 151.04587 72.90826 
L 151.433947 136.205208 
L 151.822024 100.035524 
L 152.210101 95.011957 
L 152.598178 74.917687 
L 152.986256 78.936541 
L 153.374333 58.842272 
L 153.76241 107.068518 
L 154.150487 126.158074 
L 154.538564 93.00253 
L 154.926641 102.044951 
L 155.314718 74.917687 
L 156.090872 116.110939 
L 156.478949 82.955395 
L 156.867026 99.03081 
L 157.255103 128.167501 
L 157.64318 99.03081 
L 158.031257 124.148647 
L 158.419334 70.898833 
L 158.807411 82.955395 
L 159.195488 84.964822 
L 159.583565 130.176928 
L 159.971643 88.983676 
L 160.35972 90.993103 
L 160.747797 84.964822 
L 161.135874 84.964822 
L 161.523951 129.172214 
L 161.912028 104.054378 
L 162.300105 93.00253 
L 162.688182 138.214635 
L 163.076259 86.974249 
L 163.464336 106.063805 
L 163.852413 66.87998 
L 164.24049 96.01667 
L 164.628567 76.927114 
L 165.016644 125.15336 
L 165.404721 82.955395 
L 165.792798 105.059091 
L 166.180875 111.087372 
L 166.568952 74.917687 
L 166.957029 76.927114 
L 167.345107 126.158074 
L 167.733184 58.842272 
L 168.121261 133.191068 
L 168.509338 40.75743 
L 168.897415 97.021383 
L 169.285492 118.120366 
L 170.061646 14.63488 
L 170.449723 76.927114 
L 170.8378 76.927114 
L 171.225877 120.129793 
L 171.613954 86.974249 
L 172.390108 62.861126 
L 172.778185 127.162787 
L 173.166262 99.03081 
L 173.554339 90.993103 
L 173.942416 88.983676 
L 174.330493 103.049664 
L 174.718571 62.861126 
L 175.106648 76.927114 
L 175.494725 99.03081 
L 175.882802 113.096799 
L 176.270879 114.101512 
L 176.658956 121.134507 
L 177.047033 108.073232 
L 177.43511 105.059091 
L 177.823187 52.813991 
L 178.211264 117.115653 
L 178.599341 80.945968 
L 178.987418 142.233489 
L 179.375495 127.162787 
L 179.763572 68.889407 
L 180.151649 54.823418 
L 180.539726 99.03081 
L 180.927803 78.936541 
L 181.31588 64.870553 
L 181.703958 88.983676 
L 182.092035 121.134507 
L 182.480112 95.011957 
L 182.868189 98.026097 
L 183.256266 68.889407 
L 183.644343 123.143933 
L 184.03242 108.073232 
L 184.420497 74.917687 
L 184.808574 93.00253 
L 185.196651 54.823418 
L 185.584728 90.993103 
L 185.972805 115.106226 
L 186.360882 111.087372 
L 186.748959 113.096799 
L 187.137036 66.87998 
L 187.525113 113.096799 
L 187.91319 82.955395 
L 188.301267 102.044951 
L 188.689344 14.63488 
L 189.077422 86.974249 
L 189.853576 104.054378 
L 190.241653 127.162787 
L 191.017807 82.955395 
L 191.405884 36.738576 
L 191.793961 64.870553 
L 192.182038 70.898833 
L 192.570115 127.162787 
L 192.958192 109.077945 
L 193.346269 98.026097 
L 193.734346 108.073232 
L 194.122423 80.945968 
L 194.5105 93.00253 
L 194.898577 111.087372 
L 195.286654 149.266483 
L 195.674731 78.936541 
L 196.062808 76.927114 
L 196.450886 122.13922 
L 196.838963 58.842272 
L 197.22704 130.176928 
L 197.615117 104.054378 
L 198.003194 130.176928 
L 198.391271 145.24763 
L 198.779348 96.01667 
L 199.167425 119.12508 
L 199.555502 100.035524 
L 199.943579 118.120366 
L 200.331656 123.143933 
L 200.719733 82.955395 
L 201.10781 139.219349 
L 201.495887 98.026097 
L 201.883964 97.021383 
L 202.272041 111.087372 
L 202.660118 90.993103 
L 203.436273 107.068518 
L 203.82435 134.195782 
L 204.212427 136.205208 
L 204.600504 74.917687 
L 204.988581 113.096799 
L 205.376658 56.832845 
L 205.764735 138.214635 
L 206.152812 139.219349 
L 206.540889 84.964822 
L 206.928966 86.974249 
L 207.317043 90.993103 
L 207.70512 86.974249 
L 208.093197 72.90826 
L 208.481274 113.096799 
L 208.869351 109.077945 
L 209.257428 126.158074 
L 209.645505 64.870553 
L 210.033582 113.096799 
L 210.421659 103.049664 
L 210.809737 104.054378 
L 211.197814 80.945968 
L 211.585891 126.158074 
L 211.973968 76.927114 
L 212.362045 84.964822 
L 212.750122 133.191068 
L 213.138199 111.087372 
L 213.526276 70.898833 
L 214.30243 86.974249 
L 214.690507 46.78571 
L 215.078584 101.040237 
L 215.466661 99.03081 
L 215.854738 120.129793 
L 216.242815 107.068518 
L 216.630892 76.927114 
L 217.018969 82.955395 
L 217.407046 135.200495 
L 218.183201 62.861126 
L 218.571278 106.063805 
L 218.959355 127.162787 
L 219.347432 124.148647 
L 219.735509 102.044951 
L 220.123586 115.106226 
L 220.511663 58.842272 
L 220.89974 130.176928 
L 221.287817 78.936541 
L 221.675894 127.162787 
L 222.063971 116.110939 
L 222.452048 93.00253 
L 222.840125 84.964822 
L 223.228202 102.044951 
L 223.616279 136.205208 
L 224.004356 103.049664 
L 224.392433 117.115653 
L 224.78051 74.917687 
L 225.168588 90.993103 
L 225.556665 118.120366 
L 226.332819 60.851699 
L 226.720896 107.068518 
L 227.108973 96.01667 
L 227.49705 101.040237 
L 227.885127 103.049664 
L 228.273204 109.077945 
L 228.661281 113.096799 
L 229.049358 78.936541 
L 229.437435 80.945968 
L 229.825512 132.186355 
L 230.213589 112.092085 
L 230.601666 82.955395 
L 230.989743 82.955395 
L 231.37782 127.162787 
L 231.765897 132.186355 
L 232.153974 90.993103 
L 232.542052 140.224062 
L 232.930129 82.955395 
L 233.318206 76.927114 
L 233.706283 118.120366 
L 234.09436 124.148647 
L 234.482437 122.13922 
L 234.870514 135.200495 
L 235.258591 114.101512 
L 235.646668 78.936541 
L 236.034745 88.983676 
L 236.422822 82.955395 
L 236.810899 120.129793 
L 237.198976 70.898833 
L 237.587053 103.049664 
L 237.97513 147.257057 
L 238.751284 70.898833 
L 239.139361 72.90826 
L 239.527439 116.110939 
L 239.915516 60.851699 
L 240.303593 104.054378 
L 240.69167 163.332472 
L 241.079747 50.804564 
L 241.855901 136.205208 
L 242.243978 102.044951 
L 242.632055 52.813991 
L 243.020132 108.073232 
L 243.408209 93.00253 
L 243.796286 122.13922 
L 244.184363 74.917687 
L 244.57244 117.115653 
L 244.960517 116.110939 
L 245.348594 127.162787 
L 246.124748 93.00253 
L 246.512825 90.993103 
L 246.900903 121.134507 
L 247.28898 121.134507 
L 247.677057 131.181641 
L 248.065134 109.077945 
L 248.453211 102.044951 
L 249.229365 132.186355 
L 250.005519 84.964822 
L 250.393596 82.955395 
L 250.781673 54.823418 
L 251.16975 99.03081 
L 251.557827 88.983676 
L 251.945904 103.049664 
L 252.333981 132.186355 
L 252.722058 66.87998 
L 253.110135 54.823418 
L 253.498212 108.073232 
L 253.886289 90.993103 
L 254.662444 42.766857 
L 255.050521 93.00253 
L 255.438598 101.040237 
L 255.826675 40.75743 
L 256.602829 131.181641 
L 256.990906 93.00253 
L 257.378983 112.092085 
L 257.76706 125.15336 
L 258.543214 74.917687 
L 258.931291 62.861126 
L 259.319368 103.049664 
L 259.707445 129.172214 
L 260.095522 101.040237 
L 260.483599 128.167501 
L 260.871676 80.945968 
L 261.259754 84.964822 
L 261.647831 137.209922 
L 262.035908 122.13922 
L 262.423985 95.011957 
L 262.812062 131.181641 
L 263.200139 74.917687 
L 263.588216 50.804564 
L 263.976293 74.917687 
L 264.36437 78.936541 
L 265.140524 100.035524 
L 265.528601 66.87998 
L 265.916678 103.049664 
L 266.304755 64.870553 
L 266.692832 76.927114 
L 267.080909 106.063805 
L 267.468986 101.040237 
L 267.857063 74.917687 
L 268.24514 76.927114 
L 269.021295 84.964822 
L 269.409372 82.955395 
L 269.797449 113.096799 
L 270.185526 114.101512 
L 270.573603 70.898833 
L 270.96168 68.889407 
L 271.349757 74.917687 
L 271.737834 62.861126 
L 272.125911 90.993103 
L 272.513988 86.974249 
L 272.902065 120.129793 
L 273.290142 90.993103 
L 273.678219 132.186355 
L 274.066296 103.049664 
L 274.454373 62.861126 
L 274.84245 107.068518 
L 275.230527 80.945968 
L 275.618605 101.040237 
L 276.006682 88.983676 
L 276.394759 98.026097 
L 276.782836 141.228776 
L 277.170913 108.073232 
L 277.55899 103.049664 
L 277.947067 100.035524 
L 278.335144 84.964822 
L 278.723221 115.106226 
L 279.111298 80.945968 
L 279.499375 109.077945 
L 279.887452 121.134507 
L 280.275529 82.955395 
L 280.663606 119.12508 
L 281.051683 64.870553 
L 281.43976 97.021383 
L 282.215914 110.082658 
L 282.603991 117.115653 
L 282.992069 80.945968 
L 283.380146 107.068518 
L 283.768223 88.983676 
L 284.1563 95.011957 
L 284.544377 64.870553 
L 284.932454 60.851699 
L 285.320531 62.861126 
L 285.708608 105.059091 
L 286.096685 88.983676 
L 286.484762 128.167501 
L 286.872839 48.795137 
L 287.260916 96.01667 
L 287.648993 109.077945 
L 288.03707 78.936541 
L 288.425147 105.059091 
L 288.813224 118.120366 
L 289.201301 50.804564 
L 289.589378 104.054378 
L 289.977455 140.224062 
L 290.365533 125.15336 
L 290.75361 58.842272 
L 291.141687 107.068518 
L 291.529764 127.162787 
L 291.917841 93.00253 
L 292.305918 98.026097 
L 293.082072 52.813991 
L 293.470149 103.049664 
L 293.858226 78.936541 
L 294.246303 142.233489 
L 294.63438 32.719722 
L 295.022457 96.01667 
L 295.410534 50.804564 
L 295.798611 107.068518 
L 296.186688 128.167501 
L 296.574765 84.964822 
L 296.962842 109.077945 
L 297.35092 95.011957 
L 297.738997 117.115653 
L 298.127074 84.964822 
L 298.515151 95.011957 
L 298.903228 86.974249 
L 299.291305 74.917687 
L 299.679382 143.238203 
L 300.067459 117.115653 
L 300.455536 82.955395 
L 300.843613 136.205208 
L 301.23169 62.861126 
L 301.619767 119.12508 
L 302.007844 111.087372 
L 302.395921 110.082658 
L 302.783998 144.242916 
L 303.172075 103.049664 
L 303.560152 88.983676 
L 303.948229 109.077945 
L 304.336306 117.115653 
L 305.112461 66.87998 
L 305.112461 66.87998 
" clip-path="url(#p01389c7cc0)" style="fill: none; stroke: #2196f3; stroke-width: 1.5; stroke-linecap: round"/>
   </g>
   <g id="patch_3">
    <path d="M 50.844375 170.767352 
L 50.844375 7.2 
" style="fill: none"/>
   </g>
   <g id="patch_4">
    <path d="M 317.220465 170.767352 
L 317.220465 7.2 
" style="fill: none"/>
   </g>
   <g id="patch_5">
    <path d="M 50.844375 170.767352 
L 317.220465 170.767352 
" style="fill: none"/>
   </g>
   <g id="patch_6">
    <path d="M 50.844375 7.2 
L 317.220465 7.2 
" style="fill: none"/>
   </g>
  </g>
 </g>
 <defs>
  <clipPath id="p01389c7cc0">
   <rect x="50.844375" y="7.2" width="266.37609" height="163.567352"/>
  </clipPath>
 </defs>
</svg>
