<?xml version="1.0" encoding="utf-8" standalone="no"?>
<!DOCTYPE svg PUBLIC "-//W3C//DTD SVG 1.1//EN"
  "http://www.w3.org/Graphics/SVG/1.1/DTD/svg11.dtd">
<svg xmlns:xlink="http://www.w3.org/1999/xlink" width="324.420465pt" height="208.027352pt" viewBox="0 0 324.420465 208.027352" xmlns="http://www.w3.org/2000/svg" version="1.1">
 <metadata>
  <rdf:RDF xmlns:dc="http://purl.org/dc/elements/1.1/" xmlns:cc="http://creativecommons.org/ns#" xmlns:rdf="http://www.w3.org/1999/02/22-rdf-syntax-ns#">
   <cc:Work>
    <dc:type rdf:resource="http://purl.org/dc/dcmitype/StillImage"/>
    <dc:date>2025-08-04T12:39:15.984235</dc:date>
    <dc:format>image/svg+xml</dc:format>
    <dc:creator>
     <cc:Agent>
      <dc:title>Matplotlib v3.10.3, https://matplotlib.org/</dc:title>
     </cc:Agent>
    </dc:creator>
   </cc:Work>
  </rdf:RDF>
 </metadata>
 <defs>
  <style type="text/css">*{stroke-linejoin: round; stroke-linecap: butt}</style>
 </defs>
 <g id="figure_1">
  <g id="patch_1">
   <path d="M 0 208.027352 
L 324.420465 208.027352 
L 324.420465 0 
L 0 0 
L 0 208.027352 
z
" style="fill: none"/>
  </g>
  <g id="axes_1">
   <g id="patch_2">
    <path d="M 50.844375 170.767352 
L 317.220465 170.767352 
L 317.220465 7.2 
L 50.844375 7.2 
L 50.844375 170.767352 
z
" style="fill: none"/>
   </g>
   <g id="matplotlib.axis_1">
    <g id="xtick_1">
     <g id="line2d_1">
      <path d="M 62.952379 170.767352 
L 62.952379 7.2 
" clip-path="url(#p0cf746f23a)" style="fill: none; stroke-dasharray: 1.85,0.8; stroke-dashoffset: 0; stroke: #838383; stroke-opacity: 0.2; stroke-width: 0.5"/>
     </g>
     <g id="line2d_2"/>
     <g id="text_1">
      <!-- 0 -->
      <g style="fill: #838383" transform="translate(59.352379 183.147352) scale(0.12 -0.12)">
       <defs>
        <path id="IBMPlexSans-Regular-30" d="M 1920 -77 
Q 1120 -77 752 531 
Q 384 1139 384 2234 
Q 384 3328 752 3936 
Q 1120 4544 1920 4544 
Q 2720 4544 3088 3936 
Q 3456 3328 3456 2234 
Q 3456 1139 3088 531 
Q 2720 -77 1920 -77 
z
M 1920 390 
Q 2182 390 2368 499 
Q 2554 608 2669 806 
Q 2784 1005 2838 1273 
Q 2893 1542 2893 1869 
L 2893 2598 
Q 2893 2925 2838 3193 
Q 2784 3462 2669 3660 
Q 2554 3859 2368 3968 
Q 2182 4077 1920 4077 
Q 1658 4077 1472 3968 
Q 1286 3859 1171 3660 
Q 1056 3462 1001 3193 
Q 947 2925 947 2598 
L 947 1869 
Q 947 1542 1001 1273 
Q 1056 1005 1171 806 
Q 1286 608 1472 499 
Q 1658 390 1920 390 
z
" transform="scale(0.015625)"/>
       </defs>
       <use xlink:href="#IBMPlexSans-Regular-30"/>
      </g>
     </g>
    </g>
    <g id="xtick_2">
     <g id="line2d_3">
      <path d="M 111.481454 170.767352 
L 111.481454 7.2 
" clip-path="url(#p0cf746f23a)" style="fill: none; stroke-dasharray: 1.85,0.8; stroke-dashoffset: 0; stroke: #838383; stroke-opacity: 0.2; stroke-width: 0.5"/>
     </g>
     <g id="line2d_4"/>
     <g id="text_2">
      <!-- 100 -->
      <g style="fill: #838383" transform="translate(100.681454 183.147352) scale(0.12 -0.12)">
       <defs>
        <path id="IBMPlexSans-Regular-31" d="M 563 0 
L 563 474 
L 1811 474 
L 1811 4070 
L 1766 4070 
L 640 3021 
L 326 3360 
L 1510 4467 
L 2349 4467 
L 2349 474 
L 3501 474 
L 3501 0 
L 563 0 
z
" transform="scale(0.015625)"/>
       </defs>
       <use xlink:href="#IBMPlexSans-Regular-31"/>
       <use xlink:href="#IBMPlexSans-Regular-30" transform="translate(59.999985 0)"/>
       <use xlink:href="#IBMPlexSans-Regular-30" transform="translate(119.999969 0)"/>
      </g>
     </g>
    </g>
    <g id="xtick_3">
     <g id="line2d_5">
      <path d="M 160.010528 170.767352 
L 160.010528 7.2 
" clip-path="url(#p0cf746f23a)" style="fill: none; stroke-dasharray: 1.85,0.8; stroke-dashoffset: 0; stroke: #838383; stroke-opacity: 0.2; stroke-width: 0.5"/>
     </g>
     <g id="line2d_6"/>
     <g id="text_3">
      <!-- 200 -->
      <g style="fill: #838383" transform="translate(149.210528 183.147352) scale(0.12 -0.12)">
       <defs>
        <path id="IBMPlexSans-Regular-32" d="M 3411 0 
L 480 0 
L 480 550 
L 1939 1894 
Q 2253 2182 2464 2505 
Q 2675 2829 2675 3155 
L 2675 3232 
Q 2675 3603 2470 3833 
Q 2266 4064 1850 4064 
Q 1645 4064 1491 4006 
Q 1338 3949 1226 3846 
Q 1114 3744 1040 3606 
Q 966 3469 922 3309 
L 442 3494 
Q 506 3693 618 3881 
Q 730 4070 899 4217 
Q 1069 4365 1309 4454 
Q 1549 4544 1875 4544 
Q 2202 4544 2458 4448 
Q 2714 4352 2886 4179 
Q 3059 4006 3152 3769 
Q 3245 3533 3245 3245 
Q 3245 2982 3171 2758 
Q 3098 2534 2970 2332 
Q 2842 2131 2659 1939 
Q 2477 1747 2266 1555 
L 1062 474 
L 3411 474 
L 3411 0 
z
" transform="scale(0.015625)"/>
       </defs>
       <use xlink:href="#IBMPlexSans-Regular-32"/>
       <use xlink:href="#IBMPlexSans-Regular-30" transform="translate(59.999985 0)"/>
       <use xlink:href="#IBMPlexSans-Regular-30" transform="translate(119.999969 0)"/>
      </g>
     </g>
    </g>
    <g id="xtick_4">
     <g id="line2d_7">
      <path d="M 208.539602 170.767352 
L 208.539602 7.2 
" clip-path="url(#p0cf746f23a)" style="fill: none; stroke-dasharray: 1.85,0.8; stroke-dashoffset: 0; stroke: #838383; stroke-opacity: 0.2; stroke-width: 0.5"/>
     </g>
     <g id="line2d_8"/>
     <g id="text_4">
      <!-- 300 -->
      <g style="fill: #838383" transform="translate(197.739602 183.147352) scale(0.12 -0.12)">
       <defs>
        <path id="IBMPlexSans-Regular-33" d="M 1670 2573 
Q 2125 2573 2352 2781 
Q 2579 2989 2579 3315 
L 2579 3360 
Q 2579 3712 2358 3888 
Q 2138 4064 1779 4064 
Q 1434 4064 1216 3913 
Q 998 3763 858 3507 
L 461 3814 
Q 544 3949 662 4080 
Q 781 4211 941 4313 
Q 1101 4416 1312 4480 
Q 1523 4544 1792 4544 
Q 2074 4544 2323 4470 
Q 2573 4397 2755 4253 
Q 2938 4109 3043 3897 
Q 3149 3686 3149 3418 
Q 3149 3200 3081 3027 
Q 3014 2854 2899 2726 
Q 2784 2598 2627 2508 
Q 2470 2419 2291 2374 
L 2291 2349 
Q 2470 2310 2640 2224 
Q 2810 2138 2941 2000 
Q 3072 1862 3152 1667 
Q 3232 1472 3232 1222 
Q 3232 934 3123 694 
Q 3014 454 2816 284 
Q 2618 115 2336 19 
Q 2054 -77 1715 -77 
Q 1427 -77 1203 -13 
Q 979 51 806 160 
Q 634 269 502 403 
Q 371 538 269 685 
L 672 992 
Q 755 858 854 749 
Q 954 640 1075 563 
Q 1197 486 1350 444 
Q 1504 403 1709 403 
Q 2182 403 2425 617 
Q 2669 832 2669 1229 
L 2669 1280 
Q 2669 1677 2425 1891 
Q 2182 2106 1709 2106 
L 1184 2106 
L 1184 2573 
L 1670 2573 
z
" transform="scale(0.015625)"/>
       </defs>
       <use xlink:href="#IBMPlexSans-Regular-33"/>
       <use xlink:href="#IBMPlexSans-Regular-30" transform="translate(59.999985 0)"/>
       <use xlink:href="#IBMPlexSans-Regular-30" transform="translate(119.999969 0)"/>
      </g>
     </g>
    </g>
    <g id="xtick_5">
     <g id="line2d_9">
      <path d="M 257.068677 170.767352 
L 257.068677 7.2 
" clip-path="url(#p0cf746f23a)" style="fill: none; stroke-dasharray: 1.85,0.8; stroke-dashoffset: 0; stroke: #838383; stroke-opacity: 0.2; stroke-width: 0.5"/>
     </g>
     <g id="line2d_10"/>
     <g id="text_5">
      <!-- 400 -->
      <g style="fill: #838383" transform="translate(246.268677 183.147352) scale(0.12 -0.12)">
       <defs>
        <path id="IBMPlexSans-Regular-34" d="M 2400 0 
L 2400 877 
L 243 877 
L 243 1350 
L 2112 4467 
L 2912 4467 
L 2912 1325 
L 3558 1325 
L 3558 877 
L 2912 877 
L 2912 0 
L 2400 0 
z
M 749 1325 
L 2400 1325 
L 2400 4051 
L 2368 4051 
L 749 1325 
z
" transform="scale(0.015625)"/>
       </defs>
       <use xlink:href="#IBMPlexSans-Regular-34"/>
       <use xlink:href="#IBMPlexSans-Regular-30" transform="translate(59.999985 0)"/>
       <use xlink:href="#IBMPlexSans-Regular-30" transform="translate(119.999969 0)"/>
      </g>
     </g>
    </g>
    <g id="xtick_6">
     <g id="line2d_11">
      <path d="M 305.597751 170.767352 
L 305.597751 7.2 
" clip-path="url(#p0cf746f23a)" style="fill: none; stroke-dasharray: 1.85,0.8; stroke-dashoffset: 0; stroke: #838383; stroke-opacity: 0.2; stroke-width: 0.5"/>
     </g>
     <g id="line2d_12"/>
     <g id="text_6">
      <!-- 500 -->
      <g style="fill: #838383" transform="translate(294.797751 183.147352) scale(0.12 -0.12)">
       <defs>
        <path id="IBMPlexSans-Regular-35" d="M 3187 3994 
L 1229 3994 
L 1101 2291 
L 1146 2291 
Q 1306 2515 1507 2649 
Q 1709 2784 2061 2784 
Q 2349 2784 2592 2688 
Q 2835 2592 3014 2416 
Q 3194 2240 3293 1984 
Q 3392 1728 3392 1402 
Q 3392 1075 3289 803 
Q 3187 531 2992 336 
Q 2797 141 2518 32 
Q 2240 -77 1888 -77 
Q 1606 -77 1392 -13 
Q 1178 51 1011 160 
Q 845 269 720 403 
Q 595 538 493 685 
L 896 992 
Q 979 858 1072 749 
Q 1165 640 1277 563 
Q 1389 486 1536 444 
Q 1683 403 1888 403 
Q 2349 403 2585 646 
Q 2822 890 2822 1331 
L 2822 1395 
Q 2822 1837 2585 2080 
Q 2349 2323 1888 2323 
Q 1581 2323 1405 2211 
Q 1229 2099 1088 1946 
L 634 2010 
L 794 4467 
L 3187 4467 
L 3187 3994 
z
" transform="scale(0.015625)"/>
       </defs>
       <use xlink:href="#IBMPlexSans-Regular-35"/>
       <use xlink:href="#IBMPlexSans-Regular-30" transform="translate(59.999985 0)"/>
       <use xlink:href="#IBMPlexSans-Regular-30" transform="translate(119.999969 0)"/>
      </g>
     </g>
    </g>
    <g id="text_7">
     <!-- draw -->
     <g style="fill: #bdbdbd" transform="translate(170.538045 198.427352) scale(0.12 -0.12)">
      <defs>
       <path id="IBMPlexSans-Regular-64" d="M 2656 538 
L 2630 538 
Q 2330 -77 1664 -77 
Q 1357 -77 1107 44 
Q 858 166 682 390 
Q 506 614 413 934 
Q 320 1254 320 1651 
Q 320 2048 413 2368 
Q 506 2688 682 2912 
Q 858 3136 1107 3257 
Q 1357 3379 1664 3379 
Q 2010 3379 2256 3228 
Q 2502 3078 2630 2765 
L 2656 2765 
L 2656 4736 
L 3168 4736 
L 3168 0 
L 2656 0 
L 2656 538 
z
M 1805 384 
Q 1978 384 2134 429 
Q 2291 474 2406 560 
Q 2522 646 2589 771 
Q 2656 896 2656 1056 
L 2656 2285 
Q 2656 2419 2589 2537 
Q 2522 2656 2406 2739 
Q 2291 2822 2134 2870 
Q 1978 2918 1805 2918 
Q 1370 2918 1120 2646 
Q 870 2374 870 1933 
L 870 1370 
Q 870 928 1120 656 
Q 1370 384 1805 384 
z
" transform="scale(0.015625)"/>
       <path id="IBMPlexSans-Regular-72" d="M 544 0 
L 544 3302 
L 1056 3302 
L 1056 2694 
L 1088 2694 
Q 1178 2931 1408 3116 
Q 1638 3302 2042 3302 
L 2240 3302 
L 2240 2790 
L 1939 2790 
Q 1523 2790 1289 2633 
Q 1056 2477 1056 2240 
L 1056 0 
L 544 0 
z
" transform="scale(0.015625)"/>
       <path id="IBMPlexSans-Regular-61" d="M 2944 0 
Q 2656 0 2531 153 
Q 2406 307 2374 538 
L 2342 538 
Q 2234 230 1984 76 
Q 1734 -77 1389 -77 
Q 864 -77 573 192 
Q 282 461 282 922 
Q 282 1389 624 1638 
Q 966 1888 1690 1888 
L 2342 1888 
L 2342 2214 
Q 2342 2566 2150 2752 
Q 1958 2938 1562 2938 
Q 1261 2938 1059 2803 
Q 858 2669 723 2445 
L 416 2733 
Q 550 3002 844 3190 
Q 1139 3379 1587 3379 
Q 2189 3379 2521 3084 
Q 2854 2790 2854 2266 
L 2854 448 
L 3232 448 
L 3232 0 
L 2944 0 
z
M 1472 358 
Q 1664 358 1824 403 
Q 1984 448 2099 531 
Q 2214 614 2278 723 
Q 2342 832 2342 960 
L 2342 1504 
L 1664 1504 
Q 1222 1504 1020 1376 
Q 819 1248 819 1005 
L 819 870 
Q 819 627 995 492 
Q 1171 358 1472 358 
z
" transform="scale(0.015625)"/>
       <path id="IBMPlexSans-Regular-77" d="M 198 3302 
L 698 3302 
L 1050 1875 
L 1402 429 
L 1414 429 
L 1818 1875 
L 2234 3302 
L 2688 3302 
L 3117 1875 
L 3526 429 
L 3539 429 
L 3878 1875 
L 4237 3302 
L 4717 3302 
L 3840 0 
L 3206 0 
L 2746 1587 
L 2458 2592 
L 2445 2592 
L 2163 1587 
L 1702 0 
L 1082 0 
L 198 3302 
z
" transform="scale(0.015625)"/>
      </defs>
      <use xlink:href="#IBMPlexSans-Regular-64"/>
      <use xlink:href="#IBMPlexSans-Regular-72" transform="translate(57.999985 0)"/>
      <use xlink:href="#IBMPlexSans-Regular-61" transform="translate(94.699982 0)"/>
      <use xlink:href="#IBMPlexSans-Regular-77" transform="translate(148.099976 0)"/>
     </g>
    </g>
   </g>
   <g id="matplotlib.axis_2">
    <g id="ytick_1">
     <g id="line2d_13">
      <path d="M 50.844375 153.478567 
L 317.220465 153.478567 
" clip-path="url(#p0cf746f23a)" style="fill: none; stroke-dasharray: 1.85,0.8; stroke-dashoffset: 0; stroke: #838383; stroke-opacity: 0.2; stroke-width: 0.5"/>
     </g>
     <g id="line2d_14"/>
     <g id="text_8">
      <!-- 0.01 -->
      <g style="fill: #838383" transform="translate(22.48 157.918567) scale(0.12 -0.12)">
       <defs>
        <path id="IBMPlexSans-Regular-2e" d="M 870 -77 
Q 666 -77 573 25 
Q 480 128 480 294 
L 480 378 
Q 480 544 573 646 
Q 666 749 870 749 
Q 1075 749 1168 646 
Q 1261 544 1261 378 
L 1261 294 
Q 1261 128 1168 25 
Q 1075 -77 870 -77 
z
" transform="scale(0.015625)"/>
       </defs>
       <use xlink:href="#IBMPlexSans-Regular-30"/>
       <use xlink:href="#IBMPlexSans-Regular-2e" transform="translate(59.999985 0)"/>
       <use xlink:href="#IBMPlexSans-Regular-30" transform="translate(87.199982 0)"/>
       <use xlink:href="#IBMPlexSans-Regular-31" transform="translate(147.199966 0)"/>
      </g>
     </g>
    </g>
    <g id="ytick_2">
     <g id="line2d_15">
      <path d="M 50.844375 118.910026 
L 317.220465 118.910026 
" clip-path="url(#p0cf746f23a)" style="fill: none; stroke-dasharray: 1.85,0.8; stroke-dashoffset: 0; stroke: #838383; stroke-opacity: 0.2; stroke-width: 0.5"/>
     </g>
     <g id="line2d_16"/>
     <g id="text_9">
      <!-- 0.02 -->
      <g style="fill: #838383" transform="translate(22.48 123.350026) scale(0.12 -0.12)">
       <use xlink:href="#IBMPlexSans-Regular-30"/>
       <use xlink:href="#IBMPlexSans-Regular-2e" transform="translate(59.999985 0)"/>
       <use xlink:href="#IBMPlexSans-Regular-30" transform="translate(87.199982 0)"/>
       <use xlink:href="#IBMPlexSans-Regular-32" transform="translate(147.199966 0)"/>
      </g>
     </g>
    </g>
    <g id="ytick_3">
     <g id="line2d_17">
      <path d="M 50.844375 84.341485 
L 317.220465 84.341485 
" clip-path="url(#p0cf746f23a)" style="fill: none; stroke-dasharray: 1.85,0.8; stroke-dashoffset: 0; stroke: #838383; stroke-opacity: 0.2; stroke-width: 0.5"/>
     </g>
     <g id="line2d_18"/>
     <g id="text_10">
      <!-- 0.03 -->
      <g style="fill: #838383" transform="translate(22.48 88.781485) scale(0.12 -0.12)">
       <use xlink:href="#IBMPlexSans-Regular-30"/>
       <use xlink:href="#IBMPlexSans-Regular-2e" transform="translate(59.999985 0)"/>
       <use xlink:href="#IBMPlexSans-Regular-30" transform="translate(87.199982 0)"/>
       <use xlink:href="#IBMPlexSans-Regular-33" transform="translate(147.199966 0)"/>
      </g>
     </g>
    </g>
    <g id="ytick_4">
     <g id="line2d_19">
      <path d="M 50.844375 49.772943 
L 317.220465 49.772943 
" clip-path="url(#p0cf746f23a)" style="fill: none; stroke-dasharray: 1.85,0.8; stroke-dashoffset: 0; stroke: #838383; stroke-opacity: 0.2; stroke-width: 0.5"/>
     </g>
     <g id="line2d_20"/>
     <g id="text_11">
      <!-- 0.04 -->
      <g style="fill: #838383" transform="translate(22.48 54.212943) scale(0.12 -0.12)">
       <use xlink:href="#IBMPlexSans-Regular-30"/>
       <use xlink:href="#IBMPlexSans-Regular-2e" transform="translate(59.999985 0)"/>
       <use xlink:href="#IBMPlexSans-Regular-30" transform="translate(87.199982 0)"/>
       <use xlink:href="#IBMPlexSans-Regular-34" transform="translate(147.199966 0)"/>
      </g>
     </g>
    </g>
    <g id="ytick_5">
     <g id="line2d_21">
      <path d="M 50.844375 15.204402 
L 317.220465 15.204402 
" clip-path="url(#p0cf746f23a)" style="fill: none; stroke-dasharray: 1.85,0.8; stroke-dashoffset: 0; stroke: #838383; stroke-opacity: 0.2; stroke-width: 0.5"/>
     </g>
     <g id="line2d_22"/>
     <g id="text_12">
      <!-- 0.05 -->
      <g style="fill: #838383" transform="translate(22.48 19.644402) scale(0.12 -0.12)">
       <use xlink:href="#IBMPlexSans-Regular-30"/>
       <use xlink:href="#IBMPlexSans-Regular-2e" transform="translate(59.999985 0)"/>
       <use xlink:href="#IBMPlexSans-Regular-30" transform="translate(87.199982 0)"/>
       <use xlink:href="#IBMPlexSans-Regular-35" transform="translate(147.199966 0)"/>
      </g>
     </g>
    </g>
    <g id="text_13">
     <!-- train_dtu -->
     <g style="fill: #bdbdbd" transform="translate(16.08 113.787113) rotate(-90) scale(0.12 -0.12)">
      <defs>
       <path id="IBMPlexSans-Regular-74" d="M 1274 0 
Q 1005 0 867 150 
Q 730 301 730 544 
L 730 2854 
L 186 2854 
L 186 3302 
L 493 3302 
Q 659 3302 720 3369 
Q 781 3437 781 3603 
L 781 4218 
L 1242 4218 
L 1242 3302 
L 1965 3302 
L 1965 2854 
L 1242 2854 
L 1242 448 
L 1914 448 
L 1914 0 
L 1274 0 
z
" transform="scale(0.015625)"/>
       <path id="IBMPlexSans-Regular-69" d="M 800 4077 
Q 634 4077 560 4157 
Q 486 4237 486 4365 
L 486 4448 
Q 486 4576 560 4656 
Q 634 4736 800 4736 
Q 966 4736 1040 4656 
Q 1114 4576 1114 4448 
L 1114 4365 
Q 1114 4237 1040 4157 
Q 966 4077 800 4077 
z
M 544 3302 
L 1056 3302 
L 1056 0 
L 544 0 
L 544 3302 
z
" transform="scale(0.015625)"/>
       <path id="IBMPlexSans-Regular-6e" d="M 544 0 
L 544 3302 
L 1056 3302 
L 1056 2765 
L 1082 2765 
Q 1203 3046 1424 3212 
Q 1645 3379 2016 3379 
Q 2528 3379 2825 3049 
Q 3123 2720 3123 2118 
L 3123 0 
L 2611 0 
L 2611 2029 
Q 2611 2918 1862 2918 
Q 1709 2918 1565 2880 
Q 1421 2842 1305 2765 
Q 1190 2688 1123 2569 
Q 1056 2451 1056 2291 
L 1056 0 
L 544 0 
z
" transform="scale(0.015625)"/>
       <path id="IBMPlexSans-Regular-5f" d="M 192 -1056 
L 192 -608 
L 3424 -608 
L 3424 -1056 
L 192 -1056 
z
" transform="scale(0.015625)"/>
       <path id="IBMPlexSans-Regular-75" d="M 2579 538 
L 2554 538 
Q 2502 422 2428 310 
Q 2355 198 2246 112 
Q 2138 26 1984 -25 
Q 1830 -77 1626 -77 
Q 1114 -77 813 252 
Q 512 582 512 1184 
L 512 3302 
L 1024 3302 
L 1024 1274 
Q 1024 384 1779 384 
Q 1933 384 2077 422 
Q 2221 461 2333 537 
Q 2445 614 2512 732 
Q 2579 851 2579 1018 
L 2579 3302 
L 3091 3302 
L 3091 0 
L 2579 0 
L 2579 538 
z
" transform="scale(0.015625)"/>
      </defs>
      <use xlink:href="#IBMPlexSans-Regular-74"/>
      <use xlink:href="#IBMPlexSans-Regular-72" transform="translate(35.099991 0)"/>
      <use xlink:href="#IBMPlexSans-Regular-61" transform="translate(71.799988 0)"/>
      <use xlink:href="#IBMPlexSans-Regular-69" transform="translate(125.199982 0)"/>
      <use xlink:href="#IBMPlexSans-Regular-6e" transform="translate(150.199966 0)"/>
      <use xlink:href="#IBMPlexSans-Regular-5f" transform="translate(206.999954 0)"/>
      <use xlink:href="#IBMPlexSans-Regular-64" transform="translate(263.499939 0)"/>
      <use xlink:href="#IBMPlexSans-Regular-74" transform="translate(321.499924 0)"/>
      <use xlink:href="#IBMPlexSans-Regular-75" transform="translate(356.599915 0)"/>
     </g>
    </g>
   </g>
   <g id="line2d_23">
    <path d="M 62.952379 143.06796 
L 63.43767 156.79369 
L 63.922961 158.555821 
L 64.408251 159.410816 
L 64.893542 162.974545 
L 65.378833 158.399112 
L 65.864124 160.527526 
L 66.349414 157.645665 
L 66.834705 159.002474 
L 67.319996 157.199295 
L 67.805287 157.927971 
L 68.290577 159.089905 
L 68.775868 158.226124 
L 69.746449 158.3088 
L 70.23174 154.999293 
L 70.717031 154.447637 
L 71.202322 158.524567 
L 71.687612 158.602201 
L 72.172903 156.955441 
L 72.658194 158.525861 
L 73.143485 158.064515 
L 73.628775 14.63488 
L 74.114066 156.867579 
L 74.599357 157.167029 
L 75.084648 156.181541 
L 75.569938 160.402212 
L 76.54052 156.027996 
L 77.511101 159.261163 
L 77.996392 155.371048 
L 78.481683 158.191844 
L 78.966974 158.756753 
L 79.452264 160.889054 
L 79.937555 158.619341 
L 80.422846 157.399937 
L 80.908137 157.222919 
L 81.393427 157.318266 
L 81.878718 155.892174 
L 82.364009 158.368865 
L 82.8493 158.348122 
L 83.33459 156.724262 
L 83.819881 157.53922 
L 84.305172 155.540578 
L 84.790463 157.098468 
L 85.275753 156.08273 
L 85.761044 157.607636 
L 86.731626 158.301021 
L 87.216916 157.474693 
L 87.702207 159.017889 
L 88.187498 157.788112 
L 88.672789 160.126963 
L 89.158079 158.530182 
L 89.64337 158.33876 
L 90.128661 157.441133 
L 90.613952 157.702559 
L 91.099242 159.243302 
L 91.584533 157.637735 
L 92.069824 157.778608 
L 92.555114 158.678685 
L 93.040405 157.646379 
L 93.525696 158.017272 
L 94.010987 156.127812 
L 94.496277 157.17625 
L 94.981568 155.942732 
L 95.466859 158.914184 
L 95.95215 158.997146 
L 96.43744 158.481787 
L 97.408022 157.971897 
L 97.893313 158.709653 
L 98.378603 160.127394 
L 98.863894 158.18421 
L 99.349185 158.236494 
L 99.834476 157.847884 
L 100.319766 160.365054 
L 100.805057 158.567057 
L 101.290348 157.792574 
L 101.775639 158.001716 
L 102.260929 161.278813 
L 102.74622 159.044392 
L 103.231511 157.991346 
L 103.716802 158.584487 
L 104.202092 159.655674 
L 104.687383 157.938914 
L 105.172674 156.992027 
L 105.657965 156.984538 
L 106.143255 158.875866 
L 106.628546 159.748868 
L 107.113837 157.454095 
L 108.084418 158.742491 
L 108.569709 159.085443 
L 109.055 158.062068 
L 109.540291 157.619301 
L 110.025581 158.842597 
L 110.510872 158.88869 
L 110.996163 157.533889 
L 111.481454 158.585495 
L 111.966744 157.390144 
L 112.452035 158.693234 
L 112.937326 158.201637 
L 113.422617 158.797801 
L 113.907907 158.633169 
L 114.393198 158.264008 
L 114.878489 159.440055 
L 115.363779 158.629572 
L 115.84907 159.087313 
L 116.334361 157.037833 
L 116.819652 159.405343 
L 117.304942 159.61218 
L 117.790233 158.211862 
L 118.275524 157.794596 
L 118.760815 158.418126 
L 119.246105 158.262279 
L 119.731396 158.720454 
L 120.216687 158.603785 
L 120.701978 159.239554 
L 121.187268 157.488517 
L 122.15785 158.884514 
L 122.643141 158.929882 
L 123.128431 155.437594 
L 123.613722 158.082666 
L 124.099013 159.14507 
L 124.584304 159.44841 
L 125.069594 158.122851 
L 125.554885 159.093363 
L 126.040176 157.056557 
L 126.525467 159.115255 
L 127.010757 158.512752 
L 127.496048 158.225838 
L 127.981339 158.346683 
L 128.46663 155.678135 
L 128.95192 162.556698 
L 129.437211 157.496585 
L 129.922502 159.613332 
L 130.407793 156.857064 
L 130.893083 157.38856 
L 131.378374 155.754613 
L 131.863665 158.67854 
L 132.348956 158.275958 
L 132.834246 159.285795 
L 133.319537 158.77663 
L 133.804828 158.026635 
L 134.290119 155.125469 
L 135.2607 158.042191 
L 135.745991 158.071143 
L 136.231281 158.481787 
L 136.716572 156.216395 
L 137.201863 157.313514 
L 137.687154 157.771841 
L 138.172444 156.226906 
L 138.657735 156.462264 
L 139.143026 158.149926 
L 139.628317 155.389052 
L 140.113607 159.328714 
L 140.598898 158.962579 
L 141.084189 162.339926 
L 141.56948 156.533275 
L 142.05477 158.880618 
L 142.540061 157.648253 
L 143.025352 159.034163 
L 143.510643 155.79927 
L 143.995933 157.566875 
L 144.481224 158.288633 
L 144.966515 158.319459 
L 145.451806 155.061373 
L 145.937096 158.121988 
L 146.422387 157.198715 
L 146.907678 158.328535 
L 147.392969 155.736327 
L 147.878259 155.033432 
L 148.36355 158.100959 
L 148.848841 155.231769 
L 149.819422 157.700685 
L 150.304713 157.469361 
L 150.790004 158.274232 
L 151.275295 160.833312 
L 151.760585 158.269194 
L 152.245876 158.357339 
L 152.731167 157.040422 
L 153.216458 156.588585 
L 153.701748 158.82517 
L 154.187039 157.066641 
L 154.67233 158.445926 
L 155.157621 157.005709 
L 155.642911 156.741551 
L 156.128202 156.961919 
L 156.613493 156.305123 
L 157.098784 159.027393 
L 157.584074 157.927971 
L 158.069365 159.494792 
L 158.554656 159.441787 
L 159.039946 158.138552 
L 159.525237 155.910319 
L 160.010528 158.099948 
L 160.495819 157.42154 
L 160.981109 157.678213 
L 161.4664 158.815231 
L 161.951691 158.978567 
L 162.922272 158.816815 
L 163.407563 157.567593 
L 163.892854 158.694959 
L 164.378145 158.134087 
L 164.863435 158.304189 
L 165.348726 155.662148 
L 165.834017 158.063365 
L 166.319308 157.095155 
L 166.804598 157.804673 
L 167.289889 160.270421 
L 167.77518 157.915152 
L 168.260471 159.266492 
L 168.745761 158.003731 
L 169.231052 157.657332 
L 169.716343 153.310184 
L 170.201634 147.029804 
L 170.686924 157.207646 
L 171.172215 162.122577 
L 171.657506 161.158256 
L 172.142797 158.285323 
L 172.628087 112.654849 
L 173.113378 156.355819 
L 173.598669 154.381095 
L 174.56925 161.542257 
L 175.054541 130.984097 
L 175.539832 159.436746 
L 176.025123 157.520351 
L 176.510413 157.885913 
L 176.995704 158.714695 
L 177.480995 156.218986 
L 177.966286 155.258848 
L 178.451576 158.741628 
L 178.936867 157.952455 
L 179.422158 158.807019 
L 179.907449 157.997254 
L 180.392739 157.7992 
L 180.87803 157.751671 
L 181.363321 159.004062 
L 181.848611 158.926711 
L 182.333902 159.380135 
L 182.819193 158.835102 
L 183.304484 159.278735 
L 183.789774 158.145754 
L 184.275065 158.758769 
L 184.760356 158.491004 
L 185.245647 158.536376 
L 185.730937 156.02742 
L 186.216228 162.467109 
L 186.701519 158.14143 
L 187.18681 158.282729 
L 187.6721 158.959118 
L 188.157391 157.694919 
L 188.642682 157.370408 
L 189.127973 158.692223 
L 189.613263 157.681812 
L 190.098554 157.499463 
L 190.583845 158.182913 
L 191.069136 158.345385 
L 191.554426 158.193717 
L 192.525008 159.794239 
L 193.010299 154.005739 
L 193.495589 156.912951 
L 193.98088 158.325222 
L 194.466171 159.234951 
L 194.951462 157.946696 
L 195.436752 158.747533 
L 196.407334 157.927109 
L 197.377915 158.17499 
L 197.863206 158.794923 
L 198.348497 157.162854 
L 198.833788 157.763335 
L 199.319078 158.623951 
L 200.28966 158.858443 
L 200.774951 157.95836 
L 201.260241 158.144022 
L 201.745532 158.706627 
L 202.230823 156.872334 
L 202.716113 156.259751 
L 203.201404 158.026345 
L 203.686695 158.684303 
L 204.171986 157.305015 
L 204.657276 157.777453 
L 205.627858 158.326803 
L 206.113149 157.644795 
L 206.598439 159.726113 
L 207.08373 158.181471 
L 207.569021 158.131347 
L 208.054312 158.238654 
L 208.539602 158.714984 
L 209.024893 157.925525 
L 209.510184 159.485572 
L 209.995475 157.808276 
L 210.480765 158.047809 
L 211.451347 156.554304 
L 211.936638 154.502661 
L 212.421928 158.800538 
L 212.907219 161.402399 
L 213.39251 154.60795 
L 213.877801 157.925376 
L 214.363091 157.961241 
L 214.848382 156.911077 
L 215.333673 157.298389 
L 215.818964 157.306168 
L 216.304254 158.703748 
L 216.789545 157.414341 
L 217.274836 157.906797 
L 217.760127 159.049144 
L 218.245417 158.161452 
L 218.730708 157.544838 
L 219.215999 156.266808 
L 219.70129 159.434292 
L 220.18658 155.737911 
L 220.671871 158.573973 
L 221.157162 157.601297 
L 221.642453 155.487863 
L 222.127743 159.759096 
L 222.613034 157.659199 
L 223.098325 158.772451 
L 223.583616 159.359395 
L 224.068906 159.183095 
L 224.554197 159.292708 
L 225.039488 158.58506 
L 225.524778 158.384418 
L 226.010069 157.88937 
L 226.49536 157.940646 
L 226.980651 155.623833 
L 227.465941 159.386329 
L 227.951232 158.812205 
L 228.436523 159.2688 
L 228.921814 156.202715 
L 229.407104 154.466648 
L 229.892395 158.805721 
L 230.377686 157.649695 
L 230.862977 159.195339 
L 231.348267 158.872267 
L 231.833558 156.649368 
L 232.318849 157.735828 
L 233.28943 157.142401 
L 233.774721 157.029475 
L 234.260012 159.673253 
L 234.745303 158.707921 
L 235.230593 158.209415 
L 235.715884 157.152194 
L 236.201175 155.443934 
L 236.686466 157.628663 
L 237.171756 157.203036 
L 237.657047 157.187196 
L 238.142338 158.736728 
L 238.627629 157.860852 
L 239.112919 155.809064 
L 239.59821 156.508067 
L 240.083501 158.265447 
L 240.568792 154.49402 
L 241.054082 162.869256 
L 242.509955 156.423518 
L 242.995245 156.404217 
L 243.480536 159.686935 
L 243.965827 158.169662 
L 244.451118 159.76529 
L 244.936408 150.436536 
L 245.421699 157.952455 
L 245.90699 157.169193 
L 246.392281 158.502958 
L 246.877571 158.679983 
L 247.362862 157.678213 
L 247.848153 158.792901 
L 248.818734 155.651923 
L 249.789316 159.029553 
L 250.274606 159.129514 
L 250.759897 158.276682 
L 251.245188 155.942874 
L 251.730479 156.354094 
L 252.215769 157.493848 
L 252.70106 159.708251 
L 253.671642 156.706114 
L 254.156932 157.569753 
L 254.642223 158.840292 
L 255.127514 157.920483 
L 255.612805 157.487364 
L 256.098095 158.055587 
L 256.583386 162.219223 
L 257.068677 158.850085 
L 257.553968 159.231062 
L 258.039258 158.422298 
L 258.524549 158.97914 
L 259.00984 159.065131 
L 259.495131 158.270778 
L 259.980421 156.588006 
L 260.465712 158.22756 
L 260.951003 157.123676 
L 261.436294 158.338612 
L 261.921584 157.656466 
L 262.406875 159.31489 
L 262.892166 163.160642 
L 263.377457 159.376104 
L 263.862747 158.513331 
L 264.348038 156.944208 
L 264.833329 158.938668 
L 265.31862 157.15882 
L 265.80391 156.323412 
L 266.289201 159.114679 
L 266.774492 156.366195 
L 267.259783 157.682534 
L 267.745073 158.34668 
L 268.230364 157.363062 
L 268.715655 159.394828 
L 269.200945 156.889333 
L 269.686236 158.685597 
L 270.171527 158.431515 
L 270.656818 157.633276 
L 271.142108 157.486502 
L 271.627399 158.869099 
L 272.11269 159.362277 
L 272.597981 157.650413 
L 273.083271 159.785167 
L 273.568562 158.475158 
L 274.053853 155.241849 
L 274.539144 158.602342 
L 275.024434 156.989722 
L 275.509725 158.070136 
L 275.995016 158.228429 
L 276.480307 160.114864 
L 276.965597 157.901752 
L 277.450888 158.181902 
L 277.936179 156.214234 
L 278.42147 157.747206 
L 278.90676 158.206099 
L 279.392051 154.224816 
L 280.362633 157.137069 
L 280.847923 158.241826 
L 281.333214 157.924945 
L 281.818505 156.282075 
L 282.303796 158.598312 
L 282.789086 162.109181 
L 283.274377 160.247228 
L 283.759668 159.517116 
L 284.244959 158.184787 
L 284.730249 159.120293 
L 285.21554 156.370081 
L 285.700831 156.80262 
L 286.186122 157.404831 
L 286.671412 152.085887 
L 287.156703 158.502527 
L 288.127285 157.745622 
L 288.612575 158.377506 
L 289.097866 158.199049 
L 289.583157 158.652904 
L 290.068448 157.770392 
L 290.553738 157.845151 
L 291.039029 155.130656 
L 291.52432 158.111905 
L 292.00961 159.16365 
L 292.494901 151.608701 
L 292.980192 158.313841 
L 293.465483 157.01925 
L 293.950773 158.931898 
L 294.921355 157.551892 
L 295.406646 158.39868 
L 295.891936 142.727607 
L 296.377227 157.486502 
L 296.862518 158.426187 
L 297.347809 158.582465 
L 297.833099 157.461725 
L 298.31839 158.323635 
L 298.803681 156.323992 
L 299.774262 159.089332 
L 300.259553 158.031821 
L 300.744844 154.671901 
L 301.230135 158.493596 
L 301.715425 157.250716 
L 302.200716 160.531415 
L 302.686007 156.935423 
L 303.171298 158.091452 
L 303.656588 163.332472 
L 304.141879 157.850911 
L 304.62717 157.787681 
L 305.112461 158.50714 
L 305.112461 158.50714 
" clip-path="url(#p0cf746f23a)" style="fill: none; stroke: #2196f3; stroke-width: 1.5; stroke-linecap: round"/>
   </g>
   <g id="patch_3">
    <path d="M 50.844375 170.767352 
L 50.844375 7.2 
" style="fill: none"/>
   </g>
   <g id="patch_4">
    <path d="M 317.220465 170.767352 
L 317.220465 7.2 
" style="fill: none"/>
   </g>
   <g id="patch_5">
    <path d="M 50.844375 170.767352 
L 317.220465 170.767352 
" style="fill: none"/>
   </g>
   <g id="patch_6">
    <path d="M 50.844375 7.2 
L 317.220465 7.2 
" style="fill: none"/>
   </g>
  </g>
 </g>
 <defs>
  <clipPath id="p0cf746f23a">
   <rect x="50.844375" y="7.2" width="266.37609" height="163.567352"/>
  </clipPath>
 </defs>
</svg>
