<?xml version="1.0" encoding="utf-8" standalone="no"?>
<!DOCTYPE svg PUBLIC "-//W3C//DTD SVG 1.1//EN"
  "http://www.w3.org/Graphics/SVG/1.1/DTD/svg11.dtd">
<svg xmlns:xlink="http://www.w3.org/1999/xlink" width="331.620465pt" height="208.027352pt" viewBox="0 0 331.620465 208.027352" xmlns="http://www.w3.org/2000/svg" version="1.1">
 <metadata>
  <rdf:RDF xmlns:dc="http://purl.org/dc/elements/1.1/" xmlns:cc="http://creativecommons.org/ns#" xmlns:rdf="http://www.w3.org/1999/02/22-rdf-syntax-ns#">
   <cc:Work>
    <dc:type rdf:resource="http://purl.org/dc/dcmitype/StillImage"/>
    <dc:date>2025-08-01T17:19:27.431457</dc:date>
    <dc:format>image/svg+xml</dc:format>
    <dc:creator>
     <cc:Agent>
      <dc:title>Matplotlib v3.10.3, https://matplotlib.org/</dc:title>
     </cc:Agent>
    </dc:creator>
   </cc:Work>
  </rdf:RDF>
 </metadata>
 <defs>
  <style type="text/css">*{stroke-linejoin: round; stroke-linecap: butt}</style>
 </defs>
 <g id="figure_1">
  <g id="patch_1">
   <path d="M 0 208.027352 
L 331.620465 208.027352 
L 331.620465 0 
L 0 0 
L 0 208.027352 
z
" style="fill: none"/>
  </g>
  <g id="axes_1">
   <g id="patch_2">
    <path d="M 58.044375 170.767352 
L 324.420465 170.767352 
L 324.420465 7.2 
L 58.044375 7.2 
L 58.044375 170.767352 
z
" style="fill: none"/>
   </g>
   <g id="matplotlib.axis_1">
    <g id="xtick_1">
     <g id="line2d_1">
      <path d="M 70.152379 170.767352 
L 70.152379 7.2 
" clip-path="url(#p2f84386bba)" style="fill: none; stroke-dasharray: 1.85,0.8; stroke-dashoffset: 0; stroke: #838383; stroke-opacity: 0.2; stroke-width: 0.5"/>
     </g>
     <g id="line2d_2"/>
     <g id="text_1">
      <!-- 0 -->
      <g style="fill: #838383" transform="translate(66.552379 183.147352) scale(0.12 -0.12)">
       <defs>
        <path id="IBMPlexSans-Regular-30" d="M 1920 -77 
Q 1120 -77 752 531 
Q 384 1139 384 2234 
Q 384 3328 752 3936 
Q 1120 4544 1920 4544 
Q 2720 4544 3088 3936 
Q 3456 3328 3456 2234 
Q 3456 1139 3088 531 
Q 2720 -77 1920 -77 
z
M 1920 390 
Q 2182 390 2368 499 
Q 2554 608 2669 806 
Q 2784 1005 2838 1273 
Q 2893 1542 2893 1869 
L 2893 2598 
Q 2893 2925 2838 3193 
Q 2784 3462 2669 3660 
Q 2554 3859 2368 3968 
Q 2182 4077 1920 4077 
Q 1658 4077 1472 3968 
Q 1286 3859 1171 3660 
Q 1056 3462 1001 3193 
Q 947 2925 947 2598 
L 947 1869 
Q 947 1542 1001 1273 
Q 1056 1005 1171 806 
Q 1286 608 1472 499 
Q 1658 390 1920 390 
z
" transform="scale(0.015625)"/>
       </defs>
       <use xlink:href="#IBMPlexSans-Regular-30"/>
      </g>
     </g>
    </g>
    <g id="xtick_2">
     <g id="line2d_3">
      <path d="M 130.996621 170.767352 
L 130.996621 7.2 
" clip-path="url(#p2f84386bba)" style="fill: none; stroke-dasharray: 1.85,0.8; stroke-dashoffset: 0; stroke: #838383; stroke-opacity: 0.2; stroke-width: 0.5"/>
     </g>
     <g id="line2d_4"/>
     <g id="text_2">
      <!-- 50 -->
      <g style="fill: #838383" transform="translate(123.796621 183.147352) scale(0.12 -0.12)">
       <defs>
        <path id="IBMPlexSans-Regular-35" d="M 3187 3994 
L 1229 3994 
L 1101 2291 
L 1146 2291 
Q 1306 2515 1507 2649 
Q 1709 2784 2061 2784 
Q 2349 2784 2592 2688 
Q 2835 2592 3014 2416 
Q 3194 2240 3293 1984 
Q 3392 1728 3392 1402 
Q 3392 1075 3289 803 
Q 3187 531 2992 336 
Q 2797 141 2518 32 
Q 2240 -77 1888 -77 
Q 1606 -77 1392 -13 
Q 1178 51 1011 160 
Q 845 269 720 403 
Q 595 538 493 685 
L 896 992 
Q 979 858 1072 749 
Q 1165 640 1277 563 
Q 1389 486 1536 444 
Q 1683 403 1888 403 
Q 2349 403 2585 646 
Q 2822 890 2822 1331 
L 2822 1395 
Q 2822 1837 2585 2080 
Q 2349 2323 1888 2323 
Q 1581 2323 1405 2211 
Q 1229 2099 1088 1946 
L 634 2010 
L 794 4467 
L 3187 4467 
L 3187 3994 
z
" transform="scale(0.015625)"/>
       </defs>
       <use xlink:href="#IBMPlexSans-Regular-35"/>
       <use xlink:href="#IBMPlexSans-Regular-30" transform="translate(59.999985 0)"/>
      </g>
     </g>
    </g>
    <g id="xtick_3">
     <g id="line2d_5">
      <path d="M 191.840862 170.767352 
L 191.840862 7.2 
" clip-path="url(#p2f84386bba)" style="fill: none; stroke-dasharray: 1.85,0.8; stroke-dashoffset: 0; stroke: #838383; stroke-opacity: 0.2; stroke-width: 0.5"/>
     </g>
     <g id="line2d_6"/>
     <g id="text_3">
      <!-- 100 -->
      <g style="fill: #838383" transform="translate(181.040862 183.147352) scale(0.12 -0.12)">
       <defs>
        <path id="IBMPlexSans-Regular-31" d="M 563 0 
L 563 474 
L 1811 474 
L 1811 4070 
L 1766 4070 
L 640 3021 
L 326 3360 
L 1510 4467 
L 2349 4467 
L 2349 474 
L 3501 474 
L 3501 0 
L 563 0 
z
" transform="scale(0.015625)"/>
       </defs>
       <use xlink:href="#IBMPlexSans-Regular-31"/>
       <use xlink:href="#IBMPlexSans-Regular-30" transform="translate(59.999985 0)"/>
       <use xlink:href="#IBMPlexSans-Regular-30" transform="translate(119.999969 0)"/>
      </g>
     </g>
    </g>
    <g id="xtick_4">
     <g id="line2d_7">
      <path d="M 252.685104 170.767352 
L 252.685104 7.2 
" clip-path="url(#p2f84386bba)" style="fill: none; stroke-dasharray: 1.85,0.8; stroke-dashoffset: 0; stroke: #838383; stroke-opacity: 0.2; stroke-width: 0.5"/>
     </g>
     <g id="line2d_8"/>
     <g id="text_4">
      <!-- 150 -->
      <g style="fill: #838383" transform="translate(241.885104 183.147352) scale(0.12 -0.12)">
       <use xlink:href="#IBMPlexSans-Regular-31"/>
       <use xlink:href="#IBMPlexSans-Regular-35" transform="translate(59.999985 0)"/>
       <use xlink:href="#IBMPlexSans-Regular-30" transform="translate(119.999969 0)"/>
      </g>
     </g>
    </g>
    <g id="xtick_5">
     <g id="line2d_9">
      <path d="M 313.529345 170.767352 
L 313.529345 7.2 
" clip-path="url(#p2f84386bba)" style="fill: none; stroke-dasharray: 1.85,0.8; stroke-dashoffset: 0; stroke: #838383; stroke-opacity: 0.2; stroke-width: 0.5"/>
     </g>
     <g id="line2d_10"/>
     <g id="text_5">
      <!-- 200 -->
      <g style="fill: #838383" transform="translate(302.729345 183.147352) scale(0.12 -0.12)">
       <defs>
        <path id="IBMPlexSans-Regular-32" d="M 3411 0 
L 480 0 
L 480 550 
L 1939 1894 
Q 2253 2182 2464 2505 
Q 2675 2829 2675 3155 
L 2675 3232 
Q 2675 3603 2470 3833 
Q 2266 4064 1850 4064 
Q 1645 4064 1491 4006 
Q 1338 3949 1226 3846 
Q 1114 3744 1040 3606 
Q 966 3469 922 3309 
L 442 3494 
Q 506 3693 618 3881 
Q 730 4070 899 4217 
Q 1069 4365 1309 4454 
Q 1549 4544 1875 4544 
Q 2202 4544 2458 4448 
Q 2714 4352 2886 4179 
Q 3059 4006 3152 3769 
Q 3245 3533 3245 3245 
Q 3245 2982 3171 2758 
Q 3098 2534 2970 2332 
Q 2842 2131 2659 1939 
Q 2477 1747 2266 1555 
L 1062 474 
L 3411 474 
L 3411 0 
z
" transform="scale(0.015625)"/>
       </defs>
       <use xlink:href="#IBMPlexSans-Regular-32"/>
       <use xlink:href="#IBMPlexSans-Regular-30" transform="translate(59.999985 0)"/>
       <use xlink:href="#IBMPlexSans-Regular-30" transform="translate(119.999969 0)"/>
      </g>
     </g>
    </g>
    <g id="text_6">
     <!-- draw -->
     <g style="fill: #bdbdbd" transform="translate(177.738045 198.427352) scale(0.12 -0.12)">
      <defs>
       <path id="IBMPlexSans-Regular-64" d="M 2656 538 
L 2630 538 
Q 2330 -77 1664 -77 
Q 1357 -77 1107 44 
Q 858 166 682 390 
Q 506 614 413 934 
Q 320 1254 320 1651 
Q 320 2048 413 2368 
Q 506 2688 682 2912 
Q 858 3136 1107 3257 
Q 1357 3379 1664 3379 
Q 2010 3379 2256 3228 
Q 2502 3078 2630 2765 
L 2656 2765 
L 2656 4736 
L 3168 4736 
L 3168 0 
L 2656 0 
L 2656 538 
z
M 1805 384 
Q 1978 384 2134 429 
Q 2291 474 2406 560 
Q 2522 646 2589 771 
Q 2656 896 2656 1056 
L 2656 2285 
Q 2656 2419 2589 2537 
Q 2522 2656 2406 2739 
Q 2291 2822 2134 2870 
Q 1978 2918 1805 2918 
Q 1370 2918 1120 2646 
Q 870 2374 870 1933 
L 870 1370 
Q 870 928 1120 656 
Q 1370 384 1805 384 
z
" transform="scale(0.015625)"/>
       <path id="IBMPlexSans-Regular-72" d="M 544 0 
L 544 3302 
L 1056 3302 
L 1056 2694 
L 1088 2694 
Q 1178 2931 1408 3116 
Q 1638 3302 2042 3302 
L 2240 3302 
L 2240 2790 
L 1939 2790 
Q 1523 2790 1289 2633 
Q 1056 2477 1056 2240 
L 1056 0 
L 544 0 
z
" transform="scale(0.015625)"/>
       <path id="IBMPlexSans-Regular-61" d="M 2944 0 
Q 2656 0 2531 153 
Q 2406 307 2374 538 
L 2342 538 
Q 2234 230 1984 76 
Q 1734 -77 1389 -77 
Q 864 -77 573 192 
Q 282 461 282 922 
Q 282 1389 624 1638 
Q 966 1888 1690 1888 
L 2342 1888 
L 2342 2214 
Q 2342 2566 2150 2752 
Q 1958 2938 1562 2938 
Q 1261 2938 1059 2803 
Q 858 2669 723 2445 
L 416 2733 
Q 550 3002 844 3190 
Q 1139 3379 1587 3379 
Q 2189 3379 2521 3084 
Q 2854 2790 2854 2266 
L 2854 448 
L 3232 448 
L 3232 0 
L 2944 0 
z
M 1472 358 
Q 1664 358 1824 403 
Q 1984 448 2099 531 
Q 2214 614 2278 723 
Q 2342 832 2342 960 
L 2342 1504 
L 1664 1504 
Q 1222 1504 1020 1376 
Q 819 1248 819 1005 
L 819 870 
Q 819 627 995 492 
Q 1171 358 1472 358 
z
" transform="scale(0.015625)"/>
       <path id="IBMPlexSans-Regular-77" d="M 198 3302 
L 698 3302 
L 1050 1875 
L 1402 429 
L 1414 429 
L 1818 1875 
L 2234 3302 
L 2688 3302 
L 3117 1875 
L 3526 429 
L 3539 429 
L 3878 1875 
L 4237 3302 
L 4717 3302 
L 3840 0 
L 3206 0 
L 2746 1587 
L 2458 2592 
L 2445 2592 
L 2163 1587 
L 1702 0 
L 1082 0 
L 198 3302 
z
" transform="scale(0.015625)"/>
      </defs>
      <use xlink:href="#IBMPlexSans-Regular-64"/>
      <use xlink:href="#IBMPlexSans-Regular-72" transform="translate(57.999985 0)"/>
      <use xlink:href="#IBMPlexSans-Regular-61" transform="translate(94.699982 0)"/>
      <use xlink:href="#IBMPlexSans-Regular-77" transform="translate(148.099976 0)"/>
     </g>
    </g>
   </g>
   <g id="matplotlib.axis_2">
    <g id="ytick_1">
     <g id="line2d_11">
      <path d="M 58.044375 145.627254 
L 324.420465 145.627254 
" clip-path="url(#p2f84386bba)" style="fill: none; stroke-dasharray: 1.85,0.8; stroke-dashoffset: 0; stroke: #838383; stroke-opacity: 0.2; stroke-width: 0.5"/>
     </g>
     <g id="line2d_12"/>
     <g id="text_7">
      <!-- 0.008 -->
      <g style="fill: #838383" transform="translate(22.48 150.067254) scale(0.12 -0.12)">
       <defs>
        <path id="IBMPlexSans-Regular-2e" d="M 870 -77 
Q 666 -77 573 25 
Q 480 128 480 294 
L 480 378 
Q 480 544 573 646 
Q 666 749 870 749 
Q 1075 749 1168 646 
Q 1261 544 1261 378 
L 1261 294 
Q 1261 128 1168 25 
Q 1075 -77 870 -77 
z
" transform="scale(0.015625)"/>
        <path id="IBMPlexSans-Regular-38" d="M 1920 -77 
Q 1536 -77 1248 22 
Q 960 122 765 294 
Q 570 467 470 704 
Q 371 941 371 1216 
Q 371 1677 620 1945 
Q 870 2214 1274 2323 
L 1274 2374 
Q 922 2496 714 2768 
Q 506 3040 506 3424 
Q 506 3936 877 4240 
Q 1248 4544 1920 4544 
Q 2592 4544 2963 4240 
Q 3334 3936 3334 3424 
Q 3334 3040 3126 2768 
Q 2918 2496 2566 2374 
L 2566 2323 
Q 2970 2214 3219 1945 
Q 3469 1677 3469 1216 
Q 3469 941 3369 704 
Q 3270 467 3075 294 
Q 2880 122 2592 22 
Q 2304 -77 1920 -77 
z
M 1920 390 
Q 2387 390 2643 598 
Q 2899 806 2899 1190 
L 2899 1325 
Q 2899 1709 2643 1917 
Q 2387 2125 1920 2125 
Q 1453 2125 1197 1917 
Q 941 1709 941 1325 
L 941 1190 
Q 941 806 1197 598 
Q 1453 390 1920 390 
z
M 1920 2573 
Q 2342 2573 2560 2752 
Q 2778 2931 2778 3277 
L 2778 3373 
Q 2778 3718 2560 3897 
Q 2342 4077 1920 4077 
Q 1498 4077 1280 3897 
Q 1062 3718 1062 3373 
L 1062 3277 
Q 1062 2931 1280 2752 
Q 1498 2573 1920 2573 
z
" transform="scale(0.015625)"/>
       </defs>
       <use xlink:href="#IBMPlexSans-Regular-30"/>
       <use xlink:href="#IBMPlexSans-Regular-2e" transform="translate(59.999985 0)"/>
       <use xlink:href="#IBMPlexSans-Regular-30" transform="translate(87.199982 0)"/>
       <use xlink:href="#IBMPlexSans-Regular-30" transform="translate(147.199966 0)"/>
       <use xlink:href="#IBMPlexSans-Regular-38" transform="translate(207.199951 0)"/>
      </g>
     </g>
    </g>
    <g id="ytick_2">
     <g id="line2d_13">
      <path d="M 58.044375 101.87471 
L 324.420465 101.87471 
" clip-path="url(#p2f84386bba)" style="fill: none; stroke-dasharray: 1.85,0.8; stroke-dashoffset: 0; stroke: #838383; stroke-opacity: 0.2; stroke-width: 0.5"/>
     </g>
     <g id="line2d_14"/>
     <g id="text_8">
      <!-- 0.010 -->
      <g style="fill: #838383" transform="translate(22.48 106.31471) scale(0.12 -0.12)">
       <use xlink:href="#IBMPlexSans-Regular-30"/>
       <use xlink:href="#IBMPlexSans-Regular-2e" transform="translate(59.999985 0)"/>
       <use xlink:href="#IBMPlexSans-Regular-30" transform="translate(87.199982 0)"/>
       <use xlink:href="#IBMPlexSans-Regular-31" transform="translate(147.199966 0)"/>
       <use xlink:href="#IBMPlexSans-Regular-30" transform="translate(207.199951 0)"/>
      </g>
     </g>
    </g>
    <g id="ytick_3">
     <g id="line2d_15">
      <path d="M 58.044375 58.122166 
L 324.420465 58.122166 
" clip-path="url(#p2f84386bba)" style="fill: none; stroke-dasharray: 1.85,0.8; stroke-dashoffset: 0; stroke: #838383; stroke-opacity: 0.2; stroke-width: 0.5"/>
     </g>
     <g id="line2d_16"/>
     <g id="text_9">
      <!-- 0.012 -->
      <g style="fill: #838383" transform="translate(22.48 62.562166) scale(0.12 -0.12)">
       <use xlink:href="#IBMPlexSans-Regular-30"/>
       <use xlink:href="#IBMPlexSans-Regular-2e" transform="translate(59.999985 0)"/>
       <use xlink:href="#IBMPlexSans-Regular-30" transform="translate(87.199982 0)"/>
       <use xlink:href="#IBMPlexSans-Regular-31" transform="translate(147.199966 0)"/>
       <use xlink:href="#IBMPlexSans-Regular-32" transform="translate(207.199951 0)"/>
      </g>
     </g>
    </g>
    <g id="ytick_4">
     <g id="line2d_17">
      <path d="M 58.044375 14.369621 
L 324.420465 14.369621 
" clip-path="url(#p2f84386bba)" style="fill: none; stroke-dasharray: 1.85,0.8; stroke-dashoffset: 0; stroke: #838383; stroke-opacity: 0.2; stroke-width: 0.5"/>
     </g>
     <g id="line2d_18"/>
     <g id="text_10">
      <!-- 0.014 -->
      <g style="fill: #838383" transform="translate(22.48 18.809621) scale(0.12 -0.12)">
       <defs>
        <path id="IBMPlexSans-Regular-34" d="M 2400 0 
L 2400 877 
L 243 877 
L 243 1350 
L 2112 4467 
L 2912 4467 
L 2912 1325 
L 3558 1325 
L 3558 877 
L 2912 877 
L 2912 0 
L 2400 0 
z
M 749 1325 
L 2400 1325 
L 2400 4051 
L 2368 4051 
L 749 1325 
z
" transform="scale(0.015625)"/>
       </defs>
       <use xlink:href="#IBMPlexSans-Regular-30"/>
       <use xlink:href="#IBMPlexSans-Regular-2e" transform="translate(59.999985 0)"/>
       <use xlink:href="#IBMPlexSans-Regular-30" transform="translate(87.199982 0)"/>
       <use xlink:href="#IBMPlexSans-Regular-31" transform="translate(147.199966 0)"/>
       <use xlink:href="#IBMPlexSans-Regular-34" transform="translate(207.199951 0)"/>
      </g>
     </g>
    </g>
    <g id="text_11">
     <!-- train_dtu -->
     <g style="fill: #bdbdbd" transform="translate(16.08 113.787113) rotate(-90) scale(0.12 -0.12)">
      <defs>
       <path id="IBMPlexSans-Regular-74" d="M 1274 0 
Q 1005 0 867 150 
Q 730 301 730 544 
L 730 2854 
L 186 2854 
L 186 3302 
L 493 3302 
Q 659 3302 720 3369 
Q 781 3437 781 3603 
L 781 4218 
L 1242 4218 
L 1242 3302 
L 1965 3302 
L 1965 2854 
L 1242 2854 
L 1242 448 
L 1914 448 
L 1914 0 
L 1274 0 
z
" transform="scale(0.015625)"/>
       <path id="IBMPlexSans-Regular-69" d="M 800 4077 
Q 634 4077 560 4157 
Q 486 4237 486 4365 
L 486 4448 
Q 486 4576 560 4656 
Q 634 4736 800 4736 
Q 966 4736 1040 4656 
Q 1114 4576 1114 4448 
L 1114 4365 
Q 1114 4237 1040 4157 
Q 966 4077 800 4077 
z
M 544 3302 
L 1056 3302 
L 1056 0 
L 544 0 
L 544 3302 
z
" transform="scale(0.015625)"/>
       <path id="IBMPlexSans-Regular-6e" d="M 544 0 
L 544 3302 
L 1056 3302 
L 1056 2765 
L 1082 2765 
Q 1203 3046 1424 3212 
Q 1645 3379 2016 3379 
Q 2528 3379 2825 3049 
Q 3123 2720 3123 2118 
L 3123 0 
L 2611 0 
L 2611 2029 
Q 2611 2918 1862 2918 
Q 1709 2918 1565 2880 
Q 1421 2842 1305 2765 
Q 1190 2688 1123 2569 
Q 1056 2451 1056 2291 
L 1056 0 
L 544 0 
z
" transform="scale(0.015625)"/>
       <path id="IBMPlexSans-Regular-5f" d="M 192 -1056 
L 192 -608 
L 3424 -608 
L 3424 -1056 
L 192 -1056 
z
" transform="scale(0.015625)"/>
       <path id="IBMPlexSans-Regular-75" d="M 2579 538 
L 2554 538 
Q 2502 422 2428 310 
Q 2355 198 2246 112 
Q 2138 26 1984 -25 
Q 1830 -77 1626 -77 
Q 1114 -77 813 252 
Q 512 582 512 1184 
L 512 3302 
L 1024 3302 
L 1024 1274 
Q 1024 384 1779 384 
Q 1933 384 2077 422 
Q 2221 461 2333 537 
Q 2445 614 2512 732 
Q 2579 851 2579 1018 
L 2579 3302 
L 3091 3302 
L 3091 0 
L 2579 0 
L 2579 538 
z
" transform="scale(0.015625)"/>
      </defs>
      <use xlink:href="#IBMPlexSans-Regular-74"/>
      <use xlink:href="#IBMPlexSans-Regular-72" transform="translate(35.099991 0)"/>
      <use xlink:href="#IBMPlexSans-Regular-61" transform="translate(71.799988 0)"/>
      <use xlink:href="#IBMPlexSans-Regular-69" transform="translate(125.199982 0)"/>
      <use xlink:href="#IBMPlexSans-Regular-6e" transform="translate(150.199966 0)"/>
      <use xlink:href="#IBMPlexSans-Regular-5f" transform="translate(206.999954 0)"/>
      <use xlink:href="#IBMPlexSans-Regular-64" transform="translate(263.499939 0)"/>
      <use xlink:href="#IBMPlexSans-Regular-74" transform="translate(321.499924 0)"/>
      <use xlink:href="#IBMPlexSans-Regular-75" transform="translate(356.599915 0)"/>
     </g>
    </g>
   </g>
   <g id="line2d_19">
    <path d="M 70.152379 14.63488 
L 71.369264 119.330147 
L 72.586149 141.306683 
L 73.803034 124.869414 
L 75.019918 122.607935 
L 76.236803 125.666073 
L 77.453688 130.13885 
L 78.670573 138.553012 
L 79.887458 138.507456 
L 81.104343 126.552968 
L 82.321227 136.99979 
L 83.538112 139.735226 
L 84.754997 161.607865 
L 85.971882 146.674585 
L 87.188767 133.373812 
L 88.405652 137.717154 
L 89.622536 139.459955 
L 90.839421 142.252845 
L 92.056306 136.422802 
L 93.273191 118.074098 
L 94.490076 147.545975 
L 95.706961 139.028823 
L 96.923845 117.611958 
L 98.14073 141.821693 
L 99.357615 141.282091 
L 101.791385 124.217674 
L 103.00827 125.329721 
L 104.225154 132.898001 
L 105.442039 136.080073 
L 106.658924 144.820563 
L 107.875809 130.623788 
L 109.092694 140.396969 
L 110.309579 130.840709 
L 111.526463 124.000734 
L 112.743348 129.845344 
L 113.960233 140.40793 
L 115.177118 143.342093 
L 116.394003 146.832299 
L 117.610888 141.869103 
L 118.827772 145.506022 
L 120.044657 117.80064 
L 121.261542 122.147649 
L 122.478427 134.134939 
L 124.912197 131.140612 
L 126.129081 137.895832 
L 127.345966 113.804571 
L 128.562851 128.659463 
L 129.779736 131.967363 
L 132.213505 127.695086 
L 133.43039 124.524872 
L 134.647275 111.106501 
L 135.86416 122.61527 
L 137.081045 129.976592 
L 138.29793 132.228964 
L 139.514814 113.914855 
L 140.731699 126.63591 
L 141.948584 137.677954 
L 143.165469 105.981984 
L 144.382354 131.112354 
L 145.599239 122.72643 
L 146.816123 126.879276 
L 148.033008 140.205597 
L 150.466778 88.853777 
L 151.683663 134.856826 
L 152.900548 105.422294 
L 154.117432 140.133576 
L 155.334317 135.771979 
L 156.551202 105.444196 
L 157.768087 107.431279 
L 158.984972 127.000541 
L 160.201857 135.085624 
L 161.418741 123.924169 
L 162.635626 119.236264 
L 163.852511 126.923955 
L 165.069396 163.332472 
L 166.286281 133.340093 
L 168.72005 125.776357 
L 169.936935 123.64525 
L 171.15382 125.00704 
L 172.370705 123.014475 
L 173.58759 126.303225 
L 174.804475 127.770754 
L 176.021359 124.926828 
L 177.238244 110.333537 
L 178.455129 136.039977 
L 179.672014 113.257675 
L 180.888899 114.452643 
L 182.105784 135.719129 
L 183.322668 130.202661 
L 184.539553 127.950289 
L 185.756438 128.77158 
L 186.973323 113.369793 
L 188.190208 137.19489 
L 189.407093 130.325719 
L 190.623977 120.63546 
L 191.840862 114.9549 
L 193.057747 131.806023 
L 194.274632 132.615456 
L 195.491517 101.952197 
L 196.708402 121.058381 
L 197.925286 117.38864 
L 199.142171 116.78702 
L 200.359056 143.408634 
L 201.575941 119.737604 
L 202.792826 133.320025 
L 204.009711 125.153813 
L 205.226595 86.064554 
L 206.44348 142.632023 
L 207.660365 113.286851 
L 208.87725 120.450404 
L 210.094135 130.723131 
L 211.31102 129.902757 
L 212.527904 124.743605 
L 214.961674 138.482804 
L 216.178559 127.854613 
L 217.395444 141.069714 
L 218.612329 144.847925 
L 219.829213 140.641292 
L 221.046098 139.726139 
L 222.262983 118.930004 
L 223.479868 133.433956 
L 224.696753 130.274682 
L 225.913638 141.044165 
L 227.130522 141.990328 
L 228.347407 126.94492 
L 229.564292 133.067532 
L 230.781177 132.369319 
L 231.998062 128.874611 
L 233.214947 137.045366 
L 234.431831 138.903035 
L 235.648716 116.025017 
L 236.865601 129.578283 
L 238.082486 126.102685 
L 239.299371 128.706893 
L 240.516256 125.715296 
L 241.73314 125.445485 
L 242.950025 137.070895 
L 244.16691 124.660684 
L 245.383795 134.537812 
L 247.817565 139.373386 
L 249.034449 115.97671 
L 250.251334 134.51866 
L 251.468219 136.141154 
L 252.685104 108.546973 
L 253.901989 114.902926 
L 255.118873 111.612404 
L 256.335758 131.345675 
L 257.552643 135.385507 
L 258.769528 125.227648 
L 259.986413 132.283627 
L 261.203298 136.194941 
L 262.420182 140.877385 
L 263.637067 137.775504 
L 264.853952 116.641204 
L 266.070837 124.338003 
L 267.287722 132.980026 
L 268.504607 136.695364 
L 269.721491 115.380571 
L 270.938376 133.693743 
L 272.155261 133.948966 
L 273.372146 138.9796 
L 274.589031 141.597438 
L 275.805916 132.555272 
L 277.0228 138.867503 
L 278.239685 132.322847 
L 279.45657 135.093815 
L 280.673455 139.480023 
L 281.89034 131.834281 
L 283.107225 139.711551 
L 284.324109 120.515132 
L 285.540994 122.027321 
L 286.757879 119.255416 
L 287.974764 120.055701 
L 289.191649 128.241982 
L 290.408534 139.063459 
L 291.625418 139.84007 
L 294.059188 102.450766 
L 295.276073 135.923296 
L 296.492958 133.869671 
L 297.709843 138.076304 
L 298.926727 112.744478 
L 300.143612 129.12525 
L 301.360497 128.405156 
L 302.577382 135.11207 
L 303.794267 144.325621 
L 305.011152 139.67875 
L 306.228036 131.447789 
L 307.444921 136.057295 
L 308.661806 132.860635 
L 309.878691 132.899814 
L 311.095576 135.588777 
L 312.312461 130.516214 
L 312.312461 130.516214 
" clip-path="url(#p2f84386bba)" style="fill: none; stroke: #2196f3; stroke-width: 1.5; stroke-linecap: round"/>
   </g>
   <g id="patch_3">
    <path d="M 58.044375 170.767352 
L 58.044375 7.2 
" style="fill: none"/>
   </g>
   <g id="patch_4">
    <path d="M 324.420465 170.767352 
L 324.420465 7.2 
" style="fill: none"/>
   </g>
   <g id="patch_5">
    <path d="M 58.044375 170.767352 
L 324.420465 170.767352 
" style="fill: none"/>
   </g>
   <g id="patch_6">
    <path d="M 58.044375 7.2 
L 324.420465 7.2 
" style="fill: none"/>
   </g>
  </g>
 </g>
 <defs>
  <clipPath id="p2f84386bba">
   <rect x="58.044375" y="7.2" width="266.37609" height="163.567352"/>
  </clipPath>
 </defs>
</svg>
