<?xml version="1.0" encoding="utf-8" standalone="no"?>
<!DOCTYPE svg PUBLIC "-//W3C//DTD SVG 1.1//EN"
  "http://www.w3.org/Graphics/SVG/1.1/DTD/svg11.dtd">
<svg xmlns:xlink="http://www.w3.org/1999/xlink" width="317.220465pt" height="208.027352pt" viewBox="0 0 317.220465 208.027352" xmlns="http://www.w3.org/2000/svg" version="1.1">
 <metadata>
  <rdf:RDF xmlns:dc="http://purl.org/dc/elements/1.1/" xmlns:cc="http://creativecommons.org/ns#" xmlns:rdf="http://www.w3.org/1999/02/22-rdf-syntax-ns#">
   <cc:Work>
    <dc:type rdf:resource="http://purl.org/dc/dcmitype/StillImage"/>
    <dc:date>2025-08-04T12:39:15.937460</dc:date>
    <dc:format>image/svg+xml</dc:format>
    <dc:creator>
     <cc:Agent>
      <dc:title>Matplotlib v3.10.3, https://matplotlib.org/</dc:title>
     </cc:Agent>
    </dc:creator>
   </cc:Work>
  </rdf:RDF>
 </metadata>
 <defs>
  <style type="text/css">*{stroke-linejoin: round; stroke-linecap: butt}</style>
 </defs>
 <g id="figure_1">
  <g id="patch_1">
   <path d="M 0 208.027352 
L 317.220465 208.027352 
L 317.220465 0 
L 0 0 
L 0 208.027352 
z
" style="fill: none"/>
  </g>
  <g id="axes_1">
   <g id="patch_2">
    <path d="M 43.644375 170.767352 
L 310.020465 170.767352 
L 310.020465 7.2 
L 43.644375 7.2 
L 43.644375 170.767352 
z
" style="fill: none"/>
   </g>
   <g id="matplotlib.axis_1">
    <g id="xtick_1">
     <g id="line2d_1">
      <path d="M 55.752379 170.767352 
L 55.752379 7.2 
" clip-path="url(#pe6de3476b6)" style="fill: none; stroke-dasharray: 1.85,0.8; stroke-dashoffset: 0; stroke: #838383; stroke-opacity: 0.2; stroke-width: 0.5"/>
     </g>
     <g id="line2d_2"/>
     <g id="text_1">
      <!-- 0 -->
      <g style="fill: #838383" transform="translate(52.152379 183.147352) scale(0.12 -0.12)">
       <defs>
        <path id="IBMPlexSans-Regular-30" d="M 1920 -77 
Q 1120 -77 752 531 
Q 384 1139 384 2234 
Q 384 3328 752 3936 
Q 1120 4544 1920 4544 
Q 2720 4544 3088 3936 
Q 3456 3328 3456 2234 
Q 3456 1139 3088 531 
Q 2720 -77 1920 -77 
z
M 1920 390 
Q 2182 390 2368 499 
Q 2554 608 2669 806 
Q 2784 1005 2838 1273 
Q 2893 1542 2893 1869 
L 2893 2598 
Q 2893 2925 2838 3193 
Q 2784 3462 2669 3660 
Q 2554 3859 2368 3968 
Q 2182 4077 1920 4077 
Q 1658 4077 1472 3968 
Q 1286 3859 1171 3660 
Q 1056 3462 1001 3193 
Q 947 2925 947 2598 
L 947 1869 
Q 947 1542 1001 1273 
Q 1056 1005 1171 806 
Q 1286 608 1472 499 
Q 1658 390 1920 390 
z
" transform="scale(0.015625)"/>
       </defs>
       <use xlink:href="#IBMPlexSans-Regular-30"/>
      </g>
     </g>
    </g>
    <g id="xtick_2">
     <g id="line2d_3">
      <path d="M 104.281454 170.767352 
L 104.281454 7.2 
" clip-path="url(#pe6de3476b6)" style="fill: none; stroke-dasharray: 1.85,0.8; stroke-dashoffset: 0; stroke: #838383; stroke-opacity: 0.2; stroke-width: 0.5"/>
     </g>
     <g id="line2d_4"/>
     <g id="text_2">
      <!-- 100 -->
      <g style="fill: #838383" transform="translate(93.481454 183.147352) scale(0.12 -0.12)">
       <defs>
        <path id="IBMPlexSans-Regular-31" d="M 563 0 
L 563 474 
L 1811 474 
L 1811 4070 
L 1766 4070 
L 640 3021 
L 326 3360 
L 1510 4467 
L 2349 4467 
L 2349 474 
L 3501 474 
L 3501 0 
L 563 0 
z
" transform="scale(0.015625)"/>
       </defs>
       <use xlink:href="#IBMPlexSans-Regular-31"/>
       <use xlink:href="#IBMPlexSans-Regular-30" transform="translate(59.999985 0)"/>
       <use xlink:href="#IBMPlexSans-Regular-30" transform="translate(119.999969 0)"/>
      </g>
     </g>
    </g>
    <g id="xtick_3">
     <g id="line2d_5">
      <path d="M 152.810528 170.767352 
L 152.810528 7.2 
" clip-path="url(#pe6de3476b6)" style="fill: none; stroke-dasharray: 1.85,0.8; stroke-dashoffset: 0; stroke: #838383; stroke-opacity: 0.2; stroke-width: 0.5"/>
     </g>
     <g id="line2d_6"/>
     <g id="text_3">
      <!-- 200 -->
      <g style="fill: #838383" transform="translate(142.010528 183.147352) scale(0.12 -0.12)">
       <defs>
        <path id="IBMPlexSans-Regular-32" d="M 3411 0 
L 480 0 
L 480 550 
L 1939 1894 
Q 2253 2182 2464 2505 
Q 2675 2829 2675 3155 
L 2675 3232 
Q 2675 3603 2470 3833 
Q 2266 4064 1850 4064 
Q 1645 4064 1491 4006 
Q 1338 3949 1226 3846 
Q 1114 3744 1040 3606 
Q 966 3469 922 3309 
L 442 3494 
Q 506 3693 618 3881 
Q 730 4070 899 4217 
Q 1069 4365 1309 4454 
Q 1549 4544 1875 4544 
Q 2202 4544 2458 4448 
Q 2714 4352 2886 4179 
Q 3059 4006 3152 3769 
Q 3245 3533 3245 3245 
Q 3245 2982 3171 2758 
Q 3098 2534 2970 2332 
Q 2842 2131 2659 1939 
Q 2477 1747 2266 1555 
L 1062 474 
L 3411 474 
L 3411 0 
z
" transform="scale(0.015625)"/>
       </defs>
       <use xlink:href="#IBMPlexSans-Regular-32"/>
       <use xlink:href="#IBMPlexSans-Regular-30" transform="translate(59.999985 0)"/>
       <use xlink:href="#IBMPlexSans-Regular-30" transform="translate(119.999969 0)"/>
      </g>
     </g>
    </g>
    <g id="xtick_4">
     <g id="line2d_7">
      <path d="M 201.339602 170.767352 
L 201.339602 7.2 
" clip-path="url(#pe6de3476b6)" style="fill: none; stroke-dasharray: 1.85,0.8; stroke-dashoffset: 0; stroke: #838383; stroke-opacity: 0.2; stroke-width: 0.5"/>
     </g>
     <g id="line2d_8"/>
     <g id="text_4">
      <!-- 300 -->
      <g style="fill: #838383" transform="translate(190.539602 183.147352) scale(0.12 -0.12)">
       <defs>
        <path id="IBMPlexSans-Regular-33" d="M 1670 2573 
Q 2125 2573 2352 2781 
Q 2579 2989 2579 3315 
L 2579 3360 
Q 2579 3712 2358 3888 
Q 2138 4064 1779 4064 
Q 1434 4064 1216 3913 
Q 998 3763 858 3507 
L 461 3814 
Q 544 3949 662 4080 
Q 781 4211 941 4313 
Q 1101 4416 1312 4480 
Q 1523 4544 1792 4544 
Q 2074 4544 2323 4470 
Q 2573 4397 2755 4253 
Q 2938 4109 3043 3897 
Q 3149 3686 3149 3418 
Q 3149 3200 3081 3027 
Q 3014 2854 2899 2726 
Q 2784 2598 2627 2508 
Q 2470 2419 2291 2374 
L 2291 2349 
Q 2470 2310 2640 2224 
Q 2810 2138 2941 2000 
Q 3072 1862 3152 1667 
Q 3232 1472 3232 1222 
Q 3232 934 3123 694 
Q 3014 454 2816 284 
Q 2618 115 2336 19 
Q 2054 -77 1715 -77 
Q 1427 -77 1203 -13 
Q 979 51 806 160 
Q 634 269 502 403 
Q 371 538 269 685 
L 672 992 
Q 755 858 854 749 
Q 954 640 1075 563 
Q 1197 486 1350 444 
Q 1504 403 1709 403 
Q 2182 403 2425 617 
Q 2669 832 2669 1229 
L 2669 1280 
Q 2669 1677 2425 1891 
Q 2182 2106 1709 2106 
L 1184 2106 
L 1184 2573 
L 1670 2573 
z
" transform="scale(0.015625)"/>
       </defs>
       <use xlink:href="#IBMPlexSans-Regular-33"/>
       <use xlink:href="#IBMPlexSans-Regular-30" transform="translate(59.999985 0)"/>
       <use xlink:href="#IBMPlexSans-Regular-30" transform="translate(119.999969 0)"/>
      </g>
     </g>
    </g>
    <g id="xtick_5">
     <g id="line2d_9">
      <path d="M 249.868677 170.767352 
L 249.868677 7.2 
" clip-path="url(#pe6de3476b6)" style="fill: none; stroke-dasharray: 1.85,0.8; stroke-dashoffset: 0; stroke: #838383; stroke-opacity: 0.2; stroke-width: 0.5"/>
     </g>
     <g id="line2d_10"/>
     <g id="text_5">
      <!-- 400 -->
      <g style="fill: #838383" transform="translate(239.068677 183.147352) scale(0.12 -0.12)">
       <defs>
        <path id="IBMPlexSans-Regular-34" d="M 2400 0 
L 2400 877 
L 243 877 
L 243 1350 
L 2112 4467 
L 2912 4467 
L 2912 1325 
L 3558 1325 
L 3558 877 
L 2912 877 
L 2912 0 
L 2400 0 
z
M 749 1325 
L 2400 1325 
L 2400 4051 
L 2368 4051 
L 749 1325 
z
" transform="scale(0.015625)"/>
       </defs>
       <use xlink:href="#IBMPlexSans-Regular-34"/>
       <use xlink:href="#IBMPlexSans-Regular-30" transform="translate(59.999985 0)"/>
       <use xlink:href="#IBMPlexSans-Regular-30" transform="translate(119.999969 0)"/>
      </g>
     </g>
    </g>
    <g id="xtick_6">
     <g id="line2d_11">
      <path d="M 298.397751 170.767352 
L 298.397751 7.2 
" clip-path="url(#pe6de3476b6)" style="fill: none; stroke-dasharray: 1.85,0.8; stroke-dashoffset: 0; stroke: #838383; stroke-opacity: 0.2; stroke-width: 0.5"/>
     </g>
     <g id="line2d_12"/>
     <g id="text_6">
      <!-- 500 -->
      <g style="fill: #838383" transform="translate(287.597751 183.147352) scale(0.12 -0.12)">
       <defs>
        <path id="IBMPlexSans-Regular-35" d="M 3187 3994 
L 1229 3994 
L 1101 2291 
L 1146 2291 
Q 1306 2515 1507 2649 
Q 1709 2784 2061 2784 
Q 2349 2784 2592 2688 
Q 2835 2592 3014 2416 
Q 3194 2240 3293 1984 
Q 3392 1728 3392 1402 
Q 3392 1075 3289 803 
Q 3187 531 2992 336 
Q 2797 141 2518 32 
Q 2240 -77 1888 -77 
Q 1606 -77 1392 -13 
Q 1178 51 1011 160 
Q 845 269 720 403 
Q 595 538 493 685 
L 896 992 
Q 979 858 1072 749 
Q 1165 640 1277 563 
Q 1389 486 1536 444 
Q 1683 403 1888 403 
Q 2349 403 2585 646 
Q 2822 890 2822 1331 
L 2822 1395 
Q 2822 1837 2585 2080 
Q 2349 2323 1888 2323 
Q 1581 2323 1405 2211 
Q 1229 2099 1088 1946 
L 634 2010 
L 794 4467 
L 3187 4467 
L 3187 3994 
z
" transform="scale(0.015625)"/>
       </defs>
       <use xlink:href="#IBMPlexSans-Regular-35"/>
       <use xlink:href="#IBMPlexSans-Regular-30" transform="translate(59.999985 0)"/>
       <use xlink:href="#IBMPlexSans-Regular-30" transform="translate(119.999969 0)"/>
      </g>
     </g>
    </g>
    <g id="text_7">
     <!-- draw -->
     <g style="fill: #bdbdbd" transform="translate(163.338045 198.427352) scale(0.12 -0.12)">
      <defs>
       <path id="IBMPlexSans-Regular-64" d="M 2656 538 
L 2630 538 
Q 2330 -77 1664 -77 
Q 1357 -77 1107 44 
Q 858 166 682 390 
Q 506 614 413 934 
Q 320 1254 320 1651 
Q 320 2048 413 2368 
Q 506 2688 682 2912 
Q 858 3136 1107 3257 
Q 1357 3379 1664 3379 
Q 2010 3379 2256 3228 
Q 2502 3078 2630 2765 
L 2656 2765 
L 2656 4736 
L 3168 4736 
L 3168 0 
L 2656 0 
L 2656 538 
z
M 1805 384 
Q 1978 384 2134 429 
Q 2291 474 2406 560 
Q 2522 646 2589 771 
Q 2656 896 2656 1056 
L 2656 2285 
Q 2656 2419 2589 2537 
Q 2522 2656 2406 2739 
Q 2291 2822 2134 2870 
Q 1978 2918 1805 2918 
Q 1370 2918 1120 2646 
Q 870 2374 870 1933 
L 870 1370 
Q 870 928 1120 656 
Q 1370 384 1805 384 
z
" transform="scale(0.015625)"/>
       <path id="IBMPlexSans-Regular-72" d="M 544 0 
L 544 3302 
L 1056 3302 
L 1056 2694 
L 1088 2694 
Q 1178 2931 1408 3116 
Q 1638 3302 2042 3302 
L 2240 3302 
L 2240 2790 
L 1939 2790 
Q 1523 2790 1289 2633 
Q 1056 2477 1056 2240 
L 1056 0 
L 544 0 
z
" transform="scale(0.015625)"/>
       <path id="IBMPlexSans-Regular-61" d="M 2944 0 
Q 2656 0 2531 153 
Q 2406 307 2374 538 
L 2342 538 
Q 2234 230 1984 76 
Q 1734 -77 1389 -77 
Q 864 -77 573 192 
Q 282 461 282 922 
Q 282 1389 624 1638 
Q 966 1888 1690 1888 
L 2342 1888 
L 2342 2214 
Q 2342 2566 2150 2752 
Q 1958 2938 1562 2938 
Q 1261 2938 1059 2803 
Q 858 2669 723 2445 
L 416 2733 
Q 550 3002 844 3190 
Q 1139 3379 1587 3379 
Q 2189 3379 2521 3084 
Q 2854 2790 2854 2266 
L 2854 448 
L 3232 448 
L 3232 0 
L 2944 0 
z
M 1472 358 
Q 1664 358 1824 403 
Q 1984 448 2099 531 
Q 2214 614 2278 723 
Q 2342 832 2342 960 
L 2342 1504 
L 1664 1504 
Q 1222 1504 1020 1376 
Q 819 1248 819 1005 
L 819 870 
Q 819 627 995 492 
Q 1171 358 1472 358 
z
" transform="scale(0.015625)"/>
       <path id="IBMPlexSans-Regular-77" d="M 198 3302 
L 698 3302 
L 1050 1875 
L 1402 429 
L 1414 429 
L 1818 1875 
L 2234 3302 
L 2688 3302 
L 3117 1875 
L 3526 429 
L 3539 429 
L 3878 1875 
L 4237 3302 
L 4717 3302 
L 3840 0 
L 3206 0 
L 2746 1587 
L 2458 2592 
L 2445 2592 
L 2163 1587 
L 1702 0 
L 1082 0 
L 198 3302 
z
" transform="scale(0.015625)"/>
      </defs>
      <use xlink:href="#IBMPlexSans-Regular-64"/>
      <use xlink:href="#IBMPlexSans-Regular-72" transform="translate(57.999985 0)"/>
      <use xlink:href="#IBMPlexSans-Regular-61" transform="translate(94.699982 0)"/>
      <use xlink:href="#IBMPlexSans-Regular-77" transform="translate(148.099976 0)"/>
     </g>
    </g>
   </g>
   <g id="matplotlib.axis_2">
    <g id="ytick_1">
     <g id="line2d_13">
      <path d="M 43.644375 159.126346 
L 310.020465 159.126346 
" clip-path="url(#pe6de3476b6)" style="fill: none; stroke-dasharray: 1.85,0.8; stroke-dashoffset: 0; stroke: #838383; stroke-opacity: 0.2; stroke-width: 0.5"/>
     </g>
     <g id="line2d_14"/>
     <g id="text_8">
      <!-- 0.6 -->
      <g style="fill: #838383" transform="translate(22.48 163.566346) scale(0.12 -0.12)">
       <defs>
        <path id="IBMPlexSans-Regular-2e" d="M 870 -77 
Q 666 -77 573 25 
Q 480 128 480 294 
L 480 378 
Q 480 544 573 646 
Q 666 749 870 749 
Q 1075 749 1168 646 
Q 1261 544 1261 378 
L 1261 294 
Q 1261 128 1168 25 
Q 1075 -77 870 -77 
z
" transform="scale(0.015625)"/>
        <path id="IBMPlexSans-Regular-36" d="M 1926 -77 
Q 1581 -77 1302 41 
Q 1024 160 829 381 
Q 634 602 531 922 
Q 429 1242 429 1638 
Q 429 2138 576 2576 
Q 723 3014 956 3376 
Q 1190 3738 1472 4016 
Q 1754 4294 2022 4467 
L 2714 4467 
Q 2355 4205 2073 3955 
Q 1792 3706 1581 3434 
Q 1370 3162 1222 2851 
Q 1075 2541 986 2150 
L 1018 2138 
Q 1178 2413 1430 2595 
Q 1683 2778 2093 2778 
Q 2381 2778 2624 2682 
Q 2867 2586 3040 2406 
Q 3213 2227 3312 1971 
Q 3411 1715 3411 1402 
Q 3411 1075 3305 803 
Q 3200 531 3005 336 
Q 2810 141 2534 32 
Q 2259 -77 1926 -77 
z
M 1920 390 
Q 2362 390 2608 633 
Q 2854 877 2854 1331 
L 2854 1382 
Q 2854 1837 2608 2080 
Q 2362 2323 1920 2323 
Q 1478 2323 1232 2080 
Q 986 1837 986 1382 
L 986 1331 
Q 986 877 1232 633 
Q 1478 390 1920 390 
z
" transform="scale(0.015625)"/>
       </defs>
       <use xlink:href="#IBMPlexSans-Regular-30"/>
       <use xlink:href="#IBMPlexSans-Regular-2e" transform="translate(59.999985 0)"/>
       <use xlink:href="#IBMPlexSans-Regular-36" transform="translate(87.199982 0)"/>
      </g>
     </g>
    </g>
    <g id="ytick_2">
     <g id="line2d_15">
      <path d="M 43.644375 126.571041 
L 310.020465 126.571041 
" clip-path="url(#pe6de3476b6)" style="fill: none; stroke-dasharray: 1.85,0.8; stroke-dashoffset: 0; stroke: #838383; stroke-opacity: 0.2; stroke-width: 0.5"/>
     </g>
     <g id="line2d_16"/>
     <g id="text_9">
      <!-- 0.7 -->
      <g style="fill: #838383" transform="translate(22.48 131.011041) scale(0.12 -0.12)">
       <defs>
        <path id="IBMPlexSans-Regular-37" d="M 1120 0 
L 2829 4006 
L 922 4006 
L 922 3174 
L 442 3174 
L 442 4467 
L 3373 4467 
L 3373 3994 
L 1696 0 
L 1120 0 
z
" transform="scale(0.015625)"/>
       </defs>
       <use xlink:href="#IBMPlexSans-Regular-30"/>
       <use xlink:href="#IBMPlexSans-Regular-2e" transform="translate(59.999985 0)"/>
       <use xlink:href="#IBMPlexSans-Regular-37" transform="translate(87.199982 0)"/>
      </g>
     </g>
    </g>
    <g id="ytick_3">
     <g id="line2d_17">
      <path d="M 43.644375 94.015735 
L 310.020465 94.015735 
" clip-path="url(#pe6de3476b6)" style="fill: none; stroke-dasharray: 1.85,0.8; stroke-dashoffset: 0; stroke: #838383; stroke-opacity: 0.2; stroke-width: 0.5"/>
     </g>
     <g id="line2d_18"/>
     <g id="text_10">
      <!-- 0.8 -->
      <g style="fill: #838383" transform="translate(22.48 98.455735) scale(0.12 -0.12)">
       <defs>
        <path id="IBMPlexSans-Regular-38" d="M 1920 -77 
Q 1536 -77 1248 22 
Q 960 122 765 294 
Q 570 467 470 704 
Q 371 941 371 1216 
Q 371 1677 620 1945 
Q 870 2214 1274 2323 
L 1274 2374 
Q 922 2496 714 2768 
Q 506 3040 506 3424 
Q 506 3936 877 4240 
Q 1248 4544 1920 4544 
Q 2592 4544 2963 4240 
Q 3334 3936 3334 3424 
Q 3334 3040 3126 2768 
Q 2918 2496 2566 2374 
L 2566 2323 
Q 2970 2214 3219 1945 
Q 3469 1677 3469 1216 
Q 3469 941 3369 704 
Q 3270 467 3075 294 
Q 2880 122 2592 22 
Q 2304 -77 1920 -77 
z
M 1920 390 
Q 2387 390 2643 598 
Q 2899 806 2899 1190 
L 2899 1325 
Q 2899 1709 2643 1917 
Q 2387 2125 1920 2125 
Q 1453 2125 1197 1917 
Q 941 1709 941 1325 
L 941 1190 
Q 941 806 1197 598 
Q 1453 390 1920 390 
z
M 1920 2573 
Q 2342 2573 2560 2752 
Q 2778 2931 2778 3277 
L 2778 3373 
Q 2778 3718 2560 3897 
Q 2342 4077 1920 4077 
Q 1498 4077 1280 3897 
Q 1062 3718 1062 3373 
L 1062 3277 
Q 1062 2931 1280 2752 
Q 1498 2573 1920 2573 
z
" transform="scale(0.015625)"/>
       </defs>
       <use xlink:href="#IBMPlexSans-Regular-30"/>
       <use xlink:href="#IBMPlexSans-Regular-2e" transform="translate(59.999985 0)"/>
       <use xlink:href="#IBMPlexSans-Regular-38" transform="translate(87.199982 0)"/>
      </g>
     </g>
    </g>
    <g id="ytick_4">
     <g id="line2d_19">
      <path d="M 43.644375 61.46043 
L 310.020465 61.46043 
" clip-path="url(#pe6de3476b6)" style="fill: none; stroke-dasharray: 1.85,0.8; stroke-dashoffset: 0; stroke: #838383; stroke-opacity: 0.2; stroke-width: 0.5"/>
     </g>
     <g id="line2d_20"/>
     <g id="text_11">
      <!-- 0.9 -->
      <g style="fill: #838383" transform="translate(22.48 65.90043) scale(0.12 -0.12)">
       <defs>
        <path id="IBMPlexSans-Regular-39" d="M 3411 2829 
Q 3411 2330 3264 1891 
Q 3117 1453 2883 1091 
Q 2650 730 2368 451 
Q 2086 173 1818 0 
L 1126 0 
Q 1485 262 1766 512 
Q 2048 762 2259 1034 
Q 2470 1306 2617 1616 
Q 2765 1926 2854 2317 
L 2822 2330 
Q 2662 2054 2409 1872 
Q 2157 1690 1747 1690 
Q 1459 1690 1216 1786 
Q 973 1882 800 2061 
Q 627 2240 528 2493 
Q 429 2746 429 3066 
Q 429 3392 534 3664 
Q 640 3936 835 4131 
Q 1030 4326 1302 4435 
Q 1574 4544 1914 4544 
Q 2259 4544 2537 4425 
Q 2816 4307 3011 4086 
Q 3206 3866 3308 3546 
Q 3411 3226 3411 2829 
z
M 1920 2144 
Q 2362 2144 2608 2387 
Q 2854 2630 2854 3085 
L 2854 3136 
Q 2854 3590 2608 3833 
Q 2362 4077 1920 4077 
Q 1478 4077 1232 3833 
Q 986 3590 986 3136 
L 986 3085 
Q 986 2630 1232 2387 
Q 1478 2144 1920 2144 
z
" transform="scale(0.015625)"/>
       </defs>
       <use xlink:href="#IBMPlexSans-Regular-30"/>
       <use xlink:href="#IBMPlexSans-Regular-2e" transform="translate(59.999985 0)"/>
       <use xlink:href="#IBMPlexSans-Regular-39" transform="translate(87.199982 0)"/>
      </g>
     </g>
    </g>
    <g id="ytick_5">
     <g id="line2d_21">
      <path d="M 43.644375 28.905124 
L 310.020465 28.905124 
" clip-path="url(#pe6de3476b6)" style="fill: none; stroke-dasharray: 1.85,0.8; stroke-dashoffset: 0; stroke: #838383; stroke-opacity: 0.2; stroke-width: 0.5"/>
     </g>
     <g id="line2d_22"/>
     <g id="text_12">
      <!-- 1.0 -->
      <g style="fill: #838383" transform="translate(22.48 33.345124) scale(0.12 -0.12)">
       <use xlink:href="#IBMPlexSans-Regular-31"/>
       <use xlink:href="#IBMPlexSans-Regular-2e" transform="translate(59.999985 0)"/>
       <use xlink:href="#IBMPlexSans-Regular-30" transform="translate(87.199982 0)"/>
      </g>
     </g>
    </g>
    <g id="text_13">
     <!-- train_dtb -->
     <g style="fill: #bdbdbd" transform="translate(16.08 113.859301) rotate(-90) scale(0.12 -0.12)">
      <defs>
       <path id="IBMPlexSans-Regular-74" d="M 1274 0 
Q 1005 0 867 150 
Q 730 301 730 544 
L 730 2854 
L 186 2854 
L 186 3302 
L 493 3302 
Q 659 3302 720 3369 
Q 781 3437 781 3603 
L 781 4218 
L 1242 4218 
L 1242 3302 
L 1965 3302 
L 1965 2854 
L 1242 2854 
L 1242 448 
L 1914 448 
L 1914 0 
L 1274 0 
z
" transform="scale(0.015625)"/>
       <path id="IBMPlexSans-Regular-69" d="M 800 4077 
Q 634 4077 560 4157 
Q 486 4237 486 4365 
L 486 4448 
Q 486 4576 560 4656 
Q 634 4736 800 4736 
Q 966 4736 1040 4656 
Q 1114 4576 1114 4448 
L 1114 4365 
Q 1114 4237 1040 4157 
Q 966 4077 800 4077 
z
M 544 3302 
L 1056 3302 
L 1056 0 
L 544 0 
L 544 3302 
z
" transform="scale(0.015625)"/>
       <path id="IBMPlexSans-Regular-6e" d="M 544 0 
L 544 3302 
L 1056 3302 
L 1056 2765 
L 1082 2765 
Q 1203 3046 1424 3212 
Q 1645 3379 2016 3379 
Q 2528 3379 2825 3049 
Q 3123 2720 3123 2118 
L 3123 0 
L 2611 0 
L 2611 2029 
Q 2611 2918 1862 2918 
Q 1709 2918 1565 2880 
Q 1421 2842 1305 2765 
Q 1190 2688 1123 2569 
Q 1056 2451 1056 2291 
L 1056 0 
L 544 0 
z
" transform="scale(0.015625)"/>
       <path id="IBMPlexSans-Regular-5f" d="M 192 -1056 
L 192 -608 
L 3424 -608 
L 3424 -1056 
L 192 -1056 
z
" transform="scale(0.015625)"/>
       <path id="IBMPlexSans-Regular-62" d="M 544 4736 
L 1056 4736 
L 1056 2765 
L 1082 2765 
Q 1210 3078 1456 3228 
Q 1702 3379 2048 3379 
Q 2355 3379 2604 3257 
Q 2854 3136 3030 2912 
Q 3206 2688 3299 2368 
Q 3392 2048 3392 1651 
Q 3392 1254 3299 934 
Q 3206 614 3030 390 
Q 2854 166 2604 44 
Q 2355 -77 2048 -77 
Q 1376 -77 1082 538 
L 1056 538 
L 1056 0 
L 544 0 
L 544 4736 
z
M 1907 384 
Q 2342 384 2592 656 
Q 2842 928 2842 1370 
L 2842 1933 
Q 2842 2374 2592 2646 
Q 2342 2918 1907 2918 
Q 1734 2918 1577 2870 
Q 1421 2822 1305 2739 
Q 1190 2656 1123 2537 
Q 1056 2419 1056 2285 
L 1056 1056 
Q 1056 896 1123 771 
Q 1190 646 1305 560 
Q 1421 474 1577 429 
Q 1734 384 1907 384 
z
" transform="scale(0.015625)"/>
      </defs>
      <use xlink:href="#IBMPlexSans-Regular-74"/>
      <use xlink:href="#IBMPlexSans-Regular-72" transform="translate(35.099991 0)"/>
      <use xlink:href="#IBMPlexSans-Regular-61" transform="translate(71.799988 0)"/>
      <use xlink:href="#IBMPlexSans-Regular-69" transform="translate(125.199982 0)"/>
      <use xlink:href="#IBMPlexSans-Regular-6e" transform="translate(150.199966 0)"/>
      <use xlink:href="#IBMPlexSans-Regular-5f" transform="translate(206.999954 0)"/>
      <use xlink:href="#IBMPlexSans-Regular-64" transform="translate(263.499939 0)"/>
      <use xlink:href="#IBMPlexSans-Regular-74" transform="translate(321.499924 0)"/>
      <use xlink:href="#IBMPlexSans-Regular-62" transform="translate(356.599915 0)"/>
     </g>
    </g>
   </g>
   <g id="line2d_23">
    <path d="M 55.752379 122.153228 
L 56.23767 126.232262 
L 56.722961 137.123043 
L 57.208251 141.106354 
L 57.693542 139.518467 
L 58.178833 142.400361 
L 58.664124 146.523754 
L 59.149414 135.689518 
L 60.119996 123.637554 
L 60.605287 141.710648 
L 61.090577 140.095187 
L 61.575868 143.043872 
L 62.061159 138.644916 
L 62.546449 136.234182 
L 63.03174 118.021453 
L 63.517031 55.418427 
L 64.002322 125.687346 
L 64.487612 119.967139 
L 64.972903 133.398897 
L 65.458194 119.560111 
L 65.943485 122.890967 
L 66.428775 128.827785 
L 66.914066 128.592719 
L 67.399357 114.341724 
L 67.884648 125.332418 
L 68.369938 124.805761 
L 68.855229 124.076755 
L 69.34052 125.495726 
L 69.825811 118.187051 
L 70.311101 123.035123 
L 70.796392 132.522416 
L 71.281683 128.608903 
L 71.766974 130.794021 
L 72.252264 131.469083 
L 72.737555 131.11794 
L 73.222846 131.442577 
L 73.708137 131.358206 
L 74.193427 142.096603 
L 74.678718 129.720255 
L 75.164009 126.951547 
L 75.6493 125.123374 
L 76.13459 126.054944 
L 77.105172 117.225462 
L 77.590463 123.854535 
L 78.075753 128.533652 
L 78.561044 131.633187 
L 79.046335 139.693825 
L 79.531626 140.237888 
L 80.016916 140.296819 
L 80.502207 92.125328 
L 80.987498 143.268381 
L 81.472789 142.093246 
L 81.958079 143.443254 
L 82.44337 143.773926 
L 82.928661 142.505902 
L 83.413952 135.411005 
L 83.899242 140.628306 
L 84.384533 137.079906 
L 84.869824 141.6184 
L 85.355114 144.520513 
L 85.840405 144.405736 
L 86.325696 144.936312 
L 86.810987 142.00416 
L 87.296277 140.191724 
L 87.781568 143.950255 
L 88.266859 143.158494 
L 88.75215 144.530526 
L 89.23744 142.558255 
L 89.722731 143.25604 
L 90.208022 142.486633 
L 90.693313 144.976868 
L 91.178603 141.123702 
L 91.663894 142.326488 
L 92.149185 139.337559 
L 92.634476 108.708334 
L 93.119766 139.30461 
L 93.605057 127.327528 
L 94.090348 156.497362 
L 94.575639 127.760345 
L 95.060929 138.821652 
L 95.54622 119.561993 
L 96.031511 132.449223 
L 97.002092 141.698191 
L 97.487383 136.558625 
L 97.972674 128.209733 
L 98.457965 138.936856 
L 98.943255 136.830151 
L 99.428546 143.917345 
L 99.913837 140.796213 
L 100.399128 142.930414 
L 101.369709 135.258738 
L 101.855 142.088492 
L 102.340291 141.811765 
L 102.825581 142.504156 
L 103.310872 143.759664 
L 104.281454 140.361009 
L 104.766744 136.64348 
L 105.252035 143.411392 
L 105.737326 142.410413 
L 106.222617 142.677767 
L 106.707907 142.814045 
L 107.193198 141.781494 
L 107.678489 143.795892 
L 108.163779 143.670656 
L 108.64907 144.270622 
L 109.134361 141.489942 
L 109.619652 153.137555 
L 110.590233 133.943969 
L 111.075524 142.648952 
L 111.560815 142.217551 
L 112.046105 142.128485 
L 112.531396 140.391765 
L 113.016687 141.961199 
L 113.501978 142.075647 
L 113.987268 144.716828 
L 114.472559 144.450056 
L 114.95785 142.05502 
L 115.443141 136.281548 
L 115.928431 138.015008 
L 116.413722 135.45127 
L 117.384304 145.52648 
L 117.869594 141.157058 
L 118.354885 143.358127 
L 118.840176 140.573313 
L 119.325467 142.115076 
L 119.810757 138.476699 
L 120.296048 144.217086 
L 120.781339 145.133617 
L 121.26663 143.852961 
L 121.75192 163.332472 
L 122.237211 154.16087 
L 122.722502 138.767785 
L 123.207793 142.246115 
L 123.693083 138.951138 
L 124.178374 137.343303 
L 124.663665 142.493968 
L 125.634246 141.22216 
L 126.119537 143.6301 
L 126.604828 59.639851 
L 127.090119 74.751978 
L 127.575409 132.792954 
L 128.0607 145.757917 
L 128.545991 133.203087 
L 129.031281 129.172447 
L 129.516572 91.547773 
L 130.001863 126.237812 
L 130.487154 127.816191 
L 130.972444 131.741833 
L 131.457735 129.09091 
L 132.428317 133.038304 
L 132.913607 87.395526 
L 133.398898 81.595083 
L 133.884189 131.04983 
L 134.36948 130.623941 
L 134.85477 131.775674 
L 135.340061 130.372013 
L 135.825352 131.348465 
L 136.310643 131.149938 
L 136.795933 122.728027 
L 137.281224 130.414799 
L 137.766515 131.858182 
L 138.737096 128.515742 
L 139.222387 131.441199 
L 139.707678 126.988745 
L 140.678259 140.937108 
L 141.16355 131.025807 
L 141.648841 133.551067 
L 142.134132 131.646848 
L 142.619422 131.271682 
L 143.104713 129.771192 
L 143.590004 132.843405 
L 144.075295 131.546313 
L 144.560585 132.241983 
L 145.045876 131.765409 
L 145.531167 128.162367 
L 146.016458 133.856998 
L 146.501748 134.032007 
L 147.47233 131.340781 
L 147.957621 130.345894 
L 148.442911 141.787083 
L 148.928202 136.854349 
L 149.413493 141.995487 
L 149.898784 136.180723 
L 150.384074 138.440509 
L 150.869365 135.253169 
L 151.354656 139.632429 
L 151.839946 142.226148 
L 152.325237 139.473642 
L 152.810528 140.658771 
L 153.295819 133.739019 
L 153.781109 137.846713 
L 154.2664 132.285973 
L 154.751691 139.994381 
L 155.722272 139.333969 
L 156.207563 136.128602 
L 156.692854 131.092074 
L 157.178145 124.415751 
L 157.663435 144.154176 
L 158.148726 140.732643 
L 158.634017 140.065731 
L 159.119308 140.422463 
L 159.604598 137.79174 
L 160.089889 157.206926 
L 160.57518 139.650844 
L 161.060471 139.309597 
L 161.545761 137.463087 
L 162.031052 138.452734 
L 162.516343 120.680448 
L 163.001634 112.65794 
L 163.486924 134.082905 
L 163.972215 122.919841 
L 164.457506 152.319501 
L 164.942797 125.426375 
L 165.428087 130.926515 
L 165.913378 112.821869 
L 166.398669 130.156254 
L 166.88396 137.173067 
L 167.36925 130.110712 
L 168.825123 133.919636 
L 169.310413 139.092539 
L 169.795704 142.448756 
L 170.280995 139.87058 
L 170.766286 138.053642 
L 171.251576 139.95955 
L 171.736867 132.448796 
L 172.222158 140.652813 
L 172.707449 140.27823 
L 173.192739 135.544605 
L 173.67803 139.156748 
L 174.163321 139.261241 
L 175.133902 142.571179 
L 175.619193 142.306346 
L 176.104484 141.883193 
L 176.589774 135.321803 
L 177.075065 138.839853 
L 177.560356 125.232854 
L 178.045647 141.685287 
L 178.530937 141.952331 
L 179.016228 143.537793 
L 179.501519 142.5177 
L 179.98681 143.125079 
L 180.4721 138.677943 
L 180.957391 140.131376 
L 181.442682 142.896766 
L 181.927973 137.571674 
L 182.413263 142.737727 
L 182.898554 138.602731 
L 183.383845 138.468316 
L 183.869136 140.147967 
L 184.354426 140.461447 
L 184.839717 134.295539 
L 185.325008 137.056466 
L 185.810299 92.44197 
L 186.295589 135.58256 
L 186.78088 142.474137 
L 187.266171 135.631556 
L 188.236752 141.686082 
L 188.722043 138.222811 
L 189.207334 138.837467 
L 189.692625 130.5223 
L 190.177915 140.946287 
L 190.663206 140.412101 
L 191.148497 143.465997 
L 191.633788 136.999184 
L 192.119078 138.77285 
L 192.604369 135.723378 
L 193.08966 126.856737 
L 193.574951 136.59429 
L 194.060241 137.777206 
L 194.545532 136.424462 
L 195.030823 139.587644 
L 195.516113 138.647167 
L 196.001404 137.272147 
L 196.486695 138.144591 
L 196.971986 137.92501 
L 197.457276 140.71778 
L 197.942567 137.937584 
L 198.427858 123.280143 
L 198.913149 140.460185 
L 199.398439 138.430031 
L 199.88373 142.854465 
L 200.369021 139.308336 
L 200.854312 142.720787 
L 201.339602 143.107906 
L 201.824893 130.535728 
L 202.310184 135.249482 
L 202.795475 138.823922 
L 203.280765 113.991008 
L 203.766056 136.798852 
L 204.251347 135.19449 
L 204.736638 138.436628 
L 205.221928 134.244932 
L 205.707219 135.127583 
L 206.19251 116.864306 
L 206.677801 127.726833 
L 207.163091 129.138606 
L 207.648382 142.419339 
L 208.133673 139.922371 
L 208.618964 142.138983 
L 209.104254 139.203202 
L 209.589545 139.77577 
L 210.074836 135.921789 
L 210.560127 139.165325 
L 211.530708 142.662186 
L 212.015999 139.035159 
L 212.50129 139.707427 
L 212.98658 143.330922 
L 213.957162 138.558023 
L 214.442453 150.54209 
L 214.927743 143.088987 
L 215.413034 140.606126 
L 215.898325 135.6197 
L 216.383616 136.078636 
L 216.868906 142.966487 
L 217.354197 141.20326 
L 217.839488 142.295538 
L 218.324778 123.168198 
L 218.810069 136.332621 
L 219.29536 144.930763 
L 219.780651 140.56689 
L 220.265941 133.078801 
L 220.751232 137.751282 
L 221.236523 89.350081 
L 221.721814 73.309159 
L 222.207104 131.274612 
L 222.692395 121.491186 
L 223.177686 132.652252 
L 223.662977 131.284644 
L 224.148267 128.387206 
L 224.633558 121.821606 
L 225.118849 131.932404 
L 225.60414 133.981788 
L 226.08943 121.457791 
L 226.574721 131.816249 
L 227.060012 132.69401 
L 227.545303 141.855891 
L 228.030593 131.713075 
L 228.515884 136.001289 
L 229.001175 133.906576 
L 229.486466 130.203368 
L 229.971756 130.996662 
L 230.457047 97.400454 
L 230.942338 131.599365 
L 231.427629 131.681795 
L 231.912919 134.040622 
L 232.39821 115.73547 
L 232.883501 111.566205 
L 233.368792 110.798855 
L 233.854082 148.61313 
L 234.339373 126.264667 
L 234.824664 120.29067 
L 235.309955 118.984924 
L 235.795245 122.536253 
L 236.280536 131.790654 
L 236.765827 138.035169 
L 237.251118 135.687228 
L 237.736408 123.380328 
L 238.221699 134.396074 
L 238.70699 136.262163 
L 239.192281 139.186553 
L 239.677571 136.424579 
L 240.162862 116.343276 
L 240.648153 132.030843 
L 241.133443 131.725106 
L 241.618734 131.169536 
L 242.104025 131.370916 
L 242.589316 137.660294 
L 243.559897 144.811677 
L 244.045188 137.875723 
L 244.530479 141.717906 
L 245.015769 142.0954 
L 245.50106 141.704497 
L 245.986351 139.765466 
L 246.471642 139.195615 
L 246.956932 139.129174 
L 247.442223 139.658063 
L 248.412805 141.555548 
L 248.898095 150.967378 
L 249.383386 145.371128 
L 249.868677 132.024109 
L 250.353968 126.503168 
L 251.324549 141.038536 
L 251.80984 136.933267 
L 252.295131 142.451492 
L 252.780421 143.624628 
L 254.236294 137.796591 
L 254.721584 138.54671 
L 255.206875 132.632226 
L 255.692166 105.824751 
L 256.177457 138.648797 
L 256.662747 140.672237 
L 257.148038 140.094275 
L 257.633329 141.710338 
L 258.11862 142.934333 
L 258.60391 128.52686 
L 259.089201 133.170215 
L 259.574492 123.487751 
L 260.059783 141.08792 
L 260.545073 136.438453 
L 261.030364 136.7875 
L 261.515655 105.144896 
L 262.000945 122.102291 
L 262.486236 144.187455 
L 262.971527 143.692194 
L 263.456818 143.852747 
L 263.942108 143.030754 
L 264.427399 134.723582 
L 264.91269 139.235569 
L 265.397981 140.279064 
L 265.883271 142.323325 
L 266.368562 138.3359 
L 267.339144 120.455763 
L 267.824434 122.588529 
L 268.309725 109.148505 
L 268.795016 138.806381 
L 269.280307 137.747847 
L 269.765597 140.420154 
L 270.250888 141.268634 
L 270.736179 132.551969 
L 271.22147 157.359775 
L 271.70676 135.690371 
L 272.192051 135.060968 
L 272.677342 91.633502 
L 273.162633 132.670608 
L 273.647923 141.781397 
L 274.133214 141.721728 
L 274.618505 134.192385 
L 275.103796 139.629441 
L 275.589086 147.116327 
L 276.074377 135.730034 
L 276.559668 116.234805 
L 277.044959 116.515588 
L 277.530249 144.387418 
L 278.01554 125.077463 
L 278.500831 140.472856 
L 278.986122 136.119812 
L 279.471412 14.63488 
L 279.956703 130.284712 
L 280.441994 125.004386 
L 280.927285 136.374399 
L 281.412575 140.137217 
L 281.897866 141.22934 
L 282.383157 135.939564 
L 282.868448 124.6455 
L 283.353738 146.7842 
L 283.839029 138.933752 
L 284.32432 121.725165 
L 284.80961 139.075754 
L 285.294901 132.852448 
L 285.780192 131.350794 
L 286.265483 134.009168 
L 286.750773 140.557499 
L 287.721355 125.130961 
L 288.206646 134.023973 
L 288.691936 110.677732 
L 289.177227 121.573752 
L 289.662518 65.705865 
L 290.147809 121.342082 
L 290.633099 126.122879 
L 291.11839 123.90161 
L 291.603681 127.368297 
L 292.088972 111.467436 
L 292.574262 141.181217 
L 293.059553 140.748283 
L 293.544844 135.148521 
L 294.030135 124.056186 
L 294.515425 135.137247 
L 295.000716 134.540094 
L 295.486007 139.813104 
L 295.971298 136.2186 
L 296.456588 149.786092 
L 296.941879 141.679504 
L 297.42717 117.116389 
L 297.912461 133.932229 
L 297.912461 133.932229 
" clip-path="url(#pe6de3476b6)" style="fill: none; stroke: #2196f3; stroke-width: 1.5; stroke-linecap: round"/>
   </g>
   <g id="patch_3">
    <path d="M 43.644375 170.767352 
L 43.644375 7.2 
" style="fill: none"/>
   </g>
   <g id="patch_4">
    <path d="M 310.020465 170.767352 
L 310.020465 7.2 
" style="fill: none"/>
   </g>
   <g id="patch_5">
    <path d="M 43.644375 170.767352 
L 310.020465 170.767352 
" style="fill: none"/>
   </g>
   <g id="patch_6">
    <path d="M 43.644375 7.2 
L 310.020465 7.2 
" style="fill: none"/>
   </g>
  </g>
 </g>
 <defs>
  <clipPath id="pe6de3476b6">
   <rect x="43.644375" y="7.2" width="266.37609" height="163.567352"/>
  </clipPath>
 </defs>
</svg>
