<?xml version="1.0" encoding="utf-8" standalone="no"?>
<!DOCTYPE svg PUBLIC "-//W3C//DTD SVG 1.1//EN"
  "http://www.w3.org/Graphics/SVG/1.1/DTD/svg11.dtd">
<svg xmlns:xlink="http://www.w3.org/1999/xlink" width="317.220465pt" height="208.027352pt" viewBox="0 0 317.220465 208.027352" xmlns="http://www.w3.org/2000/svg" version="1.1">
 <metadata>
  <rdf:RDF xmlns:dc="http://purl.org/dc/elements/1.1/" xmlns:cc="http://creativecommons.org/ns#" xmlns:rdf="http://www.w3.org/1999/02/22-rdf-syntax-ns#">
   <cc:Work>
    <dc:type rdf:resource="http://purl.org/dc/dcmitype/StillImage"/>
    <dc:date>2025-08-04T12:39:16.572510</dc:date>
    <dc:format>image/svg+xml</dc:format>
    <dc:creator>
     <cc:Agent>
      <dc:title>Matplotlib v3.10.3, https://matplotlib.org/</dc:title>
     </cc:Agent>
    </dc:creator>
   </cc:Work>
  </rdf:RDF>
 </metadata>
 <defs>
  <style type="text/css">*{stroke-linejoin: round; stroke-linecap: butt}</style>
 </defs>
 <g id="figure_1">
  <g id="patch_1">
   <path d="M 0 208.027352 
L 317.220465 208.027352 
L 317.220465 0 
L 0 0 
L 0 208.027352 
z
" style="fill: none"/>
  </g>
  <g id="axes_1">
   <g id="patch_2">
    <path d="M 43.644375 170.767352 
L 310.020465 170.767352 
L 310.020465 7.2 
L 43.644375 7.2 
L 43.644375 170.767352 
z
" style="fill: none"/>
   </g>
   <g id="matplotlib.axis_1">
    <g id="xtick_1">
     <g id="line2d_1">
      <path d="M 55.752379 170.767352 
L 55.752379 7.2 
" clip-path="url(#pf7995e3a8b)" style="fill: none; stroke-dasharray: 1.85,0.8; stroke-dashoffset: 0; stroke: #838383; stroke-opacity: 0.2; stroke-width: 0.5"/>
     </g>
     <g id="line2d_2"/>
     <g id="text_1">
      <!-- 0 -->
      <g style="fill: #838383" transform="translate(52.152379 183.147352) scale(0.12 -0.12)">
       <defs>
        <path id="IBMPlexSans-Regular-30" d="M 1920 -77 
Q 1120 -77 752 531 
Q 384 1139 384 2234 
Q 384 3328 752 3936 
Q 1120 4544 1920 4544 
Q 2720 4544 3088 3936 
Q 3456 3328 3456 2234 
Q 3456 1139 3088 531 
Q 2720 -77 1920 -77 
z
M 1920 390 
Q 2182 390 2368 499 
Q 2554 608 2669 806 
Q 2784 1005 2838 1273 
Q 2893 1542 2893 1869 
L 2893 2598 
Q 2893 2925 2838 3193 
Q 2784 3462 2669 3660 
Q 2554 3859 2368 3968 
Q 2182 4077 1920 4077 
Q 1658 4077 1472 3968 
Q 1286 3859 1171 3660 
Q 1056 3462 1001 3193 
Q 947 2925 947 2598 
L 947 1869 
Q 947 1542 1001 1273 
Q 1056 1005 1171 806 
Q 1286 608 1472 499 
Q 1658 390 1920 390 
z
" transform="scale(0.015625)"/>
       </defs>
       <use xlink:href="#IBMPlexSans-Regular-30"/>
      </g>
     </g>
    </g>
    <g id="xtick_2">
     <g id="line2d_3">
      <path d="M 94.560084 170.767352 
L 94.560084 7.2 
" clip-path="url(#pf7995e3a8b)" style="fill: none; stroke-dasharray: 1.85,0.8; stroke-dashoffset: 0; stroke: #838383; stroke-opacity: 0.2; stroke-width: 0.5"/>
     </g>
     <g id="line2d_4"/>
     <g id="text_2">
      <!-- 100 -->
      <g style="fill: #838383" transform="translate(83.760084 183.147352) scale(0.12 -0.12)">
       <defs>
        <path id="IBMPlexSans-Regular-31" d="M 563 0 
L 563 474 
L 1811 474 
L 1811 4070 
L 1766 4070 
L 640 3021 
L 326 3360 
L 1510 4467 
L 2349 4467 
L 2349 474 
L 3501 474 
L 3501 0 
L 563 0 
z
" transform="scale(0.015625)"/>
       </defs>
       <use xlink:href="#IBMPlexSans-Regular-31"/>
       <use xlink:href="#IBMPlexSans-Regular-30" transform="translate(59.999985 0)"/>
       <use xlink:href="#IBMPlexSans-Regular-30" transform="translate(119.999969 0)"/>
      </g>
     </g>
    </g>
    <g id="xtick_3">
     <g id="line2d_5">
      <path d="M 133.36779 170.767352 
L 133.36779 7.2 
" clip-path="url(#pf7995e3a8b)" style="fill: none; stroke-dasharray: 1.85,0.8; stroke-dashoffset: 0; stroke: #838383; stroke-opacity: 0.2; stroke-width: 0.5"/>
     </g>
     <g id="line2d_6"/>
     <g id="text_3">
      <!-- 200 -->
      <g style="fill: #838383" transform="translate(122.56779 183.147352) scale(0.12 -0.12)">
       <defs>
        <path id="IBMPlexSans-Regular-32" d="M 3411 0 
L 480 0 
L 480 550 
L 1939 1894 
Q 2253 2182 2464 2505 
Q 2675 2829 2675 3155 
L 2675 3232 
Q 2675 3603 2470 3833 
Q 2266 4064 1850 4064 
Q 1645 4064 1491 4006 
Q 1338 3949 1226 3846 
Q 1114 3744 1040 3606 
Q 966 3469 922 3309 
L 442 3494 
Q 506 3693 618 3881 
Q 730 4070 899 4217 
Q 1069 4365 1309 4454 
Q 1549 4544 1875 4544 
Q 2202 4544 2458 4448 
Q 2714 4352 2886 4179 
Q 3059 4006 3152 3769 
Q 3245 3533 3245 3245 
Q 3245 2982 3171 2758 
Q 3098 2534 2970 2332 
Q 2842 2131 2659 1939 
Q 2477 1747 2266 1555 
L 1062 474 
L 3411 474 
L 3411 0 
z
" transform="scale(0.015625)"/>
       </defs>
       <use xlink:href="#IBMPlexSans-Regular-32"/>
       <use xlink:href="#IBMPlexSans-Regular-30" transform="translate(59.999985 0)"/>
       <use xlink:href="#IBMPlexSans-Regular-30" transform="translate(119.999969 0)"/>
      </g>
     </g>
    </g>
    <g id="xtick_4">
     <g id="line2d_7">
      <path d="M 172.175495 170.767352 
L 172.175495 7.2 
" clip-path="url(#pf7995e3a8b)" style="fill: none; stroke-dasharray: 1.85,0.8; stroke-dashoffset: 0; stroke: #838383; stroke-opacity: 0.2; stroke-width: 0.5"/>
     </g>
     <g id="line2d_8"/>
     <g id="text_4">
      <!-- 300 -->
      <g style="fill: #838383" transform="translate(161.375495 183.147352) scale(0.12 -0.12)">
       <defs>
        <path id="IBMPlexSans-Regular-33" d="M 1670 2573 
Q 2125 2573 2352 2781 
Q 2579 2989 2579 3315 
L 2579 3360 
Q 2579 3712 2358 3888 
Q 2138 4064 1779 4064 
Q 1434 4064 1216 3913 
Q 998 3763 858 3507 
L 461 3814 
Q 544 3949 662 4080 
Q 781 4211 941 4313 
Q 1101 4416 1312 4480 
Q 1523 4544 1792 4544 
Q 2074 4544 2323 4470 
Q 2573 4397 2755 4253 
Q 2938 4109 3043 3897 
Q 3149 3686 3149 3418 
Q 3149 3200 3081 3027 
Q 3014 2854 2899 2726 
Q 2784 2598 2627 2508 
Q 2470 2419 2291 2374 
L 2291 2349 
Q 2470 2310 2640 2224 
Q 2810 2138 2941 2000 
Q 3072 1862 3152 1667 
Q 3232 1472 3232 1222 
Q 3232 934 3123 694 
Q 3014 454 2816 284 
Q 2618 115 2336 19 
Q 2054 -77 1715 -77 
Q 1427 -77 1203 -13 
Q 979 51 806 160 
Q 634 269 502 403 
Q 371 538 269 685 
L 672 992 
Q 755 858 854 749 
Q 954 640 1075 563 
Q 1197 486 1350 444 
Q 1504 403 1709 403 
Q 2182 403 2425 617 
Q 2669 832 2669 1229 
L 2669 1280 
Q 2669 1677 2425 1891 
Q 2182 2106 1709 2106 
L 1184 2106 
L 1184 2573 
L 1670 2573 
z
" transform="scale(0.015625)"/>
       </defs>
       <use xlink:href="#IBMPlexSans-Regular-33"/>
       <use xlink:href="#IBMPlexSans-Regular-30" transform="translate(59.999985 0)"/>
       <use xlink:href="#IBMPlexSans-Regular-30" transform="translate(119.999969 0)"/>
      </g>
     </g>
    </g>
    <g id="xtick_5">
     <g id="line2d_9">
      <path d="M 210.983201 170.767352 
L 210.983201 7.2 
" clip-path="url(#pf7995e3a8b)" style="fill: none; stroke-dasharray: 1.85,0.8; stroke-dashoffset: 0; stroke: #838383; stroke-opacity: 0.2; stroke-width: 0.5"/>
     </g>
     <g id="line2d_10"/>
     <g id="text_5">
      <!-- 400 -->
      <g style="fill: #838383" transform="translate(200.183201 183.147352) scale(0.12 -0.12)">
       <defs>
        <path id="IBMPlexSans-Regular-34" d="M 2400 0 
L 2400 877 
L 243 877 
L 243 1350 
L 2112 4467 
L 2912 4467 
L 2912 1325 
L 3558 1325 
L 3558 877 
L 2912 877 
L 2912 0 
L 2400 0 
z
M 749 1325 
L 2400 1325 
L 2400 4051 
L 2368 4051 
L 749 1325 
z
" transform="scale(0.015625)"/>
       </defs>
       <use xlink:href="#IBMPlexSans-Regular-34"/>
       <use xlink:href="#IBMPlexSans-Regular-30" transform="translate(59.999985 0)"/>
       <use xlink:href="#IBMPlexSans-Regular-30" transform="translate(119.999969 0)"/>
      </g>
     </g>
    </g>
    <g id="xtick_6">
     <g id="line2d_11">
      <path d="M 249.790906 170.767352 
L 249.790906 7.2 
" clip-path="url(#pf7995e3a8b)" style="fill: none; stroke-dasharray: 1.85,0.8; stroke-dashoffset: 0; stroke: #838383; stroke-opacity: 0.2; stroke-width: 0.5"/>
     </g>
     <g id="line2d_12"/>
     <g id="text_6">
      <!-- 500 -->
      <g style="fill: #838383" transform="translate(238.990906 183.147352) scale(0.12 -0.12)">
       <defs>
        <path id="IBMPlexSans-Regular-35" d="M 3187 3994 
L 1229 3994 
L 1101 2291 
L 1146 2291 
Q 1306 2515 1507 2649 
Q 1709 2784 2061 2784 
Q 2349 2784 2592 2688 
Q 2835 2592 3014 2416 
Q 3194 2240 3293 1984 
Q 3392 1728 3392 1402 
Q 3392 1075 3289 803 
Q 3187 531 2992 336 
Q 2797 141 2518 32 
Q 2240 -77 1888 -77 
Q 1606 -77 1392 -13 
Q 1178 51 1011 160 
Q 845 269 720 403 
Q 595 538 493 685 
L 896 992 
Q 979 858 1072 749 
Q 1165 640 1277 563 
Q 1389 486 1536 444 
Q 1683 403 1888 403 
Q 2349 403 2585 646 
Q 2822 890 2822 1331 
L 2822 1395 
Q 2822 1837 2585 2080 
Q 2349 2323 1888 2323 
Q 1581 2323 1405 2211 
Q 1229 2099 1088 1946 
L 634 2010 
L 794 4467 
L 3187 4467 
L 3187 3994 
z
" transform="scale(0.015625)"/>
       </defs>
       <use xlink:href="#IBMPlexSans-Regular-35"/>
       <use xlink:href="#IBMPlexSans-Regular-30" transform="translate(59.999985 0)"/>
       <use xlink:href="#IBMPlexSans-Regular-30" transform="translate(119.999969 0)"/>
      </g>
     </g>
    </g>
    <g id="xtick_7">
     <g id="line2d_13">
      <path d="M 288.598611 170.767352 
L 288.598611 7.2 
" clip-path="url(#pf7995e3a8b)" style="fill: none; stroke-dasharray: 1.85,0.8; stroke-dashoffset: 0; stroke: #838383; stroke-opacity: 0.2; stroke-width: 0.5"/>
     </g>
     <g id="line2d_14"/>
     <g id="text_7">
      <!-- 600 -->
      <g style="fill: #838383" transform="translate(277.798611 183.147352) scale(0.12 -0.12)">
       <defs>
        <path id="IBMPlexSans-Regular-36" d="M 1926 -77 
Q 1581 -77 1302 41 
Q 1024 160 829 381 
Q 634 602 531 922 
Q 429 1242 429 1638 
Q 429 2138 576 2576 
Q 723 3014 956 3376 
Q 1190 3738 1472 4016 
Q 1754 4294 2022 4467 
L 2714 4467 
Q 2355 4205 2073 3955 
Q 1792 3706 1581 3434 
Q 1370 3162 1222 2851 
Q 1075 2541 986 2150 
L 1018 2138 
Q 1178 2413 1430 2595 
Q 1683 2778 2093 2778 
Q 2381 2778 2624 2682 
Q 2867 2586 3040 2406 
Q 3213 2227 3312 1971 
Q 3411 1715 3411 1402 
Q 3411 1075 3305 803 
Q 3200 531 3005 336 
Q 2810 141 2534 32 
Q 2259 -77 1926 -77 
z
M 1920 390 
Q 2362 390 2608 633 
Q 2854 877 2854 1331 
L 2854 1382 
Q 2854 1837 2608 2080 
Q 2362 2323 1920 2323 
Q 1478 2323 1232 2080 
Q 986 1837 986 1382 
L 986 1331 
Q 986 877 1232 633 
Q 1478 390 1920 390 
z
" transform="scale(0.015625)"/>
       </defs>
       <use xlink:href="#IBMPlexSans-Regular-36"/>
       <use xlink:href="#IBMPlexSans-Regular-30" transform="translate(59.999985 0)"/>
       <use xlink:href="#IBMPlexSans-Regular-30" transform="translate(119.999969 0)"/>
      </g>
     </g>
    </g>
    <g id="text_8">
     <!-- draw -->
     <g style="fill: #bdbdbd" transform="translate(163.338045 198.427352) scale(0.12 -0.12)">
      <defs>
       <path id="IBMPlexSans-Regular-64" d="M 2656 538 
L 2630 538 
Q 2330 -77 1664 -77 
Q 1357 -77 1107 44 
Q 858 166 682 390 
Q 506 614 413 934 
Q 320 1254 320 1651 
Q 320 2048 413 2368 
Q 506 2688 682 2912 
Q 858 3136 1107 3257 
Q 1357 3379 1664 3379 
Q 2010 3379 2256 3228 
Q 2502 3078 2630 2765 
L 2656 2765 
L 2656 4736 
L 3168 4736 
L 3168 0 
L 2656 0 
L 2656 538 
z
M 1805 384 
Q 1978 384 2134 429 
Q 2291 474 2406 560 
Q 2522 646 2589 771 
Q 2656 896 2656 1056 
L 2656 2285 
Q 2656 2419 2589 2537 
Q 2522 2656 2406 2739 
Q 2291 2822 2134 2870 
Q 1978 2918 1805 2918 
Q 1370 2918 1120 2646 
Q 870 2374 870 1933 
L 870 1370 
Q 870 928 1120 656 
Q 1370 384 1805 384 
z
" transform="scale(0.015625)"/>
       <path id="IBMPlexSans-Regular-72" d="M 544 0 
L 544 3302 
L 1056 3302 
L 1056 2694 
L 1088 2694 
Q 1178 2931 1408 3116 
Q 1638 3302 2042 3302 
L 2240 3302 
L 2240 2790 
L 1939 2790 
Q 1523 2790 1289 2633 
Q 1056 2477 1056 2240 
L 1056 0 
L 544 0 
z
" transform="scale(0.015625)"/>
       <path id="IBMPlexSans-Regular-61" d="M 2944 0 
Q 2656 0 2531 153 
Q 2406 307 2374 538 
L 2342 538 
Q 2234 230 1984 76 
Q 1734 -77 1389 -77 
Q 864 -77 573 192 
Q 282 461 282 922 
Q 282 1389 624 1638 
Q 966 1888 1690 1888 
L 2342 1888 
L 2342 2214 
Q 2342 2566 2150 2752 
Q 1958 2938 1562 2938 
Q 1261 2938 1059 2803 
Q 858 2669 723 2445 
L 416 2733 
Q 550 3002 844 3190 
Q 1139 3379 1587 3379 
Q 2189 3379 2521 3084 
Q 2854 2790 2854 2266 
L 2854 448 
L 3232 448 
L 3232 0 
L 2944 0 
z
M 1472 358 
Q 1664 358 1824 403 
Q 1984 448 2099 531 
Q 2214 614 2278 723 
Q 2342 832 2342 960 
L 2342 1504 
L 1664 1504 
Q 1222 1504 1020 1376 
Q 819 1248 819 1005 
L 819 870 
Q 819 627 995 492 
Q 1171 358 1472 358 
z
" transform="scale(0.015625)"/>
       <path id="IBMPlexSans-Regular-77" d="M 198 3302 
L 698 3302 
L 1050 1875 
L 1402 429 
L 1414 429 
L 1818 1875 
L 2234 3302 
L 2688 3302 
L 3117 1875 
L 3526 429 
L 3539 429 
L 3878 1875 
L 4237 3302 
L 4717 3302 
L 3840 0 
L 3206 0 
L 2746 1587 
L 2458 2592 
L 2445 2592 
L 2163 1587 
L 1702 0 
L 1082 0 
L 198 3302 
z
" transform="scale(0.015625)"/>
      </defs>
      <use xlink:href="#IBMPlexSans-Regular-64"/>
      <use xlink:href="#IBMPlexSans-Regular-72" transform="translate(57.999985 0)"/>
      <use xlink:href="#IBMPlexSans-Regular-61" transform="translate(94.699982 0)"/>
      <use xlink:href="#IBMPlexSans-Regular-77" transform="translate(148.099976 0)"/>
     </g>
    </g>
   </g>
   <g id="matplotlib.axis_2">
    <g id="ytick_1">
     <g id="line2d_15">
      <path d="M 43.644375 163.332472 
L 310.020465 163.332472 
" clip-path="url(#pf7995e3a8b)" style="fill: none; stroke-dasharray: 1.85,0.8; stroke-dashoffset: 0; stroke: #838383; stroke-opacity: 0.2; stroke-width: 0.5"/>
     </g>
     <g id="line2d_16"/>
     <g id="text_9">
      <!-- 0.0 -->
      <g style="fill: #838383" transform="translate(22.48 167.772472) scale(0.12 -0.12)">
       <defs>
        <path id="IBMPlexSans-Regular-2e" d="M 870 -77 
Q 666 -77 573 25 
Q 480 128 480 294 
L 480 378 
Q 480 544 573 646 
Q 666 749 870 749 
Q 1075 749 1168 646 
Q 1261 544 1261 378 
L 1261 294 
Q 1261 128 1168 25 
Q 1075 -77 870 -77 
z
" transform="scale(0.015625)"/>
       </defs>
       <use xlink:href="#IBMPlexSans-Regular-30"/>
       <use xlink:href="#IBMPlexSans-Regular-2e" transform="translate(59.999985 0)"/>
       <use xlink:href="#IBMPlexSans-Regular-30" transform="translate(87.199982 0)"/>
      </g>
     </g>
    </g>
    <g id="ytick_2">
     <g id="line2d_17">
      <path d="M 43.644375 123.679781 
L 310.020465 123.679781 
" clip-path="url(#pf7995e3a8b)" style="fill: none; stroke-dasharray: 1.85,0.8; stroke-dashoffset: 0; stroke: #838383; stroke-opacity: 0.2; stroke-width: 0.5"/>
     </g>
     <g id="line2d_18"/>
     <g id="text_10">
      <!-- 0.2 -->
      <g style="fill: #838383" transform="translate(22.48 128.119781) scale(0.12 -0.12)">
       <use xlink:href="#IBMPlexSans-Regular-30"/>
       <use xlink:href="#IBMPlexSans-Regular-2e" transform="translate(59.999985 0)"/>
       <use xlink:href="#IBMPlexSans-Regular-32" transform="translate(87.199982 0)"/>
      </g>
     </g>
    </g>
    <g id="ytick_3">
     <g id="line2d_19">
      <path d="M 43.644375 84.027089 
L 310.020465 84.027089 
" clip-path="url(#pf7995e3a8b)" style="fill: none; stroke-dasharray: 1.85,0.8; stroke-dashoffset: 0; stroke: #838383; stroke-opacity: 0.2; stroke-width: 0.5"/>
     </g>
     <g id="line2d_20"/>
     <g id="text_11">
      <!-- 0.4 -->
      <g style="fill: #838383" transform="translate(22.48 88.467089) scale(0.12 -0.12)">
       <use xlink:href="#IBMPlexSans-Regular-30"/>
       <use xlink:href="#IBMPlexSans-Regular-2e" transform="translate(59.999985 0)"/>
       <use xlink:href="#IBMPlexSans-Regular-34" transform="translate(87.199982 0)"/>
      </g>
     </g>
    </g>
    <g id="ytick_4">
     <g id="line2d_21">
      <path d="M 43.644375 44.374398 
L 310.020465 44.374398 
" clip-path="url(#pf7995e3a8b)" style="fill: none; stroke-dasharray: 1.85,0.8; stroke-dashoffset: 0; stroke: #838383; stroke-opacity: 0.2; stroke-width: 0.5"/>
     </g>
     <g id="line2d_22"/>
     <g id="text_12">
      <!-- 0.6 -->
      <g style="fill: #838383" transform="translate(22.48 48.814398) scale(0.12 -0.12)">
       <use xlink:href="#IBMPlexSans-Regular-30"/>
       <use xlink:href="#IBMPlexSans-Regular-2e" transform="translate(59.999985 0)"/>
       <use xlink:href="#IBMPlexSans-Regular-36" transform="translate(87.199982 0)"/>
      </g>
     </g>
    </g>
    <g id="text_13">
     <!-- val_acc -->
     <g style="fill: #bdbdbd" transform="translate(16.08 109.402426) rotate(-90) scale(0.12 -0.12)">
      <defs>
       <path id="IBMPlexSans-Regular-76" d="M 1274 0 
L 115 3302 
L 627 3302 
L 1203 1664 
L 1562 538 
L 1594 538 
L 1952 1664 
L 2541 3302 
L 3034 3302 
L 1869 0 
L 1274 0 
z
" transform="scale(0.015625)"/>
       <path id="IBMPlexSans-Regular-6c" d="M 1088 0 
Q 819 0 681 150 
Q 544 301 544 531 
L 544 4736 
L 1056 4736 
L 1056 448 
L 1542 448 
L 1542 0 
L 1088 0 
z
" transform="scale(0.015625)"/>
       <path id="IBMPlexSans-Regular-5f" d="M 192 -1056 
L 192 -608 
L 3424 -608 
L 3424 -1056 
L 192 -1056 
z
" transform="scale(0.015625)"/>
       <path id="IBMPlexSans-Regular-63" d="M 1773 -77 
Q 1427 -77 1152 44 
Q 877 166 688 390 
Q 499 614 400 934 
Q 301 1254 301 1651 
Q 301 2048 400 2368 
Q 499 2688 688 2912 
Q 877 3136 1152 3257 
Q 1427 3379 1773 3379 
Q 2266 3379 2563 3164 
Q 2861 2950 3008 2605 
L 2579 2387 
Q 2490 2643 2285 2784 
Q 2080 2925 1773 2925 
Q 1542 2925 1369 2851 
Q 1197 2778 1081 2646 
Q 966 2515 908 2332 
Q 851 2150 851 1933 
L 851 1370 
Q 851 934 1084 656 
Q 1318 378 1773 378 
Q 2394 378 2669 954 
L 3040 704 
Q 2880 346 2563 134 
Q 2246 -77 1773 -77 
z
" transform="scale(0.015625)"/>
      </defs>
      <use xlink:href="#IBMPlexSans-Regular-76"/>
      <use xlink:href="#IBMPlexSans-Regular-61" transform="translate(49.199997 0)"/>
      <use xlink:href="#IBMPlexSans-Regular-6c" transform="translate(102.599991 0)"/>
      <use xlink:href="#IBMPlexSans-Regular-5f" transform="translate(129.799988 0)"/>
      <use xlink:href="#IBMPlexSans-Regular-61" transform="translate(186.299973 0)"/>
      <use xlink:href="#IBMPlexSans-Regular-63" transform="translate(239.699966 0)"/>
      <use xlink:href="#IBMPlexSans-Regular-63" transform="translate(289.999954 0)"/>
     </g>
    </g>
   </g>
   <g id="line2d_23">
    <path d="M 55.752379 101.375142 
L 56.140456 88.983676 
L 56.528533 126.158074 
L 56.91661 101.375142 
L 57.304687 64.200744 
L 57.692764 64.200744 
L 58.080841 76.59221 
L 58.468918 113.766608 
L 58.856996 76.59221 
L 59.245073 113.766608 
L 59.63315 88.983676 
L 60.021227 76.59221 
L 60.409304 88.983676 
L 60.797381 64.200744 
L 61.185458 88.983676 
L 61.573535 126.158074 
L 61.961612 51.809278 
L 62.349689 76.59221 
L 62.737766 76.59221 
L 63.125843 113.766608 
L 63.51392 51.809278 
L 63.901997 101.375142 
L 64.290074 76.59221 
L 64.678151 64.200744 
L 65.066228 88.983676 
L 65.454305 88.983676 
L 65.842382 27.026346 
L 66.23046 126.158074 
L 66.618537 76.59221 
L 67.006614 101.375142 
L 67.394691 101.375142 
L 67.782768 113.766608 
L 68.170845 101.375142 
L 68.558922 101.375142 
L 68.946999 88.983676 
L 69.335076 113.766608 
L 69.723153 64.200744 
L 70.11123 113.766608 
L 70.499307 88.983676 
L 71.275461 113.766608 
L 71.663538 88.983676 
L 72.051615 126.158074 
L 72.439692 101.375142 
L 72.827769 101.375142 
L 73.215846 51.809278 
L 73.603924 88.983676 
L 73.992001 39.417812 
L 74.380078 113.766608 
L 74.768155 101.375142 
L 75.156232 76.59221 
L 75.544309 126.158074 
L 75.932386 101.375142 
L 76.320463 88.983676 
L 76.70854 163.332472 
L 77.096617 88.983676 
L 77.484694 126.158074 
L 77.872771 113.766608 
L 78.260848 64.200744 
L 78.648925 113.766608 
L 79.037002 101.375142 
L 79.425079 101.375142 
L 79.813156 76.59221 
L 80.201233 64.200744 
L 80.977388 88.983676 
L 81.365465 88.983676 
L 81.753542 113.766608 
L 82.141619 88.983676 
L 82.529696 76.59221 
L 82.917773 101.375142 
L 83.30585 101.375142 
L 83.693927 88.983676 
L 84.470081 88.983676 
L 84.858158 76.59221 
L 85.246235 101.375142 
L 85.634312 88.983676 
L 86.022389 88.983676 
L 86.410466 76.59221 
L 86.798543 138.54954 
L 87.18662 88.983676 
L 87.574697 76.59221 
L 87.962775 76.59221 
L 88.350852 126.158074 
L 88.738929 101.375142 
L 89.127006 101.375142 
L 89.515083 64.200744 
L 89.90316 113.766608 
L 90.291237 101.375142 
L 90.679314 113.766608 
L 91.067391 138.54954 
L 91.843545 39.417812 
L 92.231622 76.59221 
L 92.619699 101.375142 
L 93.007776 113.766608 
L 93.395853 101.375142 
L 93.78393 64.200744 
L 94.172007 101.375142 
L 94.948161 101.375142 
L 95.336239 64.200744 
L 95.724316 76.59221 
L 96.112393 51.809278 
L 96.888547 138.54954 
L 97.276624 113.766608 
L 97.664701 101.375142 
L 98.052778 126.158074 
L 98.440855 64.200744 
L 98.828932 113.766608 
L 99.217009 113.766608 
L 99.605086 101.375142 
L 99.993163 101.375142 
L 100.38124 113.766608 
L 100.769317 113.766608 
L 101.157394 76.59221 
L 101.545471 64.200744 
L 101.933548 88.983676 
L 102.321626 76.59221 
L 102.709703 51.809278 
L 103.09778 51.809278 
L 103.485857 101.375142 
L 103.873934 88.983676 
L 104.650088 88.983676 
L 105.038165 64.200744 
L 105.426242 88.983676 
L 105.814319 88.983676 
L 106.202396 138.54954 
L 106.590473 113.766608 
L 106.97855 126.158074 
L 107.366627 101.375142 
L 107.754704 126.158074 
L 108.142781 88.983676 
L 108.530858 101.375142 
L 108.918935 126.158074 
L 109.307012 126.158074 
L 109.69509 88.983676 
L 110.083167 126.158074 
L 110.471244 126.158074 
L 110.859321 39.417812 
L 111.247398 101.375142 
L 111.635475 88.983676 
L 112.023552 51.809278 
L 112.411629 64.200744 
L 112.799706 88.983676 
L 113.187783 76.59221 
L 113.57586 51.809278 
L 113.963937 51.809278 
L 114.352014 150.941006 
L 114.740091 27.026346 
L 115.128168 138.54954 
L 115.516245 126.158074 
L 115.904322 76.59221 
L 116.680477 76.59221 
L 117.068554 113.766608 
L 117.456631 51.809278 
L 117.844708 126.158074 
L 118.232785 88.983676 
L 118.620862 138.54954 
L 119.008939 101.375142 
L 119.397016 88.983676 
L 119.785093 101.375142 
L 120.17317 88.983676 
L 120.561247 126.158074 
L 120.949324 113.766608 
L 121.337401 138.54954 
L 121.725478 76.59221 
L 122.113555 113.766608 
L 122.501632 88.983676 
L 122.889709 88.983676 
L 123.277786 64.200744 
L 123.665863 76.59221 
L 124.053941 138.54954 
L 124.442018 113.766608 
L 124.830095 126.158074 
L 125.218172 76.59221 
L 125.606249 126.158074 
L 126.382403 76.59221 
L 126.77048 88.983676 
L 127.158557 88.983676 
L 127.546634 76.59221 
L 127.934711 126.158074 
L 128.322788 64.200744 
L 128.710865 101.375142 
L 129.098942 76.59221 
L 129.487019 76.59221 
L 129.875096 64.200744 
L 130.65125 88.983676 
L 131.039327 64.200744 
L 131.427405 64.200744 
L 131.815482 101.375142 
L 132.203559 88.983676 
L 132.591636 126.158074 
L 132.979713 88.983676 
L 133.36779 113.766608 
L 133.755867 64.200744 
L 134.143944 51.809278 
L 134.532021 101.375142 
L 134.920098 101.375142 
L 135.308175 88.983676 
L 135.696252 113.766608 
L 136.084329 39.417812 
L 136.472406 138.54954 
L 136.860483 51.809278 
L 137.24856 88.983676 
L 137.636637 88.983676 
L 138.024714 113.766608 
L 138.412792 126.158074 
L 138.800869 113.766608 
L 139.188946 88.983676 
L 139.577023 88.983676 
L 139.9651 113.766608 
L 140.353177 101.375142 
L 140.741254 64.200744 
L 141.129331 101.375142 
L 142.293562 101.375142 
L 142.681639 88.983676 
L 143.069716 88.983676 
L 143.457793 76.59221 
L 143.84587 113.766608 
L 144.233947 76.59221 
L 144.622024 88.983676 
L 145.010101 64.200744 
L 145.398178 138.54954 
L 145.786256 88.983676 
L 146.174333 126.158074 
L 146.56241 150.941006 
L 146.950487 101.375142 
L 147.338564 113.766608 
L 147.726641 76.59221 
L 148.114718 113.766608 
L 148.502795 88.983676 
L 148.890872 88.983676 
L 149.278949 76.59221 
L 149.667026 101.375142 
L 150.055103 88.983676 
L 150.44318 101.375142 
L 150.831257 76.59221 
L 151.219334 101.375142 
L 151.607411 101.375142 
L 151.995488 88.983676 
L 152.383565 64.200744 
L 152.771643 76.59221 
L 153.547797 126.158074 
L 153.935874 88.983676 
L 155.100105 88.983676 
L 155.488182 14.63488 
L 155.876259 113.766608 
L 156.264336 88.983676 
L 156.652413 113.766608 
L 157.04049 113.766608 
L 157.816644 88.983676 
L 158.204721 51.809278 
L 158.592798 88.983676 
L 158.980875 88.983676 
L 159.368952 101.375142 
L 159.757029 150.941006 
L 160.145107 76.59221 
L 160.533184 76.59221 
L 160.921261 39.417812 
L 161.309338 126.158074 
L 161.697415 101.375142 
L 162.085492 88.983676 
L 162.861646 113.766608 
L 163.249723 113.766608 
L 163.6378 88.983676 
L 164.025877 88.983676 
L 164.413954 138.54954 
L 164.802031 101.375142 
L 165.190108 88.983676 
L 165.578185 39.417812 
L 165.966262 76.59221 
L 166.354339 88.983676 
L 166.742416 88.983676 
L 167.130493 101.375142 
L 167.518571 138.54954 
L 167.906648 88.983676 
L 168.294725 88.983676 
L 168.682802 76.59221 
L 169.458956 101.375142 
L 169.847033 88.983676 
L 170.23511 126.158074 
L 170.623187 101.375142 
L 171.011264 88.983676 
L 171.787418 88.983676 
L 172.175495 51.809278 
L 172.563572 101.375142 
L 172.951649 126.158074 
L 173.339726 64.200744 
L 173.727803 113.766608 
L 174.503958 113.766608 
L 174.892035 51.809278 
L 175.280112 88.983676 
L 175.668189 113.766608 
L 176.056266 101.375142 
L 176.444343 101.375142 
L 176.83242 113.766608 
L 177.220497 76.59221 
L 177.608574 76.59221 
L 177.996651 101.375142 
L 178.384728 150.941006 
L 178.772805 76.59221 
L 179.160882 101.375142 
L 179.548959 76.59221 
L 179.937036 126.158074 
L 180.71319 51.809278 
L 181.101267 64.200744 
L 181.489344 126.158074 
L 181.877422 138.54954 
L 182.265499 76.59221 
L 182.653576 88.983676 
L 183.041653 39.417812 
L 183.42973 51.809278 
L 183.817807 88.983676 
L 184.205884 113.766608 
L 184.593961 113.766608 
L 184.982038 64.200744 
L 185.370115 88.983676 
L 185.758192 88.983676 
L 186.146269 76.59221 
L 186.534346 88.983676 
L 186.922423 88.983676 
L 187.3105 113.766608 
L 188.086654 39.417812 
L 188.474731 113.766608 
L 188.862808 101.375142 
L 189.250886 76.59221 
L 189.638963 138.54954 
L 190.02704 101.375142 
L 190.415117 101.375142 
L 191.191271 76.59221 
L 191.579348 76.59221 
L 191.967425 51.809278 
L 192.355502 51.809278 
L 192.743579 76.59221 
L 193.131656 88.983676 
L 193.519733 88.983676 
L 193.90781 27.026346 
L 194.295887 88.983676 
L 194.683964 101.375142 
L 195.072041 101.375142 
L 195.460118 113.766608 
L 195.848195 88.983676 
L 196.236273 76.59221 
L 196.62435 101.375142 
L 197.012427 76.59221 
L 197.788581 101.375142 
L 198.176658 76.59221 
L 198.564735 88.983676 
L 198.952812 88.983676 
L 199.340889 76.59221 
L 199.728966 101.375142 
L 200.117043 113.766608 
L 200.893197 113.766608 
L 201.281274 64.200744 
L 201.669351 88.983676 
L 202.057428 88.983676 
L 202.445505 101.375142 
L 202.833582 64.200744 
L 203.221659 88.983676 
L 203.609737 64.200744 
L 203.997814 113.766608 
L 204.385891 101.375142 
L 204.773968 51.809278 
L 205.162045 126.158074 
L 205.550122 88.983676 
L 205.938199 101.375142 
L 206.326276 138.54954 
L 206.714353 64.200744 
L 207.10243 126.158074 
L 207.490507 113.766608 
L 207.878584 76.59221 
L 208.266661 88.983676 
L 208.654738 51.809278 
L 209.042815 88.983676 
L 209.430892 101.375142 
L 209.818969 88.983676 
L 210.207046 51.809278 
L 210.595124 88.983676 
L 210.983201 138.54954 
L 211.371278 88.983676 
L 211.759355 64.200744 
L 212.147432 88.983676 
L 212.535509 101.375142 
L 213.311663 101.375142 
L 213.69974 64.200744 
L 214.087817 88.983676 
L 214.475894 51.809278 
L 214.863971 101.375142 
L 215.640125 76.59221 
L 216.028202 76.59221 
L 216.416279 88.983676 
L 216.804356 64.200744 
L 217.192433 88.983676 
L 217.968588 113.766608 
L 218.356665 88.983676 
L 218.744742 88.983676 
L 219.132819 126.158074 
L 219.520896 113.766608 
L 219.908973 88.983676 
L 220.29705 76.59221 
L 220.685127 101.375142 
L 221.461281 101.375142 
L 221.849358 126.158074 
L 222.237435 113.766608 
L 222.625512 64.200744 
L 223.013589 39.417812 
L 223.401666 126.158074 
L 224.17782 101.375142 
L 224.565897 76.59221 
L 224.953974 113.766608 
L 225.342052 39.417812 
L 225.730129 113.766608 
L 226.118206 88.983676 
L 226.506283 76.59221 
L 226.89436 88.983676 
L 227.670514 88.983676 
L 228.058591 76.59221 
L 228.834745 101.375142 
L 229.610899 76.59221 
L 229.998976 101.375142 
L 230.387053 76.59221 
L 230.77513 64.200744 
L 231.163207 88.983676 
L 231.939361 113.766608 
L 232.327439 64.200744 
L 232.715516 88.983676 
L 233.49167 64.200744 
L 233.879747 101.375142 
L 234.267824 88.983676 
L 234.655901 64.200744 
L 235.043978 51.809278 
L 235.432055 76.59221 
L 235.820132 113.766608 
L 236.208209 113.766608 
L 236.596286 76.59221 
L 236.984363 113.766608 
L 237.37244 51.809278 
L 237.760517 101.375142 
L 238.148594 76.59221 
L 238.536671 76.59221 
L 238.924748 113.766608 
L 239.312825 101.375142 
L 239.700903 101.375142 
L 240.08898 76.59221 
L 240.477057 88.983676 
L 240.865134 64.200744 
L 241.253211 101.375142 
L 242.029365 76.59221 
L 242.417442 51.809278 
L 242.805519 88.983676 
L 243.193596 88.983676 
L 243.581673 126.158074 
L 244.357827 76.59221 
L 244.745904 101.375142 
L 245.133981 76.59221 
L 245.522058 101.375142 
L 245.910135 138.54954 
L 246.298212 39.417812 
L 246.686289 113.766608 
L 247.074367 76.59221 
L 247.462444 113.766608 
L 248.238598 88.983676 
L 248.626675 113.766608 
L 249.014752 76.59221 
L 249.402829 88.983676 
L 249.790906 113.766608 
L 250.178983 88.983676 
L 250.56706 51.809278 
L 251.343214 126.158074 
L 251.731291 88.983676 
L 252.119368 64.200744 
L 252.507445 88.983676 
L 252.895522 76.59221 
L 253.283599 39.417812 
L 253.671676 76.59221 
L 254.059754 138.54954 
L 254.447831 64.200744 
L 254.835908 88.983676 
L 255.223985 76.59221 
L 255.612062 76.59221 
L 256.000139 113.766608 
L 256.776293 88.983676 
L 257.16437 113.766608 
L 257.940524 64.200744 
L 258.328601 138.54954 
L 258.716678 64.200744 
L 259.104755 88.983676 
L 259.492832 150.941006 
L 259.880909 126.158074 
L 260.268986 88.983676 
L 260.657063 126.158074 
L 261.04514 88.983676 
L 261.433218 76.59221 
L 261.821295 126.158074 
L 262.209372 101.375142 
L 262.597449 101.375142 
L 262.985526 88.983676 
L 263.373603 113.766608 
L 263.76168 126.158074 
L 264.149757 126.158074 
L 264.537834 101.375142 
L 264.925911 101.375142 
L 265.313988 88.983676 
L 265.702065 101.375142 
L 266.090142 88.983676 
L 266.478219 64.200744 
L 266.866296 101.375142 
L 267.254373 126.158074 
L 268.030527 51.809278 
L 268.418605 101.375142 
L 268.806682 76.59221 
L 269.194759 88.983676 
L 269.970913 88.983676 
L 270.35899 64.200744 
L 270.747067 113.766608 
L 271.135144 113.766608 
L 271.523221 76.59221 
L 271.911298 126.158074 
L 272.299375 88.983676 
L 272.687452 76.59221 
L 273.075529 101.375142 
L 273.851683 126.158074 
L 274.627837 76.59221 
L 275.015914 101.375142 
L 275.403991 88.983676 
L 276.180146 113.766608 
L 276.568223 76.59221 
L 277.344377 76.59221 
L 277.732454 126.158074 
L 278.120531 76.59221 
L 278.508608 101.375142 
L 278.896685 101.375142 
L 279.284762 113.766608 
L 279.672839 150.941006 
L 280.060916 76.59221 
L 280.448993 113.766608 
L 280.83707 76.59221 
L 281.225147 51.809278 
L 281.613224 76.59221 
L 282.001301 126.158074 
L 282.389378 88.983676 
L 282.777455 76.59221 
L 283.165533 88.983676 
L 283.55361 138.54954 
L 283.941687 101.375142 
L 284.329764 88.983676 
L 284.717841 101.375142 
L 285.105918 126.158074 
L 285.493995 101.375142 
L 285.882072 138.54954 
L 286.270149 126.158074 
L 286.658226 101.375142 
L 287.046303 39.417812 
L 287.43438 113.766608 
L 287.822457 88.983676 
L 288.210534 88.983676 
L 288.598611 76.59221 
L 288.986688 101.375142 
L 289.374765 64.200744 
L 289.762842 88.983676 
L 290.15092 88.983676 
L 290.538997 76.59221 
L 291.315151 126.158074 
L 291.703228 101.375142 
L 292.091305 126.158074 
L 292.479382 39.417812 
L 293.255536 126.158074 
L 293.643613 113.766608 
L 294.03169 126.158074 
L 294.419767 88.983676 
L 294.807844 88.983676 
L 295.195921 113.766608 
L 295.583998 113.766608 
L 295.972075 101.375142 
L 296.360152 126.158074 
L 296.748229 39.417812 
L 297.136306 76.59221 
L 297.524384 101.375142 
L 297.912461 88.983676 
L 297.912461 88.983676 
" clip-path="url(#pf7995e3a8b)" style="fill: none; stroke: #2196f3; stroke-width: 1.5; stroke-linecap: round"/>
   </g>
   <g id="patch_3">
    <path d="M 43.644375 170.767352 
L 43.644375 7.2 
" style="fill: none"/>
   </g>
   <g id="patch_4">
    <path d="M 310.020465 170.767352 
L 310.020465 7.2 
" style="fill: none"/>
   </g>
   <g id="patch_5">
    <path d="M 43.644375 170.767352 
L 310.020465 170.767352 
" style="fill: none"/>
   </g>
   <g id="patch_6">
    <path d="M 43.644375 7.2 
L 310.020465 7.2 
" style="fill: none"/>
   </g>
  </g>
 </g>
 <defs>
  <clipPath id="pf7995e3a8b">
   <rect x="43.644375" y="7.2" width="266.37609" height="163.567352"/>
  </clipPath>
 </defs>
</svg>
