<?xml version="1.0" encoding="utf-8" standalone="no"?>
<!DOCTYPE svg PUBLIC "-//W3C//DTD SVG 1.1//EN"
  "http://www.w3.org/Graphics/SVG/1.1/DTD/svg11.dtd">
<svg xmlns:xlink="http://www.w3.org/1999/xlink" width="317.220465pt" height="208.027352pt" viewBox="0 0 317.220465 208.027352" xmlns="http://www.w3.org/2000/svg" version="1.1">
 <metadata>
  <rdf:RDF xmlns:dc="http://purl.org/dc/elements/1.1/" xmlns:cc="http://creativecommons.org/ns#" xmlns:rdf="http://www.w3.org/1999/02/22-rdf-syntax-ns#">
   <cc:Work>
    <dc:type rdf:resource="http://purl.org/dc/dcmitype/StillImage"/>
    <dc:date>2025-08-04T12:39:15.798628</dc:date>
    <dc:format>image/svg+xml</dc:format>
    <dc:creator>
     <cc:Agent>
      <dc:title>Matplotlib v3.10.3, https://matplotlib.org/</dc:title>
     </cc:Agent>
    </dc:creator>
   </cc:Work>
  </rdf:RDF>
 </metadata>
 <defs>
  <style type="text/css">*{stroke-linejoin: round; stroke-linecap: butt}</style>
 </defs>
 <g id="figure_1">
  <g id="patch_1">
   <path d="M 0 208.027352 
L 317.220465 208.027352 
L 317.220465 0 
L 0 0 
L 0 208.027352 
z
" style="fill: none"/>
  </g>
  <g id="axes_1">
   <g id="patch_2">
    <path d="M 43.644375 170.767352 
L 310.020465 170.767352 
L 310.020465 7.2 
L 43.644375 7.2 
L 43.644375 170.767352 
z
" style="fill: none"/>
   </g>
   <g id="matplotlib.axis_1">
    <g id="xtick_1">
     <g id="line2d_1">
      <path d="M 55.752379 170.767352 
L 55.752379 7.2 
" clip-path="url(#pa6d7ed1749)" style="fill: none; stroke-dasharray: 1.85,0.8; stroke-dashoffset: 0; stroke: #838383; stroke-opacity: 0.2; stroke-width: 0.5"/>
     </g>
     <g id="line2d_2"/>
     <g id="text_1">
      <!-- 0 -->
      <g style="fill: #838383" transform="translate(52.152379 183.147352) scale(0.12 -0.12)">
       <defs>
        <path id="IBMPlexSans-Regular-30" d="M 1920 -77 
Q 1120 -77 752 531 
Q 384 1139 384 2234 
Q 384 3328 752 3936 
Q 1120 4544 1920 4544 
Q 2720 4544 3088 3936 
Q 3456 3328 3456 2234 
Q 3456 1139 3088 531 
Q 2720 -77 1920 -77 
z
M 1920 390 
Q 2182 390 2368 499 
Q 2554 608 2669 806 
Q 2784 1005 2838 1273 
Q 2893 1542 2893 1869 
L 2893 2598 
Q 2893 2925 2838 3193 
Q 2784 3462 2669 3660 
Q 2554 3859 2368 3968 
Q 2182 4077 1920 4077 
Q 1658 4077 1472 3968 
Q 1286 3859 1171 3660 
Q 1056 3462 1001 3193 
Q 947 2925 947 2598 
L 947 1869 
Q 947 1542 1001 1273 
Q 1056 1005 1171 806 
Q 1286 608 1472 499 
Q 1658 390 1920 390 
z
" transform="scale(0.015625)"/>
       </defs>
       <use xlink:href="#IBMPlexSans-Regular-30"/>
      </g>
     </g>
    </g>
    <g id="xtick_2">
     <g id="line2d_3">
      <path d="M 104.281454 170.767352 
L 104.281454 7.2 
" clip-path="url(#pa6d7ed1749)" style="fill: none; stroke-dasharray: 1.85,0.8; stroke-dashoffset: 0; stroke: #838383; stroke-opacity: 0.2; stroke-width: 0.5"/>
     </g>
     <g id="line2d_4"/>
     <g id="text_2">
      <!-- 100 -->
      <g style="fill: #838383" transform="translate(93.481454 183.147352) scale(0.12 -0.12)">
       <defs>
        <path id="IBMPlexSans-Regular-31" d="M 563 0 
L 563 474 
L 1811 474 
L 1811 4070 
L 1766 4070 
L 640 3021 
L 326 3360 
L 1510 4467 
L 2349 4467 
L 2349 474 
L 3501 474 
L 3501 0 
L 563 0 
z
" transform="scale(0.015625)"/>
       </defs>
       <use xlink:href="#IBMPlexSans-Regular-31"/>
       <use xlink:href="#IBMPlexSans-Regular-30" transform="translate(59.999985 0)"/>
       <use xlink:href="#IBMPlexSans-Regular-30" transform="translate(119.999969 0)"/>
      </g>
     </g>
    </g>
    <g id="xtick_3">
     <g id="line2d_5">
      <path d="M 152.810528 170.767352 
L 152.810528 7.2 
" clip-path="url(#pa6d7ed1749)" style="fill: none; stroke-dasharray: 1.85,0.8; stroke-dashoffset: 0; stroke: #838383; stroke-opacity: 0.2; stroke-width: 0.5"/>
     </g>
     <g id="line2d_6"/>
     <g id="text_3">
      <!-- 200 -->
      <g style="fill: #838383" transform="translate(142.010528 183.147352) scale(0.12 -0.12)">
       <defs>
        <path id="IBMPlexSans-Regular-32" d="M 3411 0 
L 480 0 
L 480 550 
L 1939 1894 
Q 2253 2182 2464 2505 
Q 2675 2829 2675 3155 
L 2675 3232 
Q 2675 3603 2470 3833 
Q 2266 4064 1850 4064 
Q 1645 4064 1491 4006 
Q 1338 3949 1226 3846 
Q 1114 3744 1040 3606 
Q 966 3469 922 3309 
L 442 3494 
Q 506 3693 618 3881 
Q 730 4070 899 4217 
Q 1069 4365 1309 4454 
Q 1549 4544 1875 4544 
Q 2202 4544 2458 4448 
Q 2714 4352 2886 4179 
Q 3059 4006 3152 3769 
Q 3245 3533 3245 3245 
Q 3245 2982 3171 2758 
Q 3098 2534 2970 2332 
Q 2842 2131 2659 1939 
Q 2477 1747 2266 1555 
L 1062 474 
L 3411 474 
L 3411 0 
z
" transform="scale(0.015625)"/>
       </defs>
       <use xlink:href="#IBMPlexSans-Regular-32"/>
       <use xlink:href="#IBMPlexSans-Regular-30" transform="translate(59.999985 0)"/>
       <use xlink:href="#IBMPlexSans-Regular-30" transform="translate(119.999969 0)"/>
      </g>
     </g>
    </g>
    <g id="xtick_4">
     <g id="line2d_7">
      <path d="M 201.339602 170.767352 
L 201.339602 7.2 
" clip-path="url(#pa6d7ed1749)" style="fill: none; stroke-dasharray: 1.85,0.8; stroke-dashoffset: 0; stroke: #838383; stroke-opacity: 0.2; stroke-width: 0.5"/>
     </g>
     <g id="line2d_8"/>
     <g id="text_4">
      <!-- 300 -->
      <g style="fill: #838383" transform="translate(190.539602 183.147352) scale(0.12 -0.12)">
       <defs>
        <path id="IBMPlexSans-Regular-33" d="M 1670 2573 
Q 2125 2573 2352 2781 
Q 2579 2989 2579 3315 
L 2579 3360 
Q 2579 3712 2358 3888 
Q 2138 4064 1779 4064 
Q 1434 4064 1216 3913 
Q 998 3763 858 3507 
L 461 3814 
Q 544 3949 662 4080 
Q 781 4211 941 4313 
Q 1101 4416 1312 4480 
Q 1523 4544 1792 4544 
Q 2074 4544 2323 4470 
Q 2573 4397 2755 4253 
Q 2938 4109 3043 3897 
Q 3149 3686 3149 3418 
Q 3149 3200 3081 3027 
Q 3014 2854 2899 2726 
Q 2784 2598 2627 2508 
Q 2470 2419 2291 2374 
L 2291 2349 
Q 2470 2310 2640 2224 
Q 2810 2138 2941 2000 
Q 3072 1862 3152 1667 
Q 3232 1472 3232 1222 
Q 3232 934 3123 694 
Q 3014 454 2816 284 
Q 2618 115 2336 19 
Q 2054 -77 1715 -77 
Q 1427 -77 1203 -13 
Q 979 51 806 160 
Q 634 269 502 403 
Q 371 538 269 685 
L 672 992 
Q 755 858 854 749 
Q 954 640 1075 563 
Q 1197 486 1350 444 
Q 1504 403 1709 403 
Q 2182 403 2425 617 
Q 2669 832 2669 1229 
L 2669 1280 
Q 2669 1677 2425 1891 
Q 2182 2106 1709 2106 
L 1184 2106 
L 1184 2573 
L 1670 2573 
z
" transform="scale(0.015625)"/>
       </defs>
       <use xlink:href="#IBMPlexSans-Regular-33"/>
       <use xlink:href="#IBMPlexSans-Regular-30" transform="translate(59.999985 0)"/>
       <use xlink:href="#IBMPlexSans-Regular-30" transform="translate(119.999969 0)"/>
      </g>
     </g>
    </g>
    <g id="xtick_5">
     <g id="line2d_9">
      <path d="M 249.868677 170.767352 
L 249.868677 7.2 
" clip-path="url(#pa6d7ed1749)" style="fill: none; stroke-dasharray: 1.85,0.8; stroke-dashoffset: 0; stroke: #838383; stroke-opacity: 0.2; stroke-width: 0.5"/>
     </g>
     <g id="line2d_10"/>
     <g id="text_5">
      <!-- 400 -->
      <g style="fill: #838383" transform="translate(239.068677 183.147352) scale(0.12 -0.12)">
       <defs>
        <path id="IBMPlexSans-Regular-34" d="M 2400 0 
L 2400 877 
L 243 877 
L 243 1350 
L 2112 4467 
L 2912 4467 
L 2912 1325 
L 3558 1325 
L 3558 877 
L 2912 877 
L 2912 0 
L 2400 0 
z
M 749 1325 
L 2400 1325 
L 2400 4051 
L 2368 4051 
L 749 1325 
z
" transform="scale(0.015625)"/>
       </defs>
       <use xlink:href="#IBMPlexSans-Regular-34"/>
       <use xlink:href="#IBMPlexSans-Regular-30" transform="translate(59.999985 0)"/>
       <use xlink:href="#IBMPlexSans-Regular-30" transform="translate(119.999969 0)"/>
      </g>
     </g>
    </g>
    <g id="xtick_6">
     <g id="line2d_11">
      <path d="M 298.397751 170.767352 
L 298.397751 7.2 
" clip-path="url(#pa6d7ed1749)" style="fill: none; stroke-dasharray: 1.85,0.8; stroke-dashoffset: 0; stroke: #838383; stroke-opacity: 0.2; stroke-width: 0.5"/>
     </g>
     <g id="line2d_12"/>
     <g id="text_6">
      <!-- 500 -->
      <g style="fill: #838383" transform="translate(287.597751 183.147352) scale(0.12 -0.12)">
       <defs>
        <path id="IBMPlexSans-Regular-35" d="M 3187 3994 
L 1229 3994 
L 1101 2291 
L 1146 2291 
Q 1306 2515 1507 2649 
Q 1709 2784 2061 2784 
Q 2349 2784 2592 2688 
Q 2835 2592 3014 2416 
Q 3194 2240 3293 1984 
Q 3392 1728 3392 1402 
Q 3392 1075 3289 803 
Q 3187 531 2992 336 
Q 2797 141 2518 32 
Q 2240 -77 1888 -77 
Q 1606 -77 1392 -13 
Q 1178 51 1011 160 
Q 845 269 720 403 
Q 595 538 493 685 
L 896 992 
Q 979 858 1072 749 
Q 1165 640 1277 563 
Q 1389 486 1536 444 
Q 1683 403 1888 403 
Q 2349 403 2585 646 
Q 2822 890 2822 1331 
L 2822 1395 
Q 2822 1837 2585 2080 
Q 2349 2323 1888 2323 
Q 1581 2323 1405 2211 
Q 1229 2099 1088 1946 
L 634 2010 
L 794 4467 
L 3187 4467 
L 3187 3994 
z
" transform="scale(0.015625)"/>
       </defs>
       <use xlink:href="#IBMPlexSans-Regular-35"/>
       <use xlink:href="#IBMPlexSans-Regular-30" transform="translate(59.999985 0)"/>
       <use xlink:href="#IBMPlexSans-Regular-30" transform="translate(119.999969 0)"/>
      </g>
     </g>
    </g>
    <g id="text_7">
     <!-- draw -->
     <g style="fill: #bdbdbd" transform="translate(163.338045 198.427352) scale(0.12 -0.12)">
      <defs>
       <path id="IBMPlexSans-Regular-64" d="M 2656 538 
L 2630 538 
Q 2330 -77 1664 -77 
Q 1357 -77 1107 44 
Q 858 166 682 390 
Q 506 614 413 934 
Q 320 1254 320 1651 
Q 320 2048 413 2368 
Q 506 2688 682 2912 
Q 858 3136 1107 3257 
Q 1357 3379 1664 3379 
Q 2010 3379 2256 3228 
Q 2502 3078 2630 2765 
L 2656 2765 
L 2656 4736 
L 3168 4736 
L 3168 0 
L 2656 0 
L 2656 538 
z
M 1805 384 
Q 1978 384 2134 429 
Q 2291 474 2406 560 
Q 2522 646 2589 771 
Q 2656 896 2656 1056 
L 2656 2285 
Q 2656 2419 2589 2537 
Q 2522 2656 2406 2739 
Q 2291 2822 2134 2870 
Q 1978 2918 1805 2918 
Q 1370 2918 1120 2646 
Q 870 2374 870 1933 
L 870 1370 
Q 870 928 1120 656 
Q 1370 384 1805 384 
z
" transform="scale(0.015625)"/>
       <path id="IBMPlexSans-Regular-72" d="M 544 0 
L 544 3302 
L 1056 3302 
L 1056 2694 
L 1088 2694 
Q 1178 2931 1408 3116 
Q 1638 3302 2042 3302 
L 2240 3302 
L 2240 2790 
L 1939 2790 
Q 1523 2790 1289 2633 
Q 1056 2477 1056 2240 
L 1056 0 
L 544 0 
z
" transform="scale(0.015625)"/>
       <path id="IBMPlexSans-Regular-61" d="M 2944 0 
Q 2656 0 2531 153 
Q 2406 307 2374 538 
L 2342 538 
Q 2234 230 1984 76 
Q 1734 -77 1389 -77 
Q 864 -77 573 192 
Q 282 461 282 922 
Q 282 1389 624 1638 
Q 966 1888 1690 1888 
L 2342 1888 
L 2342 2214 
Q 2342 2566 2150 2752 
Q 1958 2938 1562 2938 
Q 1261 2938 1059 2803 
Q 858 2669 723 2445 
L 416 2733 
Q 550 3002 844 3190 
Q 1139 3379 1587 3379 
Q 2189 3379 2521 3084 
Q 2854 2790 2854 2266 
L 2854 448 
L 3232 448 
L 3232 0 
L 2944 0 
z
M 1472 358 
Q 1664 358 1824 403 
Q 1984 448 2099 531 
Q 2214 614 2278 723 
Q 2342 832 2342 960 
L 2342 1504 
L 1664 1504 
Q 1222 1504 1020 1376 
Q 819 1248 819 1005 
L 819 870 
Q 819 627 995 492 
Q 1171 358 1472 358 
z
" transform="scale(0.015625)"/>
       <path id="IBMPlexSans-Regular-77" d="M 198 3302 
L 698 3302 
L 1050 1875 
L 1402 429 
L 1414 429 
L 1818 1875 
L 2234 3302 
L 2688 3302 
L 3117 1875 
L 3526 429 
L 3539 429 
L 3878 1875 
L 4237 3302 
L 4717 3302 
L 3840 0 
L 3206 0 
L 2746 1587 
L 2458 2592 
L 2445 2592 
L 2163 1587 
L 1702 0 
L 1082 0 
L 198 3302 
z
" transform="scale(0.015625)"/>
      </defs>
      <use xlink:href="#IBMPlexSans-Regular-64"/>
      <use xlink:href="#IBMPlexSans-Regular-72" transform="translate(57.999985 0)"/>
      <use xlink:href="#IBMPlexSans-Regular-61" transform="translate(94.699982 0)"/>
      <use xlink:href="#IBMPlexSans-Regular-77" transform="translate(148.099976 0)"/>
     </g>
    </g>
   </g>
   <g id="matplotlib.axis_2">
    <g id="ytick_1">
     <g id="line2d_13">
      <path d="M 43.644375 145.198619 
L 310.020465 145.198619 
" clip-path="url(#pa6d7ed1749)" style="fill: none; stroke-dasharray: 1.85,0.8; stroke-dashoffset: 0; stroke: #838383; stroke-opacity: 0.2; stroke-width: 0.5"/>
     </g>
     <g id="line2d_14"/>
     <g id="text_8">
      <!-- 1.5 -->
      <g style="fill: #838383" transform="translate(22.48 149.638619) scale(0.12 -0.12)">
       <defs>
        <path id="IBMPlexSans-Regular-2e" d="M 870 -77 
Q 666 -77 573 25 
Q 480 128 480 294 
L 480 378 
Q 480 544 573 646 
Q 666 749 870 749 
Q 1075 749 1168 646 
Q 1261 544 1261 378 
L 1261 294 
Q 1261 128 1168 25 
Q 1075 -77 870 -77 
z
" transform="scale(0.015625)"/>
       </defs>
       <use xlink:href="#IBMPlexSans-Regular-31"/>
       <use xlink:href="#IBMPlexSans-Regular-2e" transform="translate(59.999985 0)"/>
       <use xlink:href="#IBMPlexSans-Regular-35" transform="translate(87.199982 0)"/>
      </g>
     </g>
    </g>
    <g id="ytick_2">
     <g id="line2d_15">
      <path d="M 43.644375 98.775956 
L 310.020465 98.775956 
" clip-path="url(#pa6d7ed1749)" style="fill: none; stroke-dasharray: 1.85,0.8; stroke-dashoffset: 0; stroke: #838383; stroke-opacity: 0.2; stroke-width: 0.5"/>
     </g>
     <g id="line2d_16"/>
     <g id="text_9">
      <!-- 2.0 -->
      <g style="fill: #838383" transform="translate(22.48 103.215956) scale(0.12 -0.12)">
       <use xlink:href="#IBMPlexSans-Regular-32"/>
       <use xlink:href="#IBMPlexSans-Regular-2e" transform="translate(59.999985 0)"/>
       <use xlink:href="#IBMPlexSans-Regular-30" transform="translate(87.199982 0)"/>
      </g>
     </g>
    </g>
    <g id="ytick_3">
     <g id="line2d_17">
      <path d="M 43.644375 52.353293 
L 310.020465 52.353293 
" clip-path="url(#pa6d7ed1749)" style="fill: none; stroke-dasharray: 1.85,0.8; stroke-dashoffset: 0; stroke: #838383; stroke-opacity: 0.2; stroke-width: 0.5"/>
     </g>
     <g id="line2d_18"/>
     <g id="text_10">
      <!-- 2.5 -->
      <g style="fill: #838383" transform="translate(22.48 56.793293) scale(0.12 -0.12)">
       <use xlink:href="#IBMPlexSans-Regular-32"/>
       <use xlink:href="#IBMPlexSans-Regular-2e" transform="translate(59.999985 0)"/>
       <use xlink:href="#IBMPlexSans-Regular-35" transform="translate(87.199982 0)"/>
      </g>
     </g>
    </g>
    <g id="text_11">
     <!-- train_loss -->
     <g style="fill: #bdbdbd" transform="translate(16.08 115.630238) rotate(-90) scale(0.12 -0.12)">
      <defs>
       <path id="IBMPlexSans-Regular-74" d="M 1274 0 
Q 1005 0 867 150 
Q 730 301 730 544 
L 730 2854 
L 186 2854 
L 186 3302 
L 493 3302 
Q 659 3302 720 3369 
Q 781 3437 781 3603 
L 781 4218 
L 1242 4218 
L 1242 3302 
L 1965 3302 
L 1965 2854 
L 1242 2854 
L 1242 448 
L 1914 448 
L 1914 0 
L 1274 0 
z
" transform="scale(0.015625)"/>
       <path id="IBMPlexSans-Regular-69" d="M 800 4077 
Q 634 4077 560 4157 
Q 486 4237 486 4365 
L 486 4448 
Q 486 4576 560 4656 
Q 634 4736 800 4736 
Q 966 4736 1040 4656 
Q 1114 4576 1114 4448 
L 1114 4365 
Q 1114 4237 1040 4157 
Q 966 4077 800 4077 
z
M 544 3302 
L 1056 3302 
L 1056 0 
L 544 0 
L 544 3302 
z
" transform="scale(0.015625)"/>
       <path id="IBMPlexSans-Regular-6e" d="M 544 0 
L 544 3302 
L 1056 3302 
L 1056 2765 
L 1082 2765 
Q 1203 3046 1424 3212 
Q 1645 3379 2016 3379 
Q 2528 3379 2825 3049 
Q 3123 2720 3123 2118 
L 3123 0 
L 2611 0 
L 2611 2029 
Q 2611 2918 1862 2918 
Q 1709 2918 1565 2880 
Q 1421 2842 1305 2765 
Q 1190 2688 1123 2569 
Q 1056 2451 1056 2291 
L 1056 0 
L 544 0 
z
" transform="scale(0.015625)"/>
       <path id="IBMPlexSans-Regular-5f" d="M 192 -1056 
L 192 -608 
L 3424 -608 
L 3424 -1056 
L 192 -1056 
z
" transform="scale(0.015625)"/>
       <path id="IBMPlexSans-Regular-6c" d="M 1088 0 
Q 819 0 681 150 
Q 544 301 544 531 
L 544 4736 
L 1056 4736 
L 1056 448 
L 1542 448 
L 1542 0 
L 1088 0 
z
" transform="scale(0.015625)"/>
       <path id="IBMPlexSans-Regular-6f" d="M 1792 -77 
Q 1459 -77 1184 44 
Q 909 166 713 393 
Q 518 621 409 937 
Q 301 1254 301 1651 
Q 301 2042 409 2362 
Q 518 2682 713 2909 
Q 909 3136 1184 3257 
Q 1459 3379 1792 3379 
Q 2125 3379 2397 3257 
Q 2669 3136 2867 2909 
Q 3066 2682 3174 2362 
Q 3283 2042 3283 1651 
Q 3283 1254 3174 937 
Q 3066 621 2867 393 
Q 2669 166 2397 44 
Q 2125 -77 1792 -77 
z
M 1792 378 
Q 2208 378 2470 634 
Q 2733 890 2733 1414 
L 2733 1888 
Q 2733 2413 2470 2669 
Q 2208 2925 1792 2925 
Q 1376 2925 1113 2669 
Q 851 2413 851 1888 
L 851 1414 
Q 851 890 1113 634 
Q 1376 378 1792 378 
z
" transform="scale(0.015625)"/>
       <path id="IBMPlexSans-Regular-73" d="M 1536 -77 
Q 1075 -77 764 99 
Q 454 275 230 570 
L 595 864 
Q 787 621 1024 489 
Q 1261 358 1574 358 
Q 1901 358 2083 499 
Q 2266 640 2266 896 
Q 2266 1088 2141 1225 
Q 2016 1363 1690 1414 
L 1427 1453 
Q 1197 1485 1005 1552 
Q 813 1619 669 1731 
Q 525 1843 445 2009 
Q 365 2176 365 2406 
Q 365 2650 454 2832 
Q 544 3014 701 3136 
Q 858 3258 1075 3318 
Q 1293 3379 1542 3379 
Q 1946 3379 2218 3238 
Q 2490 3098 2694 2848 
L 2355 2541 
Q 2246 2694 2035 2819 
Q 1824 2944 1504 2944 
Q 1184 2944 1021 2806 
Q 858 2669 858 2432 
Q 858 2189 1021 2080 
Q 1184 1971 1491 1920 
L 1747 1882 
Q 2298 1798 2528 1564 
Q 2758 1331 2758 954 
Q 2758 474 2432 198 
Q 2106 -77 1536 -77 
z
" transform="scale(0.015625)"/>
      </defs>
      <use xlink:href="#IBMPlexSans-Regular-74"/>
      <use xlink:href="#IBMPlexSans-Regular-72" transform="translate(35.099991 0)"/>
      <use xlink:href="#IBMPlexSans-Regular-61" transform="translate(71.799988 0)"/>
      <use xlink:href="#IBMPlexSans-Regular-69" transform="translate(125.199982 0)"/>
      <use xlink:href="#IBMPlexSans-Regular-6e" transform="translate(150.199966 0)"/>
      <use xlink:href="#IBMPlexSans-Regular-5f" transform="translate(206.999954 0)"/>
      <use xlink:href="#IBMPlexSans-Regular-6c" transform="translate(263.499939 0)"/>
      <use xlink:href="#IBMPlexSans-Regular-6f" transform="translate(290.699936 0)"/>
      <use xlink:href="#IBMPlexSans-Regular-73" transform="translate(346.699921 0)"/>
      <use xlink:href="#IBMPlexSans-Regular-73" transform="translate(395.399918 0)"/>
     </g>
    </g>
   </g>
   <g id="line2d_19">
    <path d="M 55.752379 50.902585 
L 56.23767 40.747628 
L 56.722961 48.001169 
L 57.208251 39.296919 
L 57.693542 42.198336 
L 58.178833 14.63488 
L 58.664124 56.705418 
L 59.149414 52.353293 
L 60.119996 46.55046 
L 61.090577 62.508251 
L 61.575868 78.466041 
L 62.061159 68.311084 
L 62.546449 74.113917 
L 63.03174 74.113917 
L 63.517031 82.818166 
L 64.002322 75.564625 
L 64.487612 48.001169 
L 65.943485 94.423832 
L 66.428775 68.311084 
L 66.914066 58.156126 
L 67.399357 61.057543 
L 67.884648 72.663208 
L 68.369938 99.50131 
L 68.855229 75.564625 
L 69.34052 90.071707 
L 69.825811 98.775956 
L 71.281683 78.466041 
L 71.766974 85.719582 
L 72.252264 90.071707 
L 72.737555 43.649044 
L 73.222846 79.916749 
L 73.708137 77.015333 
L 74.193427 81.367458 
L 74.678718 62.508251 
L 75.164009 90.071707 
L 76.13459 74.113917 
L 76.619881 75.564625 
L 77.105172 87.17029 
L 77.590463 82.818166 
L 78.075753 68.311084 
L 79.046335 95.87454 
L 79.531626 95.87454 
L 80.016916 103.128081 
L 80.502207 43.649044 
L 80.987498 95.87454 
L 81.472789 79.916749 
L 81.958079 92.973123 
L 82.44337 95.87454 
L 82.928661 91.522415 
L 83.413952 79.916749 
L 83.899242 90.071707 
L 84.384533 66.860375 
L 84.869824 78.466041 
L 85.355114 87.17029 
L 85.840405 66.860375 
L 86.325696 61.057543 
L 86.810987 90.071707 
L 87.296277 98.775956 
L 87.781568 95.87454 
L 88.266859 85.719582 
L 88.75215 100.952019 
L 89.23744 95.87454 
L 89.722731 88.620999 
L 90.208022 77.015333 
L 90.693313 92.973123 
L 91.178603 113.283038 
L 91.663894 116.184455 
L 92.149185 85.719582 
L 92.634476 97.325248 
L 93.119766 119.085871 
L 93.605057 104.578789 
L 94.090348 68.311084 
L 94.575639 81.367458 
L 95.060929 82.818166 
L 95.54622 39.296919 
L 96.031511 101.677373 
L 96.516802 116.184455 
L 97.002092 97.325248 
L 97.487383 74.113917 
L 97.972674 103.128081 
L 98.457965 87.17029 
L 99.428546 108.930914 
L 99.913837 75.564625 
L 100.399128 55.25471 
L 100.884418 69.761792 
L 101.369709 71.2125 
L 101.855 33.494086 
L 102.340291 85.719582 
L 102.825581 72.663208 
L 103.310872 72.663208 
L 103.796163 59.606834 
L 104.281454 95.87454 
L 104.766744 94.423832 
L 105.252035 69.761792 
L 105.737326 84.268874 
L 106.222617 107.480206 
L 106.707907 105.304143 
L 107.193198 106.029497 
L 107.678489 87.17029 
L 108.163779 77.015333 
L 108.64907 79.916749 
L 109.134361 78.466041 
L 109.619652 98.775956 
L 110.104942 85.719582 
L 110.590233 63.958959 
L 111.075524 71.2125 
L 111.560815 81.367458 
L 112.046105 103.853435 
L 112.531396 94.423832 
L 113.016687 49.451877 
L 113.501978 107.480206 
L 114.472559 55.25471 
L 114.95785 95.87454 
L 116.413722 74.113917 
L 116.899013 94.423832 
L 117.384304 97.325248 
L 118.354885 113.283038 
L 118.840176 62.508251 
L 119.325467 107.480206 
L 119.810757 87.17029 
L 120.781339 103.128081 
L 121.26663 92.973123 
L 121.75192 120.53658 
L 122.237211 121.261934 
L 122.722502 103.853435 
L 123.207793 103.128081 
L 123.693083 106.754851 
L 124.178374 81.367458 
L 124.663665 63.958959 
L 125.148956 90.071707 
L 125.634246 92.973123 
L 126.119537 74.113917 
L 126.604828 74.113917 
L 127.090119 119.085871 
L 127.575409 72.663208 
L 128.0607 75.564625 
L 128.545991 87.17029 
L 129.031281 85.719582 
L 129.516572 88.620999 
L 130.001863 120.53658 
L 130.487154 112.557684 
L 130.972444 71.2125 
L 131.457735 72.663208 
L 131.943026 103.853435 
L 132.428317 120.53658 
L 132.913607 98.775956 
L 133.398898 97.325248 
L 133.884189 82.818166 
L 134.36948 106.029497 
L 134.85477 103.853435 
L 135.340061 50.902585 
L 135.825352 97.325248 
L 136.310643 120.53658 
L 136.795933 92.973123 
L 137.281224 116.909809 
L 137.766515 92.973123 
L 138.251806 119.085871 
L 138.737096 79.916749 
L 139.222387 82.818166 
L 139.707678 100.952019 
L 140.192969 106.754851 
L 140.678259 85.719582 
L 141.648841 127.064766 
L 142.134132 85.719582 
L 142.619422 90.071707 
L 143.104713 97.325248 
L 143.590004 46.55046 
L 144.075295 59.606834 
L 144.560585 99.50131 
L 145.045876 119.085871 
L 145.531167 72.663208 
L 146.016458 111.106976 
L 146.501748 103.853435 
L 146.987039 85.719582 
L 147.47233 90.071707 
L 147.957621 32.043378 
L 148.442911 112.557684 
L 148.928202 94.423832 
L 149.413493 106.754851 
L 149.898784 91.522415 
L 150.384074 108.930914 
L 150.869365 104.578789 
L 151.354656 111.83233 
L 151.839946 75.564625 
L 152.325237 106.754851 
L 152.810528 108.930914 
L 153.295819 120.53658 
L 153.781109 40.747628 
L 154.751691 94.423832 
L 155.236982 100.226664 
L 155.722272 90.071707 
L 156.207563 114.008393 
L 156.692854 90.071707 
L 157.178145 87.17029 
L 157.663435 92.973123 
L 158.148726 94.423832 
L 158.634017 103.128081 
L 159.119308 81.367458 
L 159.604598 49.451877 
L 160.089889 123.437996 
L 160.57518 100.952019 
L 161.060471 100.952019 
L 161.545761 101.677373 
L 162.031052 92.973123 
L 162.516343 75.564625 
L 163.001634 99.50131 
L 163.486924 82.818166 
L 163.972215 78.466041 
L 164.457506 117.635163 
L 164.942797 116.909809 
L 165.428087 107.480206 
L 165.913378 62.508251 
L 166.398669 98.775956 
L 166.88396 99.50131 
L 167.36925 108.930914 
L 167.854541 90.071707 
L 168.339832 101.677373 
L 169.310413 98.775956 
L 169.795704 63.958959 
L 170.280995 94.423832 
L 170.766286 90.071707 
L 171.251576 78.466041 
L 171.736867 98.775956 
L 172.222158 106.754851 
L 173.192739 75.564625 
L 173.67803 84.268874 
L 174.163321 78.466041 
L 174.648611 62.508251 
L 175.133902 85.719582 
L 175.619193 103.128081 
L 176.104484 114.008393 
L 176.589774 90.071707 
L 177.075065 100.226664 
L 177.560356 125.614058 
L 178.045647 85.719582 
L 178.530937 111.83233 
L 179.016228 92.973123 
L 179.501519 59.606834 
L 179.98681 91.522415 
L 180.4721 108.930914 
L 180.957391 105.304143 
L 181.442682 118.360517 
L 181.927973 103.128081 
L 182.413263 111.83233 
L 182.898554 108.930914 
L 183.383845 109.656268 
L 183.869136 113.283038 
L 184.354426 78.466041 
L 184.839717 107.480206 
L 185.325008 82.818166 
L 185.810299 75.564625 
L 186.295589 103.128081 
L 186.78088 75.564625 
L 187.266171 108.20556 
L 187.751462 106.029497 
L 188.236752 125.614058 
L 188.722043 102.402727 
L 189.207334 119.085871 
L 189.692625 104.578789 
L 190.177915 82.818166 
L 190.663206 107.480206 
L 191.148497 87.17029 
L 191.633788 98.775956 
L 192.119078 78.466041 
L 192.604369 90.071707 
L 193.574951 108.20556 
L 194.060241 103.128081 
L 194.545532 100.952019 
L 195.030823 101.677373 
L 195.516113 82.818166 
L 196.001404 109.656268 
L 196.486695 101.677373 
L 196.971986 85.719582 
L 197.457276 107.480206 
L 197.942567 115.459101 
L 198.427858 110.381622 
L 198.913149 61.057543 
L 199.398439 129.966183 
L 199.88373 120.53658 
L 200.369021 99.50131 
L 200.854312 104.578789 
L 201.339602 72.663208 
L 201.824893 84.268874 
L 202.310184 56.705418 
L 202.795475 88.620999 
L 203.280765 107.480206 
L 203.766056 71.2125 
L 204.251347 52.353293 
L 204.736638 78.466041 
L 205.221928 79.916749 
L 205.707219 110.381622 
L 206.19251 95.87454 
L 206.677801 114.733747 
L 207.163091 137.945078 
L 207.648382 135.043662 
L 208.133673 79.916749 
L 208.618964 106.754851 
L 209.104254 85.719582 
L 209.589545 117.635163 
L 210.074836 108.930914 
L 210.560127 119.811225 
L 211.045417 120.53658 
L 211.530708 109.656268 
L 212.015999 106.029497 
L 212.50129 50.902585 
L 212.98658 92.973123 
L 213.471871 113.283038 
L 213.957162 112.557684 
L 214.442453 107.480206 
L 214.927743 113.283038 
L 215.413034 108.20556 
L 215.898325 79.916749 
L 216.383616 114.733747 
L 216.868906 88.620999 
L 217.354197 87.17029 
L 217.839488 121.987288 
L 218.324778 135.043662 
L 218.810069 88.620999 
L 219.29536 111.106976 
L 219.780651 95.87454 
L 220.265941 106.754851 
L 220.751232 91.522415 
L 221.236523 109.656268 
L 221.721814 139.395786 
L 222.207104 128.515475 
L 222.692395 129.240829 
L 223.662977 71.2125 
L 224.148267 113.283038 
L 224.633558 106.754851 
L 225.118849 104.578789 
L 225.60414 112.557684 
L 226.08943 90.071707 
L 226.574721 87.17029 
L 227.060012 109.656268 
L 227.545303 104.578789 
L 228.030593 62.508251 
L 228.515884 113.283038 
L 229.001175 114.733747 
L 229.486466 123.437996 
L 229.971756 94.423832 
L 230.457047 116.909809 
L 230.942338 116.184455 
L 231.427629 100.952019 
L 231.912919 97.325248 
L 232.39821 119.811225 
L 232.883501 125.614058 
L 233.368792 118.360517 
L 233.854082 118.360517 
L 234.339373 127.790121 
L 234.824664 126.339412 
L 235.309955 126.339412 
L 235.795245 87.17029 
L 236.280536 95.87454 
L 236.765827 88.620999 
L 237.251118 129.240829 
L 237.736408 135.043662 
L 238.221699 145.198619 
L 238.70699 118.360517 
L 239.192281 114.008393 
L 239.677571 163.332472 
L 240.162862 112.557684 
L 240.648153 129.966183 
L 241.133443 103.853435 
L 241.618734 87.17029 
L 242.104025 106.029497 
L 242.589316 69.761792 
L 243.074606 106.029497 
L 243.559897 108.930914 
L 244.045188 145.923973 
L 244.530479 91.522415 
L 245.015769 100.952019 
L 245.50106 116.184455 
L 245.986351 114.008393 
L 246.956932 108.20556 
L 247.442223 109.656268 
L 247.927514 113.283038 
L 248.412805 135.043662 
L 248.898095 135.769016 
L 249.383386 108.930914 
L 249.868677 116.184455 
L 250.353968 87.17029 
L 250.839258 99.50131 
L 251.324549 98.775956 
L 251.80984 111.83233 
L 252.295131 87.17029 
L 252.780421 118.360517 
L 253.265712 121.987288 
L 253.751003 81.367458 
L 254.236294 116.184455 
L 254.721584 85.719582 
L 255.206875 121.261934 
L 255.692166 116.184455 
L 256.177457 124.16335 
L 256.662747 108.930914 
L 257.148038 154.628223 
L 257.633329 105.304143 
L 258.11862 100.952019 
L 258.60391 94.423832 
L 259.089201 119.085871 
L 259.574492 90.071707 
L 260.545073 146.649327 
L 261.030364 113.283038 
L 261.515655 139.395786 
L 262.000945 121.261934 
L 262.486236 119.811225 
L 262.971527 124.16335 
L 263.456818 82.818166 
L 263.942108 123.437996 
L 264.427399 117.635163 
L 264.91269 102.402727 
L 265.397981 95.87454 
L 265.883271 91.522415 
L 266.368562 117.635163 
L 266.853853 87.17029 
L 267.339144 106.754851 
L 268.309725 129.966183 
L 268.795016 132.142245 
L 269.280307 106.029497 
L 269.765597 121.261934 
L 270.250888 108.930914 
L 270.736179 143.022557 
L 271.22147 135.769016 
L 271.70676 119.085871 
L 272.192051 95.87454 
L 272.677342 116.184455 
L 273.162633 97.325248 
L 273.647923 127.064766 
L 274.133214 74.113917 
L 274.618505 113.283038 
L 275.103796 115.459101 
L 275.589086 134.318308 
L 276.074377 106.029497 
L 277.044959 125.614058 
L 277.530249 121.987288 
L 278.01554 105.304143 
L 278.500831 109.656268 
L 278.986122 132.867599 
L 279.471412 106.754851 
L 279.956703 98.775956 
L 280.441994 133.592953 
L 280.927285 132.867599 
L 281.412575 99.50131 
L 281.897866 143.022557 
L 282.383157 94.423832 
L 282.868448 81.367458 
L 283.353738 113.283038 
L 283.839029 126.339412 
L 284.32432 147.374682 
L 285.294901 88.620999 
L 285.780192 129.966183 
L 286.265483 125.614058 
L 286.750773 129.240829 
L 287.236064 95.87454 
L 287.721355 137.945078 
L 288.206646 137.219724 
L 288.691936 115.459101 
L 289.177227 119.085871 
L 289.662518 90.071707 
L 290.147809 147.374682 
L 290.633099 79.916749 
L 291.11839 119.811225 
L 291.603681 104.578789 
L 292.088972 108.930914 
L 292.574262 118.360517 
L 293.059553 85.719582 
L 293.544844 143.022557 
L 294.030135 158.254993 
L 295.000716 78.466041 
L 295.486007 127.064766 
L 295.971298 136.49437 
L 296.456588 108.20556 
L 296.941879 122.712642 
L 297.42717 113.283038 
L 297.912461 126.339412 
L 297.912461 126.339412 
" clip-path="url(#pa6d7ed1749)" style="fill: none; stroke: #2196f3; stroke-width: 1.5; stroke-linecap: round"/>
   </g>
   <g id="patch_3">
    <path d="M 43.644375 170.767352 
L 43.644375 7.2 
" style="fill: none"/>
   </g>
   <g id="patch_4">
    <path d="M 310.020465 170.767352 
L 310.020465 7.2 
" style="fill: none"/>
   </g>
   <g id="patch_5">
    <path d="M 43.644375 170.767352 
L 310.020465 170.767352 
" style="fill: none"/>
   </g>
   <g id="patch_6">
    <path d="M 43.644375 7.2 
L 310.020465 7.2 
" style="fill: none"/>
   </g>
  </g>
 </g>
 <defs>
  <clipPath id="pa6d7ed1749">
   <rect x="43.644375" y="7.2" width="266.37609" height="163.567352"/>
  </clipPath>
 </defs>
</svg>
